<svg enable-background="new 0 0 6489.9 3712" viewBox="0 0 6489.9 3712" xmlns="http://www.w3.org/2000/svg"><path d="m0 0h6489.9v3712h-6489.9z" fill="#002776"/><path d="m4847.3 2749.2c3.4-6.5 6.7-13.1 10-19.7l969.8 571.5c-1.3-31.4-3.8-62.7-7.1-94-7.9-66.1-16.7-137.9-46.3-198.3-33.5-69.6-52.7-147.2-70.7-222.1-7.4-32.3-14.2-64.8-20-97.4-9.1-55.4-22.6-120-7.7-175.7.5-1.6.6-3.3.9-4.9 4.3-19.6 3.2-40-.3-59.6-6.8-39.7-20.1-78.1-32.7-116.3-12.9-39.2-25-78.3-33.2-118.8-4.3-26.6-7.2-52.9-4.1-79.9 3.9-36.7 2.9-72.7-2-108.1l-607.4-30.7c-.3-3.7-.5-7.5-.8-11.2s-.6-7.5-1-11.2l605.6 31c-15-81.5-49.9-158.9-92.7-230.9-5-8.2-8.8-16.7-11.9-25.5-11.2-32.4-9.2-65.9-4.3-99.2 0-.2.1-.3.1-.5 13.6-67 42.4-128.7 63.2-193.5 5.1-17.4 9.2-33.8 11.9-51.6 2.7-24.9 1-50.1-.5-74.9-4.5-62.9-13.4-125.5-21.2-188.1-5.6-46.2-11.3-92.5-12.3-139.1-.3-14.5 0-27.7 1.2-38.7 1.6-14.5 2.5-29.2 3.2-43.8 1.5-30.5 2.2-61 2.6-91.6l-797.8 414c-4.2-6.6-8.4-13.2-12.7-19.7l810.8-420c.1-16.7.2-33.3.3-50 0-62.7-.4-125.4-1.5-188.1-56.8-11.6-114.3-28.5-166.1-54.7-14.3-7.2-30.3-9.8-45.9-12.6-28.9-4.3-58.4-4.9-87.6-5.7-21.3-.4-42.6-.6-64-1-13.8-.2-27.7-.6-41.5-1.2-36.6-1.9-77-3.1-110.4-19.9-11.9-6.8-28.8-10.9-42.6-10-26 .7-50.9 13.3-74.9 22.2-35.4 12.7-66.1 10.7-100.8-2.9-32-14.6-66.7-20-101.6-22.9-36.8-1.5-72.5.9-108.9 6.5-77.8 13.7-153.9 37.3-229.9 58.7-45.9 11.5-88.2 9.1-128.7-1.1l-81.9 144.4c-6.8-4.2-13.6-8.3-20.4-12.4l78.8-138.7c-67.4-22-130.5-62.9-197.7-93.5-57.4-25.1-123.5-26.2-185.2-26.4-55.6.6-111 3.8-166.4 7.5-57.4 3.9-115 9.3-172.6 8.2-56-1.9-111.4-8-165.6-22.2-36.2-9.9-71.3-22.1-105.2-38.2-33.1-15.2-72-18.1-107.8-21.3-143.8-8.2-287.2 6-429.1 29.7-64 8.5-127.8 10.2-192.2 6.8-6.1-.4-12.2-.9-18.2-1.4l104.3 165c-6.9 3.1-13.9 6.3-20.7 9.5l-112-177.2c-58-6.4-115.3-17-171.9-32.1-160.3-29.4-321.6-53.7-482.5-79.5-258.3-46-520.2-62.6-781.9-77.6-38.5-2.4-76.9-4.7-115.4-6.9 8.6 58.4 16.6 116.8 24 175.4 3.2 25.3 6.2 50.6 9.2 75.9l1053.6 620.3c-4.1 6.4-8.2 12.8-12.2 19.2l-1037.9-611.3c.8 7.2 1.7 14.4 2.5 21.7 9.5 85.7 17.9 171.5 25.4 257.4 5.7 67.3 10.8 134.6 15.4 202 5.4 81 9.9 162 13.7 243.1 2.4 53.5 4.6 107.1 6.4 160.7 3.3 100 5.5 200.1 6.7 300.2.2 21.9.4 43.9.6 65.8.1 25.4.2 50.9.3 76.3l758.4 38.8c0 4 .1 8 .1 12 .1 4 .2 8 .3 12l-758.8-38.4c0 25.3-.1 50.7-.2 76-.3 45.7-.8 91.5-1.4 137.2-1.4 90-3.6 180-6.6 269.9-3.2 95.3-7.3 190.6-12.2 285.9-3.4 64.3-7.2 128.6-11.3 192.9-5.3 81-11.3 162-17.9 242.9-4.5 54-9.2 108.1-14.3 162-.9 9.1-1.8 18.2-2.6 27.3l1068-553.2c4.5 7.3 9 14.6 13.5 21.8l-1084.7 562.8c-5.9 59.8-12.3 119.6-19 179.4 61.2-17.2 133.1-10.2 195.6-9.2 144.2 4.7 288.4 9.6 432.7 8.1 49.1-1.4 105.9.4 152.3-18.6 46.6-18 93.6-25.7 143.2-29.3 61.3-3 122.7-1.4 184.1-5.1 17.1-1.4 33.9-3.3 50.8-5.8 26.5-3.7 52.5.7 78.4 5.7 57.7 12.8 113.4 33.8 169.1 53.3 58.2 20.2 116.7 40.9 177.3 52.8 14.3 2.8 29.3 5.4 44.6 7l109.8-193.2c7.5 4.4 15.1 8.7 22.7 12.9l-103.1 181.9c23.9-.1 47.4-3.9 68.4-14.8 12.9-6.8 27.8-12 41.9-15.5 68.4-18.7 142.5-9 211 2.9 85.7 16.4 168.6 43.2 253.8 61.4 44.8 9.7 89.6 23.8 135.3 29.1 48.3 5.6 95.9-3.4 143-13.9 41.9-9.4 85.2-.5 126.1 9 73.8 19 145.3 45.2 219.8 61.7 61.2 11.8 129.3 18.7 185.3-15.4 11.9-7.4 26.1-13.3 39.5-17.2 36.1-11 73.7-12.9 111.2-13.2 92.5 1.3 184.1 14.9 276.4 19.8 27.6 1 55.1 1.5 82.6-.5l-153.6-242.6c6.7-3.8 13.3-7.7 19.9-11.6l159.4 251.7c23.4-3 47.4-8.8 67.6-20.8 132.5-69.7 304.5-40 439.2 6.1 9.3 1.9 18.7 3.5 28 5.1 66.4 10.9 133 16.1 200.4 15.7 103.6-2.3 213.7-12.9 308.6-58.4 86.2-40.7 189.9-50.8 284.1-44.2 12.4-34.1 11.2-73.6 11.5-109.3 0-5.6-.1-11.1-.2-16.7z" fill="#002776"/><path d="m4995.6 1983.9c.3 3.7.6 7.5.8 11.2l607.4 30.7c-1-7.4-2.2-14.8-3.6-22.2l-605.6-31c.4 3.8.7 7.5 1 11.3z" fill="#fff"/><path d="m1758.4 1819.2c-.1-4-.1-8-.1-12l-758.4-38.8v24.4l758.8 38.4c-.1-4-.2-8-.3-12z" fill="#fff"/><path d="m1979 1033.3-1053.4-620.8c1.1 9.6 2.2 19.1 3.3 28.7l1037.8 611.3c4.1-6.5 8.1-12.9 12.3-19.2z" fill="#fff"/><path d="m4154.1 662.2 81.9-144.4c-7.9-2-15.7-4.3-23.4-6.8l-78.8 138.7c6.8 4.2 13.6 8.3 20.3 12.5z" fill="#fff"/><path d="m4847.3 2749.2 980.5 577.6c-.1-8.6-.4-17.2-.8-25.7l-969.8-571.5c-3.2 6.5-6.5 13-9.9 19.6z" fill="#fff"/><path d="m2649 3263.4-109.8 193.2c9.7 1 19.5 1.6 29.3 1.6l103.1-181.9c-7.5-4.3-15-8.6-22.6-12.9z" fill="#fff"/><path d="m4741.9 1240.2 797.8-414c.1-8.5.2-17.1.3-25.6l-810.8 420c4.3 6.4 8.5 13 12.7 19.6z" fill="#fff"/><path d="m4309.4 3309 153.6 242.6c4.8-.3 9.6-.7 14.4-1.2 3.7-.4 7.5-.8 11.3-1.3l-159.4-251.7c-6.6 3.9-13.2 7.8-19.9 11.6z" fill="#fff"/><path d="m2576.8 525.1-104.3-165c-9.5-.8-19-1.7-28.5-2.8l112 177.2c7-3.1 13.9-6.3 20.8-9.4z" fill="#fff"/><path d="m2001.2 2633.6-1068 553.2c-1 10.3-2 20.5-3 30.8 0 .2 0 .4-.1.6l1084.6-562.8c-4.5-7.2-9-14.5-13.5-21.8z" fill="#fff"/><path d="m2322.6 1519.3-1.4-.8 7-16.4c.1-.3.2-.5.3-.8l-18.9 3-4.4-35.6 34.1 2c2.5-6.7 5.1-13.4 7.7-20l-40.8-65-22.2 5.9-15.2-24.8-7.3 20.3-22.8-15.9 22.1-12.1-33.9-12.5 7.4-17.2-27.3-15.2-8.2-55.4-27.1-9 15.5-9.3-32.2-74.3.3-2.9-166.2-97.9c-31 49.6-58.7 101.2-82.9 154.4-82.7 182-123.9 380.1-121.8 588.6l493.8 25.3c-2-109.2 13-214.5 44.4-314.4zm-163.1-298 .1 4.1-6.2 15.3-4.4 10.9-12-31.8zm-.1-6.2-22.8-15.9 11-9.6zm95.1 202.7-38.4-51.1 42.2 26.4-2.3 14.8z" fill="#002776"/><circle cx="2254.5" cy="1417.8" fill="#002776" r="0"/><path d="m3034.9 2910.6c-41.7-18-82.3-38.1-121.7-60.3l-229.4 404.7c58.2 32.7 118.1 62.2 179.1 88 206.2 87.6 421.6 134.3 639.8 139.3l-23.7-470.5c-151.7-5.5-301.2-39.5-444.1-101.2z" fill="#002776"/><path d="m2460.5 2424.1-423.4 219.7c18.7 29.6 38.4 58.8 58.9 87.4 63.6 88.3 136.2 171.8 215.7 248s166.5 145.7 258.5 206.5c29.7 19.6 60.1 38.4 90.9 56.3l229.8-404.5c-86.6-51-167-112-240.3-182.4s-136.9-147.8-190.1-231z" fill="#002776"/><path d="m4027.2 2962.1-43.7-15-77.6 11.7-15.6-7.9c-121.3 43-251.1 63.8-386.6 61.6l23.9 470.3c215.7 1.8 420.5-37.4 608.8-116 55-23 108.5-49.3 159.8-78.8l-222.8-352.5z" fill="#002776"/><path d="m4067.2 1143.8 6.2.4.2-.1c-1.2-1-2.4-2-3.6-2.9z" fill="#002776"/><path d="m2384.2 2285.5c-64.4-137.7-99.9-281.7-105.5-428l-494.1-25c5.4 210.6 54.6 418.5 146.6 617.2 27.2 58.7 58.1 116.3 92.3 172.3l423.6-219.4c-23.1-37.9-44.1-76.9-62.9-117.1z" fill="#002776"/><path d="m2635.3 2141.2-22.8-8.1-10.3 23.7-36.8 5.8 21.5-27.7 24.9-2-10.5-3.8-12.4-36.6 55.8-3.8-25.8-1.2 1.5-52.8-81 20.5-4.1-21.4-10 38.7-44.5 14.9-31.3-29.1-12.2-29.2-13-56.8 25.4-16.8 11.7 14.3 7.3-16.6-15.7-87.1-149-7.5c5.6 143 40.3 283.8 103.3 418.3 18.3 39.2 38.8 77.3 61.4 114.3l191.2-99-39.7-66.8z" fill="#002776"/><path d="m3446.7 2545-146.9-37.2-10.2 16.6-51.4 2.3-14.3-.5-20.4 34.4-64.8-44.9-32.7 9.4 5.7 29-23.2-12.7-163.5 288.2c38.5 21.6 78.1 41.3 118.7 58.9 139.6 60.3 285.7 93.6 434 99.1l-22.1-438.1z" fill="#002776"/><path d="m3027.9 2508.3-2.2 27.7-82.6-38.3-4.3 3-39.5 13.5-9-29.2-99-49.7-105.5-36.2-21.4-80.8-182.2 94.6c52 81.3 114.1 156.9 185.8 225.7 71.6 68.8 150.2 128.4 234.7 178.3l163.4-287.6z" fill="#002776"/><path d="m3535.7 892.6-5-2.3z" fill="#002776"/><path d="m4723.3 1249.8-271.2 140.8 81.2 174.2-35.2 30.5-.2 39.6-24.9 31.4c.9 2.6 1.9 5.2 2.8 7.8l29.5 20.8-12.5 9.2 32.7 31.7 47.3 9.6 15.7 20.8 15.1 26.7 34.6 15.8 38.5-24.7 27.6 4.5-29.9 45.1 40 88.9-38.1 31 1.1 2.8 294.7 15.1c-17.2-195.1-71.4-385.2-160.9-565.8-26.3-53-55.7-105.1-87.9-155.8z" fill="#002776"/><path d="m3394.6 844.4c93.2 7.9 184.9 26.4 274 55.2l12.7-6.1 1.8 10.9c43.8 14.8 87.1 32 129.6 51.7 38.8 18 76.6 37.9 113.2 59.5l197.7-348c-52.6-31.5-106.6-60.4-161.8-86.3-187.8-88.3-386-142.5-589.9-160.9l21.3 418.3z" fill="#002776"/><path d="m2947.4 1445.2 5.9-40.5 17.7 8.2-3.8-13.5 10.6-6.5 50.3-14.2-2-46.9 16.6-16.2 1.9-8.1-214.5-339.4c-78.2 38.4-150.3 86.8-215.3 144.6-65.3 58.2-121.3 124-167.2 196.7l286.4 168.8z" fill="#002776"/><path d="m3771.4 965.8 54.4 46.1 62.3 8.4 6.2 1.4c-29.1-16.4-59-31.7-89.5-45.9-14.3-6.6-28.6-12.9-43-19l1.9 1.5z" fill="#002776"/><path d="m2950.6 893.6c132.7-43.4 273.7-60.4 419.2-51l-1-19.1-1.5-5.4 1.2.1-20.1-399.7c-205.8-15.9-405.8 5.7-594.6 64.7-56 17.5-110.9 38.4-164.2 62.3l248.1 392.4c36.5-16.9 74.1-31.7 112.9-44.3z" fill="#002776"/><path d="m3060.8 1238.8-12.1-31.1 45.6-110.7-.8-17.1-2.4-53.3 24.7 1.7 27.1-38.1 34.8-7.5 2.6-36.7 46.4-52.3 21.7 11.5 97.9-26.5 10.1-9.1 5.8-5.2c-139.3-7.9-274.1 9-401.2 50.7-37.9 12.4-74.7 26.9-110.2 43.3l201.2 318.3z" fill="#002776"/><path d="m4551.5 2581.3 50.5 26.6-72.1 3.6 20.4 39-32.9 33-54.5 8.5-15.6 30.7 43.2 22.2-74.4 70.6 26.8 39.5-63.9-15.6-67.7 39.9-92.2 42.6-19.2 31.1-14.5-11 11.8-31.3-62.2 22.5-15.4-24.8-26.5 15.3 222.8 352.4c26.9-16 53.3-32.9 78.9-50.6 78.9-54.5 151.8-117.1 216.8-186 64.6-68.5 122-143.8 170.5-223.8 15.6-25.8 30.4-52.1 44.3-79l-273-160.8z" fill="#002776"/><path d="m3763.7 958.4-3.1-.2.2 3.9 7.3.6z" fill="#002776"/><path d="m3746.2 2937.2-78.5-49.2 1 18.2-19.8-25.1 20.6-20.7-6.7-64.1 24.9.8 12.8-42.1 16.9-6.9-15.2-21.7 21.2-6.7-5-31.9-22.2-11.3 27.9-2.2-21.5-77.8-45.5-43.8-25.4 9.6 12.7 35.3-89.9-3.2-73.7-32.8 21.7 426.7c124.9 2 244.8-15.8 357.5-53l-28.4-16.9z" fill="#002776"/><path d="m3511.2 904.6 16.9-15.5 2.5 1.2 4.9 2.3 95.2 26.7 3-2.7 6.6-3.2c-78.4-23.6-158.7-39.1-240.2-46.3l1.4 5.8z" fill="#002776"/><path d="m4697.6 2007.8-6.6 46.9 22.4 28.2 54.6 12.7-48.3 71.2 11.2 13.6 14.3 14.8-20.7 35.5 24.5 15.3-112.4 92.6 32.8 69.7-4.1 40.7-40.2 11.7-7.7 34.6-46 18.8-10.5 40.8 275.5 162.3c25.1-50.6 47.1-102.8 65.6-156.2 62.4-179.8 86.4-370.5 71.9-567.1l-287.5-14.6z" fill="#002776"/><path d="m2701.1 1485-69.6-41 44.3 50.7z" fill="#002776"/><path d="m2477.8 1353.5-25.2-14.9 4.8 4.7z" fill="#002776"/><path d="m2166.9 1071.5 22.4 1.5-5.6 43.8 51.5 67.5 136.3 80.3 5.5-8.7 22.8 25.4 25.8 15.2c47-74.4 104.3-141.7 171.2-201.1 66.5-59.1 140.2-108.5 220.3-147.7l-248.1-392.8c-28.2 13.2-55.9 27.4-83.1 42.3-84.2 46.5-163.4 101.5-235.6 163.8-72.6 62.6-138.5 132.9-195.9 209.1-18.6 24.7-36.4 50.2-53.3 76.2l156.9 92.5zm46 50.3-22.5-4.6-3.8-17.7 25.6-4.4zm-31.2-80.1 22-12.8-14.8 29.7-7.1-13.8z" fill="#002776"/><path d="m2283.2 1243.7 17.5 5.4-25.1-14.7z" fill="#002776"/><path d="m2372.1 1456.9c-2.1 5.1-4.1 10.2-6 15.4l9.7.6z" fill="#002776"/><path d="m2445.8 1825.8 30.5 7.9 10.4-131.5 4.3-3.9 28.5-15.2-36.8 1.1-15.5-32.2 64.7-66.2-60.5-13.8-43.4 39.2-19.4-49-25.8 32.9-7.4-24.4-33.3 8.5-10.8 4.5c-19.9 80.8-29.2 164.9-27.7 251.4l145.4 7.4z" fill="#002776"/><path d="m3979.1 1046.4 21.4 14.3 14.6-28.3 20.5 1.5 16.7 66.8c5.9 4.5 11.8 9 17.6 13.6l1.5.4v.8c8.1 6.4 16 12.9 23.9 19.4l17.8-7.5 37.1-10.2 107.5 42.6 20-4.5 9.5 35.8 27.8 5.8-8.3-17.2 23.4 1.6 9.6 36.8 25.4-27.6 66.6 43.6 22.3 72.9-26.9 5.1 11 55.6 1.7 2.6 270.7-140.2c-17.5-26.8-35.8-53.2-54.8-79-58.7-79.9-125-155.9-196.9-225.7-72-69.9-150.4-134.4-233.1-191.7-26.8-18.6-54.1-36.4-81.8-53.6l-194.4 342.9 23.5-6.3z" fill="#002776"/><g fill="#fff"><path d="m3640.4 913.3 28.2-13.7c-89.2-28.8-180.8-47.3-274-55.2l5.6 22.6c81.6 7.3 161.8 22.8 240.2 46.3z"/><path d="m2372.1 1456.9-.2-.9-22.4-1.3-2.5-4c-2.7 6.6-5.2 13.3-7.7 20l26.8 1.6c1.9-5.2 3.9-10.3 6-15.4z"/><path d="m2328.4 1501.3c-.1.3-.2.5-.3.8z"/><path d="m4475.7 1674.2c-.9-2.6-1.9-5.2-2.8-7.8l-3 3.8z"/><path d="m2960.9 915c127.1-41.6 261.9-58.5 401.2-50.7l8.4-7.7-.7-14c-145.5-9.4-286.5 7.6-419.2 51-38.8 12.7-76.5 27.5-112.9 44.3l12.9 20.4c35.6-16.4 72.4-30.9 110.3-43.3z"/><path d="m2425.7 1296.5 22 12.9c45.9-72.7 101.9-138.5 167.2-196.7 65-57.8 137-106.2 215.3-144.6l-12.9-20.5c-80.1 39.2-153.8 88.6-220.3 147.7-67 59.5-124.3 126.8-171.3 201.2z"/><path d="m4069.9 1141.2c1.2 1 2.4 2 3.6 2.9l21.8-9.2c-7.9-6.6-15.9-13-23.9-19.4l-1.3 25.6z"/><path d="m2668 2638.5c-71.6-68.8-133.8-144.4-185.8-225.7l-21.7 11.3c53.2 83.2 116.8 160.6 190.1 231s153.8 131.4 240.3 182.4l11.8-20.7c-84.5-49.9-163.1-109.5-234.7-178.3z"/><path d="m2331.2 1583.6-11.4 4.7 16.2-61.7-13.4-7.4c-31.3 99.9-46.3 205.2-44.5 314.4l25.4 1.3c-1.5-86.4 7.8-170.5 27.7-251.3z"/><path d="m3043.7 2888.5c-40.7-17.6-80.3-37.2-118.7-58.9l-11.8 20.7c39.4 22.2 80 42.3 121.7 60.3 142.9 61.7 292.4 95.6 444.1 101.2l-1.2-24.2c-148.3-5.5-294.4-38.8-434.1-99.1z"/><path d="m2407.4 2277.1c-63-134.5-97.7-275.3-103.3-418.3l-25.4-1.3c5.7 146.3 41.1 290.4 105.5 428 18.8 40.1 39.8 79.2 62.9 117.1l21.7-11.2c-22.5-37-43.1-75.1-61.4-114.3z"/><path d="m3728 930.3 33.8 26.6c14.4 6 28.8 12.4 43 19 30.5 14.1 60.4 29.5 89.5 45.9l24.9 5.6 6.6-11.7c-36.6-21.6-74.4-41.5-113.2-59.5-42.5-19.7-85.8-37-129.6-51.7l3 18.9z"/><path d="m3861.6 2936.2-1.7-1c-112.7 37.2-232.6 55.1-357.5 53l1.2 24.2c135.5 2.2 265.4-18.6 386.6-61.6l-6.5-3.3zm0 0 22.2 11.3z"/><path d="m4069.9 1114.3c-5.8-4.6-11.7-9.1-17.6-13.6l2.5 9.9z"/><path d="m3496.1 414.5c-41.5-6.8-83.2-12.1-125.2-15.9l.3 5.4z"/><path d="m3370.3 3498.9c44.4 4.4 89 7.1 133.6 8.1l-.3-6.1z"/><path d="m3347.4 396.6c-42.1-3.3-84-5-125.5-5.2l125.8 10.6z"/><path d="m3528.8 3507.4c44.5.4 88.5-1 132.1-4.1l-132.4-2z"/><path d="m4225.9 733.6c82.7 57.3 161.1 121.8 233.1 191.7s138.2 145.8 196.9 225.7c19 25.9 37.3 52.3 54.8 79l18.6-9.6c-17.8-27.2-36.4-54.1-55.7-80.4-59.6-81.1-126.8-158.1-199.8-229s-152.5-136.3-236.4-194.5c-27.2-18.9-55-37-83.2-54.5l-10.2 18c27.8 17.2 55.1 35 81.9 53.6z"/><path d="m4811.2 1405.7c89.6 180.6 143.7 370.7 160.9 565.8l22.5 1.1c-17.5-198-72.6-390.9-163.5-574.2-26.7-53.9-56.6-106.8-89.3-158.3l-18.5 9.6c32.2 50.8 61.6 102.9 87.9 156z"/><path d="m2054.4 970.1c57.4-76.2 123.3-146.5 195.9-209.1 72.1-62.2 151.4-117.3 235.6-163.8 27.1-15 54.8-29.1 83.1-42.3l-12.9-20.3c-28.7 13.4-56.9 27.8-84.5 43-85.5 47.1-166 103-239.3 166.1-73.7 63.5-140.7 134.8-199 212.1-19 25.2-37.1 51-54.3 77.5l22.2 13.1c16.8-26.1 34.6-51.5 53.2-76.3z"/><path d="m4782.2 2815.9c-48.5 80-105.9 155.3-170.5 223.8-65 68.9-138 131.5-216.8 186-25.6 17.7-52 34.6-78.9 50.6l13.3 21c27.4-16.3 54.2-33.5 80.2-51.6 80-55.4 154-119 220-189 65.5-69.6 123.7-146.1 172.9-227.3 15.9-26.2 30.9-53 45-80.3l-20.8-12.3c-14 26.9-28.7 53.3-44.4 79.1z"/><path d="m3371.9 420.4c203.9 18.5 402.1 72.7 589.9 160.9 55.1 25.9 109.2 54.8 161.8 86.3l10.1-17.8c-53.4-32-108.3-61.3-164.2-87.7-152-71.5-310.6-121-473.4-147.6l-125-10.5z"/><path d="m2570.2 3185.7c-92-60.8-179-130.3-258.5-206.5s-152.1-159.7-215.7-248c-20.6-28.6-40.2-57.7-58.9-87.4l-22.3 11.6c19.1 30.2 39.1 59.9 60 88.9 64.6 89.7 138.3 174.5 219.1 252 80.8 77.4 169.2 148 262.6 209.7 30.3 20 61.1 39.1 92.5 57.3l12.1-21.3c-30.8-17.8-61.1-36.6-90.9-56.3z"/><path d="m4309.4 3309-13.3-21.1c-51.3 29.4-104.7 55.8-159.8 78.8-188.3 78.6-393.2 117.9-608.8 116l.9 18.6 132.4 2c170.8-12.1 333.9-50.4 486.3-114.2 56-23.3 110.2-50.2 162.3-80.1z"/><path d="m1931.3 2449.7c-92-198.7-141.2-406.6-146.6-617.2l-26-1.3c5.4 214 55.3 425.2 148.7 627.2 27.6 59.7 59 118.3 93.8 175.2l22.3-11.6c-34.2-56-65.1-113.6-92.2-172.3z"/><path d="m3502.7 3482.3c-218.2-5-433.6-51.7-639.8-139.3-61-25.9-120.9-55.4-179.1-88l-12.1 21.3c59.2 33.2 120.1 63.2 182.1 89.5 167.3 71 340.6 115.5 516.5 133.1l133.3 2z"/><path d="m2576.8 525.1 12.9 20.3c53.2-24 108.1-44.8 164.2-62.3 188.9-59 388.8-80.5 594.6-64.7l-.8-16.4-125.8-10.6c-164.7-.7-325 22.7-478.2 70.5-57 17.7-112.8 38.9-166.9 63.2z"/><path d="m4902 2561.1c-18.5 53.3-40.5 105.5-65.6 156.2l20.8 12.3c25.5-51.4 47.7-104.5 66.5-158.7 63.2-182.6 87.5-376.1 72.7-575.7l-22.5-1.1c14.5 196.5-9.4 387.1-71.9 567z"/><path d="m1906 1219.9c24.2-53.2 51.9-104.8 82.9-154.4l-22.2-13.1c-31.5 50.3-59.8 102.8-84.4 156.9-84.1 184.9-126.1 386-124.1 597.9l25.9 1.3c-1.9-208.5 39.2-406.6 121.9-588.6z"/><path d="m3368.9 823.5 1 19.1c1.4.1 2.9.2 4.3.3z"/><path d="m3476.7 2559.8-21-10.4 22.1 438.1c4.1.2 8.2.3 12.3.4s8.2.2 12.3.3l-21.7-426.7z"/><path d="m2448.8 1842.5-145.4-7.4c.1 4 .1 7.9.3 11.9.1 4 .3 7.9.4 11.9l149 7.5z"/><path d="m3388.5 819.6 4.7 19-21.3-418.3c-3.9-.4-7.8-.7-11.7-1s-7.8-.6-11.7-.9l20.1 399.7z"/><path d="m4686.5 1979.4 287.5 14.6c-.3-3.7-.5-7.5-.8-11.2s-.6-7.5-1-11.2l-294.7-15.1z"/><path d="m2278.3 1845.6c-.1-4-.2-7.9-.3-11.9l-493.8-25.3c0 4 .1 8 .1 12 .1 4 .2 8 .3 12l494.1 25c-.1-3.9-.3-7.8-.4-11.8z"/><path d="m3491.3 3012.2c-4.1-.1-8.2-.2-12.3-.4l23.7 470.5c4.1.1 8.3.2 12.4.3s8.3.1 12.4.1l-23.9-470.3c-4.1 0-8.2-.1-12.3-.2z"/><path d="m2303.7 1846.9c-.1-4-.2-7.9-.3-11.9l-25.4-1.3c.1 4 .1 7.9.3 11.9.1 4 .3 7.9.4 11.9l25.4 1.3c-.2-4-.3-7.9-.4-11.9z"/><path d="m3376.4 851.3-2.3-8.4c-1.4-.1-2.9-.2-4.3-.3l.7 14z"/><path d="m3490.1 2988c-4.1-.1-8.2-.3-12.3-.4l1.2 24.2c4.1.1 8.2.3 12.3.4s8.2.2 12.3.2l-1.2-24.2c-4.1 0-8.2-.1-12.3-.2z"/><path d="m3371.1 403.9-.3-5.4c-3.9-.4-7.8-.7-11.7-1.1-3.9-.3-7.8-.6-11.7-.9l.3 5.4z"/><path d="m3503.6 3500.9.3 6.1c4.1.1 8.3.2 12.4.3s8.3.1 12.4.1l-.3-6.1z"/><path d="m1784.4 1820.5c-.1-4-.1-8-.1-12l-25.9-1.3c0 4 .1 8 .1 12 .1 4 .2 8 .3 12l26 1.3c-.2-4-.4-8-.4-12z"/><path d="m3371.9 420.4-.8-16.4-23.4-2 .8 16.4 11.7.9c3.9.4 7.8.7 11.7 1.1z"/><path d="m4994.6 1972.7-22.5-1.1c.3 3.7.7 7.5 1 11.2s.6 7.5.8 11.2l22.5 1.1c-.3-3.7-.5-7.5-.8-11.2-.3-3.8-.6-7.5-1-11.2z"/><path d="m3502.7 3482.3.9 18.6 24.8.4-.9-18.6c-4.1 0-8.3-.1-12.4-.1-4.1-.1-8.3-.2-12.4-.3z"/><path d="m2425.7 1296.5-25.8-15.2 20.8 23.2c1.6-2.7 3.3-5.3 5-8z"/><path d="m2275.6 1234.4 25.1 14.7 65.6 20.5.1 3.1 5.1-8.1-136.2-80.3 6.3 8.3z"/><path d="m2157.5 1142.8.5-4-156.9-92.5c-4.1 6.4-8.2 12.8-12.2 19.2l166.2 97.9z"/><path d="m2446 1332.3 6.5 6.3 25.3 14.9 106.7 53.3 22.5 11.7 8 6.7 16.6 18.9 69.6 41 7.3-2.8 25.6-4-286.4-168.8c-3.1 4.9-6.1 9.8-9.1 14.7z"/><path d="m3066.1 2529.2-163.4 287.6c7.4 4.4 14.8 8.6 22.3 12.8l163.5-288.3z"/><path d="m3941.6 1025 8-2.1 194.4-342.9c-6.8-4.2-13.6-8.3-20.4-12.4l-197.7 348c5.3 3.1 10.5 6.3 15.7 9.4z"/><path d="m2890.9 2837.5-229.8 404.5c7.5 4.4 15.1 8.7 22.7 12.9l229.5-404.6c-7.5-4.2-15-8.4-22.4-12.8z"/><path d="m4560.2 2557.9-6.7 18.2 273 160.8c3.4-6.5 6.7-13.1 10-19.7l-275.5-162.3z"/><path d="m3926.7 1029 14.9-4c-5.2-3.2-10.4-6.3-15.7-9.4l-6.6 11.7z"/><path d="m2423 1307.2 15.5 17c3-4.9 6-9.8 9.1-14.7l-22-12.9c-1.7 2.7-3.3 5.3-5 8z"/><path d="m2902.7 2816.8-11.8 20.7c7.4 4.4 14.8 8.6 22.3 12.8l11.8-20.7c-7.5-4.2-14.9-8.5-22.3-12.8z"/><path d="m4154.1 662.2c-6.8-4.2-13.6-8.3-20.4-12.4l-10.1 17.8c6.8 4.1 13.6 8.2 20.4 12.4z"/><path d="m2001.1 1046.3-22.2-13.1c-4.1 6.4-8.2 12.8-12.2 19.2l22.2 13.1c4-6.4 8.1-12.8 12.2-19.2z"/><path d="m4826.5 2736.9 20.8 12.3c3.4-6.5 6.7-13.1 10-19.7l-20.8-12.3c-3.3 6.6-6.6 13.2-10 19.7z"/><path d="m2649 3263.4c7.5 4.4 15.1 8.7 22.7 12.9l12.1-21.3c-7.6-4.3-15.1-8.5-22.7-12.9z"/><path d="m2817.2 947.7c6.8-3.3 13.7-6.6 20.6-9.8l-248.1-392.4c-6.9 3.1-13.8 6.3-20.7 9.5z"/><path d="m4449.6 1385.2 2.5 5.4 271.2-140.8c-4.2-6.6-8.4-13.2-12.7-19.7l-270.7 140.2z"/><path d="m4093.2 2923.9-19.9 11.5 222.8 352.5c6.7-3.8 13.3-7.7 19.9-11.6z"/><path d="m2663.8 2315.8-.6-18.2-3.2-5.3-191.2 99c4.4 7.2 8.8 14.3 13.4 21.4l182.2-94.6z"/><path d="m2447.1 2402.6-423.6 219.4c4.5 7.3 9 14.6 13.5 21.8l423.4-219.7c-4.4-7.1-8.9-14.3-13.3-21.5z"/><path d="m3051.9 1276.6-201.2-318.3c-6.9 3.2-13.8 6.5-20.6 9.8l214.5 339.4z"/><path d="m2850.7 958.3-12.9-20.4c-6.9 3.2-13.8 6.5-20.6 9.8l12.9 20.5c6.8-3.4 13.7-6.7 20.6-9.9z"/><path d="m2447.1 2402.6c4.4 7.2 8.8 14.3 13.4 21.5l21.7-11.3c-4.5-7.1-9-14.3-13.4-21.4z"/><path d="m2023.6 2622.1-22.3 11.6c4.5 7.3 9 14.6 13.5 21.8l22.3-11.6c-4.6-7.3-9.1-14.6-13.5-21.8z"/><path d="m2589.7 545.4-12.9-20.3c-6.9 3.1-13.9 6.3-20.7 9.5l12.9 20.3c6.8-3.2 13.8-6.4 20.7-9.5z"/><path d="m4723.3 1249.8 18.5-9.6c-4.2-6.6-8.4-13.2-12.7-19.7l-18.6 9.6c4.4 6.6 8.6 13.1 12.8 19.7z"/><path d="m4296.1 3287.9 13.3 21.1c6.7-3.8 13.3-7.7 19.9-11.6l-13.3-21c-6.6 3.9-13.2 7.7-19.9 11.5z"/><path d="m3641.9 1385.4c19.6 8.9 38.7 18.8 57.3 29.4l216.4-380.9c-7-4.1-14.1-8.2-21.2-12.2l-6.2-1.4-62.3-8.4-54.4-46.1-7.7-7.4-1.9-1.5c-39.9-16.7-80.4-31.2-121.3-43.6l-6.6 3.2-3 2.7-95.2-26.7-4.9-2.3-2.5-1.2 2.5 1.2-2.5-1.2-16.9 15.5-109.6-31.7-1.4-5.8c-1.9-.2-3.7-.3-5.6-.5l23.4 460.1c76.7 6.4 151.9 26.1 223.6 58.8zm118.7-427.2 3.1.2 4.4 4.2 3.3 3.2-3.3-3.2-7.3-.5z"/><path d="m3688.4 1433.7c-17.7-10.1-35.9-19.5-54.6-28-68.7-31.3-140.8-50.3-214.7-56.3l26 512.6z"/><path d="m3395.3 1347.8c-74-3.3-145.5 6.7-212.6 29.8-18.3 6.3-36.1 13.5-53.3 21.6l291.7 461.4z"/><path d="m3768.1 962.7 3.3 3.1z"/><path d="m2941 2174.7c26.6 40.5 58 78.3 93.9 112.8s75.1 64.8 117.2 90.4l251.9-443.4z"/><path d="m3913.2 1643.2c-25.9-39-56.3-75.5-90.9-108.9-34.6-33.5-72.3-62.9-112.8-88.1l-242.9 428.3z"/><path d="m4348.6 1417.7 91.3-47.3-1.7-2.6-11-55.6 26.9-5.1-22.3-72.9-66.6-43.6-25.4 27.6-9.6-36.8-23.4-1.6 8.3 17.2-27.8-5.8-9.5-35.8-20 4.5-107.5-42.6-37.1 10.2-17.8 7.5c25.6 21.3 50.5 43.6 74.5 66.9 68.3 66.1 128 138.3 178.7 215.8z"/><path d="m3346.2 878.7-97.9 26.5-21.7-11.5-46.4 52.3-2.6 36.7-34.8 7.5-27.1 38.1-24.7-1.7 2.4 53.3.8 17.1-45.6 110.7 12.1 31.1-9 37.8 64.5 102c18.1-8.5 36.7-16 56-22.6 70-24 144.6-34.4 221.8-30.8l-23-460.4c-3-.2-5.9-.4-8.9-.5l-5.8 5.2z"/><path d="m3958.6 2199.9c8.5-16.5 16.1-33.5 22.7-51 24.3-64.2 35.1-132.6 32.1-203.6l-532.6-27z"/><path d="m3838 1519.3c36.1 34.9 67.8 73 94.8 113.7l396.7-205.5c-49.6-75.8-108-146.4-174.8-211.2-26.1-25.3-53.2-49.4-81.1-72.2l-.2.1-6.2-.4 2.7-2.6c-42.5-34.5-87.2-66.1-133.7-94.8l-216 381c42.3 26.2 81.7 57 117.8 91.9z"/><path d="m4012 1922.4c-5.8-70.9-25.1-140.2-57.2-206.3-8.7-18-18.4-35.5-28.8-52.6l-446.4 231.6z"/><path d="m2905.7 1605.5c-9.2 16.4-17.5 33.3-24.8 50.8-27 64.4-40 133.8-38.7 206.3l547.5 28z"/><path d="m3763.5 2402.4c38.5-22 73.6-48.7 105-79.9 31.3-31.1 57.8-65.6 79.4-103.1l-478.1-281.6z"/><path d="m2377.1 1255.9-5.6 8.7 28.3 16.7z"/><path d="m3173.9 2390.6c18.4 10.3 37.3 19.7 56.7 28.2 71.1 31.3 145.5 49.2 221.2 53.6l-26.4-525.3z"/><path d="m4071.4 1114.6-1.5-.4c.5.4 1 .8 1.5 1.2z"/><path d="m3476.2 2473.4c75.3 1.4 147.3-10.9 214.3-36.5 18.2-7 35.8-14.9 52.8-23.6l-293.8-464.9z"/><path d="m2612.6 2132.7-.8.1.7.2z"/><path d="m2375.3 1570.6 7.4 24.4 25.8-32.9 19.4 49 43.4-39.2 60.5 13.8-64.7 66.2 15.5 32.2 36.8-1.1-28.5 15.2-4.3 3.9-10.4 131.5-30.5-7.9 3 16.7 368.6 18.9c-1.4-75.7 12.2-148.1 40.4-215.3 7.7-18.4 16.4-36.1 26.1-53.3l-182.7-107.7-25.3 9.7-44.3-50.7-153.7-90.5-20.4-10.2-4.9-4.7-16.8-9.9c-20 33.4-37.9 68.2-53.6 104.3-3.5 7.9-6.8 15.9-10 23.9l3.6 15.9-9.7-.6c-13.9 36.3-25.6 73.5-34.9 111.4l10.8-4.5z"/><path d="m2983 1468c34-31.3 71.8-57.8 112.9-79.3l-51.4-81.3-1.9 8.1-16.6 16.2 2 46.9-50.3 14.2-10.6 6.5 3.8 13.5-17.7-8.2-5.9 40.5-213.4 33 161.4 95.1c24.2-38.6 53.5-73.8 87.7-105.2z"/><path d="m3681.3 893.5-12.7 6.1c4.8 1.6 9.6 3.1 14.4 4.8z"/><path d="m2321.2 1518.5 1.4.8c1.8-5.8 3.7-11.5 5.6-17.2z"/><path d="m3367.4 818.1 1.5 5.4-.3-5.3z"/><path d="m3886.4 2339.8c-32.7 32.6-69.4 60.5-109.7 83.5l270.6 428.1c75.5-43.7 143.8-96.9 204.4-159.1 60.2-61.8 110.6-130.5 150.9-205l-433.4-255.3c-22.5 39.2-50.2 75.3-82.8 107.8z"/><path d="m2183.7 1116.8 5.6-43.8-22.4-1.5-8.8 67.3 77.2 45.5z"/><path d="m4513.4 1970.6-476.4-24.1c3.2 74-8 145.4-33.3 212.4-7 18.4-14.9 36.2-23.8 53.5l433.1 255.2c17.3-33.9 32.5-68.9 45.6-105.1 44.7-123.9 63.1-255.6 54.8-391.9z"/><path d="m3975.9 1708.5c33.5 68.9 53.5 141.2 59.6 215.1l476.2 24.4c-11.2-135.6-48.2-267.9-110-393.8-17.9-36.5-37.8-72.1-59.4-106.6l-396.6 205.8c11 17.9 21 36.2 30.2 55.1z"/><path d="m2305.2 1468.7 4.4 35.6 18.9-3c3.4-10.3 7-20.4 10.8-30.6z"/><path d="m3018 2303.6c-37.5-36.1-70.3-75.6-98.1-118l-255.5 132.6 21.4 80.8 105.5 36.2 99 49.7 9 29.2 39.5-13.5 4.3-3 82.6 38.3 2.2-27.7 38.2 20.9 74.5-131.1c-44-26.7-85-58.3-122.6-94.4z"/><path d="m2876 2107.3c-33.9-71.5-53.2-146.3-57.7-222.4l-365.2-18.5 15.7 87.1-7.3 16.6-11.7-14.3-25.4 16.8 13 56.8 12.2 29.2 31.3 29.1 44.5-14.9 10-38.7 4.1 21.4 81-20.5-1.5 52.8 25.8 1.2-55.8 3.8 12.4 36.6 10.5 3.8.8-.1-.1.3 22.8 8.1-15 84.4 39.7 66.8 246.7-127.8c-11.3-18.9-21.5-38.1-30.8-57.6z"/><path d="m2917.1 1586.1 483.6 285-291.8-461.8c-39.3 20.6-75.4 46-108 76-32.6 30.1-60.7 63.8-83.8 100.8z"/><path d="m2565.4 2162.5 36.8-5.8 10.3-23.7-.7-.2-24.9 2z"/><path d="m3222 2440.4c-20.4-8.9-40.2-18.8-59.5-29.6l-74 130.6 23.2 12.7-5.7-29 32.7-9.4 64.8 44.9 20.4-34.4 14.3.5 51.4-2.3 10.2-16.6 146.9 37.2 9.1 4.5-2.7-53.2c-79.1-4.6-156.8-23.3-231.1-55.9z"/><path d="m2149.1 1251.7 1.4-3.4z"/><path d="m2136.6 1199.2 22.8 15.9z"/><path d="m4480.5 2372.4c-13.4 37-28.9 72.9-46.6 107.6l127.1 74.9 10.5-40.8 46-18.8 7.7-34.6 40.2-11.7 4.1-40.7-32.8-69.7 112.4-92.6-24.5-15.3 20.7-35.5-14.3-14.8-11.2-13.6 48.3-71.2-54.6-12.7-22.4-28.2 6.6-46.9-11.2-28.4-150.1-7.6c8.5 139.3-10.1 273.9-55.9 400.6z"/><path d="m4677.4 1956.4-1.1-2.8 38.1-31-40-88.9 29.9-45.1-27.6-4.5-38.5 24.7-34.6-15.8-15.1-26.7-15.7-20.8-47.3-9.6-32.7-31.7 12.5-9.2-29.5-20.8c31.5 89.5 51.2 181.5 59 275z"/><path d="m2258.3 1393.2-42.2-26.5 38.4 51.1 2.5-16.4z"/><path d="m2190.4 1117.2 22.5 4.6-.7-26.7-25.6 4.4z"/><path d="m2254.5 1417.8 1.5-9.8 1-6.6z"/><path d="m2203.7 1028.9-22 12.8.1 3.1 7.1 13.8z"/><path d="m2258.3 1393.2-1.3 8.2-1 6.6 2.3-14.8-42.2-26.5z"/><ellipse cx="2159.4" cy="1215.1" rx="0" ry="0" transform="matrix(.4472 -.8944 .8944 .4472 106.846 2603.1172)"/><path d="m2147.5 1189.6-10.9 9.6 22.8 15.9z"/><path d="m2147.5 1189.6-10.9 9.6 10.9-9.6 11.9 25.5z"/><path d="m4422.2 1546.7c19.3 39.3 36.2 79.2 50.8 119.6l24.9-31.4.2-39.6 35.2-30.5-81.2-174.2-90.7 47.1c22.1 35.3 42.4 71.7 60.8 109z"/><path d="m3394.6 844.4-1.4-5.7.3 5.7z"/><ellipse cx="2136.6" cy="1199.2" rx="0" ry="0" transform="matrix(.2425 -.9701 .9701 .2425 454.9798 2981.1008)"/><path d="m2216.1 1366.7 38.4 51.1z"/><path d="m2258.3 1393.2-1.3 8.2z"/><path d="m2136.6 1199.2 10.9-9.6 11.9 25.5-11.9-25.5z"/><path d="m4052.3 1100.6-16.7-66.8-20.5-1.5-14.6 28.3-21.4-14.3-6-29.8-23.5 6.3-3 5.2c36.4 22.5 71.7 46.7 105.7 72.6z"/><path d="m2149.1 1251.7-12-31.8 12 31.8 4.4-11-3 7.6z"/><path d="m2150.5 1248.3 8.4-20.9.8-1.9-.2-4.2-22.4-1.4 12 31.8z"/><path d="m2136.6 1199.2 22.8 15.9z"/><path d="m2149.1 1251.7-12-31.8z"/><path d="m2254.5 1417.8 1.5-9.8z"/><path d="m3929.8 2935.9c-13.1 5.2-26.3 10.2-39.6 14.9l15.6 7.9 77.6-11.7 43.7 15 46.2-26.7-32.8-51.9c-35.4 19.6-72.4 37.1-110.7 52.5z"/><circle cx="2137.1" cy="1219.9" r="0"/><path d="m2150.5 1248.3 3-7.6 5.4-13.3z"/><path d="m2413.8 1315.8-113.1-66.6-17.5-5.4-7.6-9.3-120.5-71-.3 2.9 32.2 74.3-15.5 9.3 27.1 9 8.2 55.4 27.3 15.2-7.4 17.2 33.9 12.5-22.1 12.1 22.8 15.9 7.3-20.3 15.2 24.8 22.2-5.9 40.8 65c3.8-9.4 7.7-18.8 11.8-28.1 16.3-37.2 34.7-72.8 55.2-107z"/><path d="m2153.5 1240.7 6.2-15.2-.8 1.9z"/><path d="m2137.1 1219.9 22.4 1.4z"/><path d="m3701.2 2459c-69.9 26.8-145.1 39.6-223.7 38.2l3.3 64.5 73.7 32.8 89.9 3.2-12.7-35.3 25.4-9.6 45.5 43.8 21.5 77.8-27.9 2.2 22.2 11.3 5 31.9-21.2 6.7 15.2 21.7-16.9 6.9-12.8 42.1-24.9-.8 6.7 64.1-20.6 20.7 19.8 25.1-1-18.2 78.5 49.2 85.3-18.9 28.4 16.9c20-6.6 39.8-13.8 59.3-21.6 37.4-15 73.5-32 108.2-51l-270.8-428.4c-17.9 9.1-36.3 17.3-55.4 24.7z"/><path d="m4135.1 2933.3 62.2-22.5-11.8 31.3 14.5 11 19.2-31.1 92.2-42.6 67.7-39.9 63.9 15.6-26.8-39.5 74.4-70.6-43.2-22.2 15.6-30.7 54.5-8.5 32.9-33-20.4-39 72.1-3.6-50.5-26.6 1.9-5.2-129.9-76.5c-41.1 76.3-92.6 146.5-154.1 209.8-61.8 63.6-131.8 118.1-208.9 162.8l32.6 51.7 26.5-15.3z"/><path d="m2137.1 1219.9 22.4 1.4.2 4.2-.8 1.9.8-1.9-.2-4.2z"/><path d="m2843.1 1886.1c4.4 72.9 23 144.6 55.4 213 8.8 18.7 18.6 36.9 29.3 54.6l463-239.9z"/><circle cx="2216.1" cy="1366.7" r="0"/><path d="m2258.3 1393.2-42.2-26.5z"/><path d="m2216.1 1366.7 38.4 51.1z"/></g><path d="m3954.9 1716.1c32.1 66.1 51.3 135.4 57.2 206.3l23.5 1.2c-6.1-73.9-26.1-146.2-59.6-215.1-9.2-18.9-19.2-37.3-30.2-55.2l-19.6 10.2c10.3 17.1 19.9 34.7 28.7 52.6z" fill="#002776"/><path d="m2898.5 2099.1c-32.4-68.4-51-140.1-55.4-213l-24.8-1.3c4.5 76.1 23.8 150.9 57.7 222.4 9.3 19.6 19.5 38.7 30.7 57.3l21.1-10.9c-10.7-17.7-20.5-35.9-29.3-54.5z" fill="#002776"/><path d="m3000.9 1485.3c32.6-30 68.7-55.4 108-76l-13-20.6c-41.1 21.5-78.9 47.9-112.9 79.3-34.1 31.4-63.4 66.6-87.6 105.3l21.7 12.8c23.1-37 51.2-70.7 83.8-100.8z" fill="#002776"/><path d="m2880.9 1656.3c7.3-17.5 15.6-34.4 24.8-50.8l-21.8-12.8c-9.7 17.1-18.4 34.9-26.1 53.3-28.2 67.3-41.8 139.7-40.4 215.3l24.8 1.3c-1.3-72.5 11.7-141.9 38.7-206.3z" fill="#002776"/><path d="m3182.7 1377.6c67.1-23.1 138.5-33 212.6-29.8l-1.1-22.7c-77.2-3.5-151.8 6.8-221.8 30.8-19.2 6.6-37.9 14.2-56 22.6l13 20.6c17.2-8 35-15.2 53.3-21.5z" fill="#002776"/><path d="m3822.3 1534.3c34.6 33.5 65 69.9 90.9 108.9l19.6-10.2c-27-40.8-58.7-78.8-94.8-113.7s-75.5-65.7-117.8-91.9l-10.7 18.8c40.5 25.2 78.2 54.6 112.8 88.1z" fill="#002776"/><path d="m3034.9 2287.5c-35.9-34.5-67.3-72.3-93.9-112.8l-21 10.9c27.7 42.4 60.5 81.9 98.1 118 37.5 36.1 78.5 67.7 122.6 94.4l11.4-20.1c-42.1-25.6-81.4-55.8-117.2-90.4z" fill="#002776"/><path d="m3633.8 1405.7c18.7 8.5 36.9 17.9 54.6 28l10.7-18.9c-18.6-10.6-37.7-20.5-57.3-29.4-71.6-32.7-146.9-52.5-223.9-58.8l1.2 22.7c73.9 6.1 146 25 214.7 56.4z" fill="#002776"/><path d="m3969.2 2231.9-21.2-12.5c-21.6 37.5-48.1 72-79.4 103.1-31.4 31.2-66.5 57.9-105 79.9l13.2 20.8c40.2-23 76.9-50.9 109.7-83.5 32.5-32.4 60.2-68.5 82.7-107.8z" fill="#002776"/><path d="m3690.6 2436.9c-67 25.6-139 37.9-214.3 36.5l1.2 23.7c78.6 1.5 153.8-11.3 223.7-38.2 19.1-7.3 37.6-15.6 55.4-24.8l-13.2-20.9c-17 8.8-34.6 16.7-52.8 23.7z" fill="#002776"/><path d="m3981.3 2148.9c-6.6 17.5-14.2 34.5-22.7 51l21.3 12.5c8.9-17.3 16.8-35.1 23.8-53.5 25.3-67 36.5-138.3 33.3-212.4l-23.5-1.2c2.9 71-7.9 139.4-32.2 203.6z" fill="#002776"/><path d="m3173.9 2390.6-11.4 20.2c19.3 10.8 39.2 20.7 59.5 29.6 74.2 32.6 151.9 51.3 231 55.8l-1.2-23.7c-75.8-4.4-150.2-22.4-221.2-53.6-19.3-8.6-38.2-18-56.7-28.3z" fill="#002776"/><path d="m3919.3 1027.3-24.9-5.6c7.1 4 14.2 8.1 21.2 12.2z" fill="#002776"/><path d="m4251.7 2692.3c-60.5 62.2-128.9 115.4-204.4 159.1l13.2 20.9c77.2-44.7 147.1-99.2 208.9-162.8 61.5-63.3 113-133.5 154.1-209.8l-21-12.4c-40.2 74.5-90.6 143.1-150.8 205z" fill="#002776"/><path d="m4154.7 1216.4c66.8 64.8 125.3 135.4 174.8 211.2l19.1-9.9c-50.6-77.4-110.4-149.7-178.7-215.9-24.1-23.3-48.9-45.6-74.5-66.9l-21.8 9.2c27.9 22.9 55 47 81.1 72.3z" fill="#002776"/><path d="m4070.1 1141 1.3-25.6c-.5-.4-1-.8-1.5-1.2l-15.1-3.7-2.5-9.9c-34-25.9-69.3-50.1-105.7-72.5l-10.4 18.3c46.5 28.6 91.1 60.3 133.7 94.8z" fill="#002776"/><path d="m4458.4 2362.5c-13.1 36.2-28.3 71.2-45.6 105.1l21 12.4c17.6-34.7 33.2-70.6 46.6-107.6 45.8-126.6 64.5-261.3 55.9-400.6l-23-1.2c8.4 136.3-10 268-54.9 391.9z" fill="#002776"/><path d="m4361.4 1437.7-19.1 9.9c21.6 34.5 41.4 70.1 59.4 106.6 61.8 125.9 98.9 258.2 110 393.8l23 1.2c-7.7-93.5-27.5-185.5-59-275l-5.8-4.1 3-3.8c-14.5-40.4-31.5-80.3-50.8-119.6-18.3-37.3-38.6-73.7-60.7-109z" fill="#002776"/><path d="m3370.5 856.6-8.4 7.7c3 .2 5.9.3 8.9.5z" fill="#002776"/><path d="m2319.8 1588.3 11.4-4.7c9.3-37.9 21-75 34.9-111.4l-26.8-1.6c-3.8 10.1-7.4 20.3-10.8 30.6h.1l-.4.8c-1.9 5.7-3.8 11.5-5.6 17.2l13.4 7.4z" fill="#002776"/><path d="m4040.6 2883.6-13.2-21c-34.7 19-70.7 36-108.2 51-19.5 7.8-39.3 15-59.3 21.6l1.7 1 22.2 11.3 6.5 3.3c13.3-4.7 26.5-9.7 39.6-14.9 38.2-15.4 75.2-32.9 110.7-52.3z" fill="#002776"/><path d="m2371.9 1456 .2.9c3.2-8 6.6-16 10-23.9 15.8-36.1 33.7-70.9 53.6-104.3l-22-12.9c-20.5 34.2-38.9 69.8-55 106.8-4.1 9.3-8 18.7-11.8 28.1l2.5 4z" fill="#002776"/><path d="m3394.6 866.6c1.9.2 3.7.3 5.6.5l-5.6-22.6c-.4 0-.8-.1-1.1-.1z" fill="#002776"/><path d="m3761.8 956.9-33.8-26.6-41.8-7-3-18.9c-4.8-1.6-9.6-3.2-14.4-4.8l-28.2 13.7c40.8 12.4 81.3 26.9 121.2 43.6z" fill="#002776"/><path d="m3411.2 1903.3-21.5-12.7-547.5-28c.1 3.9.2 7.8.3 11.7.2 3.9.4 7.8.6 11.7l547.7 27.7z" fill="#002776"/><path d="m3434.1 1881.3 11-19.4-26-512.6c-4-.3-8-.6-11.9-.9-4-.3-8-.5-11.9-.6l25.8 512.8z" fill="#002776"/><path d="m2817.4 1861.3-368.6-18.9 4.3 23.9 365.2 18.5c-.2-3.9-.4-7.8-.6-11.8-.1-3.9-.2-7.8-.3-11.7z" fill="#002776"/><path d="m3371 864.8 23.2 460.3c4 .2 7.9.4 11.9.6 4 .3 8 .6 11.9.9l-23.4-460.1c-3.9-.3-7.9-.7-11.8-.9-4-.3-7.9-.5-11.8-.8z" fill="#002776"/><path d="m3453.1 2496.2 2.7 53.2 21 10.4 4 1.8-3.3-64.5c-4.1-.1-8.1-.2-12.2-.3-4.1-.2-8.2-.4-12.2-.6z" fill="#002776"/><path d="m3381.7 843.4c3.9.3 7.9.6 11.8.9l-.3-5.7-4.7-19-19.9-1.5.3 5.3 5.3 19.4c2.4.2 4.9.4 7.5.6z" fill="#002776"/><path d="m4036.4 1935.1c.2 3.8.4 7.6.6 11.4l476.4 24.1c-.2-3.8-.5-7.5-.7-11.3-.3-3.8-.6-7.6-.9-11.3l-476.2-24.4c.2 3.8.5 7.6.8 11.5z" fill="#002776"/><path d="m4535.6 1960.5c.3 3.8.5 7.5.7 11.3l150.1 7.6-9-22.9-142.7-7.3c.3 3.7.6 7.5.9 11.3z" fill="#002776"/><path d="m3459.4 1905.7 21.5 12.6 532.6 27c-.2-3.8-.3-7.6-.6-11.4-.2-3.8-.5-7.6-.8-11.5l-532.3-27.2z" fill="#002776"/><path d="m3436.5 1927.7-11.1 19.5 26.4 525.3c4.1.2 8.1.4 12.2.6s8.1.3 12.2.3l-26.7-525z" fill="#002776"/><path d="m4012.9 1933.9c.2 3.8.4 7.6.6 11.4l23.5 1.2c-.2-3.8-.4-7.6-.6-11.4s-.5-7.6-.8-11.4l-23.5-1.2c.2 3.7.5 7.5.8 11.4z" fill="#002776"/><path d="m3464.1 2473.1c-4.1-.2-8.1-.4-12.2-.6l1.2 23.7c4.1.2 8.1.4 12.2.6s8.1.3 12.2.3l-1.2-23.7c-4.1-.1-8.2-.2-12.2-.3z" fill="#002776"/><path d="m3407.2 1348.4c4 .3 8 .6 11.9.9l-1.2-22.7c-4-.3-8-.6-11.9-.9-4-.3-8-.5-11.9-.6l1.1 22.7z" fill="#002776"/><path d="m2842.5 1874.3c-.2-3.9-.3-7.8-.3-11.7l-24.8-1.3c.1 3.9.2 7.8.3 11.7.2 3.9.4 7.8.6 11.8l24.8 1.3c-.2-3.9-.4-7.9-.6-11.8z" fill="#002776"/><path d="m4513.4 1970.6 23 1.2c-.2-3.8-.5-7.5-.7-11.3-.3-3.8-.6-7.6-.9-11.3l-23-1.2c.3 3.8.6 7.5.9 11.3.2 3.8.4 7.6.7 11.3z" fill="#002776"/><path d="m3382.8 865.6c3.9.3 7.9.6 11.8.9l-1.1-22.2c-3.9-.3-7.9-.7-11.8-.9-2.5-.2-5-.3-7.5-.5l2.3 8.4-5.9 5.3.4 8.2c3.9.3 7.8.5 11.8.8z" fill="#002776"/><path d="m3403.9 1934.5-251.9 443.4c7.2 4.4 14.5 8.6 21.9 12.7l251.5-443.5-1.2-23.2z" fill="#002776"/><path d="m2615 1425.1-8-6.7-22.5-11.7-106.7-53.3 153.7 90.5zm-30.4-18.3 22.5 11.7 8 6.7-8-6.7z" fill="#002776"/><path d="m2241.6 1192.6-6.3-8.3-77.2-45.5-.6 4-2.4 20.6 120.5 71z" fill="#002776"/><path d="m3413.8 1891.8-13.1-20.7-483.6-285c-4 6.4-7.8 12.8-11.4 19.4l484 285.1z" fill="#002776"/><path d="m3969.2 2231.9 433.4 255.3c3.5-6.5 6.9-13 10.3-19.6l-433.1-255.2c-3.4 6.6-6.9 13.1-10.6 19.5z" fill="#002776"/><path d="m2366.3 1269.6-65.7-20.5 113.1 66.6c2.3-3.8 4.5-7.5 6.9-11.3l-20.8-23.2-28.3-16.7-5.1 8.1z" fill="#002776"/><path d="m2446 1332.3-7.5-8.2c-.9 1.5-1.8 3.1-2.8 4.6l16.8 9.9z" fill="#002776"/><path d="m3140.6 2398-74.5 131.1 22.4 12.2 74-130.6c-7.4-4-14.7-8.3-21.9-12.7z" fill="#002776"/><path d="m3480.9 1918.4-24.1-1.2 13.1 20.7 478.1 281.6c3.7-6.4 7.2-13 10.6-19.6z" fill="#002776"/><path d="m4423.6 2499.6 129.9 76.5 6.7-18.2.8-3-127.1-74.9c-3.4 6.6-6.8 13.1-10.3 19.6z" fill="#002776"/><path d="m3949.6 1022.9-8 2.1c1.7 1 3.4 2.1 5.1 3.1z" fill="#002776"/><path d="m3446.4 1885 20.3-10.5 242.9-428.3c-6.9-4.3-14-8.5-21.1-12.5l-243.2 428.2z" fill="#002776"/><path d="m3720.2 1427.4 216-381c-6.9-4.2-13.8-8.4-20.7-12.5l-216.4 380.9c7.1 4.1 14.1 8.3 21.1 12.6z" fill="#002776"/><path d="m2895.4 1573.3-161.4-95.1-25.6 4-7.3 2.8 182.8 107.7c3.7-6.6 7.5-13 11.5-19.4z" fill="#002776"/><path d="m3947.9 2219.4 21.2 12.5c3.7-6.4 7.2-13 10.6-19.6l-21.3-12.5c-3.2 6.7-6.8 13.2-10.5 19.6z" fill="#002776"/><path d="m2917.1 1586.1-21.7-12.8c-4 6.4-7.8 12.8-11.5 19.4l21.8 12.8c3.7-6.5 7.5-13 11.4-19.4z" fill="#002776"/><path d="m3709.5 1446.2 10.7-18.8c-6.9-4.3-14-8.5-21.1-12.6l-10.7 18.9c7.1 4.1 14.2 8.2 21.1 12.5z" fill="#002776"/><path d="m3152 2377.9-11.4 20.1c7.2 4.4 14.5 8.6 21.9 12.8l11.4-20.2c-7.3-4.1-14.7-8.3-21.9-12.7z" fill="#002776"/><path d="m4412.9 2467.6c-3.4 6.6-6.8 13.1-10.3 19.6l21 12.4c3.5-6.5 6.9-13.1 10.3-19.6z" fill="#002776"/><path d="m2423 1307.2-2.4-2.6c-2.3 3.7-4.6 7.5-6.9 11.3l22 12.9c.9-1.5 1.8-3.1 2.8-4.6z" fill="#002776"/><path d="m3919.3 1027.3-3.8 6.6c7 4.1 13.9 8.3 20.7 12.5l10.4-18.3c-1.7-1-3.4-2.1-5.1-3.1l-14.9 4z" fill="#002776"/><path d="m3452 1909.6 4.8 7.5 24.1 1.3-21.5-12.7z" fill="#002776"/><path d="m3424.3 1924 1.1 23.2 11.1-19.5-4.8-7.6z" fill="#002776"/><path d="m3446.4 1885-1.2-23.1-11.1 19.4 4.8 7.6z" fill="#002776"/><path d="m3411.2 1903.3 7.4-3.9-4.8-7.6-24.1-1.2z" fill="#002776"/><path d="m3448.4 1925.2 1.2 23.2 293.8 464.9c6.8-3.5 13.5-7.1 20.2-10.9l-293.7-464.6z" fill="#002776"/><path d="m4040.6 2883.6 32.8 51.9 19.9-11.5-32.6-51.7c-6.8 3.8-13.4 7.6-20.1 11.3z" fill="#002776"/><path d="m3415 1915-24.2-1.2-463 239.9c4.3 7.1 8.7 14.1 13.2 21.1l462.9-240.2z" fill="#002776"/><path d="m3776.7 2423.2c-6.6 3.8-13.3 7.4-20.1 10.9l270.8 428.4c6.7-3.7 13.4-7.4 20-11.3z" fill="#002776"/><path d="m2906.7 2164.6-246.7 127.8 3.2 5.3.6 18.2.6 2.4 255.5-132.6c-4.5-7-8.9-14-13.2-21.1z" fill="#002776"/><path d="m3116.4 1378.6-64.5-102-7.3 30.9 51.4 81.3c6.6-3.6 13.5-6.9 20.4-10.2z" fill="#002776"/><path d="m3932.8 1633c4.4 6.7 8.7 13.5 12.9 20.3l396.6-205.8c-4.2-6.7-8.5-13.4-12.8-20z" fill="#002776"/><path d="m4439.9 1370.4-91.3 47.3c4.3 6.6 8.6 13.3 12.8 20l90.7-47.1-2.5-5.4z" fill="#002776"/><path d="m3422.2 1883.8-1.2-23.2-291.7-461.4c-6.9 3.2-13.7 6.6-20.5 10.1l291.8 461.8z" fill="#002776"/><path d="m3455.6 1894 24.1 1.2 446.4-231.6c-4.2-6.8-8.5-13.6-12.9-20.3l-446.5 231.3z" fill="#002776"/><path d="m3743.4 2413.3 13.2 20.9c6.8-3.5 13.5-7.2 20.1-10.9l-13.2-20.8c-6.6 3.7-13.3 7.3-20.1 10.8z" fill="#002776"/><path d="m3108.9 1409.3c6.7-3.5 13.6-6.9 20.5-10.1l-13-20.6c-6.9 3.2-13.7 6.6-20.5 10.1z" fill="#002776"/><path d="m2927.8 2153.7-21.1 10.9c4.3 7.1 8.7 14.1 13.2 21.1l21-10.9c-4.5-7-8.8-14-13.1-21.1z" fill="#002776"/><path d="m3926.1 1663.5 19.6-10.2c-4.2-6.8-8.5-13.6-12.9-20.3l-19.6 10.2c4.4 6.7 8.7 13.5 12.9 20.3z" fill="#002776"/><path d="m4342.3 1447.5 19.1-9.9c-4.2-6.7-8.5-13.4-12.8-20l-19.1 9.9c4.3 6.7 8.6 13.3 12.8 20z" fill="#002776"/><path d="m4027.3 2862.6 13.2 21c6.7-3.7 13.4-7.4 20-11.3l-13.2-20.9c-6.6 3.8-13.3 7.5-20 11.2z" fill="#002776"/><path d="m3415 1915 4-7.1-7.8-4.6-20.4 10.5z" fill="#002776"/><path d="m3436.5 1927.7 13.1 20.7-1.2-23.2-7.9-4.7z" fill="#002776"/><path d="m3459.4 1905.7 20.3-10.5-24.1-1.2-4 7.1z" fill="#002776"/><path d="m3434.1 1881.3-13-20.7 1.1 23.2 7.9 4.6z" fill="#002776"/><path d="m3455.6 1894 11-19.5-20.2 10.5.4 8.5z" fill="#002776"/><path d="m3448.4 1925.2 21.5 12.6-13.1-20.7-8.8-.4z" fill="#002776"/><path d="m3422.7 1892.3-.5-8.5-21.5-12.7 13.1 20.7z" fill="#002776"/><path d="m3424.3 1924-.5-8.5-8.8-.5-11.1 19.5z" fill="#002776"/><path d="m3459.4 1905.7-7.8-4.6 4-7.1-8.8-.5-.4-8.5-7.5 3.9-4.8-7.6-4 7.1-7.9-4.6.5 8.5-8.9-.5 4.8 7.6-7.4 3.9 7.8 4.6-4 7.1 8.8.5.5 8.5 7.4-3.9 4.8 7.6 4-7.2 7.9 4.7-.4-8.5 8.8.4-4.8-7.5z" fill="#002776"/></svg>