<svg enable-background="new 0 0 8250 5500" viewBox="0 0 8250 5500" xmlns="http://www.w3.org/2000/svg"><path d="m8256 5504c-2750.7 0-5501.3 0-8252 0 0-1833.3 0-3666.7 0-5500h8252zm-7376.2-2749.7c3.2 7.3 10.6 9.8 16.6 13.6 220.7 141 441.6 281.9 662.4 422.7 286 182.4 572 364.8 858 547.3 222.5 141.9 445 283.9 667.5 425.8 241.6 154.1 483.2 308.2 724.8 462.4 104 66.3 207.9 132.6 311.9 198.9 17.4 11.1 15.4 11.3 33.4-.3 2.2-1.4 4.5-2.8 6.8-4.3 145.5-92.8 291-185.7 436.6-278.5 316.3-201.8 632.7-403.5 949-605.3 239.9-153 479.8-306.2 719.7-459.2 368.6-235.1 737.2-470.2 1105.7-705.4 7.8-4.9 16.6-8.5 22.5-16.1-3.2-10.9-14-13.2-21.9-18.2-147.6-94.5-295.5-188.7-443.2-282.9-364.7-232.6-729.3-465.2-1094-697.8-256.2-163.4-512.4-326.9-768.6-490.4-303.4-193.6-606.8-387.1-910.3-580.6-21.7-13.9-16.7-13.8-38.4 0-145 92.4-290 184.9-434.9 277.4-252.8 161.3-505.7 322.6-758.5 483.9-344.4 219.7-688.9 439.4-1033.3 659.1-229.3 146.2-458.5 292.4-687.8 438.7-102.3 65.2-204.5 130.5-306.7 195.8-6.1 3.7-13.3 6.4-17.3 13.4z" fill="#237926"/><path d="m879.8 2754.3c4-7 11.1-9.7 17.2-13.6 102.2-65.4 204.4-130.6 306.7-195.8 229.2-146.2 458.5-292.4 687.8-438.7 344.4-219.7 688.9-439.4 1033.3-659.1 252.8-161.3 505.7-322.6 758.5-483.9 145-92.5 289.9-185 434.9-277.4 21.7-13.8 16.7-13.9 38.4 0 303.4 193.5 606.9 387.1 910.3 580.6 256.2 163.4 512.4 326.9 768.6 490.4 364.7 232.6 729.3 465.2 1094 697.8 147.8 94.3 295.6 188.4 443.2 282.9 7.9 5 18.7 7.3 21.9 18.2-5.9 7.6-14.7 11.2-22.5 16.1-368.5 235.2-737.2 470.3-1105.7 705.4-239.9 153.1-479.8 306.2-719.7 459.2-316.3 201.8-632.7 403.5-949 605.3-145.5 92.8-291 185.7-436.6 278.5-2.2 1.4-4.5 2.8-6.8 4.3-18 11.6-16 11.4-33.4.3-103.9-66.3-207.9-132.6-311.9-198.9-241.6-154.1-483.2-308.2-724.8-462.4-222.5-141.9-445-283.9-667.5-425.8-286-182.4-572-364.8-858-547.3-220.8-140.9-441.6-281.7-662.4-422.7-5.9-3.6-13.3-6.1-16.5-13.4zm1996.8-551.9c-2.5 4.7-5.3 9.2-7.4 14-22.5 53.2-42 107.6-57.4 163.3-3 10.8-7.6 21.3-7.7 32.8-1.2 3.1-2.8 6-3.6 9.2-22.3 88.8-35.2 179-39.2 270.3-2.3 51.9-1.8 103.8 1.7 155.8 4 57.9 11 115.4 22.1 172.2 23.5 120.2 62.1 235.4 116.6 345.2 70 140.8 161.2 266.2 273.8 376.2 101.9 99.5 216.2 181.5 343.3 245.3 178.1 89.4 366.9 137.9 566.2 145.1 84 3 167.8-.4 251.1-12.7 87.8-13 173.7-33.7 257.5-63.2 214.6-75.7 399.2-197.1 554.2-363.3 117.5-126.1 207.9-269.7 271.5-430 11.5-29 23.2-58.1 30.6-88.6 1.7-4.3 3.7-8.5 5-13 15.2-50.2 28.2-101 37.3-152.7 3.3-18.9 8.5-37.6 8-57 .9-3.2 2.3-6.3 2.7-9.6 6.3-46.9 10-94.1 11.9-141.3 2.3-60-.6-119.9-6.2-179.6-6.8-73.1-19.5-145.2-38.4-216.1-68.4-256.2-198.5-476.3-393-656.3-264.8-244.9-579.4-367.4-940.1-370.7-69.3-.6-138.5 4.8-207.1 15.4-91.7 14.2-181.2 37-268.4 69.1-338.1 124.5-616.5 379.4-770.2 705.5-5.3 11.3-9.9 23.1-14.8 34.7z" fill="#f8c203"/><path d="m5450 3174c-7.5 30.5-19.1 59.6-30.6 88.6-63.6 160.3-153.9 303.9-271.5 430-155 166.3-339.6 287.7-554.2 363.3-83.8 29.5-169.7 50.2-257.5 63.2-83.2 12.3-167 15.7-251.1 12.7-199.3-7.1-388.1-55.7-566.2-145.1-127.1-63.8-241.4-145.8-343.3-245.3-112.6-110-203.9-235.4-273.8-376.2-54.5-109.7-93.2-225-116.6-345.2-11.1-56.9-18.2-114.3-22.1-172.2-3.5-51.9-4-103.9-1.7-155.8 4-91.3 16.9-181.5 39.2-270.3.8-3.2 2.4-6.2 3.6-9.2 3.9-.7 7.9-1 11.8-2.1 33.5-8.9 67.4-15.7 101.5-21.6 94-16.3 188.8-24.6 284.1-28.2 71.2-2.7 142.6-2.5 213.8 0 83.9 2.9 167.6 8.9 251 18.2 55.6 6.2 111.1 13.2 166.3 22 102.6 16.4 204.2 37.3 304.9 63 180.4 46.1 354.8 108.7 523.4 187.7 164.9 77.3 322.2 168 473.9 268.5 71.1 47.1 140.4 96.7 206.1 151.2 38.3 32.1 74.5 66.6 109 102.8zm-1323.1 670.4c4.9-1.3 9-6.2 14.9-2.9.9.5 4.6 2.4 4-1.4-.9-5.3 1.6-8.6 4.5-12.4 1.4-1.8-.5-3.3-2.6-3.5-3.4-.3-6.5-1-7.6-4.9-.9-3.4-2.9-4.6-4.9-1-2.5 4.7-8.3 4.4-10.8 7.3-3.3 3.8 5.7 6.5 3.7 11.8-.9 2.4-.9 5.2-1.3 7.7l.9-.9zm-771.8-447.1c9.7-4.2 16.5-13.3 26.8-16.8 4 2.7 7.8 5.4 11.7 7.9 4 2.6 7.3 6.8 14.4 6.7-2.2-7.1-4-12.6-5.7-18.2-3.2-10.3-3-10.2 4.9-16.7 5.4-4.3 12.5-6.9 15.9-14.8-10.5-.6-20.9 1.4-28.5-2.3-9.1-4.4-7.1-17.6-12.2-26.1-4.2 1.7-4.9 5.7-6.2 9.3-7 20.1-1.5 18-25.9 18.5-3.3.1-8.1-2.6-10 4.1 6 4.6 12.2 9.4 18.4 14.2 3 2.3 3.5 5.1 2.8 8.7-1.7 8.4-6.9 15.9-5.8 24.9v-.6zm93.6-141.1-.6.5 1.2-.1c-2.5-7.6-4.9-15.1-7.4-22.7-1.5-4.4-.2-7.6 3.4-10.3 6.1-4.6 12.1-9.4 20.4-15.9-9.8-2.3-17-1.5-24-1.4-6.4 0-9.6-3-11.5-8.7-2.3-6.9-3.3-14.2-8.1-20.3-4.2 5.4-5.2 11.9-7.3 18-3.6 10.3-4.1 10.6-15.8 10.9-4 .1-8 0-11.9.1-2.4.1-5.4-.3-5.4 4.5 3.2 2.4 6.9 5.2 10.6 7.8 14.6 10.5 11.4 9.3 7.8 22.5-1.3 4.7-5.5 9.2-1.7 15.6 7.8-5.1 15.5-10.1 23.1-15.1 7.4 2.3 12.5 7.7 18.5 11.7 2.6 1.8 5.1 4.1 8.7 2.9zm-406.1-707.4c1.8-8.9-1.6-14.3-3.6-19.7-6-16.6-2.8-15.6 8.5-24.2 4.7-3.6 10.3-6.2 13.9-12.1-8.7-3.2-17.3-1.5-25.8-1.7-6.2-.1-9.5-2.6-11.7-8.5-2.9-7.9-3.3-17.1-10.4-24.5-3.3 9.4-6.5 18-9.4 26.7-1.5 4.5-4.6 5.9-9 6.2-9 .6-18.3-1.7-28.9 2.2 8.2 6.2 14.9 11.5 21.9 16.4 4.4 3.1 5.5 6.7 4.2 12-2.1 8.2-6.5 15.9-6.6 24.4 3.3 1.8 5.3-.3 7.3-1.7 5.5-3.8 10.9-7.6 16.2-11.7 3.8-2.9 7.3-2.3 10.9.2 7 5.1 14 10 22.5 16zm122 577c-.2-9.5-4.2-16.6-6.3-24.1-2.4-8.9-2.6-8.9 5-14.8 4.7-3.7 9.6-7.1 14.4-10.7 2.2-1.6 4.1-3.3 2.3-7.7-7.9 0-16.4-.2-24.9.1-5.6.1-8.5-2.7-10.1-7.6-1.8-5.7-3.6-11.4-5.4-17.1-.8-2.6-2.1-4.8-6-5.5-2.7 7.9-5.5 15.9-8.2 23.9-1.4 4.3-4.3 6.3-8.9 6.3-9 0-18 .3-27.5.5.5 5.2 3.6 6.7 6.2 8.6 5.3 4 10.8 7.7 16 11.9 2.7 2.1 3.7 5 2.7 8.8-2.3 8.7-7.2 16.9-7 28.8 8.7-6 15.8-10.7 22.6-15.8 4.5-3.4 8.1-2.7 12.5.3 7 4.4 12.8 11 22.6 14.1zm1964.4 151.9c.6-10.1-4-17.7-6.3-25.8-1.5-5.4-.4-8.8 3.9-11.9 5.4-3.8 10.8-7.8 16.1-11.8 2-1.5 4.6-3 3.2-7.7-7.3 0-15.1.1-22.9 0-10.2-.2-10.4-.5-13.9-10.5-2.3-6.7-4.5-13.4-6.7-20-3.9 1-5.1 3.4-5.9 5.9-1.8 5.7-3.6 11.4-5.3 17.1-1.6 5.1-4.8 7.6-10.3 7.5-6.7-.2-13.3 0-20 .1-2.5 0-5.4-.5-6.1 4.5 6.3 4.8 13 10.1 19.9 15.1 4.4 3.2 5.4 6.8 3.8 12-2.5 8-7.1 15.6-6.4 26.7 9-6.2 16.5-11.3 24-16.5 3.1-2.2 5.9-2 9.1 0 7.8 4.7 14.1 11.7 23.8 15.3zm-1542.6 157.9c-6.7 9.6-7.8 18.4-10.7 26.4-1.6 4.5-4.5 6.3-8.8 6.4-8 .2-15.9.1-23.9.4-1 0-2.5 1-2.8 1.9-.4 1-.1 3 .6 3.5 5.8 4.5 11.5 9 17.6 13 5.3 3.5 6.6 7.7 4.8 13.6-2.4 8-6.9 15.6-6.6 24.6 1.5-.2 2.2-.1 2.6-.4 5.5-3.6 11.1-7.2 16.5-11 9.8-6.8 9.8-6.8 18.9-.5 6.2 4.3 11.7 9.7 19.8 12.6-.1-10.2-4.6-17.8-6.7-26.1-1.2-5.1-.8-9 3.8-12.1 3.9-2.5 7.8-5.1 11.2-8.3 3.1-2.9 9.2-3.5 8.2-11.1-7 0-14.2.1-21.3 0-12.1-.2-12.1-.3-16.3-12.5-2-6.2-4.2-12.4-6.9-20.4zm502.6-79.3c6.8 8.5 13.9 12.1 19.9 16.8 8.2 6.4 8.4 7 5.7 16.6-2 7.3-6.4 14.1-5.4 23.3 3.4-1.9 5.7-3 7.9-4.4 6.7-4.2 12.1-11.9 20-12.4 8.1-.5 13.2 8 20 11.9 2.7 1.5 4.9 4.5 9.9 2.9-2.2-7.4-4.2-15-6.8-22.3-2.4-6.7-.8-11.5 5.2-15.2 4.5-2.8 8.7-6.1 12.9-9.3 2.4-1.8 5.9-3.3 4.5-7.6-10.5-.6-21.1-1.3-31.6-1.9-7.6-8.8-6.5-21.3-13.6-31.1-6 7.7-6.8 17.1-10 25.6-1.6 4.3-4.1 6.6-8.6 6.6-8.9.1-18 .3-30 .5zm1024.6 102.3c-1-1.2-1.2-1.9-1.7-2-7.1-2.5-14.5-.9-21.8-1.2-4.6-.2-7.6-2.1-9.1-6.3-2-5.6-3.6-11.4-5.6-17.1-.6-1.8-1.4-4-4-3.3-1.1.3-2.2 1.5-2.6 2.5-1.6 4.4-2.9 8.9-4.4 13.2-3.7 10.4-3.7 10.3-13.7 10.8-6.5.4-13.3-1.4-20.1 2 4.4 6.4 10.8 9.9 16.6 13.8 5.3 3.7 6.1 7.9 4.4 13.7-1.9 6.6-6.1 12.8-4.5 20.7 8.2-2.5 13.1-8.2 19.2-12.2 3.8-2.4 7.2-2.6 11.1-.2 6.4 4.1 11.6 10.4 19.9 12.3.7-9.2-4.2-16.1-5.6-23.9-.7-3.7.1-6.6 3-8.8 6.2-4.5 12.6-9.3 18.9-14zm-1474.5-612.2c-.5-8.6-3.9-15.8-6.2-23.2-1.3-4.3-.4-7.7 3.3-10.5 6.3-4.7 12.6-9.4 20-15-9.5-3.6-17.5-2.1-25.2-2.3-4.8-.1-7.4-2.5-8.8-6.5-2.7-7.2-5.1-14.5-7.9-22.5-7.1 6.9-6.9 15.5-10.1 22.6-1.9 4.2-4.4 6.1-8.9 6.3-7.8.4-15.8-1.2-24 1.7 5.3 7.3 12.8 10.5 18.8 15.6 3.3 2.8 4.2 5.7 3.3 10.3-1.4 7.3-7.2 13.9-4.8 22.6 7.6-2 12-7.2 17.3-10.9 5-3.5 9.2-4.2 14.3-.2 5.5 4.3 10.8 9.2 18.9 12zm1541 549.3c2.4-1.6 2.1-2.6 1.7-4.2-2.2-7.6-6.5-15.6-5.7-22.9 1-9 11.9-11.4 18.1-17.1 1.5-1.4 2.9-3 1.7-5-.5-.9-2-1.5-3.1-1.6-5.3-.2-10.6 0-16-.2-9.4-.3-9.9-.6-12.8-9.1-1.8-5-3.2-10.1-5-15.1-.4-1-1.7-2.1-2.7-2.2s-2.7.9-3 1.8c-1.7 4.3-2.9 8.8-4.4 13.2-3.8 11.1-3.8 11.1-15.1 11.4-3.3.1-6.7-.2-10 .1-2.9.3-6.8-1.7-8.5 4.1 4.8 3.7 9.8 8.1 15.2 11.6 6.2 4 7.5 8.8 5 15.4-1.7 4.3-3 8.8-4.2 13.3-.6 2.1-2.9 4.9 2.1 6.5 5.4-3.8 11.4-7.9 17.2-12.2 3.7-2.7 6.8-3 10.8-.3 6.2 4.4 11.9 9.9 18.7 12.5zm-590.1 269.9c-4.2-.4-6.2-.6-8.1-.8-7.2-.6-15.5 2.4-21.5-1.7-6.1-4.2-5.6-13.1-8.4-19.7-1-2.3-.8-5.9-4.6-5-1.4.4-2.5 2.8-3.1 4.5-1.8 5-3.3 10.1-4.8 15.2-1.3 4.5-4.3 6.5-8.7 6.5-6.7.1-13.3.1-19.9.3-1 0-2.4 1-2.7 1.9-.3 1.1-.1 3 .7 3.6 5.2 4.1 10.5 8.1 15.9 12 3.8 2.7 4.4 6.1 3.5 10.4-1.6 7.5-6.5 14.2-5 23.9 7.3-5 13.8-9.3 20.1-13.9 3.1-2.2 5.9-2.5 9-.3 4.3 3.1 8.6 6.3 13 9.2 2.5 1.6 4.5 5.4 9.1 2-1.9-6-3.6-12.3-5.9-18.4-2.5-6.8-.3-11.2 5.4-15.2 5.2-3.5 11.5-6.2 16-14.5zm-456.4-731.6c-2.4 7.1-4.6 14-7 20.7-1.7 4.9-4.8 7.5-10.4 7.5-7.1 0-14.2.5-21.3.8.2 5.4 3.6 6.7 6 8.5 20.2 14.7 15.9 9.9 9.9 32.2-.8 2.9-3.6 5.8.3 9.4 7.5-5.1 15.2-10.2 22.7-15.3 5.2.8 8.5 4.2 12.4 6.7 4.3 2.7 7.5 7.3 13.2 7.4.5-.8 1.3-1.4 1.2-1.9-2-8.3-6.9-17.1-5.6-24.8 1.5-9.2 13.4-11.8 19.8-18.3.4-.4.6-1.2.8-1.8-.9-2.1-2.8-2.7-4.8-2.8-5.3-.1-10.6-.3-16-.1-6.1.1-9.5-2.3-11.7-8.3-2.3-6.6-1.9-14.7-9.5-19.9zm715.3 749.8c1.7-9.7-3.4-16.5-4.9-24-.9-4.4-.1-7.8 3.6-10.5 4.9-3.5 9.7-7 14.4-10.7 1.5-1.2 3.4-2.6 2.1-4.9-.5-.9-2-1.5-3.1-1.6-8-.4-17 1.5-23.6-1.6-8-3.8-6.8-15.1-10.3-22.8-.5-1-1.8-2.1-2.7-2.2-1-.1-2.8.8-3.1 1.7-2 5.6-4 11.3-5.5 17.1-1.4 5.4-4.6 7.7-10 7.6-4-.1-8-.3-12 .1-3.5.4-7.9-2-10.7 3.8 5.6 4.3 11.2 8.8 17 13 4.5 3.2 5 7.1 3.8 12.2-1.7 6.9-6.3 13.3-4.6 21.7 7.4-2.2 12.5-7.7 18.3-11.8 4.5-3.1 8.1-3.6 12.6-.2 5.7 4.5 11.8 8.4 18.7 13.1zm-594.1-599.9c2.4 8.2 8 9.8 11.9 13 10.7 8.5 12.3 7 6.9 23.1-1.5 4.6-4 9.2-1.8 15.8 7.1-5 13.1-9.1 18.9-13.4 3.7-2.8 7.1-2.4 10.9 0 6.3 4 11.5 10.3 21.2 12.6-1.5-5.5-2.2-9.4-3.5-13-6.7-18.8-5.1-16.5 9.3-27.3 1.1-.8 2.2-1.6 3.2-2.4 2.4-1.9 5.9-3.4 3.4-8.4-6.3 0-12.9-.2-19.5.1-6.2.2-9.4-2.3-11.7-8.3-2.4-6.2-1.3-14.5-8.9-18.3-4.7 5.1-4.6 12.2-7.3 18.1-.3.6-.3 1.3-.5 1.9-1.3 4.4-4.3 6.4-8.9 6.4-7.2.1-14.5.1-23.6.1zm217.3 434.4c-2.8-4.1-6.4-3.8-9.5-3.3-10.8 1.6-15.8-3.9-17.9-13.6-.5-2.3-.4-5.2-4.2-6.3-4.3 2.5-4.3 7.5-5.7 11.8-1.9 5.7-5.4 8.5-11.9 8.2-4.4-.3-9.4-1.6-13.6 3.3 13.5 7 20 16.9 11.7 31.9-.2.4 1.1 1.8 1.6 2.6.8-.2 1.6-.2 2-.6 10.1-9.1 20.3-11.8 30.9-.7.5.6 2.2.1 6.7.1-13.3-16.7-3.3-25.9 9.9-33.4zm176.6 69.3c5.9-3.8 11.8-7.6 17.9-11.5 3.1 2 5.8 4 8.7 5.4 3.2 1.6 5.1 6.4 9.9 4.1 1.5-4.8-.8-9.1-2.4-13.2-2-5.3-.3-8.5 3.7-11.8 3.8-3.2 10.1-4.4 10.1-11.5-6.5-.5-13.4.2-19.3-2-7.6-2.9-4.5-13.3-10.2-18.3-.4-.4-1-.6-1.8-1.1-2.4 6.2-3.5 13.3-7.5 18.1-4.6 5.4-12.6 1.6-19 2.7-1 .2-1.9 1.2-2.8 1.8.4 3.9 3.5 5.6 6.2 7.2 7.8 4.7 11.5 10.3 6.5 19.4-1.3 2.7-2.5 6.2 0 10.7zm-1662.2-351.1c.2-1.3.9-2.7.5-3.8-6.8-21.1-5.4-16.6 9.8-29 1.4-1.1 1.6-2.2.3-3.2-1.9-1.9-4.7-1.8-7.3-1.5-10.5 1.4-16.4-2.9-17.9-13.4-.2-1.3-.6-2.7-1.4-3.7-.7-1-1.9-1.7-3-2.3-1.3-.7-2.3-.1-2.8 1.6-1.9 5.7-3.1 11.6-7.3 17-2.9.2-6.1.4-9.4.7-3.8.4-8-1.2-11.8 3.1 2.5 2 4.7 4.5 7.5 5.9 9.4 4.6 9.7 11.4 6 19.9-1.2 2.7-3.1 6 .6 8.6 6.9-1 10.3-9.1 17.4-8.8 7 .2 10.7 7.6 17.3 9.2.4 0 .9-.2 1.5-.3zm1867.7 541c-4.5-4.3-10.1-2.4-15.2-2.5-4.9-.1-6.8-2.8-8.9-6.5-2.5-4.4-.8-11.1-7.9-13.5-2.6 5.9-4 12.8-8 17.4-4.6 5.3-12.7 1.2-18.9 3.1-1 .3-1.7 1.6-2.7 2.5 5 4.4 11.1 7.9 14.5 13.2 3.9 6.1-3.2 12.4-2.7 19 0 .6.6 1.2 1 1.9 7.1 0 10.5-7.9 16.9-8.6 7.3-.7 11.2 6.5 17.3 9 1.6.7 2.6.7 3.3-1.1-1.2-5.9-4-12.5-3.4-18.6.9-7.8 11.2-8.7 14.7-15.3zm-374.4-1100.4c2 1.9 3.3 3.4 4.9 4.6 2.1 1.7 4.2 3.3 6.4 4.7 4.7 2.9 5.9 6.9 4.3 11.9-.8 2.5-1.8 5-2.5 7.6-.5 1.8-1.5 3.9.3 5.6s3.8.5 5-.7c9.3-9.4 18.3-8.4 27.3.4 1.1 1.1 3.2 1 6 1.8-1.6-7.3-4.4-13.7-4.1-19.9.4-7.3 9.1-8.8 13.5-13.6 1.3-1.4 1.5-2.2 1.6-2.1-5.8-3.7-10.6-2.4-15.1-2.5-4.6-.1-7.6-1.8-9.1-6.1-1.4-3.7-2.5-7.5-4.1-11.2-.4-1-2-1.9-3.1-2-.8-.1-2.3 1-2.6 1.9-1.9 5.6-3.2 11.5-6.9 16.2-6.8 2.7-14.6-.8-21.8 3.4zm340.1 852.7c7.8 1.9 12 9.1 19.8 10.4.8-5.4-1-8.9-2.4-12.6-2.5-6.4-1.3-11.3 4.9-15.3 3.3-2.1 9.2-3.4 7.5-9.8-20.4-1.9-20.4-1.9-27.9-20.8-1.6 1.3-4.2 2.4-4.4 3.7-1.6 15.2-11.5 17.5-24.1 16.1-1-.1-2.1.9-3.1 1.3 0 .8-.3 1.7 0 2 4.7 4.5 10.8 8.2 13.9 13.6 3.8 6.5-4.5 13.4-2.3 22 6.7-3.8 12.8-7.5 18.1-10.6zm502.3-288.2c-3.6-4.2-8.6-2.8-12.9-2.6-6.4.4-10-2.3-11.8-8.1-1-3.1-1.9-6.3-3.2-9.3-.4-1-2-1.9-3.1-2-.8-.1-2.3 1-2.6 1.9-1.9 5.6-3.2 11.5-6.9 16.2-6.8 2.7-14.6-.8-22.1 3.5 2.6 2.3 4.4 4.4 6.5 5.6 8.7 4.9 12.6 11.1 7.5 21-1.3 2.6-3 6 1.2 9 3.6-2.4 7.5-4.8 11.3-7.5s7.2-2.2 11 .1c4.2 2.5 7.4 7.3 14 6.7-1.3-6.6-4.1-13.1-3.5-19.2.8-7.8 10.9-8.9 14.6-15.3zm-1341.9-115.6c3 1 5-1 6.9-2.5 12.2-9.1 11.1-8.3 22.1-.5 2.2 1.6 4.5 5.2 9 1.5-1.1-4.1-2-8.6-3.7-12.8-1.9-4.5-.1-7.4 2.9-10.5 3.7-3.9 11.4-4.5 11-12.4-2.4-.2-4.4-.8-6.3-.6-10.7 1.4-18.1-1.5-19.7-13.5-.3-2.4-1.1-6.3-6.2-6.4-1.5 16.3-10.7 22.7-26.5 20.4-.5-.1-1.1.5-1.7.8.1.7-.1 1.6.3 1.9 4.7 4.5 10.7 8.3 13.9 13.7 4 6.8-5.1 13.5-2 20.9zm1013.7 402.6c-8.8-.7-15.9.3-21.7-2-6.5-2.7-5.5-11.4-8.5-17.1-.5-.9-1.5-1.4-2.3-2.1-.9 1.1-2.2 2-2.4 3.2-2.1 14.9-11.3 19.4-25.1 17.5-.8-.1-1.8 1.3-2.7 1.9.6 1.2.9 2.9 1.8 3.4 13.6 6.5 14.6 16.7 9.1 29.2-.3.8.8 2.2 1.4 3.7 5.7-3.3 11-8.1 17.1-9.5 6.8-1.6 10.5 7.2 17.1 8.5.5.1 1.1-.2 1.7-.2.3-.6.8-1.2.9-1.8.8-6.6-6.5-12.8-2.8-18.9 3.4-5.5 9.4-9.3 16.4-15.8zm-948.1-339.4c9.5 9.4 9.5 9.4 8.8 25.1 1.8-.8 4-1.1 5.3-2.4 5.6-5.3 10.7-3.7 15.9.5 1.5 1.2 3.5 1.9 5.3.2-.4-4.5-1.6-9.2-1-13.6.7-5 8.9-5.3 9.2-11.6-5-.9-9.8-1.1-14-2.7-5.1-2-2.2-10.7-8.9-12-5.7 11.8-5.7 11.8-20.6 16.5zm-753.7-194.2c-13.9-3.2-13.9-3.2-22.4-16-6.2 12.8-6.2 12.8-21.1 15.6 9.9 12.3 9.9 12.3 8.5 25.1 13.9-4 13.9-4 26.4.4-.8-13.6-.8-13.6 8.6-25.1z" fill="#100151"/><path d="m2876.6 2202.4c5-11.6 9.6-23.4 15-34.8 153.8-326.2 432.1-581 770.2-705.5 87.1-32.1 176.7-54.9 268.4-69.1 68.6-10.6 137.8-16.1 207.1-15.4 360.6 3.3 675.2 125.8 940.1 370.7 194.5 179.9 324.7 400.1 393 656.3 18.9 70.9 31.6 143 38.4 216.1 5.6 59.8 8.5 119.6 6.2 179.6-1.8 47.3-5.6 94.4-11.9 141.3-.4 3.2-1.8 6.4-2.7 9.6-9.4-8.5-18.8-16.9-28.1-25.4-57.3-52.1-119.2-98.4-183-142-146.5-100-299.2-189.5-457.7-269-163.4-81.9-332.2-150.2-507.2-203-233.5-70.4-472.2-113.7-714.9-135.1-68.4-6-136.9-9.4-205.5-11.5-102.7-3.1-205.2-.4-307.6 7.4-28.5 2.2-57 5.3-85.5 8.7-45.2 5.4-89.8 13.2-134.3 21.1zm1642 109.4c-.4 1.3-.9 2.6-1.3 3.9 6.2 4.7 12.4 9.3 18.5 14.1 7.5 5.8 7 5.8 5 14.8-1.7 7.6-6.9 14.4-5.5 22.8 8.3-.7 13.2-7.5 19.8-11.3 1.1-.7 2.2-1.5 3.3-2.3 3.7-2.7 7.3-2.3 10.9.3 5.3 3.9 10.7 7.8 16.1 11.6 2 1.4 3.9 3.8 7.5.1-2.4-7.5-4.8-15.6-7.5-23.7-1.5-4.4-.1-7.5 3.3-10.4 6.8-5.8 15.4-9.7 23-19.1-8.2-.4-13.8-.7-19.5-.9-14.8-.5-16.2 3.5-21.9-15.9-1.5-5-.3-12.6-8.8-14.5-2.5 7.5-5.2 15-7.5 22.6-1.8 6.1-5.6 8.3-11.8 7.9-7.7-.3-15.7 0-23.6 0z" fill="#100151"/><path d="m2876.6 2202.4c44.6-8 89.2-15.7 134.2-21 28.4-3.3 56.9-6.5 85.5-8.7 102.4-7.8 204.9-10.5 307.6-7.4 68.6 2.1 137.1 5.5 205.5 11.5 242.8 21.4 481.4 64.7 714.9 135.1 175 52.8 343.8 121 507.2 203 158.5 79.5 311.3 168.9 457.7 269 63.9 43.6 125.7 89.9 183 142 9.3 8.5 18.8 16.9 28.1 25.4.5 19.5-4.7 38.1-8 57-9.1 51.7-22.1 102.5-37.3 152.7-1.3 4.4-3.3 8.7-5 13-34.5-36.2-70.6-70.7-109.1-102.6-65.7-54.5-135-104.1-206.1-151.2-151.7-100.5-309-191.2-473.9-268.5-168.6-79-343-141.5-523.4-187.7-100.7-25.8-202.3-46.7-304.9-63-55.2-8.8-110.7-15.9-166.3-22-83.5-9.3-167.1-15.3-251-18.2-71.2-2.5-142.6-2.7-213.8 0-95.2 3.7-190.1 11.9-284.1 28.2-34.1 5.9-68 12.7-101.5 21.6-3.8 1-7.8 1.4-11.8 2.1.1-11.5 4.7-22 7.7-32.8 15.4-55.7 34.8-110.1 57.4-163.3 2-5 4.9-9.5 7.4-14.2zm758 90.4c-4.8-5.9-5.2-10.6-6.1-15.2-2.4-13.7-5.2-27.4-7.3-41.2-4.5-29.5-.7-25-32.1-28.1-1.3-.1-2.7-.1-4-.1-4.7-.2-7.6 2-8 6.7-1.2 13.2-2.3 26.5-3.4 39.8-2 23.9-4.1 47.7-5.8 71.6-.6 8.4.7 9.4 8.4 10.1 2.6.2 5.3.4 8 .5 4.7.1 7.3-2 7.7-6.9 1.6-19.9 3.2-39.8 4.9-59.7.4-4.4-.7-9.6 5.4-12.6.7 3.3 1.3 6.3 1.9 9.3 3.8 22.3 7.6 44.6 11.3 66.9.6 3.7 2.5 6 6.3 6.4 3.3.3 6.6.7 9.9.9 9 .4 9.8.1 12.9-8.6 7.3-20.7 14.4-41.4 21.8-62.1.9-2.5.4-6.8 5.6-6.5 1.5 26.5-6.3 52.7-3.9 79.7 5.2.7 9.7 1.5 14.3 1.8 6.9.4 8.5-.9 9.1-7.4 2.9-33.8 5.8-67.6 8.5-101.4 1.5-19.2 2.3-19-18.9-20.3-18.7-1.1-18.7-1.2-25.1 16.6-6.8 19.1-13.8 38.4-21.4 59.8zm-225.9-25.3c-.4 0-.7 0-1.1 0-.8 17.3-1.7 34.6-2.3 51.9-.3 9 1.2 10.8 10 11.1 31.3.8 62.6 1.3 93.9 1.9 4.7.1 7.6-1.7 7.8-6.7.7-14.2.7-14.9-13.4-15.1-8.7-.1-17.3-.6-26-.9-11.3-.4-22.6-.7-34-1.1-4.6-.2-7.6-2.1-7.4-7.2.8-29.6-3.6-26.5 24.8-26.2 4 0 8 .2 12 .3 10 .1 20 .4 30 .3 6.3-.1 7.7-1.8 8.1-8.7.1-2 .1-4 .1-6 0-3.8-1.8-6.4-5.7-6.8-5.3-.6-10.6-.9-15.9-1-14.7-.4-29.3-.7-44-1.1-4.5-.1-7.7-1.8-7.5-7 .2-4.7.3-9.3.7-14 .4-4.8 3.1-6.9 8-6.8 16 .4 32 .7 48 1 4 .1 8 .5 12 .6 9.2.1 10.5-1.1 11.2-9.8.8-10.3-.5-12-10.2-12.3-29.3-.9-58.6-1.7-87.9-2.3-9-.2-10.9 1.4-11.1 9.9-.3 18.7-.1 37.4-.1 56zm885.9 69.4c-8.9 18.8-39 105-42.4 120.6 3.9 4 9.2 4.9 14.2 6.4 8.8 2.6 10.5 1.8 13.5-6.3 3.5-9.3 6.5-18.8 10-28.2 4.7-12.8 9-14.2 20-7 5.3 3.5 8.3 8.4 10.1 14.3 4 13.4 8.1 26.7 12 40.1 1.2 3.9 2.4 8.1 6.5 9.5 7.9 2.7 15.6 6.7 24.4 6.4-.8-18.1-3.9-29.3-17.3-63.6 4.7-.4 9.3-.5 13.8-1.3 15.1-2.9 26-14.5 28.3-29.7 2.5-16.3-3.6-27.9-18.9-35.9-2.3-1.2-4.8-2.3-7.3-3.1-21.8-7.4-43.9-14.7-66.9-22.2zm-1146.4-59c3.9-5.9 10.7-6.2 15.3-10.1 10.7-9.2 14.4-20.7 11.7-34.1-2.8-13.3-10.4-22.9-24.2-26.5-7.8-2-15.8-2.5-23.8-2.1-18 1-35.9 2.2-53.9 3.4-9 .6-10.6 2.1-10 10.9 2 33.3 3.8 66.5 6.6 99.7 1.7 19.9-1.4 18.6 21.8 17.1 5.2-.3 7.2-2.6 6.9-7.6-.7-10.6-1.7-21.3-2.3-31.9-.7-13.6 2.7-16.2 16-13.8 6.4 1.1 10.9 4.8 14.9 9.4 7.8 9.1 16.1 17.9 22.9 27.7 7 10.1 15.6 13.6 27.2 11.3 2.6-.5 5.3-.3 8-.6 4.4-.5 6-3.5 3.4-6.8-12.4-16.4-23.7-33.6-40.5-46zm1663.9 344.8c6.2 0 10.2.3 14.1-.1 16.6-1.7 28.6-11.9 32.9-27.8 4-15-.6-28.3-16.1-37.3-20.1-11.7-41.3-21.6-62-32.2-2.8-1.5-5.3-.1-6.8 2.2-2.2 3.3-4 6.9-5.8 10.4-14.6 27.7-29.2 55.4-43.6 83.2-9.1 17.5-10.2 15.7 7.8 24.4 7 3.4 8.1 3 12.3-4.6 6.1-11.1 11.9-22.4 17.9-33.5 1.9-3.4 4.7-4.1 8.4-2.6 10.3 4.3 15.1 12.5 16.4 23.2 1.6 13.2 3.4 26.4 4.7 39.7.5 5.1 2.4 9.1 7.1 11.1 6.6 2.8 12.3 7.9 20.9 8.3 1.2-21.6-1.6-42.3-8.2-64.4zm-1573.7-356h.8v8c.2 16 .3 31.9.6 47.9.1 6.3 2 8.2 8.6 8.1 18.6-.4 37.3-.5 55.8-1.9 23.3-1.9 37.4-15.7 43.7-37.6 3.9-13.6 4.3-27.4 1.7-41.5-6.1-32.4-23-47.6-55.7-48.5-15.3-.4-30.6.1-45.9.4-7.8.2-9.5 1.9-9.6 9.3-.1 18.5 0 37.1 0 55.8zm1853.1 573.3c31.9-.3 49.4-30 34.8-55.1-4.3-7.4-10.5-13.7-16.2-20.2-5.3-6-11.2-11.4-16.4-17.4-2.5-2.9-4.6-6.5-5.9-10.2-2.2-6.1 3-12.5 9.3-11.8 8.9 1 16.4 5 23.1 10.8 4.7 4.1 8.7 9 7.6 15.4-1.6 9.2 3.3 13.4 10.5 16.6 3 1.4 5.8 3.2 8.9 4.5 2.9 1.3 5.2-.2 6.3-2.8 4.9-11.1 4.3-22.4-2.2-32.4-13.4-20.6-32.9-32.9-57.1-36.1-16.9-2.2-39 10.3-35.1 37.6 1.1 7.5 4.4 14 9.2 19.6 6.4 7.6 13.4 14.8 20.1 22.1 4.5 4.9 9.5 9.3 12.5 15.4 2.9 5.9 1.2 12.4-4.5 15.4-2.9 1.5-6.3 2.8-9.4 2.7-19-.1-34.6-17.3-33-36.7.4-4.5.4-8.1-4-9.8-6.5-2.5-12.9-11.3-19.4-6.3-6.1 4.6-6.3 14.3-5.5 22.4 1.1 10.9 5.7 20.4 13.4 28.3 11.8 12.1 25.9 20.7 42.1 25.8 4.3 1.6 9.1 1.9 10.9 2.2zm205 18c.5-9.6-.5-16.9-4.7-23.2-13.1-19.8-31-33.1-54.4-37-25-4.2-43.8 19.3-35.5 43.3 2.4 7 6.4 13.1 11.2 18.8 6 7.1 12.3 13.9 18.3 21.1 3 3.5 5.9 7.3 7.9 11.4 3.6 7.3-.3 14.5-8.4 17-4 1.3-7.8.8-11.7-.4-9.2-2.9-16.7-8.1-22.4-15.8-5.1-6.9-5.6-14.8-3.2-22.8 1.1-3.8-.4-6.7-3.7-8.2-6.4-2.8-12.5-11.8-19.1-7.5-6.3 4.2-6.7 13.9-6.6 22.1.2 10.4 4.1 19.5 10.6 27.4 11.7 14.1 26.5 24.2 43.9 29.9 4.3 1.4 9.1 2.1 13.7 2.1 28.3 0 45.6-28 32.8-53.3-2.7-5.3-6.3-10.2-10.1-14.8-5.4-6.7-11.4-12.9-17.1-19.5-3.9-4.5-7.8-9-9.6-15-1.6-5.2 2.5-11.2 7.8-11.5 13.9-.8 32 13.6 31.5 27.1-.3 8.9 2.8 13.6 9.9 17.3 2.4 1.2 4.5 2.9 6.8 4.2 4.4 2.5 8 1.4 9.5-3.1 1.4-3.9 2.1-7.9 2.6-9.6zm-648.3-325.8c-15.4 20.2-10.2 19.6 4.3 27.4 1.2.6 2.4 1.2 3.5 1.9 5 3.1 5.5 6.2 2.2 11.6-2.1 3.6-4.6 6.3-9.2 6.5-11.7.5-22.5-2.3-31.7-9.6-8.3-6.6-13.2-15.5-12.5-26 1.3-18.7 8.9-35 24.3-46.2 18.9-13.7 47.1-2.4 51.4 20.7 1.5 7.9 4.2 12.2 11.7 13.4 4.5.8 8.5 4.2 14 2 5.4-17.5 0-32.3-13-44.7-9.3-8.8-20.4-14.7-32.7-18.5-17.8-5.5-34.4-2.6-49.3 8-17.7 12.5-27.9 30.1-31.4 51.4-4.3 26.5 5.8 46.8 28 61.3 16.8 10.9 35.4 14.7 55.2 13.4 5.7-.4 10.1-2.3 12.8-7.7 5.7-11.3 11.7-22.4 17.6-33.5 1.9-3.6 1.3-6.3-2.2-8.2-13.9-7.6-27.9-15.1-43-23.2zm-162.5 4.3c20.4-.1 35.2-8.1 46.3-22.7 11.2-14.7 17.2-31.5 17.7-50 .5-20.9-8.1-37.4-25.5-49-8.9-6-18.8-9.9-29.5-11.5-25.1-3.9-44.3 5.3-58.3 26-7.9 11.8-12.7 24.9-14.5 38.9-2.7 20.6 3.5 38.3 19.7 51.6 13.1 11 28.6 16.6 44.1 16.7zm431.8 141c6 3.3 11.8 6.4 17.5 9.6 10.4 5.9 20.9 11.7 31.2 17.8 4.6 2.7 7.3 1 9.7-3 1-1.7 2.1-3.4 3-5.2 3.2-6.2 3-8.2-2.5-11.4-9.7-5.8-19.6-11.2-29.3-17-22.2-13.1-21.7-8.5-7.2-31.5.5-.8 2.2-1 4.4-2 13.7 7.8 28.1 16.1 42.5 24.3 14.3 8.1 14.6 10 23.1-7.4.7-1.4.9-2.5.4-4.7-26.4-15.2-52.7-30.3-79.5-45.7-2.8 3.6-5.1 6-6.7 8.8-17.9 31.1-35.8 62.2-53.6 93.3-.7 1.2-1.4 2.3-1.9 3.5-1.6 3.6-.6 6.6 2.6 8.5 25.8 15 51.7 29.8 77.4 44.6 6.4-4.8 9-10.8 11.4-17.9-18.6-13.6-40.4-22.3-59.3-36.3 4.4-10.5 9.3-19.7 16.8-28.3zm-781.8-300.6c8 1.8 16.3 3.8 24.7 5.5 10.4 2.1 21 3.7 31.6 1.9 19-3.1 32.4-18.3 34.1-38.7 1.4-15.9-8-30.4-25.8-35.7-22.2-6.6-45-11.4-67.5-16.9-3.1-.8-5 1.2-6.1 3.8-1.1 2.4-1.9 4.9-2.7 7.5-10 33-19.9 66-29.8 99.1-3.6 12.2-3 13.2 9.3 16 2.6.6 5.2 1 7.8 1.4 6.5.9 8 .2 10.2-6.3 2.5-7.5 4.4-15.3 7-22.8 1.8-5 2.3-10.6 7.2-14.8zm1295.9 585.7c.9-38.1-42.5-77.1-85-51.7-18.9 11.3-32.1 27.8-39 48.8-7.7 23.2-.7 44.4 19 60.3 19.1 15.4 42.6 17.6 63.1 5.1 19.4-11.8 32.7-28.9 39.5-50.7 1.5-5 2.1-10.3 2.4-11.8zm-2536.3-674.1c.3 3.5.4 9.6 1.3 15.4.7 4.6 2.1 9.1 3.8 13.4 8.5 22.1 27.7 34.7 52.9 34.9 27 .2 47-11.7 56.1-33.5 1.3-3 2.2-6.3 3-9.4 3.3-12.5 2.5-25-.1-37.5-5.4-26.6-23.4-44-50.2-46.2-31.3-2.6-54.7 10.5-64.1 38.9-2.4 7-2.4 14.3-2.7 24zm1051.3-3.4c1.5-3.8 2.2-5.6 2.9-7.5.4-1.3.8-2.5 1-3.9 1.2-7 .3-8.8-6-9.9-13.7-2.6-27.5-5-41.2-7.3-11.8-1.9-23.6-3.7-35.5-5.2-3.6-.4-6.3 1.5-7 5.5-2.4 13.8-4.8 27.5-7.1 41.3-3.5 21-7.1 42-10.3 63-1.1 7.4.5 9.3 8.1 10.6 23.6 4 47.2 8 70.8 11.9 2 .3 4 .6 6 .5 3.8 0 6.1-2.2 6.8-5.9 2.4-12.1 1.1-14.2-8.7-15.3-5.3-.6-10.5-1.9-15.7-2.8-9.8-1.6-19.7-3.1-29.5-4.8-9.4-1.6-10.4-3.2-9.2-13.6.1-.7.2-1.3.2-2 2.4-17.9 2.7-18.1 21.3-15.5 13.7 2 27.1 5.7 41.6 5.8 1.1-4.3 2.3-8.1 3-11.9.9-4.9-.9-7.5-5.8-8.5-3.9-.9-7.9-1.2-11.8-1.9-11.8-2.1-23.6-4.2-35.3-6.4-3.8-.7-5.6-3.3-5.1-7.1 2.5-21.2 3.1-19.7 22-16.5 14.3 2.4 28.7 4.8 44.5 7.4z" fill="#f9faf8"/><g fill="#e7e0ea"><path d="m3042.6 2548.8c-8.4-6-15.5-10.9-22.5-15.9-3.6-2.5-7.1-3.1-10.9-.2-5.3 4-10.7 7.9-16.2 11.7-2 1.4-3.9 3.5-7.3 1.7.1-8.6 4.5-16.2 6.6-24.4 1.3-5.3.2-8.8-4.2-12-7-4.9-13.7-10.2-21.9-16.4 10.6-3.9 19.9-1.6 28.9-2.2 4.4-.3 7.5-1.7 9-6.2 2.9-8.7 6.1-17.3 9.4-26.7 7 7.4 7.4 16.5 10.4 24.5 2.2 5.9 5.5 8.3 11.7 8.5 8.5.2 17.1-1.5 25.8 1.7-3.6 5.9-9.2 8.5-13.9 12.1-11.3 8.6-14.5 7.6-8.5 24.2 1.9 5.3 5.4 10.7 3.6 19.6z"/><path d="m3164.6 3125.8c-9.7-3.1-15.6-9.6-22.5-14.3-4.4-2.9-8-3.7-12.5-.3-6.8 5.1-13.9 9.7-22.6 15.8-.2-11.8 4.7-20 7-28.8 1-3.8 0-6.7-2.7-8.8-5.2-4.2-10.7-7.9-16-11.9-2.6-1.9-5.7-3.4-6.2-8.6 9.4-.2 18.4-.4 27.5-.5 4.6 0 7.4-2 8.9-6.3 2.7-8 5.5-16 8.2-23.9 3.9.7 5.2 2.8 6 5.5 1.8 5.7 3.6 11.4 5.4 17.1 1.5 4.9 4.5 7.8 10.1 7.6 8.5-.2 17-.1 24.9-.1 1.9 4.4-.1 6.1-2.3 7.7-4.8 3.6-9.7 7-14.4 10.7-7.6 5.9-7.4 5.9-5 14.8 2 7.7 6 14.7 6.2 24.3z"/><path d="m5129 3277.7c-9.8-3.6-16.1-10.6-23.8-15.4-3.2-2-6-2.2-9.1 0-7.5 5.2-15 10.4-24 16.5-.6-11.1 4-18.7 6.4-26.7 1.6-5.2.6-8.8-3.8-12-6.9-5-13.6-10.3-19.9-15.1.7-4.9 3.6-4.4 6.1-4.5 6.7-.1 13.3-.2 20-.1 5.5.2 8.7-2.4 10.3-7.5 1.7-5.7 3.5-11.4 5.3-17.1.8-2.6 2-4.9 5.9-5.9 2.2 6.6 4.4 13.3 6.7 20 3.5 10.1 3.8 10.3 13.9 10.5 7.8.2 15.6 0 22.9 0 1.4 4.7-1.2 6.1-3.2 7.7-5.3 4-10.6 8-16.1 11.8-4.3 3-5.4 6.4-3.9 11.9 2.3 8.2 6.9 15.8 6.3 25.9z"/><path d="m3586.4 3435.6c2.7 7.9 4.9 14.1 7 20.4 4.2 12.2 4.2 12.3 16.3 12.5 7.1.1 14.3 0 21.3 0 1 7.7-5.1 8.3-8.2 11.1-3.4 3.2-7.3 5.7-11.2 8.3-4.7 3.1-5.1 7-3.8 12.1 2 8.2 6.6 15.8 6.7 26.1-8.1-2.9-13.6-8.4-19.8-12.6-9.1-6.3-9-6.2-18.9.5-5.4 3.7-11 7.3-16.5 11-.5.3-1.2.2-2.6.4-.3-9 4.2-16.6 6.6-24.6 1.8-5.9.5-10.1-4.8-13.6-6.1-4-11.9-8.5-17.6-13-.7-.6-1-2.5-.6-3.5.3-.9 1.8-1.8 2.8-1.9 8-.2 15.9-.2 23.9-.4 4.3-.1 7.2-1.9 8.8-6.4 2.8-8 3.9-16.8 10.6-26.4z"/><path d="m4089 3356.3c12-.2 21-.4 30.1-.5 4.6-.1 7-2.4 8.6-6.6 3.2-8.4 4-17.9 10-25.6 7 9.8 6 22.3 13.6 31.1 10.5.6 21.1 1.3 31.6 1.9 1.4 4.4-2.1 5.8-4.5 7.6-4.2 3.2-8.4 6.5-12.9 9.3-6 3.8-7.6 8.5-5.2 15.2 2.6 7.3 4.6 14.9 6.8 22.3-5 1.6-7.2-1.4-9.9-2.9-6.8-3.9-11.9-12.4-20-11.9-7.8.5-13.3 8.2-20 12.4-2.2 1.4-4.5 2.5-7.9 4.4-1-9.2 3.3-16 5.4-23.3 2.7-9.6 2.5-10.3-5.7-16.6-6-4.8-13.1-8.3-20-16.8z"/><path d="m5113.6 3458.6c-6.3 4.8-12.6 9.5-18.9 14.4-2.8 2.2-3.7 5.2-3 8.8 1.4 7.7 6.3 14.6 5.6 23.9-8.3-2-13.5-8.3-19.9-12.3-3.9-2.4-7.3-2.3-11.1.2-6.1 3.9-11 9.7-19.2 12.2-1.6-7.9 2.6-14.1 4.5-20.7 1.6-5.8.9-10.1-4.4-13.7-5.8-4-12.2-7.5-16.6-13.8 6.9-3.4 13.6-1.7 20.1-2 10-.5 10-.4 13.7-10.8 1.5-4.4 2.8-8.9 4.4-13.2.4-1.1 1.6-2.2 2.6-2.5 2.6-.8 3.4 1.4 4 3.3 1.9 5.7 3.6 11.4 5.6 17.1 1.5 4.1 4.5 6.1 9.1 6.3 7.3.3 14.6-1.3 21.8 1.2.4-.3.7.4 1.7 1.6z"/><path d="m3639.1 2846.4c-8.1-2.7-13.4-7.7-19-12-5.1-3.9-9.3-3.3-14.3.2-5.3 3.7-9.8 8.9-17.3 10.9-2.4-8.7 3.4-15.3 4.8-22.6.9-4.6 0-7.5-3.3-10.3-6-5.1-13.5-8.3-18.8-15.6 8.2-2.9 16.2-1.3 24-1.7 4.5-.2 7-2.1 8.9-6.3 3.1-7.2 3-15.8 10.1-22.6 2.8 8.1 5.3 15.3 7.9 22.5 1.5 4 4.1 6.3 8.8 6.5 7.8.2 15.8-1.3 25.2 2.3-7.4 5.6-13.7 10.4-20 15-3.7 2.7-4.6 6.2-3.3 10.5 2.3 7.3 5.8 14.5 6.3 23.2z"/><path d="m5180.1 3395.7c-6.8-2.6-12.5-8.1-18.8-12.5-3.9-2.7-7.1-2.5-10.8.3-5.8 4.3-11.8 8.4-17.2 12.2-5-1.6-2.7-4.4-2.1-6.5 1.2-4.5 2.6-9 4.2-13.3 2.5-6.6 1.2-11.4-5-15.4-5.4-3.5-10.4-7.8-15.2-11.6 1.7-5.7 5.6-3.8 8.5-4.1 3.3-.3 6.6 0 10-.1 11.2-.3 11.3-.3 15.1-11.4 1.5-4.4 2.8-8.9 4.4-13.2.4-.9 2-1.9 3-1.8s2.4 1.2 2.7 2.2c1.8 5 3.3 10.1 5 15.1 3 8.5 3.4 8.8 12.8 9.1 5.3.2 10.6 0 16 .2 1.1 0 2.6.7 3.1 1.6 1.2 2.1-.2 3.6-1.7 5-6.2 5.7-17.1 8.1-18.1 17.1-.8 7.3 3.5 15.3 5.7 22.9.6 1.6.8 2.6-1.6 4.2z"/><path d="m4590 3665.6c-4.5 8.3-10.9 11-16.1 14.7-5.7 4-7.9 8.4-5.4 15.2 2.3 6.1 4 12.4 5.9 18.4-4.6 3.4-6.6-.4-9.1-2-4.5-2.9-8.7-6.1-13-9.2-3.1-2.3-6-1.9-9 .3-6.4 4.5-12.9 8.9-20.1 13.9-1.5-9.7 3.4-16.5 5-23.9.9-4.4.3-7.7-3.5-10.4-5.4-3.9-10.7-7.8-15.9-12-.8-.6-1-2.5-.7-3.6.3-.9 1.7-1.9 2.7-1.9 6.6-.2 13.3-.2 19.9-.3 4.5-.1 7.5-2.1 8.7-6.5 1.5-5.1 3-10.2 4.8-15.2.6-1.7 1.8-4.1 3.1-4.5 3.8-1 3.7 2.7 4.6 5 2.8 6.6 2.3 15.5 8.4 19.7 6.1 4.1 14.3 1.1 21.5 1.7 2.1 0 4 .2 8.2.6z"/><path d="m4133.6 2934c7.6 5.2 7.2 13.3 9.7 19.9 2.3 6 5.7 8.4 11.7 8.3 5.3-.1 10.6 0 16 .1 2 0 3.9.7 4.8 2.8-.3.6-.4 1.3-.8 1.8-6.4 6.6-18.3 9.1-19.8 18.3-1.3 7.7 3.6 16.5 5.6 24.8.1.4-.7 1.1-1.2 1.9-5.7-.1-8.9-4.7-13.2-7.4-3.9-2.5-7.2-5.9-12.4-6.7-7.5 5-15.1 10.2-22.7 15.3-3.9-3.5-1.1-6.5-.3-9.4 6-22.3 10.3-17.5-9.9-32.2-2.5-1.8-5.9-3.1-6-8.5 7.1-.3 14.2-.8 21.3-.8 5.5 0 8.7-2.6 10.4-7.5 2.2-6.7 4.4-13.5 6.8-20.7z"/><path d="m3448.8 3256.2c-3.7 1.2-6.2-1.1-9-2.9-6-4-11.1-9.4-18.5-11.7-7.6 5-15.3 10-23.1 15.1-3.8-6.4.5-10.9 1.7-15.6 3.6-13.2 6.8-12-7.8-22.5-3.7-2.7-7.4-5.4-10.6-7.8 0-4.8 2.9-4.4 5.4-4.5 4-.1 8 0 11.9-.1 11.7-.3 12.3-.6 15.8-10.9 2.1-6.1 3.2-12.7 7.3-18 4.7 6 5.8 13.4 8.1 20.3 1.9 5.7 5.1 8.8 11.5 8.7 7 0 14.2-.9 24 1.4-8.3 6.5-14.3 11.3-20.4 15.9-3.6 2.7-4.9 5.9-3.4 10.3 2.6 7.5 5 15.1 7.4 22.7z"/><path d="m3355.5 3396.9c-1.1-9 4.1-16.6 5.8-25 .7-3.6.2-6.5-2.8-8.7-6.2-4.8-12.5-9.6-18.4-14.2 1.9-6.8 6.8-4.1 10-4.1 24.3-.5 18.9 1.7 25.9-18.5 1.3-3.6 2-7.6 6.2-9.3 5.1 8.4 3.1 21.6 12.2 26.1 7.6 3.7 18 1.7 28.5 2.3-3.3 7.9-10.5 10.5-15.9 14.8-7.9 6.4-8.1 6.3-4.9 16.7 1.7 5.6 3.5 11.1 5.7 18.2-7.1 0-10.4-4.2-14.4-6.7-3.9-2.5-7.7-5.2-11.7-7.9-10.3 3.5-17.1 12.6-26.8 16.8z"/><path d="m4848.9 3683.8c-6.8-4.7-12.9-8.6-18.7-12.9-4.5-3.4-8.1-2.9-12.6.2-5.8 4.1-10.9 9.6-18.3 11.8-1.7-8.4 2.9-14.8 4.6-21.7 1.2-5.1.7-9-3.8-12.2-5.8-4.2-11.4-8.7-17-13 2.7-5.9 7.2-3.5 10.7-3.8 4-.4 8-.2 12-.1 5.4.1 8.6-2.2 10-7.6 1.5-5.8 3.5-11.5 5.5-17.1.3-.9 2.1-1.8 3.1-1.7s2.3 1.2 2.7 2.2c3.5 7.7 2.3 18.9 10.3 22.8 6.6 3.2 15.6 1.2 23.6 1.6 1.1.1 2.6.7 3.1 1.6 1.4 2.3-.6 3.8-2.1 4.9-4.7 3.7-9.6 7.2-14.4 10.7-3.7 2.7-4.5 6.1-3.6 10.5 1.5 7.3 6.6 14.1 4.9 23.8z"/><path d="m4254.8 3083.9h23.7c4.5 0 7.6-2 8.9-6.4.2-.6.3-1.3.5-1.9 2.7-6 2.6-13 7.3-18.1 7.6 3.8 6.4 12.1 8.9 18.3 2.3 6 5.5 8.5 11.7 8.3 6.6-.3 13.3-.1 19.5-.1 2.5 5-1 6.4-3.4 8.4-1 .8-2.1 1.6-3.2 2.4-14.5 10.7-16.1 8.5-9.3 27.3 1.3 3.6 2 7.5 3.5 13-9.7-2.3-14.8-8.6-21.2-12.6-3.9-2.4-7.2-2.8-10.9 0-5.8 4.3-11.8 8.4-18.9 13.4-2.2-6.6.3-11.2 1.8-15.8 5.4-16.2 3.8-14.6-6.9-23.1-4-3.3-9.6-5-12-13.1z"/><path d="m4472.1 3518.3c-13.2 7.4-23.2 16.6-9.9 33.4-4.5 0-6.1.5-6.7-.1-10.6-11.1-20.8-8.5-30.9.7-.4.4-1.3.4-2 .6-.6-.9-1.9-2.2-1.6-2.6 8.3-15 1.8-24.9-11.7-31.9 4.2-4.9 9.2-3.6 13.6-3.3 6.4.4 9.9-2.4 11.9-8.2 1.4-4.2 1.4-9.3 5.7-11.8 3.9 1.1 3.7 4 4.2 6.3 2.1 9.7 7.1 15.2 17.9 13.6 3-.4 6.7-.7 9.5 3.3z"/><path d="m4648.7 3587.6c-2.5-4.5-1.3-8 .2-10.6 5.1-9.1 1.4-14.8-6.5-19.4-2.7-1.6-5.8-3.3-6.2-7.2.9-.6 1.8-1.6 2.8-1.8 6.4-1.1 14.4 2.6 19-2.7 4-4.7 5.1-11.9 7.5-18.1.8.5 1.4.7 1.8 1.1 5.6 5 2.6 15.4 10.2 18.3 5.8 2.2 12.8 1.4 19.3 2-.1 7.1-6.3 8.3-10.1 11.5-4 3.3-5.7 6.5-3.7 11.8 1.5 4.1 3.9 8.4 2.4 13.2-4.9 2.3-6.8-2.5-9.9-4.1-2.9-1.5-5.5-3.4-8.7-5.4-6.3 3.8-12.2 7.6-18.1 11.4z"/><path d="m2986.5 3236.5c-.5.1-1.1.4-1.5.2-6.5-1.7-10.2-9-17.3-9.2s-10.5 7.8-17.4 8.8c-3.6-2.6-1.7-5.9-.6-8.6 3.7-8.5 3.4-15.3-6-19.9-2.8-1.3-5-3.9-7.5-5.9 3.7-4.3 8-2.7 11.8-3.1 3.3-.3 6.5-.5 9.4-.7 4.2-5.4 5.4-11.3 7.3-17 .5-1.7 1.6-2.3 2.8-1.6 1.1.6 2.3 1.3 3 2.3s1.2 2.4 1.4 3.7c1.5 10.5 7.4 14.8 17.9 13.4 2.5-.3 5.4-.4 7.3 1.5 1.3 1.1 1.2 2.1-.3 3.2-15.3 12.4-16.7 7.9-9.8 29 .3 1.2-.3 2.6-.5 3.9z"/><path d="m4854.2 3777.5c-3.5 6.6-13.8 7.5-14.6 15.2-.7 6.2 2.2 12.7 3.4 18.6-.7 1.8-1.7 1.8-3.3 1.1-6.1-2.5-10-9.7-17.3-9-6.5.6-9.8 8.6-16.9 8.6-.4-.7-1-1.3-1-1.9-.5-6.6 6.6-12.9 2.7-19-3.4-5.3-9.5-8.8-14.5-13.2 1-.9 1.7-2.2 2.7-2.5 6.3-1.9 14.3 2.3 18.9-3.1 4-4.6 5.4-11.5 8-17.4 7.1 2.4 5.4 9.1 7.9 13.5 2.1 3.7 4.1 6.4 8.9 6.5 5 .2 10.6-1.7 15.1 2.6z"/><path d="m4479.8 2677.1c7.2-4.2 15-.7 21.8-3.4 3.8-4.7 5-10.6 6.9-16.2.3-.9 1.8-2 2.6-1.9 1.1.1 2.7 1 3.1 2 1.6 3.6 2.7 7.4 4.1 11.2 1.5 4.2 4.5 6 9.1 6.1 4.5.1 9.3-1.2 15.1 2.5-.1-.1-.4.7-1.6 2.1-4.4 4.8-13.1 6.3-13.5 13.6-.4 6.2 2.4 12.6 4.1 19.9-2.8-.8-4.9-.8-6-1.8-9-8.8-18-9.9-27.3-.4-1.2 1.2-3.2 2.3-5 .7-1.8-1.7-.8-3.8-.3-5.6.7-2.6 1.7-5 2.5-7.6 1.6-5 .4-9.1-4.3-11.9-2.3-1.4-4.4-3-6.4-4.7-1.5-1.2-2.8-2.6-4.9-4.6z"/><path d="m4819.9 3529.8c-5.3 3.2-11.3 6.8-18 10.8-2.1-8.6 6.1-15.5 2.3-22-3.1-5.4-9.2-9.1-13.9-13.6-.3-.3 0-1.2 0-2 1-.4 2.1-1.4 3.1-1.3 12.6 1.4 22.5-.9 24.1-16.1.1-1.4 2.8-2.4 4.4-3.7 7.5 18.9 7.5 18.9 27.9 20.8 1.7 6.4-4.2 7.7-7.5 9.8-6.2 4-7.4 8.8-4.9 15.3 1.4 3.6 3.2 7.2 2.4 12.6-7.9-1.6-12.1-8.8-19.9-10.6z"/><path d="m5322.2 3241.6c-3.6 6.4-13.8 7.5-14.6 15.3-.6 6.1 2.2 12.6 3.5 19.2-6.6.6-9.8-4.2-14-6.7-3.8-2.3-7.2-2.7-11-.1-3.7 2.7-7.6 5.1-11.3 7.5-4.2-3-2.5-6.4-1.2-9 5.1-9.9 1.2-16.1-7.5-21-2.2-1.2-3.9-3.3-6.5-5.6 7.5-4.3 15.2-.8 22.1-3.5 3.7-4.7 5-10.6 6.9-16.2.3-.9 1.7-2 2.6-1.9 1.1.1 2.7 1 3.1 2 1.3 3 2.2 6.2 3.2 9.3 1.9 5.8 5.4 8.4 11.8 8.1 4.3-.2 9.3-1.6 12.9 2.6z"/><path d="m3980.3 3126c-3.1-7.4 6.1-14.2 2.1-20.8-3.2-5.4-9.2-9.1-13.9-13.7-.4-.4-.2-1.3-.3-1.9.6-.3 1.2-.8 1.7-.8 15.8 2.4 25.1-4.1 26.5-20.4 5 .1 5.9 4 6.2 6.4 1.7 12.1 9 15 19.7 13.5 1.9-.3 3.9.3 6.3.6.3 7.9-7.3 8.5-11 12.4-3 3.1-4.7 5.9-2.9 10.5 1.7 4.1 2.5 8.7 3.7 12.8-4.5 3.7-6.8 0-9-1.5-11-7.8-9.8-8.7-22.1.5-2.1 1.4-4.1 3.4-7 2.4z"/><path d="m4994 3528.6c-7 6.6-13 10.3-16.2 15.7-3.7 6.1 3.6 12.2 2.8 18.9-.1.6-.6 1.2-.9 1.8-.6.1-1.2.4-1.7.2-6.6-1.4-10.3-10.1-17.1-8.5-6.1 1.4-11.4 6.2-17.1 9.5-.6-1.5-1.8-2.9-1.4-3.7 5.4-12.4 4.4-22.7-9.1-29.2-.9-.4-1.2-2.2-1.8-3.4.9-.7 1.9-2 2.7-1.9 13.8 1.9 23-2.6 25.1-17.5.2-1.1 1.5-2 2.4-3.2.8.7 1.8 1.2 2.3 2.1 3 5.7 2 14.4 8.5 17.1 5.6 2.4 12.7 1.4 21.5 2.1z"/><path d="m4045.9 3189.2c14.9-4.6 14.9-4.6 20.6-16.4 6.8 1.3 3.9 10 8.9 12 4.2 1.6 9 1.8 14 2.7-.2 6.2-8.4 6.5-9.2 11.6-.6 4.4.6 9.1 1 13.6-1.8 1.7-3.9 1-5.3-.2-5.3-4.2-10.3-5.8-15.9-.5-1.3 1.2-3.4 1.6-5.3 2.4.6-15.8.6-15.8-8.8-25.2z"/><path d="m3292.2 2995c-9.4 11.5-9.4 11.5-8.6 25.1-12.5-4.4-12.5-4.4-26.4-.4 1.4-12.8 1.4-12.8-8.5-25.1 14.9-2.8 14.9-2.8 21.1-15.6 8.5 12.8 8.5 12.8 22.4 16z"/><path d="m4126.8 3845.1c.4-2.6.4-5.4 1.3-7.8 2-5.3-7-7.9-3.7-11.8 2.5-2.9 8.3-2.6 10.8-7.3 1.9-3.6 3.9-2.4 4.9 1 1.1 4 4.2 4.6 7.6 4.9 2.2.2 4 1.7 2.6 3.5-2.9 3.7-5.4 7.1-4.5 12.4.6 3.8-3 1.9-4 1.4-5.9-3.3-10 1.6-14.9 2.9z"/><path d="m3355.1 3397.3.5-1.1v.7c-.1 0-.5.4-.5.4z"/><path d="m3449.3 3256.6-1.2.1s.6-.5.6-.5c.1 0 .6.4.6.4z"/><path d="m4126.9 3844.4.8-.2s-.9.9-.9.9.1-.7.1-.7z"/><path d="m4518.6 2311.8c7.9 0 15.8-.3 23.7.1 6.2.3 10-1.9 11.8-7.9 2.3-7.6 4.9-15 7.5-22.6 8.5 1.9 7.3 9.6 8.8 14.5 5.8 19.5 7.1 15.4 21.9 15.9 5.6.2 11.2.5 19.5.9-7.7 9.4-16.2 13.3-23 19.1-3.4 2.9-4.8 6-3.3 10.4 2.7 8 5.2 16.2 7.5 23.7-3.6 3.7-5.5 1.3-7.5-.1-5.4-3.8-10.8-7.7-16.1-11.6-3.6-2.6-7.2-3-10.9-.3-1.1.8-2.1 1.6-3.3 2.3-6.6 3.8-11.4 10.6-19.8 11.3-1.4-8.3 3.8-15.1 5.5-22.8 2-9 2.4-8.9-5-14.8-6.1-4.8-12.3-9.4-18.5-14.1.4-1.4.8-2.7 1.2-4z"/></g><g fill="#2e802d"><path d="m3634.6 2292.8c7.7-21.4 14.6-40.7 21.5-60 6.4-17.8 6.4-17.7 25.1-16.6 21.2 1.3 20.4 1.1 18.9 20.3-2.7 33.8-5.6 67.6-8.5 101.4-.6 6.5-2.2 7.8-9.1 7.4-4.6-.3-9.2-1.1-14.3-1.8-2.5-27 5.4-53.1 3.9-79.7-5.1-.3-4.7 4-5.6 6.5-7.4 20.6-14.5 41.4-21.8 62.1-3.1 8.7-3.9 9.1-12.9 8.6-3.3-.2-6.6-.5-9.9-.9-3.9-.4-5.7-2.7-6.3-6.4-3.7-22.3-7.5-44.6-11.3-66.9-.5-3-1.2-6-1.9-9.3-6.1 3.1-5 8.3-5.4 12.6-1.8 19.9-3.4 39.8-4.9 59.7-.4 4.9-3 7-7.7 6.9-2.7-.1-5.3-.2-8-.5-7.8-.7-9.1-1.7-8.4-10.1 1.7-23.9 3.8-47.7 5.8-71.6 1.1-13.3 2.2-26.5 3.4-39.8.4-4.7 3.3-6.9 8-6.7 1.3.1 2.7 0 4 .1 31.4 3.1 27.6-1.5 32.1 28.1 2.1 13.8 4.8 27.5 7.3 41.2.7 4.8 1.1 9.5 6 15.4z"/><path d="m3408.7 2267.5c0-18.7-.2-37.3.1-55.9.1-8.6 2.1-10.1 11.1-9.9 29.3.7 58.6 1.5 87.9 2.3 9.8.3 11.1 2 10.2 12.3-.7 8.7-2 10-11.2 9.8-4-.1-8-.5-12-.6-16-.4-32-.6-48-1-4.8-.1-7.6 2-8 6.8-.4 4.6-.5 9.3-.7 14-.2 5.2 2.9 6.8 7.5 7 14.7.4 29.3.7 44 1.1 5.3.2 10.7.5 15.9 1 3.9.4 5.6 3 5.7 6.8 0 2 0 4-.1 6-.4 6.8-1.8 8.6-8.1 8.7-10 .1-20-.2-30-.3-4-.1-8-.3-12-.3-28.4-.3-24-3.3-24.8 26.2-.1 5.1 2.8 7 7.4 7.2 11.3.4 22.6.7 34 1.1 8.7.3 17.3.9 26 .9 14.1.1 14.1.9 13.4 15.1-.2 5-3.1 6.8-7.8 6.7-31.3-.6-62.6-1.1-93.9-1.9-8.9-.2-10.3-2.1-10-11.1.6-17.3 1.5-34.6 2.3-51.9.3-.1.7-.1 1.1-.1z"/><path d="m4294.6 2336.9c23 7.5 45 14.8 67.1 22.1 2.5.8 5 1.9 7.3 3.1 15.3 8 21.4 19.6 18.9 35.9-2.3 15.2-13.2 26.8-28.3 29.7-4.5.9-9.1.9-13.8 1.3 13.4 34.4 16.4 45.6 17.3 63.6-8.9.3-16.5-3.7-24.4-6.4-4.1-1.4-5.3-5.5-6.5-9.5-3.9-13.4-8-26.7-12-40.1-1.8-5.9-4.8-10.9-10.1-14.3-11-7.2-15.4-5.8-20 7-3.4 9.4-6.5 18.9-10 28.2-3 8.1-4.7 8.9-13.5 6.3-5-1.5-10.4-2.4-14.2-6.4 3.2-15.5 33.3-101.7 42.2-120.5zm45.3 70.9c6.2.2 9.9-.4 13.2-3.1 9.5-7.8 8.5-20.4-2.9-25.7-8.3-3.9-17.3-6.4-26.1-9.2-11.4-3.6-12-3.2-16 7.4-7.2 19.2-7.3 19.2 12.8 25.3 7 2.2 14 4 19 5.3z"/><path d="m3148.2 2277.9c16.8 12.4 28.1 29.7 40.4 46 2.5 3.4.9 6.3-3.4 6.8-2.6.3-5.4.1-8 .6-11.6 2.3-20.3-1.2-27.2-11.3-6.8-9.8-15.1-18.6-22.9-27.7-3.9-4.6-8.5-8.3-14.9-9.4-13.3-2.4-16.7.2-16 13.8.5 10.6 1.6 21.3 2.3 31.9.3 5-1.7 7.3-6.9 7.6-23.2 1.5-20.1 2.8-21.8-17.1-2.8-33.2-4.6-66.5-6.6-99.7-.5-8.9 1-10.3 10-10.9 17.9-1.2 35.9-2.4 53.9-3.4 8-.4 16 0 23.8 2.1 13.8 3.6 21.4 13.2 24.2 26.5s-.9 24.9-11.7 34.1c-4.5 3.9-11.3 4.2-15.2 10.1zm-30-50v.4c-2 0-4-.1-6 0-22.6 1.1-20.6.1-19.5 21.2.5 10.3 1.9 11.3 11.8 11.2 3.3-.1 6.6-.2 9.9-.5 6.6-.6 13.3-.7 19.7-2 8.4-1.7 13.3-8 13.1-15.1-.2-8.3-6.1-14.4-15.2-15.1-4.5-.4-9.2-.1-13.8-.1z"/><path d="m4812.1 2622.7c6.7 22.1 9.5 42.8 8.1 64.5-8.6-.4-14.3-5.5-20.9-8.3-4.7-2-6.6-6-7.1-11.1-1.4-13.3-3.1-26.5-4.7-39.7-1.3-10.7-6.1-18.9-16.4-23.2-3.7-1.5-6.5-.8-8.4 2.6-6 11.1-11.8 22.4-17.9 33.5-4.2 7.6-5.3 8-12.3 4.6-18-8.7-16.9-6.9-7.8-24.4 14.4-27.8 29.1-55.5 43.6-83.2 1.9-3.5 3.7-7.1 5.8-10.4 1.5-2.3 4-3.7 6.8-2.2 20.7 10.6 41.9 20.5 62 32.2 15.4 9 20.1 22.4 16.1 37.3-4.3 15.9-16.2 26.1-32.9 27.8-3.9.4-7.8 0-14 0zm-36.2-39.2c9.1 4.5 16.6 8.5 24.3 12.1 4.2 1.9 8.5 3.8 13 4.7 7.9 1.6 14.1-2.2 17.3-9.8 2.7-6.4.9-12.8-5.4-17.4-2.6-1.9-5.6-3.6-8.6-4.9-30.8-14.4-23.7-20.2-40.6 15.3z"/><path d="m3238.4 2266.7c0-18.6-.1-37.2 0-55.9.1-7.4 1.8-9.1 9.6-9.3 15.3-.3 30.6-.9 45.9-.4 32.8 1 49.6 16.1 55.7 48.5 2.6 14 2.3 27.9-1.7 41.5-6.4 21.9-20.4 35.8-43.7 37.6-18.5 1.5-37.2 1.5-55.8 1.9-6.5.1-8.4-1.8-8.6-8.1-.4-16-.4-31.9-.6-47.9 0-2.7 0-5.3 0-8-.3.1-.5.1-.8.1zm27.5-1h.9c0 6-.1 12 0 18 .8 28.6-3.6 24.2 26.4 24.1 2 0 4-.1 6-.5 10.7-2 18.1-7.7 20.9-18.7 3.9-15.2 3.9-30.4-.5-45.3-3.3-11.3-11.2-18-23.1-19-7.9-.6-15.9-.3-23.9-.3-5.1 0-6.7 3.3-6.7 7.8z"/><path d="m5091.5 2840c-1.9-.3-6.6-.6-10.9-2-16.1-5.1-30.2-13.7-42.1-25.8-7.7-7.9-12.2-17.4-13.4-28.3-.8-8.1-.5-17.7 5.5-22.4 6.5-5 12.9 3.9 19.4 6.3 4.4 1.7 4.4 5.3 4 9.8-1.6 19.3 14 36.6 33 36.7 3.1 0 6.6-1.2 9.4-2.7 5.7-3 7.3-9.5 4.5-15.4-3-6.1-8-10.5-12.5-15.4-6.7-7.3-13.7-14.5-20.1-22.1-4.8-5.6-8.1-12.1-9.2-19.6-4-27.3 18.1-39.8 35.1-37.6 24.2 3.2 43.7 15.5 57.1 36.1 6.5 10 7.1 21.3 2.2 32.4-1.2 2.6-3.4 4.1-6.3 2.8-3-1.3-5.8-3.2-8.9-4.5-7.2-3.2-12.1-7.4-10.5-16.6 1.1-6.4-3-11.3-7.6-15.4-6.7-5.8-14.2-9.9-23.1-10.8-6.3-.7-11.5 5.8-9.3 11.8 1.3 3.6 3.4 7.3 5.9 10.2 5.2 6 11.2 11.4 16.4 17.4 5.7 6.5 11.9 12.8 16.2 20.2 14.6 25-2.9 54.7-34.8 54.9z"/><path d="m5296.5 2858c-.4 1.8-1.2 5.7-2.4 9.4-1.5 4.4-5.1 5.5-9.5 3.1-2.3-1.3-4.4-3-6.8-4.2-7.1-3.6-10.2-8.4-9.9-17.3.4-13.5-17.6-27.9-31.5-27.1-5.4.3-9.4 6.3-7.8 11.5 1.8 5.9 5.8 10.4 9.6 15 5.6 6.6 11.6 12.8 17.1 19.5 3.7 4.6 7.4 9.5 10.1 14.8 12.8 25.3-4.5 53.4-32.8 53.3-4.6 0-9.3-.7-13.7-2.1-17.5-5.7-32.2-15.8-43.9-29.9-6.5-7.9-10.4-17-10.6-27.4-.2-8.1.3-17.9 6.6-22.1 6.5-4.3 12.6 4.7 19.1 7.5 3.3 1.4 4.8 4.3 3.7 8.2-2.4 8.1-1.9 15.9 3.2 22.8 5.6 7.7 13.2 13 22.4 15.8 3.9 1.2 7.7 1.7 11.7.4 8.1-2.5 12-9.7 8.4-17-2-4.1-5-7.8-7.9-11.4-6-7.1-12.3-14-18.3-21.1-4.7-5.6-8.7-11.7-11.2-18.8-8.3-24 10.4-47.5 35.5-43.3 23.5 3.9 41.4 17.3 54.4 37 4 6.5 5 13.7 4.5 23.4z"/><path d="m4648.2 2532.2c15.1 8.1 29.1 15.6 43.1 23.1 3.6 1.9 4.1 4.7 2.2 8.2-5.9 11.1-11.9 22.3-17.6 33.5-2.8 5.4-7.1 7.3-12.8 7.7-19.8 1.3-38.4-2.5-55.2-13.4-22.2-14.5-32.3-34.8-28-61.3 3.4-21.3 13.7-38.8 31.4-51.4 14.9-10.6 31.5-13.4 49.3-8 12.3 3.8 23.4 9.7 32.7 18.5 13 12.4 18.3 27.2 13 44.7-5.5 2.2-9.6-1.2-14-2-7.5-1.3-10.2-5.5-11.7-13.4-4.3-23.1-32.5-34.4-51.4-20.7-15.4 11.1-23 27.5-24.3 46.2-.7 10.5 4.2 19.4 12.5 26 9.3 7.3 20 10.1 31.7 9.6 4.6-.2 7.1-2.9 9.2-6.5 3.2-5.4 2.7-8.5-2.2-11.6-1.1-.7-2.3-1.3-3.5-1.9-14.6-7.6-19.8-7-4.4-27.3z"/><path d="m4485.7 2536.5c-15.5-.1-31-5.7-44.2-16.6-16.1-13.4-22.4-31-19.7-51.6 1.9-14 6.6-27.2 14.5-38.9 13.9-20.7 33.2-29.9 58.3-26 10.7 1.7 20.5 5.6 29.5 11.5 17.4 11.6 26.1 28.1 25.5 49-.5 18.5-6.5 35.3-17.7 50-11 14.5-25.7 22.5-46.2 22.6zm-2.6-24c9.7.4 18.3-4.1 24.9-12.2 9.1-11 14-24 15.3-38.1 1.4-14.7-6.8-27.4-20.4-33.1-14-5.9-28.3-3.4-38.1 7.6-10.4 11.8-16.1 25.9-16.4 41.6-.3 19.3 14.5 34 34.7 34.2z"/><path d="m4917.5 2677.5c-7.5 8.6-12.5 17.9-16.8 28.1 18.9 14 40.6 22.8 59.3 36.3-2.4 7.2-5 13.2-11.4 17.9-25.7-14.8-51.6-29.6-77.4-44.6-3.2-1.9-4.3-4.9-2.6-8.5.6-1.2 1.3-2.3 1.9-3.5 17.9-31.1 35.7-62.3 53.6-93.3 1.6-2.8 3.9-5.2 6.7-8.8 26.8 15.4 53.2 30.6 79.5 45.7.5 2.2.3 3.3-.4 4.7-8.5 17.4-8.7 15.6-23.1 7.4s-28.8-16.4-42.5-24.3c-2.3 1-3.9 1.2-4.4 2-14.5 22.9-15 18.4 7.2 31.5 9.7 5.7 19.6 11.2 29.3 17 5.5 3.3 5.7 5.3 2.5 11.4-.9 1.8-2 3.5-3 5.2-2.3 3.9-5.1 5.7-9.7 3-10.3-6.1-20.8-11.9-31.2-17.8-5.6-3-11.4-6.1-17.5-9.4z"/><path d="m4135.7 2376.9c-5 4.2-5.4 9.8-7.1 14.7-2.6 7.5-4.5 15.3-7 22.8-2.2 6.5-3.7 7.2-10.2 6.3-2.6-.4-5.3-.8-7.8-1.4-12.3-2.8-12.9-3.8-9.3-16 9.9-33.1 19.8-66.1 29.8-99.1.8-2.5 1.6-5.1 2.7-7.5 1.1-2.5 3-4.5 6.1-3.8 22.5 5.5 45.3 10.3 67.5 16.9 17.8 5.3 27.2 19.9 25.8 35.7-1.8 20.4-15.1 35.6-34.1 38.7-10.7 1.8-21.2.2-31.6-1.9-8.4-1.6-16.8-3.6-24.8-5.4zm4.9-23.5c10.6 4.6 20.9 6.7 31.4 7.5 2.6.2 5.3.1 7.9-.2 7.6-1.1 13.5-6.6 15-14 1.2-5.9-2.3-12.7-8.8-16.5-1.7-1-3.6-1.8-5.5-2.4-8.3-2.3-16.6-4.6-25-6.6-3.8-.9-6.2 1.4-7.3 5-2.4 8.9-5 17.8-7.7 27.2z"/><path d="m5431.6 2962.6c-.3 1.5-.9 6.8-2.5 11.8-6.7 21.8-20 38.9-39.5 50.7-20.5 12.5-44 10.2-63.1-5.1-19.7-15.9-26.7-37.2-19-60.3 7-20.9 20.1-37.5 39-48.8 42.6-25.4 86 13.6 85.1 51.7zm-24.2-4.3c-.5-23.7-25.2-38.1-45.1-27.5-15.3 8.2-25 21.4-31.1 37.6-4.6 12.1.4 26.8 10 34.1 10 7.7 24.1 8.5 35.6.9 13.8-9 23.6-21.4 28.9-37.1 1-3 1.4-6.4 1.7-8z"/><path d="m2895.3 2288.5c.3-9.7.3-17 2.7-24.1 9.4-28.4 32.8-41.4 64.1-38.9 26.8 2.2 44.8 19.7 50.2 46.2 2.6 12.5 3.4 25 .1 37.5-.8 3.2-1.7 6.4-3 9.4-9.1 21.7-29.1 33.7-56.1 33.5-25.2-.2-44.4-12.8-52.9-34.9-1.7-4.3-3.1-8.8-3.8-13.4-.9-5.8-1-11.8-1.3-15.3zm92.8 1.6c.4-9-1.2-18.1-5.6-26.4-5.7-10.8-14.8-16.4-27.3-16.5-13-.1-23.8 4.5-29.4 16.4-8.4 18-6.7 36.3 3.5 53.1 6.3 10.4 16.9 14.8 29 13.7 12-1.1 21-7.2 26.3-18.5 3.2-6.8 3.7-13.9 3.5-21.8z"/><path d="m3946.6 2285.1c-15.8-2.6-30.2-5-44.5-7.4-18.9-3.2-19.5-4.7-22 16.5-.5 3.9 1.3 6.4 5.1 7.1 11.8 2.2 23.5 4.3 35.3 6.4 3.9.7 7.9 1 11.8 1.9 4.9 1.1 6.7 3.7 5.8 8.5-.7 3.9-1.9 7.6-3 11.9-14.5 0-27.9-3.8-41.6-5.8-18.6-2.7-18.9-2.5-21.3 15.5-.1.7-.2 1.3-.2 2-1.2 10.4-.2 12 9.2 13.6 9.8 1.7 19.7 3.2 29.5 4.8 5.2.9 10.4 2.2 15.7 2.8 9.8 1.1 11.1 3.1 8.7 15.3-.7 3.7-3 5.8-6.8 5.9-2 0-4-.2-6-.5-23.6-3.9-47.2-7.9-70.8-11.9-7.6-1.3-9.3-3.1-8.1-10.6 3.2-21 6.8-42 10.3-63 2.3-13.8 4.7-27.5 7.1-41.3.7-3.9 3.5-5.9 7-5.5 11.9 1.5 23.7 3.3 35.5 5.2 13.8 2.3 27.5 4.7 41.2 7.3 6.3 1.2 7.2 3 6 9.9-.2 1.3-.6 2.6-1 3.9-.7 1.9-1.4 3.7-2.9 7.5z"/></g><path d="m4339.9 2407.8c-5-1.4-12-3.1-19-5.2-20-6.1-20-6.2-12.8-25.3 4-10.6 4.6-11 16-7.4 8.8 2.8 17.8 5.3 26.1 9.2 11.4 5.3 12.5 17.9 2.9 25.7-3.2 2.7-7 3.2-13.2 3z" fill="#f9faf8"/><path d="m3118.2 2227.9c4.6 0 9.3-.3 13.9.1 9.1.7 15.1 6.8 15.2 15.1.1 7.1-4.8 13.4-13.1 15.1-6.4 1.3-13.1 1.5-19.7 2-3.3.3-6.6.5-9.9.5-9.9.2-11.3-.9-11.8-11.2-1.1-21.2-3.1-20.2 19.5-21.2 2-.1 4 0 6 0-.1-.1-.1-.2-.1-.4z" fill="#f9faf8"/><path d="m4775.9 2583.5c16.9-35.5 9.8-29.6 40.7-15.4 3 1.4 5.9 3 8.6 4.9 6.2 4.6 8.1 11 5.4 17.4-3.2 7.6-9.5 11.5-17.3 9.8-4.5-.9-8.8-2.8-13-4.7-7.7-3.5-15.3-7.5-24.4-12z" fill="#f9faf8"/><path d="m3265.9 2265.7c0-11.3 0-22.6 0-33.9 0-4.5 1.7-7.8 6.7-7.8 8 0 16-.3 23.9.3 11.8.9 19.8 7.7 23.1 19 4.4 15 4.5 30.1.5 45.3-2.8 11-10.2 16.7-20.9 18.7-2 .4-4 .5-6 .5-30.1.1-25.6 4.5-26.4-24.1-.2-6 0-12 0-18-.3 0-.6 0-.9 0z" fill="#f9faf8"/><path d="m4483.1 2512.5c-20.2-.3-35-14.9-34.7-34.3.3-15.7 5.9-29.8 16.4-41.6 9.8-11 24.1-13.5 38.1-7.6 13.6 5.7 21.8 18.4 20.4 33.1-1.3 14.1-6.2 27.1-15.3 38.1-6.6 8.2-15.2 12.7-24.9 12.3z" fill="#f9faf8"/><path d="m4140.6 2353.4c2.7-9.4 5.3-18.3 7.9-27.1 1.1-3.6 3.4-5.9 7.3-5 8.4 2 16.7 4.3 25 6.6 1.9.5 3.7 1.4 5.5 2.4 6.5 3.8 10 10.5 8.8 16.5-1.5 7.3-7.4 12.9-15 14-2.6.4-5.3.4-7.9.2-10.8-.9-21-3-31.6-7.6z" fill="#f9faf8"/><path d="m5407.4 2958.3c-.3 1.6-.7 5-1.7 8.1-5.3 15.7-15.2 28.1-28.9 37.1-11.5 7.5-25.6 6.7-35.6-.9-9.5-7.3-14.5-22-10-34.1 6.1-16.2 15.8-29.4 31.1-37.6 19.9-10.7 44.6 3.7 45.1 27.4z" fill="#f9faf8"/><path d="m2988.1 2290.1c.2 7.8-.4 15-3.6 21.8-5.3 11.3-14.3 17.4-26.3 18.5-12.1 1.2-22.6-3.2-29-13.7-10.2-16.8-12-35.1-3.5-53.1 5.6-12 16.4-16.5 29.4-16.4 12.5.1 21.6 5.7 27.3 16.5 4.6 8.4 6.2 17.5 5.7 26.4z" fill="#f9faf8"/></svg>