<svg enable-background="new 0 0 6489.9 3712" viewBox="0 0 6489.9 3712" xmlns="http://www.w3.org/2000/svg"><path d="m0 1.4h6489.9v3709.2h-6489.9z" fill="#fff"/><path d="m930.2 1.4h5559.7v2498.4h-5559.7z" fill="#c00"/><path d="m930.2 2499.8h5559.7v1210.8h-5559.7z" fill="#090"/><g fill="#c00" stroke="#c00" stroke-miterlimit="10"><path d="m285.2 1.4h35.1v80.9h-35.1z" stroke-width="2.8118"/><path d="m247.6 82.3h110.4v80.9h-110.4z" stroke-width="2.8118"/><path d="m204.1 163.2h77.9v87.9h-77.9z" stroke-width="2.8118"/><path d="m165.1 252.5h77.9v87.9h-77.9z" stroke-width="2.8118"/><path d="m122.9 340.4h77.9v87.9h-77.9z" stroke-width="2.8118"/><path d="m327.4 163.9h77.9v87.9h-77.9z" stroke-width="2.8118"/><path d="m366.4 253.1h77.9v87.9h-77.9z" stroke-width="2.8118"/><path d="m408.6 341.1h109.7v87.9h-109.7z" stroke-width="2.8118"/><path d="m244.6 605.6h113.3v87.9h-113.3z" stroke-width="2.8118"/><path d="m205.7 516.3h77.9v87.9h-77.9z" stroke-width="2.8118"/><path d="m163.5 428.4h77.9v87.9h-77.9z" stroke-width="2.8118"/><path d="m327.4 515.6h77.9v87.9h-77.9z" stroke-width="2.8118"/><path d="m366.4 428.4h77.9v87.9h-77.9z" stroke-width="2.8118"/><path d="m283.8 693.5h35.1v80.9h-35.1z" stroke-width="2.8118"/><path d="m126.8 71.6h35.1v98.6h-35.1z" stroke-width="2.8118"/><path d="m447.6 65.2h35.1v98.6h-35.1z" stroke-width="2.8118"/><path d="m126.8 568h35.1v98.6h-35.1z" stroke-width="2.8118"/><path d="m447.6 568h35.1v98.6h-35.1z" stroke-width="2.8118"/><path d="m283.8 343.9h35.1v80.9h-35.1z" stroke-width="2.8118"/><path d="m606.8 2.4h35.1v80.9h-35.1z" stroke-width="2.8118"/><path d="m569.1 83.3h110.4v80.9h-110.4z" stroke-width="2.8118"/><path d="m649 164.9h77.9v87.9h-77.9z" stroke-width="2.8118"/><path d="m688 254.2h77.9v87.9h-77.9z" stroke-width="2.8118"/><path d="m730.2 342.1h77.9v87.9h-77.9z" stroke-width="2.8118"/><path d="m566.2 606.6h113.3v87.9h-113.3z" stroke-width="2.8118"/><path d="m649 516.6h77.9v87.9h-77.9z" stroke-width="2.8118"/><path d="m688 429.4h77.9v87.9h-77.9z" stroke-width="2.8118"/><path d="m605.3 694.5h35.1v80.9h-35.1z" stroke-width="2.8118"/><path d="m769.1 66.3h35.1v98.6h-35.1z" stroke-width="2.8118"/><path d="m769.1 569h35.1v98.6h-35.1z" stroke-width="2.8118"/><path d="m529.5 163.9h77.9v87.9h-77.9z" stroke-width="2.8118"/><path d="m490.6 253.1h77.9v87.9h-77.9z" stroke-width="2.8118"/><path d="m531.2 517h77.9v87.9h-77.9z" stroke-width="2.8118"/><path d="m488.9 429h77.9v87.9h-77.9z" stroke-width="2.8118"/><path d="m606.8 345.6h35.1v80.9h-35.1z" stroke-width="2.8118"/><path d="m161.9 703.3h61.7v52.8h-61.7z" stroke-width="2.8118"/><path d="m140.7 756.1h103.9v32.5h-103.9z" stroke-width="2.8118"/><path d="m140.7 772.3h41.4v52.8h-41.4z" stroke-width="2.8118"/><path d="m202.4 772.3h42.2v52.8h-42.2z" stroke-width="2.8118"/><path d="m161.9 925.5h61.7v52.8h-61.7z" stroke-width="2.8118"/><path d="m140.7 893h103.9v32.5h-103.9z" stroke-width="2.8118"/><path d="m140.7 856.5h41.4v52.8h-41.4z" stroke-width="2.8118"/><path d="m202.4 856.5h42.2v52.8h-42.2z" stroke-width="2.8118"/><path d="m121.8 812.9h39.7v52.8h-39.7z" stroke-width="2.8118"/><path d="m223.5 812.9h39.9v52.8h-39.9z" stroke-width="2.8118"/><path d="m387.3 701.8h61.7v52.8h-61.7z" stroke-width="2.8118"/><path d="m366.2 754.5h103.9v32.5h-103.9z" stroke-width="2.8118"/><path d="m366.2 770.8h41.4v52.8h-41.4z" stroke-width="2.8118"/><path d="m427.9 770.8h42.2v52.8h-42.2z" stroke-width="2.8118"/><path d="m387.3 924h61.7v52.8h-61.7z" stroke-width="2.8118"/><path d="m366.2 891.5h103.9v32.5h-103.9z" stroke-width="2.8118"/><path d="m366.2 855h41.4v52.8h-41.4z" stroke-width="2.8118"/><path d="m427.9 855h42.2v52.8h-42.2z" stroke-width="2.8118"/><path d="m347.2 811.4h39.7v52.8h-39.7z" stroke-width="2.8118"/><path d="m449 811.4h29.9v52.8h-29.9z" stroke-width="2.4352"/><path d="m479.4 700.2h61.7v52.8h-61.7z" stroke-width="2.8118"/><path d="m458.3 754.5h103.9v32.5h-103.9z" stroke-width="2.8118"/><path d="m458.3 769.2h41.4v52.8h-41.4z" stroke-width="2.8118"/><path d="m520 769.2h42.2v52.8h-42.2z" stroke-width="2.8118"/><path d="m479.4 922.5h61.7v52.8h-61.7z" stroke-width="2.8118"/><path d="m458.3 890h103.9v32.5h-103.9z" stroke-width="2.8118"/><path d="m458.3 853.5h41.4v52.8h-41.4z" stroke-width="2.8118"/><path d="m520 853.5h42.2v52.8h-42.2z" stroke-width="2.8118"/><path d="m447.6 809.8h21.4v52.8h-21.4z" stroke-width="2.066"/><g stroke-width="2.8118"><path d="m541.1 809.8h39.9v52.8h-39.9z"/><path d="m702.6 701.8h61.7v52.8h-61.7z"/><path d="m681.5 754.5h103.9v32.5h-103.9z"/><path d="m681.5 770.8h41.4v52.8h-41.4z"/><path d="m743.2 770.8h42.2v52.8h-42.2z"/><path d="m702.6 924h61.7v52.8h-61.7z"/><path d="m681.5 891.5h103.9v32.5h-103.9z"/><path d="m681.5 855h41.4v52.8h-41.4z"/><path d="m743.2 855h42.2v52.8h-42.2z"/><path d="m662.5 811.4h39.7v52.8h-39.7z"/><path d="m764.3 811.4h39.9v52.8h-39.9z"/><path d="m126.4 1019.3h35.1v98.6h-35.1z"/><path d="m447.1 1019.3h35.1v98.6h-35.1z"/><path d="m768.7 1020.3h35.1v98.6h-35.1z"/><path d="m283.8 911.4h35.1v80.9h-35.1z"/><path d="m244.6 992.3h113.3v86.9h-113.3z"/><path d="m205.7 1074.2h191.2v86.9h-191.2z"/><path d="m163.3 1161.1h276v86.9h-276z"/><path d="m126.4 1248h192.4v86.9h-192.4z"/><path d="m163.3 1334.8h194.6v86.9h-194.6z"/><path d="m202.4 1421.7h116.4v80.9h-116.4z"/><path d="m243.1 1502.6h35.1v80.9h-35.1z"/><path d="m609.1 911.4h35.1v80.9h-35.1z"/><path d="m569.9 992.3h113.3v86.9h-113.3z"/><path d="m531 1074.2h191.2v86.9h-191.2z"/><path d="m488.6 1161.1h276v86.9h-276z"/><path d="m609.1 1248h192.4v86.9h-192.4z"/><path d="m569.9 1334.8h194.6v86.9h-194.6z"/><path d="m609.1 1421.7h116.4v80.9h-116.4z"/><path d="m649.7 1502.6h35.1v80.9h-35.1z"/><path d="m368.3 1248h193.8v50.6h-193.8z"/><path d="m407.6 1298.6h112.3v142.1h-112.3z"/><path d="m427.9 1440.6h71.8v88.6h-71.8z"/><path d="m121.8 1440.6h41.6v61.9h-41.6z"/><path d="m764.6 1440.6h39.6v61.9h-39.6z"/><path d="m121.8 1543h41.6v150.6h-41.6z"/><path d="m163.3 1598.3h39.1v166.4h-39.1z"/><path d="m202.4 1649h40.7v164.4h-40.7z"/><path d="m243.1 1731.2h75.7v82.2h-75.7z"/><path d="m284.9 1649h73.1v115.7h-73.1z"/><path d="m325.8 1598.3h91.6v95.4h-91.6z"/><path d="m368.3 1529.3h193.8v54.2h-193.8z"/><path d="m368.3 1529.3h70.9v89.1h-70.9z"/><path d="m766.9 1543h41.6v150.6h-41.6z"/><path d="m727.8 1598.3h39.1v166.4h-39.1z"/><path d="m687.1 1649h40.7v164.4h-40.7z"/><path d="m611.4 1731.2h75.7v82.2h-75.7z"/><path d="m572.3 1649h73.1v115.7h-73.1z"/><path d="m512.9 1598.3h91.5v95.4h-91.5z"/><path d="m491 1529.3h70.9v89.1h-70.9z"/><path d="m121.8 1813.4h39.7v97.4h-39.7z"/><path d="m243.1 1813.4h41.8v87.3h-41.8z"/><path d="m645.4 1813.4h39.4v87.3h-39.4z"/><path d="m768.7 1813.4h39.8v97.4h-39.8z"/><path d="m285.2 3629.7h35.1v80.9h-35.1z"/><path d="m247.6 3548.8h110.4v80.9h-110.4z"/><path d="m204.1 3460.9h77.9v87.9h-77.9z"/><path d="m165.1 3371.6h77.9v87.9h-77.9z"/><path d="m122.9 3283.6h77.9v87.9h-77.9z"/><path d="m327.4 3460.2h77.9v87.9h-77.9z"/><path d="m366.4 3370.9h77.9v87.9h-77.9z"/><path d="m408.6 3282.9h109.7v87.9h-109.7z"/><path d="m244.6 3018.5h113.3v87.9h-113.3z"/><path d="m205.7 3107.7h77.9v87.9h-77.9z"/><path d="m163.5 3195.7h77.9v87.9h-77.9z"/><path d="m327.4 3108.4h77.9v87.9h-77.9z"/><path d="m366.4 3195.7h77.9v87.9h-77.9z"/><path d="m283.8 2937.6h35.1v80.9h-35.1z"/><path d="m126.8 3541.8h35.1v98.6h-35.1z"/><path d="m447.6 3548.1h35.1v98.6h-35.1z"/><path d="m126.8 3045.4h35.1v98.6h-35.1z"/><path d="m447.6 3045.4h35.1v98.6h-35.1z"/><path d="m283.8 3287.2h35.1v80.9h-35.1z"/><path d="m606.8 3628.7h35.1v80.9h-35.1z"/><path d="m569.1 3547.8h110.4v80.9h-110.4z"/><path d="m649 3459.2h77.9v87.9h-77.9z"/><path d="m688 3369.9h77.9v87.9h-77.9z"/><path d="m730.2 3281.9h77.9v87.9h-77.9z"/><path d="m566.2 3017.4h113.3v87.9h-113.3z"/><path d="m649 3107.4h77.9v87.9h-77.9z"/><path d="m688 3194.7h77.9v87.9h-77.9z"/><path d="m605.3 2936.5h35.1v80.9h-35.1z"/><path d="m769.1 3547.1h35.1v98.6h-35.1z"/><path d="m769.1 3044.3h35.1v98.6h-35.1z"/><path d="m529.5 3460.2h77.9v87.9h-77.9z"/><path d="m490.6 3370.9h77.9v87.9h-77.9z"/><path d="m531.2 3107.1h77.9v87.9h-77.9z"/><path d="m488.9 3195h77.9v87.9h-77.9z"/><path d="m606.8 3285.5h35.1v80.9h-35.1z"/><path d="m161.9 2955.9h61.7v52.8h-61.7z"/><path d="m140.7 2923.5h103.9v32.5h-103.9z"/><path d="m140.7 2886.9h41.4v52.8h-41.4z"/><path d="m202.4 2886.9h42.2v52.8h-42.2z"/><path d="m161.9 2733.7h61.7v52.8h-61.7z"/><path d="m140.7 2786.5h103.9v32.5h-103.9z"/><path d="m140.7 2802.7h41.4v52.8h-41.4z"/><path d="m202.4 2802.7h42.2v52.8h-42.2z"/><path d="m121.8 2846.3h39.7v52.8h-39.7z"/><path d="m223.5 2846.3h39.9v52.8h-39.9z"/><path d="m387.3 2957.4h61.7v52.8h-61.7z"/><path d="m366.2 2925h103.9v32.5h-103.9z"/><path d="m366.2 2888.4h41.4v52.8h-41.4z"/><path d="m427.9 2888.4h42.2v52.8h-42.2z"/><path d="m387.3 2735.2h61.7v52.8h-61.7z"/><path d="m366.2 2788h103.9v32.5h-103.9z"/><path d="m366.2 2804.2h41.4v52.8h-41.4z"/><path d="m427.9 2804.2h42.2v52.8h-42.2z"/><path d="m347.2 2847.9h39.7v52.8h-39.7z"/></g><path d="m449 2847.9h29.9v52.8h-29.9z" stroke-width="2.4352"/><path d="m479.4 2959h61.7v52.8h-61.7z" stroke-width="2.8118"/><path d="m458.3 2926.5h103.9v32.5h-103.9z" stroke-width="2.8118"/><path d="m458.3 2890h41.4v52.8h-41.4z" stroke-width="2.8118"/><path d="m520 2890h42.2v52.8h-42.2z" stroke-width="2.8118"/><path d="m479.4 2736.8h61.7v52.8h-61.7z" stroke-width="2.8118"/><path d="m458.3 2788h103.9v32.5h-103.9z" stroke-width="2.8118"/><path d="m458.3 2805.8h41.4v52.8h-41.4z" stroke-width="2.8118"/><path d="m520 2805.8h42.2v52.8h-42.2z" stroke-width="2.8118"/><path d="m450.5 2849.4h26v52.8h-26z" stroke-width="2.2746"/><path d="m541.1 2849.4h39.9v52.8h-39.9z" stroke-width="2.8118"/><path d="m702.6 2957.4h61.7v52.8h-61.7z" stroke-width="2.8118"/><path d="m681.5 2925h103.9v32.5h-103.9z" stroke-width="2.8118"/><path d="m681.5 2888.4h41.4v52.8h-41.4z" stroke-width="2.8118"/><path d="m743.2 2888.4h42.2v52.8h-42.2z" stroke-width="2.8118"/><path d="m702.6 2735.2h61.7v52.8h-61.7z" stroke-width="2.8118"/><path d="m681.5 2788h103.9v32.5h-103.9z" stroke-width="2.8118"/><path d="m681.5 2804.2h41.4v52.8h-41.4z" stroke-width="2.8118"/><path d="m743.2 2804.2h42.2v52.8h-42.2z" stroke-width="2.8118"/><path d="m662.5 2847.9h39.7v52.8h-39.7z" stroke-width="2.8118"/><path d="m764.3 2847.9h39.9v52.8h-39.9z" stroke-width="2.8118"/><path d="m126.4 2594.1h35.1v98.6h-35.1z" stroke-width="2.8118"/><path d="m447.1 2594.1h35.1v98.6h-35.1z" stroke-width="2.8118"/><path d="m768.7 2593.1h35.1v98.6h-35.1z" stroke-width="2.8118"/><path d="m283.8 2719.6h35.1v80.9h-35.1z" stroke-width="2.8118"/><path d="m244.6 2632.8h113.3v86.9h-113.3z" stroke-width="2.8118"/><path d="m205.7 2550.9h191.2v86.9h-191.2z" stroke-width="2.8118"/><path d="m163.3 2464h276v86.9h-276z" stroke-width="2.8118"/><path d="m126.4 2377.1h192.4v86.9h-192.4z" stroke-width="2.8118"/><path d="m163.3 2290.3h194.6v86.9h-194.6z" stroke-width="2.8118"/><path d="m202.4 2209.4h116.4v80.9h-116.4z" stroke-width="2.8118"/><path d="m243.1 2128.5h35.1v80.9h-35.1z" stroke-width="2.8118"/><path d="m609.1 2719.6h35.1v80.9h-35.1z" stroke-width="2.8118"/><path d="m569.9 2632.8h113.3v86.9h-113.3z" stroke-width="2.8118"/><path d="m531 2550.9h191.2v86.9h-191.2z" stroke-width="2.8118"/><path d="m488.6 2464h276v86.9h-276z" stroke-width="2.8118"/><path d="m609.1 2377.1h192.4v86.9h-192.4z" stroke-width="2.8118"/><path d="m569.9 2290.3h194.6v86.9h-194.6z" stroke-width="2.8118"/><path d="m609.1 2209.4h116.4v80.9h-116.4z" stroke-width="2.8118"/><path d="m649.7 2128.5h35.1v80.9h-35.1z" stroke-width="2.8118"/><path d="m368.3 2413.4h193.8v50.6h-193.8z" stroke-width="2.8118"/><path d="m407.6 2271.3h112.3v142.1h-112.3z" stroke-width="2.8118"/><path d="m427.9 2182.7h71.8v88.6h-71.8z" stroke-width="2.8118"/><path d="m121.8 2209.4h41.6v61.9h-41.6z" stroke-width="2.8118"/><path d="m764.6 2209.4h39.6v61.9h-39.6z" stroke-width="2.8118"/><path d="m121.8 2018.3h41.6v150.6h-41.6z" stroke-width="2.8118"/><path d="m163.3 1947.3h39.1v166.4h-39.1z" stroke-width="2.8118"/><path d="m202.4 1898.6h40.7v164.4h-40.7z" stroke-width="2.8118"/><path d="m243.1 1898.6h75.7v82.2h-75.7z" stroke-width="2.8118"/><path d="m284.9 1947.3h73.1v115.7h-73.1z" stroke-width="2.8118"/><path d="m325.8 2018.3h91.6v95.4h-91.6z" stroke-width="2.8118"/><path d="m368.3 2128.5h193.8v54.2h-193.8z" stroke-width="2.8118"/><path d="m368.3 2093.7h70.9v89.1h-70.9z" stroke-width="2.8118"/><path d="m766.9 2018.3h41.6v150.6h-41.6z" stroke-width="2.8118"/><path d="m727.8 1947.3h39.1v166.4h-39.1z" stroke-width="2.8118"/><path d="m687.1 1898.6h40.7v164.4h-40.7z" stroke-width="2.8118"/><path d="m611.4 1898.6h75.7v82.2h-75.7z" stroke-width="2.8118"/><path d="m572.3 1947.3h73.1v115.7h-73.1z" stroke-width="2.8118"/><path d="m512.9 2018.3h91.5v95.4h-91.5z" stroke-width="2.8118"/><path d="m491 2093.7h70.9v89.1h-70.9z" stroke-width="2.8118"/><path d="m427.9 1813.4h71.8v87.3h-71.8z" stroke-width="2.8118"/><path d="m386.7 1748.4h30.7v48.7h-30.7z" stroke-width="2.8118"/><path d="m407.6 1782.9h31.7v42.6h-31.7z" stroke-width="2.8118"/><path d="m346.7 1813.4h31.2v92.3h-31.2z" stroke-width="2.8118"/><path d="m448.2 1672.3h31.2v92.3h-31.2z" stroke-width="2.8118"/><path d="m448.2 1953.9h31.2v92.3h-31.2z" stroke-width="2.8118"/><path d="m549.3 1813.4h31.2v92.3h-31.2z" stroke-width="2.8118"/><path d="m386.7 1915.9h30.7v48.7h-30.7z" stroke-width="2.8118"/><path d="m407.6 1887.4h31.7v42.6h-31.7z" stroke-width="2.8118"/><path d="m508.5 1748.4h30.7v48.7h-30.7z" stroke-width="2.8118"/><path d="m486.6 1782.9h31.7v42.6h-31.7z" stroke-width="2.8118"/><path d="m508.5 1915.9h30.7v48.7h-30.7z" stroke-width="2.8118"/><path d="m486.6 1887.4h31.7v42.6h-31.7z" stroke-width="2.8118"/></g></svg>