<svg enable-background="new 0 0 1500 1500" viewBox="0 0 1500 1500" xmlns="http://www.w3.org/2000/svg"><path d="m0 254.4h1500v991.1h-1500z" fill="#00247d"/><path d="m627.7 254.4h-221v138.6z" fill="#00247d"/><path d="m190.4 415.9-190.4-119.5v119.5h190.5z" fill="#00247d"/><path d="m406.7 690.1h221l-221-138.6z" fill="#00247d"/><path d="m287.9 393v-138.6h-221z" fill="#00247d"/><path d="m504.1 415.9h190.5v22.3 68.1 22.4h-190.5l190.5 119.4v-351.7z" fill="#00247d"/><path d="m287.9 551.5-221 138.6h221z" fill="#00247d"/><path d="m0 528.7v119.4l190.5-119.4z" fill="#00247d"/><path d="m451.6 415.9h-44.6l257.4-161.5h-36.7l-221 138.6v-138.6h-23.5v183.8h311.4v-22.3h-190.5l190.5-119.5v-33z" fill="#fff"/><path d="m228.1 415.9h44.6l-257.4-161.5h-15.3v18.4z" fill="#cf142b"/><path d="m664.4 254.4-257.4 161.5h44.6l243-152.5v-9z" fill="#cf142b"/><path d="m465.7 528.7h-44.6l13.1 8.2 244.2 153.2h16.2v-17.8l-215.8-135.4z" fill="#cf142b"/><path d="m278.4 533 7-4.3h-44.6l-26.3 16.4-214.5 134.6v10.4h28l231.1-145z" fill="#cf142b"/><path d="m311.4 438.2v-183.8h-23.5v138.6l-221-138.6h-51.6l257.4 161.5h-44.6l-228.1-143.1v23.6l190.4 119.5h.1-190.5v22.3z" fill="#fff"/><path d="m694.6 528.7v-22.4h-311.4v183.8h23.5v-138.6l221 138.6h50.7l-257.3-161.4h44.6l228.9 143.6v-24.2l-190.5-119.4z" fill="#fff"/><path d="m311.4 506.3h-311.4v22.4h190.5l-190.5 119.4v31.6l240.8-151h44.6l-257.4 161.4h38.9l221-138.6v138.6h23.5z" fill="#fff"/><path d="m383.2 506.3h311.4v-68.1h-311.4v-183.8h-71.8v183.8h-311.4v68.1h311.4v183.8h71.8z" fill="#cf142b"/><g fill="#fff"><path d="m1090.3 392.7 14.3 44.2h46.4l-37.5 27.2 14.3 44.2-37.5-27.3-37.6 27.3 14.4-44.2-37.6-27.2h46.4z"/><path d="m943.3 423.9 31.1 34.5 42.4-18.8-23.2 40.1 31.1 34.5-45.5-9.6-23.2 40.2-4.8-46.2-45.4-9.6 42.4-18.9z"/><path d="m821.8 512.2 42.4 18.9 31.1-34.5-4.9 46.2 42.4 18.9-45.4 9.6-4.8 46.2-23.2-40.2-45.4 9.6 31-34.5z"/><path d="m746.7 642.3h46.4l14.4-44.1 14.3 44.1h46.4l-37.5 27.3 14.3 44.1-37.5-27.2-37.6 27.2 14.4-44.1z"/><path d="m731 791.7 42.4-18.9-4.8-46.1 31 34.5 42.4-18.9-23.2 40.2 31.1 34.5-45.4-9.7-23.2 40.2-4.9-46.1z"/><path d="m777.4 934.6 31.1-34.5-23.2-40.2 42.4 18.9 31-34.5-4.8 46.1 42.4 18.9-45.4 9.7-4.9 46.1-23.2-40.2z"/><path d="m877.9 1046.2 14.4-44.1-37.6-27.3h46.4l14.4-44.2 14.3 44.2h46.4l-37.5 27.3 14.3 44.1-37.5-27.3z"/><path d="m1015.2 1107.3-4.9-46.2-45.4-9.6 42.4-18.9-4.8-46.2 31 34.5 42.4-18.8-23.2 40.2 31.1 34.4-45.4-9.6z"/><path d="m1165.4 1107.3-23.2-40.2-45.4 9.6 31-34.4-23.2-40.2 42.4 18.8 31.1-34.5-4.9 46.2 42.4 18.9-45.4 9.6z"/><path d="m1302.6 1046.2-37.6-27.3-37.5 27.3 14.3-44.1-37.5-27.3h46.4l14.3-44.2 14.4 44.2h46.4l-37.5 27.3z"/><path d="m1403.1 934.6-45.4-9.7-23.2 40.2-4.8-46.1-45.5-9.7 42.5-18.9-4.9-46.1 31.1 34.5 42.4-18.9-23.2 40.2z"/><path d="m1449.5 791.7-45.4 9.7-4.8 46.1-23.2-40.2-45.4 9.7 31-34.5-23.2-40.2 42.4 18.9 31.1-34.5-4.9 46.1z"/><path d="m1433.8 642.3-37.5 27.3 14.3 44.1-37.5-27.2-37.6 27.2 14.4-44.1-37.6-27.3h46.4l14.4-44.1 14.3 44.1z"/><path d="m1358.7 512.2-23.2 40.2 31.1 34.5-45.4-9.6-23.2 40.2-4.9-46.2-45.4-9.6 42.4-18.9-4.8-46.2 31 34.5z"/><path d="m1237.2 423.9-4.9 46.2 42.4 18.9-45.4 9.6-4.8 46.2-23.2-40.2-45.4 9.6 31-34.5-23.2-40.1 42.4 18.8z"/></g></svg>