<svg enable-background="new 0 0 1000 600" viewBox="0 0 1000 600" xmlns="http://www.w3.org/2000/svg"><g clip-rule="evenodd" fill-rule="evenodd"><path d="m1000 376.5v223.3c0 2.3-.4 2.8-2.2 2.8-141.4-.1-282.8-.1-424.2-.1 0-47.3 0-94.5 0-141.8 0-9.6 0-19.3 0-28.9.4-.4.8-.7 1.2-1 11-8.1 20.7-18 29.2-29.9 5.4-7.6 10-15.9 14.4-24.4 1 0 1.9.1 2.9.1 126.2-.1 252.5-.1 378.7-.1z" fill="#154d24"/><path d="m423 602.5c-140.3 0-280.6 0-420.9.1-1.8 0-2.2-.5-2.2-2.8.1-74.4.1-148.9.1-223.3h375.5c1 0 2.1 0 3.1-.1.2.4.5.8.7 1.2 7.9 16.4 17.8 30.6 29.9 42.4 4.4 4.3 9.2 7.9 13.9 11.9 0 1.3-.1 2.6-.1 3.9z" fill="#154d24"/><path d="m573.7-.1c141.4 0 282.7 0 424-.1 1.9 0 2.4.3 2.4 2.9-.1 74.4-.1 148.8-.1 223.2-126.1 0-252.1 0-378.2 0-1.1 0-2.3.1-3.4.1-.5-.8-1-1.6-1.4-2.4-4.9-9.9-10.5-19-17-27.3-7.9-10.1-16.9-18.4-26.5-25.7 0-1.2.1-2.4.1-3.6.1-55.8.1-111.4.1-167.1z" fill="#154d24"/><path d="m0 225.9c0-74.5 0-148.9-.1-223.3 0-2.3.4-2.8 2.2-2.8 140.4.1 280.6.1 420.9.1v166.6c0 1.3 0 2.6.1 3.9-.5.4-.9.8-1.4 1.2-11 8.2-20.7 18.3-29.2 30.3-5.3 7.5-9.7 15.7-14 24-1 0-2.1-.1-3.1-.1-125.1.1-250.3.1-375.4.1z" fill="#154d24"/><path d="m1000.1 376.5c-122.8 0-245.5 0-368.3 0-.9 0-1.9 0-2.8-.1 1.9-4.9 3.9-9.7 5.7-14.7 4.1-11.3 6.5-23.2 8.5-35.4h2.8 351c1 0 2 .1 3.1.1z" fill="#fff"/><path d="m367.7 376.5c-1 0-2 .1-3 .1-121.6 0-243.1 0-364.7 0 0-16.7 0-33.3 0-50 .9 0 1.9-.1 2.8-.1h299 51.9c1.2 6.8 2.3 13.6 3.9 20.3 2.5 10.3 6.1 20 10.1 29.7z" fill="#fff"/><path d="m0 225.9h364.5c1 0 2 .1 3 .1-3.5 8.6-6.8 17.3-9.3 26.5-2 7.7-3.4 15.6-4.8 23.5-116.8 0-233.7 0-350.5 0-1 0-2-.1-3-.1.1-16.7.1-33.4.1-50z" fill="#fad50d"/><path d="m629.1 226c1.1 0 2.2-.1 3.3-.1h367.7v50c-1 0-2 .1-3.1.1-117.9 0-235.8 0-353.7 0-1-5.4-2-10.9-3.1-16.3-2.5-11.9-6.6-23-11.1-33.7z" fill="#fad50d"/><path d="m647.1 276h349.9c1 0 2-.1 3-.1v50.6c-1 0-2-.1-3-.1-115.7 0-231.5 0-347.2 0-.9 0-1.9 0-2.8 0 1.2-12.5 2.1-25 1.1-37.6-.4-4.3-.7-8.6-1-12.8z" fill="#090707"/><path d="m-.1 275.9c1 0 2 .1 3 .1h346.6c-.4 7.1-1.2 14.1-1.4 21.2-.3 9.8.6 19.5 1.5 29.2-17.1 0-34.2 0-51.3 0-98.5 0-197.1 0-295.6 0-.9 0-1.9.1-2.8.1 0-16.9 0-33.7 0-50.6z" fill="#090707"/><path d="m573.6 431.8c0 9.6.1 19.3.1 28.9v141.8c-16.7 0-33.3 0-50 0 0-1.2-.1-2.4-.1-3.6 0-49.7 0-99.3 0-149 7.1-1.7 14.2-3.1 21.1-5.3 10-3.3 19.6-7.8 28.9-12.8z" fill="#fff"/><path d="m423 602.5c0-55.6 0-111.1 0-166.7 0-1.3.1-2.6.1-3.9 8.4 4.4 16.9 8.6 26 11.7 7.9 2.7 16 4.5 24.1 6.3v148.9c0 1.2-.1 2.4-.1 3.6-16.7.1-33.4.1-50.1.1z" fill="#fad50d"/><path d="m573.7-.1v167c0 1.2 0 2.4-.1 3.6-5.4-2.6-10.7-5.4-16.1-7.8-10.9-4.9-22.3-7.8-34-10.1 0-49.7 0-99.3 0-149 0-1.2.1-2.4.1-3.6 16.7-.1 33.4-.1 50.1-.1z" fill="#fff"/><path d="m423.1 170.4c0-1.3-.1-2.6-.1-3.9 0-55.5 0-111.1 0-166.6h50c0 1.2.1 2.4.1 3.6v148.9c-4.9 1.1-9.7 2.2-14.6 3.4-12.4 3.3-24.1 8.5-35.4 14.6z" fill="#fad50d"/><path d="m473.1 152.4c0-49.6 0-99.3 0-148.9 0-1.2-.1-2.4-.1-3.6h50.6c0 1.2-.1 2.4-.1 3.6v149c-9.3-1-18.6-2.2-28-1.9-7.5.1-14.9 1.3-22.4 1.8z" fill="#090707"/><path d="m473 602.5c0-1.2.1-2.4.1-3.6 0-49.6 0-99.3 0-148.9 7.3.5 14.5 1.6 21.8 1.9 9.6.3 19.1-.9 28.6-1.9v149c0 1.2.1 2.4.1 3.6-16.8-.1-33.7-.1-50.6-.1z" fill="#090707"/><path d="m523.5 449.9c-9.5 1-19 2.2-28.6 1.9-7.3-.2-14.5-1.3-21.8-1.9-8.1-1.9-16.2-3.6-24.1-6.3-9-3.1-17.5-7.3-26-11.7-5.8-4-11.7-7.6-17.3-11.9-15.1-11.8-27.5-25.9-37.3-42.4-.2-.4-.6-.8-.9-1.2-5-9.6-9.7-19.4-13-29.8-2.1-6.7-3.4-13.5-5.1-20.3-1.1-9.7-2.2-19.4-1.9-29.2.2-7.1 1.3-14.1 1.8-21.2 1.8-7.9 3.5-15.8 6.1-23.5 3.1-9.2 7.4-17.9 11.9-26.5 5.4-8.3 10.9-16.6 17.5-24 10.6-12 22.7-22.1 36.4-30.3.6-.4 1.1-.8 1.7-1.2 11.3-6.1 22.9-11.4 35.4-14.6 4.8-1.2 9.7-2.3 14.6-3.4 7.5-.6 14.9-1.7 22.4-1.9 9.4-.2 18.7.9 28 1.9 11.6 2.4 23.1 5.3 34 10.1 5.4 2.4 10.7 5.2 16.1 7.8 11.9 7.4 23 15.6 32.7 25.7 8 8.3 15.1 17.4 21.1 27.3.5.8 1.1 1.6 1.7 2.4 5.8 10.8 10.9 21.8 14.1 33.7 1.4 5.4 2.6 10.9 3.9 16.3.4 4.3.8 8.5 1.3 12.8 1.3 12.6.2 25.1-1.4 37.6-2.5 12.1-5.6 24.1-10.8 35.4-2.3 5-4.8 9.8-7.3 14.7-5.4 8.5-11.1 16.9-17.8 24.4-10.5 11.8-22.6 21.8-36.2 29.9-.5.3-1 .7-1.4 1-9.3 5-18.9 9.5-29 12.7-6.6 2.6-13.7 4-20.8 5.7zm9.3-65.4c.2-.2.4-.4.6-.6 1.9-2.1 2.3-4.8 3-7.4.2-.9.3-1.7 1.1-2.4 3.1-2.6 3.4-5 1.4-8.5-1.1-2.3-1-4.7-.2-7.1.9 2.6 2 5.1 3.7 8 1.6-8.3.4-16-.5-23.7-1.1-3.6.2-7.2 0-10.7.4-.9.4-1.7 0-2.6 0-.6 0-1.1 0-1.7-.2-8.7-2.7-16.9-5.7-25-.2-.6-.5-1.2-.7-1.7-.4-1-.8-2-1.2-3-.3-.6-.5-1.1-.8-1.7-.2-1.4-.9-2.6-1.6-3.8-.2-.4-.4-.8-.5-1.3-.2-.4-.4-.8-.6-1.2s-.4-.8-.6-1.2-.4-.8-.6-1.2c-.3-.4-.5-.7-.8-1.1-.7-1.2-.7-2.7-1.9-3.6-.1-.3-.3-.5-.4-.8-.5-.7-.9-1.5-1.4-2.2-.2-.2-.3-.5-.5-.7-.2-.4-.5-.7-.7-1.1-.2-.3-.3-.5-.5-.8-.3-.4-.5-.7-.8-1-.2-.2-.3-.5-.5-.7-.2-.4-.5-.7-.7-1.1 0-.6-1.5-1.7.5-1.7 2.7 1.2 5.4 1.5 8.2.1.6-.4 1.3-.9 1.9-1.3.5.1.8 0 .8-.6 1.8-.1 2.4-1.5 3.3-2.8-1-.3-1.8-.6-2.7-.3-.2-1-.9-.6-1.5-.6-1.1-.6-2.1-1.3-3.2-1.9.4-1.2 1.5-1.1 2.1-1.8.5.1.8 0 .8-.6 1.6 0 2-1.2 2.7-2.2-2.1-1.5-5.4-.7-6.3-3.9.6.1 1 0 1.1-.7 2.1-1.7 1.9-2.8-.8-3.5-1.2-.3-2.4-1-3.4-1.7-1.4-1-2.9-2.3 0-3.5.5-.2 1.2-.8 1.2-1.7-1.8-.8-3.5-1.6-5.3-2.4 0-.7-.8-1.8.9-1.7 1.5.1 3-.1 4.5-.9-.8-.7-1.5-1.2-2.5-.9-.1-.7-.6-.8-1.2-.6-.2-1-.9-1.4-1.9-1.2-.4-1.2-1.2-1.9-2.4-1.8 0-.6-.4-.7-.9-.6-3.6-3.2-7.2-6.5-10.9-9.6-3.2-2.6-6.7-4.9-11.1-5-.1-.3-.2-.7-.3-.8-4.4-.7-8.6-.6-12.4 2-.7-.3-1.2-.1-1.6.5-2.2 2.1-4.7 3.9-5.2 7.3-.6.8-1.1 1.8-2.4 1.9-1.4.2-2.7.5-3.7 1.6-.4.4-.8.8-1.2 1.2-3.7 5.4-.9 10.3 1.3 15.6.6-4 2.7-5.2 6.2-4.2.7.2 1.7-.4 2.5-.7 1.1-.2 2-1.2 3.2-.9-.4 1.5-.8 2.9-1.8 4.2-.6 1.2-1.2 2.4-1.8 3.7-1 1.2-.8 2.9-1.5 4.2-.7 1.6-1.4 3.3-2.1 4.9-.6.7-.8 1.5-.6 2.4-.9.2-.8 1.1-1 1.7-3.7 13.2-4.6 26.5-1.6 39.9.4 1.9.4 4 2 5.4-.2.7-.3 1.5.6 1.8-.1 1.2.1 2.3 1.2 3-.1.6-.1 1.1.6 1.3-.1.6-.1 1.1.6 1.3-.1.6-.1 1.1.6 1.2-.1.6-.1 1.1.6 1.2-.2.7.1 1.2.6 1.6 2.3 4 5.4 7.4 8.2 11.1.9 2.2 1.3 4.4 1.2 6.8s.1 4.9 1.4 7.1c.1 1 .4 1.8 1.2 2.4 1.5 1.8 3.5 3.3 3.7 5.9 0 .2.1.5.1.7.2.7.3 1.4 1.1 1.7 0 .6 0 1.2.1 1.9-.4 0-.8.1-.7.6h.1c-.8-.2-1.2.1-1.3 1-.4.7-1.1.9-1.8 1.2-.6.5-1.2 1-2.1 1-4.2.1-8.4.3-12.6.5-1.5.1-2.1-.6-2.3-2-.3-1.9-.7-3.8-2.7-4.7-5.1-3.4-10-2.2-12.6 3-.4.8-.9 1.5-1.6 2.1-4.5 1.1-4.5 1.1-2.1 5.4.3.6.8 1.1 1.2 1.7 1.2 3.4 3.6 5 7.2 5.1 9.1.3 18.2.3 27.3.2-.3.7.1 1 .6 1.3.5.6.8 1.5 1.8 1.1.8 1.9 2.3 2.6 4.2 2.4.7 1.2 2 1.2 3.1 1.1 5.6-.2 11.3-.7 16.9.1.6 1 1.2 1.9 1.8 2.9.2.5.5.8 1.1.8 2.4.7 2.2 3.4 3.6 4.9.1.3.3.5.4.8.3.3.5.7.8 1 1.4 1.6 2.4 1.2 3.3-.5.2-.4.4-.8.6-1.2 1.1-1.6.5-4.1 2.8-5 .2-.1.5-.3.7-.4zm-112.8 24.6c3.7-1.6 6.7-4.3 10-6.6 1.8-1.2 3-1.3 4.7 0 3.1 2.4 6.4 4.6 10.4 7.4-1.3-4.2-2.1-7.7-3.4-10.9-1.2-3-.7-4.8 2.2-6.5 3.3-2 6.4-4.5 9.5-6.9-4.5-.7-8.7-.8-12.8-.6-2.3.1-3.4-.6-4-2.8-1.2-4.3-2.7-8.4-4.3-13.5-1.6 5.3-3.1 9.6-4.2 14-.5 2-1.5 2.8-3.6 2.7-4.1-.1-8.1 0-12.2 0-.1.3-.1.5-.2.8 3.2 2.4 6.4 5 9.7 7.3 1.7 1.2 2.2 2.3 1.5 4.5-1.2 3.6-3 7.1-3.3 11.1-.1.1-.2.2-.3.2h.2c0-.1.1-.2.1-.2zm156.7 0c0 .1.1.2.1.2.1-.1.1-.2.2-.2-.1 0-.2-.1-.3 0-.3-4.2-2-7.9-3.2-11.9-.6-1.9-.2-2.9 1.3-4 3.2-2.3 6.3-4.7 9.6-7.2-.5-.3-.7-.4-.8-.4-2.7-.1-5.4-.3-8.1-.4-5.9-.2-5.9-.2-7.8-5.9-1-3.1-2-6.1-2.9-9.2-1.9 4-3.4 7.8-4.5 11.8-.7 2.5-1.8 3.3-4.4 3.2-4.3-.2-8.6-.1-13.8-.1 4.5 3.2 8.2 5.8 12 8.3 1.9 1.2 2.2 2.3 1.5 4.4-1.3 3.8-2.4 7.8-3.8 12.4 3.7-2.6 6.9-4.6 9.9-7 2.2-1.8 3.9-2 6.2-.1 2.7 2.2 5.4 4.6 8.8 6.1zm-91.6-14c.5 4.8 2.8 8.9 4.3 13.4.7 2 .3 3-1.4 4.2-3.3 2.3-6.5 4.9-9.7 7.4.1.3.2.6.2.9 4 0 8 .1 12 0 2.3-.1 3.4.8 4 3 1 3.7 2.3 7.2 3.5 10.9 1.9-3.8 3.4-7.4 4.4-11.1.7-2.6 2-3.2 4.5-3.1 3.7.2 7.5 0 11.2 0-3.1-3.2-6.4-5.8-9.8-8.2-1.5-1-1.6-1.9-1-3.5 1.5-4.3 2.9-8.6 4.5-13.8-4.3 3-8 5.4-11.4 8.1-1.5 1.2-2.6 1.3-4.2 0-3.5-2.9-7.3-5.5-11.1-8.2zm132.5-111.9c.1.1.2.2.4.2-.1-.2-.1-.3-.2-.5-.6-3.9-2-7.5-3.3-11.2-.8-2.4-.3-3.6 1.7-4.9 3.2-2.1 6.2-4.4 9.3-6.7-.1-.2-.2-.5-.3-.7-3.7 0-7.4-.1-11.1 0-2.8.1-4.3-.8-5.1-3.7-.9-3.5-2.3-6.9-3.8-11.1-1.6 4.5-3 8.2-4.1 12-.6 1.9-1.6 2.7-3.7 2.6-4.4-.2-8.7-.1-14.1-.1 4.1 3.1 7.5 5.7 11 8.1 1.9 1.3 2.3 2.6 1.5 4.7-1.5 4.1-2.8 8.4-4.2 12.5 4-2.4 7.6-4.9 11-7.7 1.8-1.5 3.2-1.7 5.2-.2 3.2 2.5 6.3 5 9.8 6.7zm-106-76c-.4-4.4-2.4-8.2-3.9-12.2-1.1-2.9-.7-4.5 1.9-6.1 3-1.9 5.7-4.4 8.6-6.6-.1-.3-.2-.6-.3-.9-3.9 0-7.8-.1-11.7 0-2.3.1-3.4-.7-4-3-1-3.7-2.3-7.3-3.5-10.9-2 4-3.5 7.9-4.8 11.9-.5 1.7-1.4 2.4-3.2 2.3-4.1-.1-8.1 0-12.2 0 3 3.1 6.2 5.7 9.6 8 1.6 1.1 1.8 2.2 1.2 4-1.5 4.2-2.8 8.4-4.5 13.5 4.2-3 7.8-5.4 11.2-8 1.7-1.3 2.9-1.4 4.7 0 3.5 2.9 7.2 5.4 10.9 8zm-132.5 112c-.1-.1-.3-.2-.4-.2.1.2.1.3.2.5.6 3.7 1.9 7.2 3.1 10.6.9 2.6.6 4.2-1.9 5.7-3.2 1.9-6 4.3-9 6.5.1.3.2.5.3.8 4.1 0 8.2.1 12.3 0 1.9 0 2.9.6 3.4 2.5 1.2 3.9 2.6 7.6 4.1 12.2 1.5-4.3 2.9-7.7 3.9-11.2.7-2.5 1.9-3.6 4.6-3.4 4.1.2 8.3.1 12.4.1-3.3-3.2-6.6-5.9-10.2-8.3-1.9-1.3-2.1-2.5-1.4-4.5 1.5-4.2 2.8-8.4 4.2-12.6-4.2 2.5-7.9 5.1-11.5 8-1.7 1.4-2.8 1.2-4.4 0-3-2.4-6.1-4.9-9.7-6.7zm-8.6-59.6c3.9 3 7.1 5.6 10.4 7.9 1.7 1.2 2.1 2.3 1.4 4.3-1.3 3.7-2.3 7.6-3.7 12.2 4-2.8 7.2-4.9 10.3-7.3 1.7-1.3 2.9-1.4 4.6 0 3.3 2.7 6.9 5.1 10.4 7.6-.6-4.2-1.7-8.2-3.1-11.9-1-2.6-.3-4 1.9-5.4 3.6-2.3 6.9-4.9 10.7-7.6-4.4 0-8.3-.1-12.2 0-4.7.1-4.7.2-6.3-4.2-1.2-3.3-2-6.7-3.9-10.3-1.5 4.3-2.9 8.1-4.1 11.9-.6 2-1.4 2.9-3.7 2.8-3.9-.2-7.8 0-12.7 0zm181.1-67.1c1.4 4.7 2.6 8.6 3.8 12.5.6 1.7.3 2.8-1.3 3.9-3.7 2.4-7.2 5.1-10.8 7.7.1.3.2.5.3.8 4.3 0 8.5.1 12.8-.1 2.2-.1 3.1.7 3.7 2.8 1.2 4.3 2.7 8.5 4.3 13.5 1.4-4.8 2.9-8.6 3.7-12.6.7-3.3 2.4-4.4 5.6-4.2 3.6.2 7.1 0 10.7 0 .1-.2.2-.5.2-.7-3.2-2.4-6.4-5-9.7-7.3-2-1.3-2.2-2.6-1.4-4.7 1.4-3.6 2.4-7.4 3.8-11.8-4.1 2.8-7.5 5.1-10.9 7.5-1.5 1.1-2.6 1.2-4.2 0-3.1-2.3-6.5-4.5-10.6-7.3zm-132.3-.1c1.4 4.6 2.3 8.3 3.7 12 .9 2.4.5 3.8-1.7 5.2-3.1 2-6 4.5-9 6.7.1.3.2.7.3 1 4 0 8 .1 11.9 0 1.9-.1 2.8.6 3.4 2.5 1.2 4.2 2.6 8.3 4 12.5 1.9-3.8 3.3-7.6 4.4-11.5.7-2.5 1.8-3.6 4.6-3.4 4.2.3 8.5.1 12.8.1-3.7-3.3-7.4-6-11.4-8.6-1.5-1-1.8-1.9-1.3-3.7 1.4-4 2.4-8.1 3.8-12.9-4.2 2.9-7.7 5.3-11.2 7.9-1.4 1-2.3 1-3.7-.1-3.1-2.5-6.5-4.8-10.6-7.7zm163.9 150.6c4.4 0 8.1.1 11.7 0 5.3-.2 5.3-.3 7 4.8 1.1 3.1 2.2 6.2 3.6 10.1 1.6-4.8 3.1-8.7 4.2-12.6.6-1.8 1.4-2.5 3.4-2.5 4 .2 8.1 0 13.1 0-4-3.1-7.2-5.7-10.5-8-1.7-1.2-2.1-2.3-1.4-4.3 1.3-3.7 2.3-7.6 3.7-12.2-3.8 2.6-7 4.6-9.8 6.9-2 1.6-3.5 1.8-5.6 0-3.1-2.6-6.6-4.9-9.9-7.3.7 4.5 1.9 8.7 3.3 12.8.7 1.9.2 2.8-1.4 3.9-3.6 2.6-7.2 5.3-11.4 8.4z" fill="#de040e"/><path d="m486.7 333.7c-2.7-3.7-5.9-7.1-8.2-11.1.1-.6.2-1.3-.6-1.6 0-.5 0-1.1-.6-1.2 0-.5 0-1.1-.6-1.2 0-.5 0-1.1-.6-1.3 0-.5.1-1.1-.6-1.3 0-1.2-.5-2.2-1.2-3 .1-.7.1-1.4-.6-1.8-.1-.5 0-1-.2-1.5-3.4-10.9-3.3-21.9-1.8-33.1.6-4.2 2-8.3 2.6-12.5 1-.6.8-1.5.6-2.4.7-1.6 1.4-3.3 2.1-4.9l1.5.6c.2.3.4.6.6.9 1.7 2.2 3.8 1.3 5.9.9 1 .1 2 .1 3.1.2 2.8-.1 3.4 2.2 4.3 4.1l.6.6.6.6c1 .8 2.2 1.3 1.8 3-1.3 6 0 11.9.7 17.9.6 9.6 3.9 18.5 7.5 27.2.9 2.2 2.4 4.2 2.6 6.6-1.1.6-1.7 1.7-2.3 2.7-1 .8-1 2.1-1.3 3.2-1.4 4.2.2 8.6-.6 12.9-1.5 2 .4 4.6-1.2 6.6-.4-.2-.7-.5-1.1-.7-.2-.2-.4-.4-.7-.5-.4-.3-.7-.5-1.1-.8-.9-.6-1.4-1.9-2.8-1.5-.2-.2-.3-.3-.5-.5.1-.4-.1-.7-.5-.8-2.4-1.9-4.5-4.5-7.4-6.3z" fill="#7a3d99"/><path d="m531.9 271.7c-.6.4-1.3.9-1.9 1.3-2.7-.3-5.5.4-8.2-.5-1.2-.5-2.4-.9-3.6-1.4-.2-.6-.7-.6-1.1-.7-1.2-.9-2.5-1.7-3.7-2.6-2.3-.8-3.1-3.4-5.4-4.2.2-1.1-.5-1.6-1.2-2.1-.4-1.6-.8-3.2-1.2-4.8 1.7-.6 1-1.3 0-1.9-.2-.3-.4-.6-.6-.9-.1-.3-.2-.6-.3-.9-.4-.6 0-1.5-.9-1.8h.1c.3-1.3 1.5-2.8-.6-3.6-.2-.4-.4-.8-.7-1.2.2-.2.4-.5.6-.7 1.4-.4 2.2 1.1 4 1.3-1.3-1.1-2.4-2-.3-3.1-1.4.5-2.8.4-3.7 1.4-6 .8-11.9 1.8-18 .4-1-.4-2.1-.8-3.1-1.2.1-.3.2-.6.3-.9.1-.2.2-.5.3-.7 1.1-1.3 1.2-2.5-.1-3.8-2.3-1-.4-3.5-1.7-4.9 0-.5-.1-1-.7-1.2-.7-1-1.7-1.2-2.8-1.2-.9.1-1.5-.2-1.6-1.2.4-3.3 3-5.2 5.2-7.3.6.1 1.3.4 1.6-.5 4.2-.9 8.4-2.3 12.7-1.3 4.4.1 7.9 2.4 11.1 5 3.8 3 7.3 6.4 10.9 9.6.3.2.6.4.9.6.5 1.1 1.3 1.6 2.4 1.8.3.9 1 1.2 1.9 1.2.2.7.7.7 1.2.6-2.6 2.1-5.3.5-7.8-.1-1.7-.3-1.7-.5-3.4.1 3.5 0 5.7 2.1 8.3 3.4 1.8.8 3.5 1.6 5.3 2.4 0 .9-.6 1.4-1.2 1.7-2.9 1.2-1.4 2.5 0 3.5 1 .8 2.2 1.4 3.4 1.7 2.7.7 2.8 1.8.8 3.5-.5.1-1 0-1.1.7-5.5 2.4-10.6 1.1-15.5-1.7 3.1 2.5 6.6 4.2 10.5 3.5 3-.6 5.2.6 7.8 1.6 2.2.8 1.6 1.5.7 2.8-.3.2-.5.4-.8.6-.6.6-1.7.6-2.1 1.8 1 .6 2.1 1.3 3.2 1.9.3.7.9.6 1.5.6 2.3 1.5-.4 2-.6 3.1-.2-.1-.5.1-.8.3zm-44.4-38c.3.8 1.2.5 1.8.9 2.3.6 4.6.3 5.3-2 .9-2.8-2.3-2.1-3.5-3.1-.2-.1-.6 0-.9 0-1 0-2-.2-2.7.6-.4 0-.6.2-.7.6-1.1.8-1.1 1.6 0 2.5.1.3.3.5.7.5z" fill="#7a3d99"/><path d="m379.1 319.2c3.6 1.8 6.7 4.3 10 6.6 1.6 1.2 2.7 1.3 4.4 0 3.5-2.9 7.3-5.6 11.5-8-1.4 4.2-2.7 8.5-4.2 12.6-.7 2-.5 3.2 1.4 4.5 3.6 2.4 6.9 5.1 10.2 8.3-4.1 0-8.3.2-12.4-.1-2.7-.2-3.9.9-4.6 3.4-1 3.6-2.4 7-3.9 11.2-1.6-4.5-3-8.3-4.1-12.2-.6-1.9-1.5-2.6-3.4-2.5-4.1.1-8.2 0-12.3 0-.1-.3-.2-.5-.3-.8 3-2.2 5.8-4.6 9-6.5 2.5-1.5 2.8-3.1 1.9-5.7-1.2-3.5-2.5-7-3.1-10.6-.3 0-.2-.1-.1-.2zm23.5 2c-.2-.1-.4-.3-.6-.4-2.6 2-5.3 3.9-7.8 6-1.9 1.7-3.5 1.8-5.5.2-2.3-1.9-4.9-3.4-7.4-5.1.5 3.7 1.4 6.8 2.5 9.9.6 1.6.3 2.6-1.1 3.5-2.7 1.8-5.3 3.8-7.9 5.7.1.3.2.6.2.8h10.1c1.6 0 2.5.9 3 2.4.9 3 2 6 3.3 9.8 1.4-3.9 2.5-6.9 3.5-9.9.5-1.6 1.4-2.2 3.1-2.1 3.6.1 7.1 0 10.7 0-2.3-2.6-4.8-4.7-7.5-6.5-2-1.3-2.5-2.7-1.6-5 1.1-3 1.9-6.2 3-9.3z" fill="#150c0a"/><path d="m511.6 207.2c-3.7-2.6-7.4-5.2-10.9-8-1.8-1.4-3-1.3-4.7 0-3.4 2.6-7 5-11.2 8 1.7-5.1 3-9.3 4.5-13.5.6-1.8.4-2.8-1.2-4-3.3-2.3-6.5-4.9-9.6-8 4.1 0 8.1-.1 12.2 0 1.8.1 2.7-.6 3.2-2.3 1.3-4 2.7-7.9 4.8-11.9 1.2 3.6 2.5 7.2 3.5 10.9.6 2.2 1.7 3.1 4 3 3.9-.2 7.8 0 11.7 0 .1.3.2.6.3.9-2.8 2.2-5.6 4.6-8.6 6.6-2.6 1.7-3 3.2-1.9 6.1 1.5 4 3.5 7.9 3.9 12.2zm-2.4-3.6c.1 0 .2.1.3.1-.1 0-.2-.1-.3-.1-.4-3.6-2.1-6.7-3.2-10-.6-1.9-.3-3.1 1.3-4.3 2.4-1.9 5.1-3.3 7.3-6.2-3.7-.2-6.9-.5-10.1-.5-1.7 0-2.5-.6-3-2.2-.9-2.9-1.6-5.9-3.2-8.9-1.7 2.8-2.3 5.5-3.1 8.1-.8 2.5-1.9 3.9-4.9 3.5-2.7-.3-5.5-.1-8.2-.1 2.3 2.5 4.7 4.5 7.2 6.2 1.7 1.2 2.1 2.3 1.3 4.3-1.2 3.1-2.1 6.3-3.1 9.5 3.4-1.6 6.2-3.4 8.9-5.5 1.4-1 2.4-1.1 4-.1 2.8 2.2 5.4 4.9 8.8 6.2z" fill="#150c0a"/><path d="m617.6 283.2c-3.6-1.7-6.6-4.2-9.7-6.5-2-1.5-3.3-1.3-5.2.2-3.4 2.8-7 5.4-11 7.7 1.4-4.2 2.6-8.4 4.2-12.5.8-2.2.4-3.4-1.5-4.7-3.5-2.4-6.8-5-11-8.1 5.3 0 9.7-.1 14.1.1 2.1.1 3-.7 3.7-2.6 1.2-3.8 2.6-7.6 4.1-12 1.4 4.1 2.9 7.5 3.8 11.1.7 2.9 2.2 3.8 5.1 3.7 3.7-.2 7.4 0 11.1 0 .1.2.2.5.3.7-3.1 2.2-6.1 4.6-9.3 6.7-2 1.3-2.6 2.5-1.7 4.9 1.3 3.7 2.7 7.3 3.3 11.2-.1-.1-.2 0-.3.1zm-1.4-2.3c-1.3-4.1-2.2-7.3-3.3-10.5-.5-1.6-.2-2.5 1.2-3.5 2.7-1.8 5.2-3.8 7.8-5.7-3.5-.7-6.7-.7-9.9-.7-1.8 0-2.9-.8-3.4-2.6-.9-3.1-2.1-6.1-3.3-9.6-1.3 3.5-2.5 6.4-3.3 9.4-.6 2.2-1.8 2.8-3.9 2.7-3.3-.1-6.7 0-10.6 0 2.4 2.7 4.9 4.3 7.3 5.8 2.7 1.7 3.6 3.5 2.2 6.7-1.2 2.7-1.9 5.6-2.8 8.5 3.2-1.7 5.9-3.6 8.5-5.7 2-1.7 3.5-1.6 5.5-.1 2.2 1.7 4.8 3.2 8 5.3z" fill="#150c0a"/><path d="m370.5 259.6c4.9 0 8.8-.2 12.7.1 2.3.1 3.1-.8 3.7-2.8 1.2-3.8 2.6-7.6 4.1-11.9 1.9 3.6 2.7 7 3.9 10.3 1.6 4.4 1.6 4.4 6.3 4.2 3.9-.1 7.7 0 12.2 0-3.7 2.7-7.1 5.3-10.7 7.6-2.2 1.4-2.8 2.8-1.9 5.4 1.4 3.8 2.5 7.7 3.1 11.9-3.5-2.5-7-4.9-10.4-7.6-1.7-1.4-3-1.3-4.6 0-3.1 2.3-6.4 4.5-10.3 7.3 1.4-4.6 2.4-8.5 3.7-12.2.7-1.9.3-3.1-1.4-4.3-3.3-2.4-6.5-5-10.4-8zm31.4 21.7c.1 0 .2.1.2.1s-.1-.1-.2-.1c0-3.1-1.2-5.9-2.3-8.6-1.2-3-.5-4.8 2.2-6.4 2.6-1.7 5.3-3.3 7.3-5.5-3.7 0-7.3-.1-10.9 0-1.9.1-2.9-.6-3.5-2.4-1-3.1-2.2-6.1-3.5-10-1.4 3.9-2.6 6.9-3.5 10-.6 1.9-1.5 2.6-3.4 2.5-3.1-.1-6.2 0-10.2 0 3.3 2.6 5.8 4.7 8.4 6.4 1.7 1.1 1.8 2.3 1.2 4-.9 2.8-1.7 5.8-2.5 8.7 0 .1-.1.3-.1.4.1 0 .3-.1.4-.2 2.7-1.7 5.4-3.4 8-5.2 1.4-1 2.4-.9 3.7.1 2.8 2.1 5.8 4.1 8.7 6.2z" fill="#150c0a"/><path d="m485.1 395.1c3.7 2.7 7.6 5.3 11.2 8.1 1.6 1.2 2.6 1.1 4.2 0 3.5-2.6 7.1-5.1 11.4-8.1-1.7 5.1-3 9.5-4.5 13.8-.5 1.5-.4 2.4 1 3.5 3.4 2.4 6.7 5 9.8 8.2-3.8 0-7.5.1-11.2 0-2.4-.1-3.8.6-4.5 3.1-1 3.7-2.5 7.3-4.4 11.1-1.2-3.6-2.5-7.2-3.5-10.9-.6-2.2-1.6-3.1-4-3-4 .2-8 0-12 0-.1-.3-.2-.6-.2-.9 3.2-2.5 6.3-5.1 9.7-7.4 1.7-1.2 2-2.2 1.4-4.2-1.6-4.3-3.8-8.5-4.4-13.3zm2.4 3.7c-.1 0-.2-.1-.3-.1.1 0 .2.1.3.1.5 3.6 2.2 6.9 3.3 10.3.5 1.7.3 2.8-1.2 3.8-2.6 1.9-5.1 4-8.2 6.4 3.9.2 6.9.6 10 .5 2.3-.1 3.4.8 4 3 .7 2.7 1.7 5.2 2.6 7.8 1.8-2.8 2.9-5.7 3.8-8.6.6-2 1.7-2.9 3.9-2.7 3 .2 6 0 9 0-2.2-2.5-4.5-4.4-6.9-6-2-1.3-2.5-2.7-1.6-5 1.2-3 2.1-6.1 3.1-9.1-.2-.1-.5-.2-.7-.4-2.3 1.6-4.7 3-6.8 4.9-2.4 2.2-4.3 2.2-6.9 0-2.2-1.9-4.4-4-7.4-4.9z" fill="#150c0a"/><path d="m551.6 192.5c4 2.8 7.4 5 10.7 7.5 1.6 1.2 2.7 1.1 4.2 0 3.4-2.5 6.8-4.8 10.9-7.5-1.4 4.4-2.5 8.2-3.8 11.8-.8 2.1-.6 3.4 1.4 4.7 3.4 2.2 6.5 4.8 9.7 7.3-.1.2-.2.5-.2.7-3.6 0-7.1.1-10.7 0-3.2-.2-4.9.9-5.6 4.2-.8 4-2.3 7.8-3.7 12.6-1.6-5.1-3.1-9.3-4.3-13.5-.6-2.1-1.5-2.9-3.7-2.8-4.3.2-8.5.1-12.8.1-.1-.3-.2-.5-.3-.8 3.6-2.6 7.1-5.3 10.8-7.7 1.6-1.1 1.9-2.2 1.3-3.9-1.3-4.1-2.4-8-3.9-12.7zm23.2 3.9c-.2-.1-.4-.3-.6-.4-2.5 1.8-5.2 3.4-7.6 5.3-1.6 1.2-3 1.3-4.6 0-1.8-1.4-3.7-2.7-5.7-4-.5-.3-1.1-1.2-1.8-.5-.5.4-.2 1.1 0 1.7.7 2.3 1.3 4.6 2.1 6.9.7 1.8.3 2.9-1.3 4-2.9 1.9-5.7 4.1-8.6 6.2 3.6.7 7 .8 10.4.6 2.3-.1 3.2.8 3.8 2.8.9 3.3 2.1 6.6 3.4 10.8 1.3-4.4 2.5-7.9 3.4-11.4.5-2 1.6-2.8 3.6-2.7 3.2.1 6.3 0 9.5 0-2.5-2.7-5.1-4.8-7.9-6.8-1.4-1-1.7-1.9-1.1-3.5 1.2-2.9 2.1-6 3-9z" fill="#150c0a"/><path d="m419.3 192.4c4.1 3 7.5 5.3 10.7 7.8 1.4 1.1 2.3 1.1 3.7.1 3.5-2.6 7-5 11.2-7.9-1.4 4.7-2.5 8.8-3.8 12.9-.6 1.7-.3 2.6 1.3 3.7 3.9 2.5 7.7 5.3 11.4 8.6-4.3 0-8.5.2-12.8-.1-2.8-.2-3.9.9-4.6 3.4-1.1 3.9-2.5 7.7-4.4 11.5-1.3-4.2-2.8-8.3-4-12.5-.5-1.9-1.4-2.5-3.4-2.5-4 .1-8 0-11.9 0-.1-.3-.2-.7-.3-1 3-2.3 5.9-4.7 9-6.7 2.2-1.4 2.5-2.8 1.7-5.2-1.5-3.8-2.4-7.6-3.8-12.1zm30.2 23.8c.1-.2.2-.5.3-.7-2.8-2-5.6-4.1-8.5-5.9-2-1.2-2.2-2.5-1.5-4.5 1-2.9 1.7-5.9 2.6-8.8-2.8 1.1-5.1 2.5-7.1 4.2-2.4 2-4.3 2.2-6.8 0-1.9-1.7-4-3.4-6.9-4.6 1 3.3 1.7 6.2 2.7 9 .8 2.2.3 3.5-1.6 4.9-2.3 1.6-4.8 3.1-7 5.7 3.6.2 6.7.5 9.7.5 1.8 0 2.7.7 3.2 2.4.9 3.3 2.1 6.6 3.5 10.8 1.3-3.9 2.6-6.8 3.3-9.8.6-2.7 2-3.5 4.7-3.3 3.1.3 6.3.1 9.4.1z" fill="#150c0a"/><path d="m583.2 343c4.2-3 7.8-5.8 11.5-8.3 1.6-1.1 2.1-2 1.4-3.9-1.5-4.1-2.6-8.3-3.3-12.8 3.3 2.4 6.8 4.6 9.9 7.3 2.1 1.8 3.6 1.6 5.6 0 2.9-2.3 6-4.2 9.8-6.9-1.4 4.6-2.4 8.5-3.7 12.2-.7 1.9-.3 3.1 1.4 4.3 3.3 2.3 6.5 4.9 10.5 8-5 0-9 .1-13.1 0-2-.1-2.8.6-3.4 2.5-1.2 3.9-2.6 7.8-4.2 12.6-1.4-3.9-2.5-7-3.6-10.1-1.8-5-1.7-4.9-7-4.8-3.7 0-7.4-.1-11.8-.1zm11.6-21.9c-.1 0-.1-.1-.2-.1 0 0 .1 0 .2.1-.1 2.9 1.3 5.4 2 8.1 1.3 4.5 1.4 4.5-2.5 7.2-2.4 1.7-4.7 3.4-7.1 5.1 3.8.4 7.2.4 10.6.1 2.4-.2 3.7.4 4.3 2.9.8 3 2.1 5.8 3.4 9.5 1.1-3.2 2.2-5.5 2.7-8 .8-3.5 2.6-5 6.3-4.5 2.4.3 4.9.1 8.2.1-3.3-2.5-5.7-4.6-8.4-6.4-1.8-1.2-2.1-2.3-1.4-4.2 1-2.9 1.8-5.9 3-9.7-3.4 2.3-6.1 4-8.7 6-1.5 1.1-2.5 1-3.9-.1-2.7-2.2-5.7-4.1-8.5-6.1z" fill="#150c0a"/><path d="m576.7 409.1c-3.3-1.5-6.1-3.9-8.8-6.1-2.3-1.9-4-1.7-6.2.1-3 2.4-6.2 4.4-9.9 7 1.4-4.6 2.4-8.6 3.8-12.4.7-2 .4-3.2-1.5-4.4-3.8-2.4-7.4-5.1-12-8.3 5.2 0 9.5-.2 13.8.1 2.6.1 3.7-.7 4.4-3.2 1.1-3.9 2.5-7.8 4.5-11.8 1 3.1 2 6.1 2.9 9.2 1.8 5.7 1.8 5.7 7.8 5.9 2.7.1 5.4.2 8.1.4.2 0 .3.2.8.4-3.3 2.5-6.4 4.9-9.6 7.2-1.5 1.1-1.9 2.1-1.3 4 1.2 3.9 2.9 7.7 3.2 11.9zm3.9-21.7c-.1-.2-.2-.5-.3-.7-3-.2-6-.4-9-.4-1.9 0-2.9-.7-3.4-2.6-.9-3.3-2.1-6.6-3.4-10.7-1.4 4.1-2.6 7.3-3.5 10.5-.6 2-1.5 2.7-3.6 2.6-3.4-.2-6.8 0-10.3 0 2.7 2.6 5.4 4.7 8.2 6.5 1.9 1.2 2.3 2.4 1.6 4.5-1.1 2.9-1.8 6-2.6 9 2.7-1.2 5-2.5 6.9-4.2 2.6-2.3 4.8-2.1 7.3.1 1.8 1.6 3.7 3.2 6.5 4.5-1-3.4-1.8-6.4-2.8-9.3-.7-2.1-.2-3.4 1.5-4.6 2.4-1.7 4.6-3.5 6.9-5.2z" fill="#150c0a"/><path d="m420 409c.3-3.9 2.1-7.5 3.3-11.2.7-2.1.3-3.3-1.5-4.5-3.3-2.3-6.5-4.9-9.7-7.3.1-.3.1-.5.2-.8 4.1 0 8.1-.1 12.2 0 2 0 3-.7 3.6-2.7 1.2-4.4 2.6-8.8 4.2-14 1.6 5.1 3.2 9.3 4.3 13.5.6 2.3 1.7 2.9 4 2.8 4.2-.2 8.4-.1 12.8.6-3.2 2.3-6.2 4.8-9.5 6.9-2.8 1.7-3.4 3.5-2.2 6.5 1.3 3.2 2.1 6.6 3.4 10.9-4-2.8-7.2-5-10.4-7.4-1.7-1.3-3-1.2-4.7 0-3.3 2.4-6.3 5.2-10 6.7zm29.8-22.2c-.1-.2-.1-.4-.2-.6-3.5 0-6.9-.1-10.4 0-2 .1-2.9-.7-3.4-2.5-1-3.5-2.1-6.9-3.5-11.2-1.1 3.7-2 6.5-2.8 9.4-1.4 4.7-1.4 4.7-6.2 4.8-2.5.1-5-.4-7.9.5 2.8 2.1 5.2 4.2 7.8 5.8 2.1 1.3 2.2 2.6 1.4 4.7-1.1 2.7-1.8 5.6-3 9.2 3.4-2.3 6.1-4 8.7-5.9 1.5-1.1 2.8-1.1 4.3 0 2.4 1.8 4.9 3.3 7.3 5 .2-.2.4-.3.7-.5-.9-2.9-1.6-5.9-2.6-8.8-.7-1.8-.2-2.7 1.3-3.7 2.7-2 5.6-4.1 8.5-6.2z" fill="#150c0a"/><path d="m491.7 363c.7-.2 1.4-.4 1.8-1.2.5-.2 1.1-.4 1.3-1h-.1c.4-.1.7-.1.7-.6h1.1c.4.6.8 1.2 1.3 1.8-.5.5-1 1-1.4 1.5-.2.3-.4.6-.6.8-.2.3-.5.6-.7 1-2.1 4.5-1.5 8.3 2 10.7-2.6-3.4-2.9-6.8-1.5-10.3.5-.2.6-.6.6-1.1.2-.3.4-.5.5-.8.5-.5 1.1-1 1.6-1.5.9-.7 2.2-.9 2.6-2.1 1.1-.3 2.1-.5 2.9.6-.2.4-.4.7-.6 1.1-.2.2-.4.3-.6.5s-.4.4-.6.6c-.7.4-1.1 1-1.2 1.8-.5.2-.6.7-.6 1.2-1.3 2.3-1.3 4.5 0 6.8.2 1.3.8 2.2 1.8 3l.6.6.6.6.6.6c.4.7 1 1.1 1.8 1.2.2.5 1.4 1.2-.2 1.2-1.8.1-3.4-1-5-1.5-.3-.3-.7-.5-1-.8-.3-.4-.6-.5-.9-.1 0 0 .4.3.6.5.3.3.7.5 1 .8.1.3 1.2.5.1.8-.7.2-1.5 0-2.2 0-1.4-.8-2.8-1.6-4.2-2.4-.4-.8-1.1-1.4-1.8-1.9-.2-.2-.4-.4-.6-.6-.4-.7-.8-1.5-1.2-2.2-.6-1.6-.2-3.4-1.2-4.9 1.2-.2 1.2-1.1 1.2-1.9v.1c.4-.7 1.6-1.4 1.5-2.9z" fill="#f1cc0c"/><path d="m532.1 385c-2.2.9-1.7 3.4-2.8 5-.1-.1-.3-.2-.4-.3.5-2.8 1.1-5.7 1.6-8.5 1.2-6.5 1.1-6.6-5.3-6.4-4.3.1-4.3.2-3.9 4.2.1.6 0 1.2 0 1.8-1-1.1-.9-2.6-1.3-3.9-.4-1.4-1.1-2.3-2.4-.6-1.4-.7-2.8-1.4-4.2-2.1 4.4 0 8.7 0 13.1-.1 1.7 0 3.6.2 5-1.1 6.5 1.1 8.8-1.3 6.9-6.9.2-.1.3-.3.5-.4 2 3.5 1.6 5.8-1.4 8.5-.8.7-.9 1.5-1.1 2.4-.6 2.6-1.1 5.3-3 7.4-.1-.1-.3-.2-.4-.3 1-2.2 1.9-4.4 2.3-6.7.2-.9 1-2.2-.6-2.4-1.2-.2-2.6.1-2.7 2-.2 2.5-.7 4.9-1 7.4-.1.6.1 1 .8.9.1-.2.2 0 .3.1z" fill="#0f140f"/><path d="m538.6 358.5c-.8 2.4-.8 4.8.2 7.1-.2.1-.3.3-.5.4-1.9-2.1-4.3-1-6.6-1.2-6-.6-11.9-.7-17.8.3.7-.5 1.4-1 2.1-1.5-1.5-.4-2.6-1.1-2.7-2.7 2.5 2.1 4.5 1.2 6.1-1.2-.8 3.3.7 4.1 3.7 3.7 1.8-.2 3.6-.2 5.4 0 2.2.2 2.9-.6 3-2.9.1-5.1-.5-10.2-.7-15.3 1.2.6 1.6 1.7 1.9 2.9l-.1.1c-1.2 4.5-.5 9-.3 13.5.1 2 2.1 1.5 3.3 1.7 1.7.3 1.2-1.2 1.3-2 .2-1.8.3-3.6.4-5.3.1-.1.2-.2.3-.2.8.7 1.2 1.6 1.5 2.6-.1 0-.3 0-.5 0z" fill="#0f140f"/><path d="m494.2 356.8c0-.2-.1-.5-.1-.7-.3-2.7.8-4.8 2.7-6.7.4.4.9.9 1.3 1.4.2.4.3.9.6 1 4.5 1.5 2.9 4.5 2 7.4-.1.4 0 .8 0 1.2-1.4 0-2.9 0-4.3 0 .1-1-.4-1.5-1.2-1.9.2-.9.1-1.6-1-1.7z" fill="#154a22"/><path d="m474.3 264.4c-.6 4.2-2 8.2-2.6 12.5-1.5 11.2-1.6 22.2 1.8 33.1.1.5.1 1 .2 1.5-1.6-1.4-1.6-3.5-2-5.4-3-13.4-2-26.8 1.6-39.9.1-.7.1-1.5 1-1.8z" fill="#2e0815"/><path d="m489.9 373.1c.4.7.8 1.5 1.2 2.2-9.1.1-18.2.1-27.3-.2-3.6-.1-6-1.8-7.2-5.1l.1-.1c1.3.3 1.5 1.5 2.2 2.3.9 1.2 2 1.9 3.5 1.9 8.4.3 16.7.8 25.1.6 1.3 0 2.4-.1 2.4-1.6z" fill="#150c0a"/><path d="m478.8 246.1c-.9.3-1.8.9-2.5.7-3.6-1-5.6.2-6.2 4.2-2.2-5.3-4.9-10.2-1.3-15.6.2.2.4.4.6.5-2.4 4.2-1.1 8.2.4 12.3 1.6-1.3 1.3-3.7 3.4-4.3-.1 1.1.2 1.9 1.5 1.9s2.5-.1 3.8-.1c0 .1.1.3.3.4z" fill="#3f240a"/><path d="m486.7 333.7c2.9 1.7 5 4.4 7.5 6.6-1.8.9-3.6.7-5.2-.8-.7 2.9.1 5.4.6 7.9-.1.1-.2.2-.4.3-1.3-2.2-1.5-4.7-1.4-7.1.2-2.5-.2-4.7-1.1-6.9z" fill="#0f140f"/><path d="m491.7 363c.2 1.5-1.1 2.3-1.7 3.4-.3-1.6-1.5-1.3-2.6-1.3-3.6 0-7.2 0-10.8.1-1.5 0-2.7-.5-2.7-2.1-.1-2-1.4-3.5-2-5.2l.1-.1c2 .9 2.4 2.9 2.7 4.7.3 1.4.8 2.1 2.3 2 4.2-.2 8.4-.4 12.6-.5.9-.1 1.5-.5 2.1-1z" fill="#150c0a"/><path d="m497.7 380.1c.8 0 1.6.2 2.2 0 1-.3-.1-.5-.1-.8.1-.1.3-.3.4-.4 1.7.5 3.2 1.6 5 1.5 1.6-.1.4-.8.2-1.2.1-.1.2-.3.4-.4 1.8.6 3.5 2.3 5.7 1l.4-.4c1.9.9 3.9 1.1 5.9.9 0 .4 0 .8-.1 1.2-5.6-.7-11.2-.3-16.9-.1-1.1-.1-2.3-.1-3.1-1.3z" fill="#3f240a"/><path d="m538.6 358.5h.6c.7 1.4 1.3 2.8 2 4.2.2.5.4.4.6 0 1.2-4.9.4-9.7-.7-14.5.4-.3.6-.8.5-1.4-.2-.2-.3-.3-.5-.5 0-.1 0-.2.1-.3.1-.5.1-1 .2-1.5.1-.6.2-1.2.3-1.8.9 7.7 2.1 15.4.5 23.7-1.6-2.8-2.7-5.3-3.6-7.9z" fill="#150c0a"/><path d="m498.2 350.7c-.5-.5-.9-1-1.3-1.4-1.9 1.9-3 4-2.7 6.7-.2-2.6-2.2-4.1-3.7-5.9l.4-.4c2.8 2 4.8 1.2 5.1-2.2.2-2-.2-3.9-.8-5.8 1.4-.3 1.9.9 2.8 1.5-.1.2-.3.4-.4.5-1.4 0-1 1-.8 1.7.5 1.7 1.2 3.3 1.8 5-.1.1-.3.2-.4.3z" fill="#0f140f"/><path d="m517.7 381.3c0-.4 0-.8.1-1.2 1.5-1.3.7-2.6-.2-3.8 1.3-1.7 1.9-.8 2.4.6.4 1.3.3 2.8 1.3 3.9-.1.7-.1 1.4.6 1.8-.2.9.3 2.2-1.2 2.4-.1-.6-.6-.7-1.1-.8-.7-1-1.3-1.9-1.9-2.9z" fill="#144821"/><path d="m531.5 263.3c.9-1.2 1.5-1.9-.7-2.8-2.6-1-4.8-2.1-7.8-1.6-3.9.7-7.4-1-10.5-3.5 5 2.9 10.1 4.2 15.5 1.7.9 3.1 4.2 2.4 6.3 3.9-.8 1.1-1.3 2.3-2.8 2.3z" fill="#2e0815"/><path d="m536 302.7c3 8.1 5.5 16.3 5.7 25-.2 0-.3 0-.5 0-.1-1.4-.3-2.8-.4-4.1-.8-7.1-3.2-13.7-5.1-20.5.1-.2.2-.3.3-.4z" fill="#150c0a"/><path d="m541.2 327.7h.5v1.7 2.6c.2 3.6-1.2 7.2 0 10.7-.1.6-.2 1.2-.3 1.8-.2-3.3-1.4-6.4-2.1-9.6l.2-.1c1.9.1 1-1.3.9-1.9-.3-1.9-.6-3.9-.4-5.8.9.5.3 1.6 1 2.4 0-.7.1-1.2.2-1.8z" fill="#0f140f"/><path d="m520.7 243.8c-2.6-1.3-4.8-3.4-8.3-3.4 1.7-.6 1.7-.4 3.4-.1 2.6.5 5.2 2.2 7.8.1 1-.3 1.7.3 2.5.9-1.5.8-3 1-4.5.9-1.7-.2-.8.9-.9 1.6z" fill="#2e0815"/><path d="m457.7 362.9c.7-.6 1.2-1.3 1.6-2.1 2.6-5.2 7.6-6.4 12.6-3 0 0-.1.1-.1.1-.7-.2-1.3-.3-2-.5-5.1-1.5-7.3-.6-9.9 4.2-.4.8-.9 1.6-1.9 1.7-.1-.1-.2-.3-.3-.4z" fill="#150c0a"/><path d="m495.4 221.6c-4.4-1-8.5.4-12.7 1.3 3.8-2.7 8.1-2.8 12.4-2 .1 0 .2.4.3.7z" fill="#2e0815"/><path d="m456.7 370c-.4-.6-.8-1.1-1.2-1.7-2.3-4.3-2.3-4.3 2.1-5.4.1.1.2.3.3.4-2.6.9-3.6 2.4-1.6 4.9.3.4.3 1.1.4 1.7z" fill="#150c0a"/><path d="m482.1 244.4c1 .4 2.1.8 3.1 1.2-.1.1-.2.2-.2.3-2.9.1-3.1.4-2.3 4.6-.8 0-1-1.4-2.1-.9-.1-.1-.3-.3-.4-.4 1-1.2 1.4-2.7 1.8-4.2 0-.1.1-.3.1-.6z" fill="#0f140f"/><path d="m521.8 272.4c2.7 1 5.4.2 8.2.5-2.7 1.5-5.5 1.1-8.2-.1 0-.1 0-.2 0-.4z" fill="#2e0815"/><path d="m520.6 385c1.5-.3 1-1.5 1.2-2.4.9 2.3 1.8 4.7 2.7 7-.1.1-.3.2-.4.3-1.3-1.5-1.1-4.2-3.5-4.9z" fill="#0f140f"/><path d="m476 230.7c.1 1 .6 1.3 1.6 1.2 1.1-.1 2.1.2 2.8 1.2-.1.1-.3.3-.4.4-2-1.7-4.1-.4-6.2-.3 0-.2 0-.4-.1-.6 1.1-.1 1.6-1.1 2.3-1.9z" fill="#0f140f"/><path d="m521.8 272.4v.5c-2.1 0-.5 1.1-.5 1.7-.1.1-.2.2-.3.2-1-1.2-2-2.4-2.9-3.6l.2-.2c1.2.5 2.4.9 3.5 1.4z" fill="#150c0a"/><path d="m478.4 253c.6-1.2 1.2-2.4 1.8-3.7.1.1.3.3.4.4-.7 1.5-.2 3-.3 4.5-.6 0-.6-1.2-1.4-.8-.2-.2-.3-.3-.5-.4z" fill="#0f140f"/><path d="m532.7 271.1c.2-1 2.9-1.6.6-3.1.9-.3 1.7 0 2.7.3-.9 1.3-1.5 2.7-3.3 2.8z" fill="#2e0815"/><path d="m478.5 257.8c-.5-.2-1-.4-1.5-.6.7-1.3.4-3 1.5-4.2.1.1.3.3.4.4-.8 1.4-.2 2.9-.4 4.4z" fill="#0f140f"/><path d="m493.5 377.7c1.4.8 2.8 1.6 4.2 2.4-1.9.2-3.4-.5-4.2-2.4z" fill="#3f240a"/><path d="m473.6 232.6c0 .2 0 .4.1.6-1.1.5-2.1 1-3.2 1.5-.2-.2-.4-.4-.6-.6 1-1 2.3-1.3 3.7-1.5z" fill="#3f240a"/><path d="m482.1 244.4c0 .2-.1.5-.1.7-1.2-.3-2.1.8-3.2.9-.1-.1-.3-.3-.4-.4 1.2-.8 2.4-1.6 3.6-2.4.1.1.3.2.4.3-.1.4-.2.6-.3.9z" fill="#3f240a"/><path d="m531.7 292.6c.7 1.2 1.4 2.4 1.6 3.8-.1.1-.2.2-.3.3-.8-1.1-1.3-2.4-1.6-3.7.1-.3.2-.3.3-.4z" fill="#150c0a"/><path d="m528.7 391.2c-.9 1.6-2 2.1-3.3.5.1-.1.3-.3.4-.4 1 .6 1.8.3 2.5-.4.2.1.3.2.4.3z" fill="#0f140f"/><path d="m526.7 283.1c1.2.9 1.2 2.4 1.9 3.6-.1.1-.2.1-.2.2-.6-1.2-1.3-2.3-1.9-3.5 0-.2.1-.3.2-.3z" fill="#150c0a"/><path d="m534.1 298c.4 1 .8 2 1.2 3-.1.1-.2.2-.3.3-.7-.9-1-1.9-1.2-3 .1-.1.2-.2.3-.3z" fill="#150c0a"/><path d="m520.7 238.5c-1.1-.2-2-.8-2.4-1.8 1.2 0 2 .7 2.4 1.8z" fill="#2e0815"/><path d="m474.2 313.2c.8.9 1.3 1.8 1.2 3-1.1-.6-1.3-1.7-1.2-3z" fill="#2e0815"/><path d="m490.4 350.1c-.8-.6-1.1-1.5-1.2-2.4.1-.1.2-.2.3-.3.4.8.8 1.5 1.3 2.3-.1.1-.3.3-.4.4z" fill="#0f140f"/><path d="m474.8 262.1c.3.9.4 1.8-.6 2.4-.2-.9 0-1.7.6-2.4z" fill="#2e0815"/><path d="m491.8 375.8c.7.5 1.4 1 1.8 1.9-1.1.4-1.4-.5-1.8-1.1-.1-.3-.1-.5 0-.8z" fill="#3f240a"/><path d="m495.3 358.5c.8.3 1.3.9 1.2 1.9-.4 0-.8 0-1.1 0-.1-.7-.1-1.3-.1-1.9z" fill="#0f140f"/><path d="m494.2 356.8c1.1.1 1.2.8 1.1 1.7-.8-.3-.9-1-1.1-1.7z" fill="#0f140f"/><path d="m524.9 280c.5.7.9 1.5 1.4 2.2-.1.1-.2.2-.3.3-.5-.8-.9-1.5-1.4-2.3.1 0 .2-.1.3-.2z" fill="#150c0a"/><path d="m522.5 239.7c-.8-.1-1.5-.4-1.9-1.2 1-.2 1.6.2 1.9 1.2z" fill="#2e0815"/><path d="m541.8 332c0-.9 0-1.7 0-2.6.4.9.4 1.7 0 2.6z" fill="#150c0a"/><path d="m482.7 222.9c-.3 1-.9.6-1.6.5.4-.6.9-.8 1.6-.5z" fill="#2e0815"/><path d="m468.7 235.4c.4-.4.8-.8 1.2-1.2.2.2.4.4.6.6-.4.4-.8.8-1.2 1.2-.2-.3-.4-.4-.6-.6z" fill="#3f240a"/><path d="m473.6 311.4c.7.4.7 1.1.6 1.8-.9-.3-.8-1-.6-1.8z" fill="#2e0815"/><path d="m533.3 268c-.6.1-1.2.1-1.5-.6.6 0 1.3-.3 1.5.6z" fill="#2e0815"/><path d="m535.3 301c.2.6.5 1.2.7 1.7-.1.1-.3.2-.4.3-.2-.6-.4-1.2-.7-1.8.2 0 .3-.1.4-.2z" fill="#150c0a"/><path d="m533.4 296.3c.2.6.5 1.1.8 1.7-.1.1-.2.2-.4.3-.2-.6-.5-1.1-.7-1.7 0-.1.1-.2.3-.3z" fill="#150c0a"/><path d="m529.4 287.7c.2.4.4.8.6 1.2-.1.1-.2.2-.4.3-.2-.4-.4-.8-.6-1.2.1-.1.2-.2.4-.3z" fill="#150c0a"/><path d="m523.7 240.4c-.5 0-1.1 0-1.2-.6.5-.3 1-.2 1.2.6z" fill="#2e0815"/><path d="m528.6 286.6c.3.4.5.7.8 1.1-.1.1-.2.2-.4.3-.2-.4-.4-.8-.6-1.2 0 0 .1-.1.2-.2z" fill="#150c0a"/><path d="m494.8 360.8c-.2.6-.7.8-1.3 1 0-.9.5-1.1 1.3-1z" fill="#0f140f"/><path d="m527.8 257.2c.1-.7.7-.6 1.1-.7 0 .8-.5.9-1.1.7z" fill="#2e0815"/><path d="m491.8 375.8v.8c-.5-.3-.9-.7-.6-1.3.1.2.3.3.6.5z" fill="#150c0a"/><path d="m523.8 278.2c.2.4.5.7.7 1.1-.1.1-.2.2-.3.3-.2-.4-.5-.8-.7-1.1.1-.1.2-.2.3-.3z" fill="#150c0a"/><path d="m519.5 384.2c.5.1 1 .2 1.1.8-.5 0-.8-.4-1.1-.8z" fill="#0f140f"/><path d="m529.4 390c-.2.4-.4.8-.6 1.2-.1-.1-.3-.2-.4-.3.2-.4.4-.8.6-1.2.1.1.2.2.4.3z" fill="#0f140f"/><path d="m525.4 391.6c-.3-.3-.5-.7-.8-1 .1-.1.3-.2.4-.4.3.3.5.6.8 1-.1.2-.3.3-.4.4z" fill="#0f140f"/><path d="m522.5 276.4c.3.3.5.7.8 1-.1.1-.2.2-.3.3-.2-.4-.5-.7-.7-1.1.1-.1.2-.1.2-.2z" fill="#150c0a"/><path d="m475.4 316.2c.7.2.6.7.6 1.3-.7-.2-.7-.7-.6-1.3z" fill="#2e0815"/><path d="m521.3 274.6c.2.4.5.7.7 1.1-.1.1-.2.2-.3.3-.2-.4-.5-.7-.7-1.1.1-.1.2-.2.3-.3z" fill="#150c0a"/><path d="m476 317.4c.6.2.6.7.6 1.3-.7-.1-.7-.7-.6-1.3z" fill="#2e0815"/><path d="m476.6 318.7c.7.2.7.7.6 1.2-.7-.1-.7-.7-.6-1.2z" fill="#2e0815"/><path d="m477.2 319.9c.7.2.6.7.6 1.2-.7-.1-.7-.6-.6-1.2z" fill="#2e0815"/><path d="m477.8 321.1c.8.3.7.9.6 1.6-.5-.5-.7-1-.6-1.6z" fill="#2e0815"/><path d="m531.2 291.3c.2.4.4.8.5 1.3-.1.1-.2.2-.3.3-.2-.4-.4-.8-.6-1.2.1-.2.3-.3.4-.4z" fill="#150c0a"/><path d="m530.6 290.1c.2.4.4.8.6 1.2-.1.1-.2.2-.4.3-.2-.4-.4-.8-.6-1.2.1-.1.2-.2.4-.3z" fill="#150c0a"/><path d="m530 288.9c.2.4.4.8.6 1.2-.1.1-.2.2-.4.3-.2-.4-.4-.8-.6-1.2.1-.1.3-.2.4-.3z" fill="#150c0a"/><path d="m511.5 207.2.1.1v-.1z" fill="#150c0a"/><path d="m518.2 236.7c-.3-.2-.6-.4-.9-.6.6-.1 1 0 .9.6z" fill="#2e0815"/><path d="m531.9 271.7c.3-.2.5-.4.8-.6.1.6-.3.6-.8.6z" fill="#2e0815"/><path d="m530.7 263.8c.3-.2.5-.4.8-.6 0 .6-.3.7-.8.6z" fill="#2e0815"/><path d="m495.4 360.3c.1.5-.3.6-.7.6-.1-.6.3-.6.7-.6z" fill="#0f140f"/><path d="m617.8 282.9c.1.2.1.3.2.5-.1-.1-.2-.2-.4-.2.1-.1.2-.2.2-.3z" fill="#150c0a"/><path d="m526.3 282.3c.1.3.3.5.4.8-.1.1-.2.2-.3.3-.1-.2-.3-.5-.4-.7.1-.2.2-.3.3-.4z" fill="#150c0a"/><path d="m524.5 279.3c.2.2.3.5.5.7-.1.1-.2.2-.3.3-.1-.2-.3-.5-.5-.7.1-.1.2-.2.3-.3z" fill="#150c0a"/><path d="m378.9 319.5c-.1-.2-.1-.3-.2-.5.1.1.3.2.4.2-.1.1-.2.2-.2.3z" fill="#150c0a"/><path d="m523.3 277.4c.1.2.3.5.5.8-.1.1-.2.2-.3.2-.2-.2-.3-.5-.5-.7.1-.1.2-.2.3-.3z" fill="#150c0a"/><path d="m533.4 383.8c-.2.2-.4.4-.6.6-.1-.1-.2-.2-.3-.3.2-.2.3-.4.5-.7.1.2.2.3.4.4z" fill="#0f140f"/><path d="m532.8 384.5c-.2.2-.5.3-.7.5-.1-.1-.2-.3-.3-.4.2-.2.4-.3.6-.5.2.2.3.3.4.4z" fill="#0f140f"/><path d="m524.6 390.6c-.1-.3-.3-.5-.4-.8.1-.1.3-.2.4-.3.1.2.3.5.4.7-.2.2-.3.3-.4.4z" fill="#0f140f"/><path d="m485.2 395.2-.2-.1h.1z" fill="#150c0a"/><path d="m522.1 275.7c.2.2.3.5.5.7-.1.1-.2.2-.3.2-.2-.2-.3-.4-.5-.7.1 0 .2-.1.3-.2z" fill="#150c0a"/><path d="m420 409.1c0 .1-.1.2-.1.2s-.1 0-.2 0c.1-.1.2-.2.3-.2z" fill="#150c0a"/><path d="m576.7 409h.3c-.1.1-.1.2-.2.2s-.1-.1-.1-.2z" fill="#150c0a"/><path d="m506.2 319.8c-.2-2.5-1.7-4.4-2.6-6.6-3.7-8.8-6.9-17.6-7.5-27.2.6.6 0 1.7 1 2.2.2.8.4 1.6.6 2.4s0 1.7.7 2.3c.1.6 0 1.4.5 1.9.2.6.4 1.2.6 1.8s.4 1.2.6 1.8.5 1.2.7 1.8c.1.6.1 1.3.7 1.8.2.4.3.9.5 1.3.2.6.1 1.3.7 1.7.2.4.3.9.5 1.3s.3.9.5 1.3c1.3 3.2 2.6 6.4 4.6 9.2.3 1 .8 2 1.5 2.7.2.4.5.8.7 1.1.1.5.1.9.7 1.2.2.2.3.5.5.7 0 .5.2.9.7 1.1.1.5.2.9.7 1.2.2.2.3.4.5.7.1.5.2.9.7 1.2.2.2.3.4.5.7.3 1.1.9 1.8 1.7 2.5 2.4 4.1 5.9 7.3 9.3 10.4.4.4.9.8 1.6.3-.3.6 0 .8.5 1 .1.2.2.3.3.4v.2h.2l.1.1c-.4.8-1.2.6-1.8.6-.9-.4-1.9-.8-2.8-1.2-.5-.4-1.1-.8-1.6-1.1-1.5-1.4-3-2.8-4.5-4.2-.6-.8-1.3-1.5-1.9-2.2-1.4-1.9-2.7-3.8-4.1-5.7-.2-.9-.7-1.6-1.4-2.1-1.2-2.5-2.4-4.8-4.2-6.6z" fill="#c4050e"/><path d="m506.2 319.8c1.9 1.9 3 4.2 4.2 6.5v5.7c-.8.7-.6 1.6-.6 2.4-.7.5-.7 1.1-.6 1.8-.6.2-.7.7-.6 1.2-3.7 1.7-4.6 1.3-5.6-2.8-.2-.9-.3-1.8-.4-2.6-.4-3.2.9-6.2 1.3-9.4.6-1.2 1.2-2.2 2.3-2.8z" fill="#154a22"/><path d="m503.9 322.5c-.5 3.1-1.7 6.1-1.3 9.4.1.9.1 1.8.4 2.6 1.1 4.1 1.9 4.6 5.6 2.8 1.5 5.9 2.5 6.5 6 3.6.2 1.7.3 3.4.8 5 .7 2.4 2 3.7 4.6 2.3.2 1.4.4 2.8.6 4.2-1-2-2.7-2.7-4.8-2.4-.5-1.7-1.1-3.4-1.6-5.1-.2-.8-.5-1.7-1.6-1.1-.9.5-2.2-.8-2.8.7-1.3 3.1 1.5 7.3 4.8 7.3-.7 1.6-.3 3.6-1.8 4.8.5-3.8-3.5-5.3-4.2-8.4 0-2.3.1-4.6 0-6.8 0-.8 0-2.1-1.3-1.8-1.8.5-3 0-4.1-1.5-.5-.7-.6.4-1 .6l-.2-.1c.8-4.3-.8-8.6.6-12.9.3-1.1.3-2.4 1.3-3.2z" fill="#0f140f"/><path d="m490.8 349.7c-.4-.8-.8-1.5-1.3-2.3-.5-2.5-1.3-5-.6-7.9 1.6 1.5 3.4 1.7 5.2.8.2.3.3.6.5.8l.5.5c.6 1.9 1 3.8.8 5.8-.3 3.5-2.3 4.3-5.1 2.3z" fill="#154c23"/><path d="m500.8 360.3c0-.4-.1-.8 0-1.2.9-2.9 2.5-5.9-2-7.4-.3-.1-.4-.7-.6-1 .1-.1.2-.2.4-.3 1 .3 1.7 1.9 3.1.8s.6-2.3.2-3.5c-.3-.9-.7-1.6-1.4-2.3.1-.1.1-.2.2-.3 1.6-2-.4-4.6 1.2-6.6 0 0 .2.1.2.1-.2 2.5-.3 5 .3 7.5.6 2.8 2 4.2 5 3.9-2.4 1.7-1.7 4.3-1.8 6.7-1.1-1.1-.5-2.4-.7-3.6-.1-.7 0-1.5-.9-1.6-1-.1-1.3.7-1.4 1.6-.2 2.7-.3 5.3 1.4 7.7-.1.1-.2.2-.3.3-.8-1.3-1.8-1.1-2.9-.8z" fill="#0f140f"/><path d="m478.5 257.8c.2-1.5-.3-3 .4-4.5.8-.3.8.8 1.4.8.2.2.4.4.6.6s.4.4.6.6.4.4.6.6c.9.9 2.1 1.1 3.3.8.8-.2 1.4-.1 1.4.9-.6.6-1.2 1.2-1.8 1.8-2.1.4-4.2 1.4-5.9-.9-.2-.1-.4-.4-.6-.7z" fill="#144821"/><path d="m497 288.1c-1-.4-.3-1.6-1-2.2-.7-5.9-2.1-11.9-.7-17.9.4-1.7-.8-2.2-1.8-3 .1-.1.2-.2.2-.3 1.3.7 2.1-.1 2.8-1-.1 4.8-2.8 9.8.6 14.5-2.3-.3-1.1 1.5-1.1 2.2.3 2.5.8 4.9 1.3 7.3-.1.2-.2.3-.3.4z" fill="#0f140f"/><path d="m492.3 263.9c-.9-2-1.5-4.2-4.3-4.1.1-.1.1-.2.2-.3 1.6.4 3.1-.2 4.7-.5.1.1.1.2.2.3-1.2 1.4-.8 2.9-.4 4.4-.2 0-.3.1-.4.2z" fill="#0f140f"/><path d="m484.9 259.5 1.8-1.8c.1.1.2.2.4.3-.2.9.6 1 1 1.5-.1.1-.1.2-.2.3-.9-.1-1.9-.2-3-.3z" fill="#0f140f"/><path d="m497.9 343.2c.4.3.7.5 1.1.8-.1.1-.1.2-.2.3-.4-.2-.8-.3-1.3-.5.1-.3.3-.4.4-.6z" fill="#0f140f"/><path d="m499.6 344.5c.4.2.7.5 1.1.7-.1.1-.1.2-.2.3-.4-.3-.7-.5-1.1-.8z" fill="#0f140f"/><path d="m478.4 257.8c.2.3.4.6.6.9-.1-.3-.3-.6-.6-.9z" fill="#0f140f"/><path d="m492.8 264.5c-.2-.2-.4-.4-.6-.6.1-.1.2-.2.3-.3.2.2.3.4.5.7 0 0-.1.1-.2.2z" fill="#0f140f"/><path d="m493.5 265.1c-.2-.2-.4-.4-.6-.6.1-.1.2-.2.2-.2.2.2.4.3.6.5-.1.1-.1.2-.2.3z" fill="#0f140f"/><path d="m499 344c.2.2.4.4.7.5 0 0-.2.2-.2.2-.2-.2-.4-.3-.7-.5 0-.1.1-.2.2-.2z" fill="#0f140f"/><path d="m494.6 341.2c-.2-.3-.3-.6-.5-.8.5 0 .6.3.5.8z" fill="#0f140f"/><path d="m497.1 278.3c-3.4-4.7-.7-9.7-.6-14.5.2-.2.4-.4.6-.6.7-.4 1.1-1 1.2-1.8 2.8-1.6 5.6-1.7 8.5 0-.1 1 .6 1.5 1.2 2.1 2.3.8 3.1 3.4 5.4 4.2.6 1.4.8 3.1 2.4 3.9-.1.5.1 1 .6 1.2 0 .5.1 1 .6 1.2 0 .5.1 1 .6 1.2 0 .5.1 1 .6 1.2 0 .5 0 1 .6 1.2-.1 1.2 0 2.4 1.2 3 .1 1 .2 2 .3 2.9.6 3.1.3 3.4-2.7 2.4-.8-.8-1.6-1.6-2.4-2.4-.2-.2-.4-.4-.6-.6s-.4-.4-.6-.6-.4-.4-.6-.7c-.2-.2-.4-.4-.6-.6-.2-.4-.5-.7-.7-1.1-.2-3.2-.7-6.3-2.4-9 0-1-.3-1.8-1.2-2.5-.2-.4-.4-.8-.6-1.2s-.4-.8-.6-1.2c-.1-.2-.3-.5-.4-.7-.1.1-.2.2-.2.2.1.2.2.5.4.7.2.4.4.8.6 1.2s.4.8.6 1.2c0 1 .4 1.8 1.2 2.5.4 1.5.9 3 1.1 4.5.1 1.1 1.1 2.6-1 3.1-.4-.2-.7-.5-1.1-.7-.5-1.2-1.3-2.2-2.3-3-.3-.4-.5-.7-.8-1.1-.1-.1-.3-.1-.4-.2.1.1.1.3.2.4.2.4.4.8.6 1.2.4 1.3.8 2.7 1.1 4 .3 1.2 0 2-1.5 1.7-.5-1.1-1.3-1.9-2.4-2.4-.2-.2-.4-.4-.6-.6-.2-.4-.5-.8-.7-1.1-.1-.1-.3-.1-.4-.2.1.1.1.3.2.4.2.4.5.8.7 1.1l.6.6c.5 1.5 1 3 1.5 4.5.4 1.2.1 2-1.3 2-.2-.2-.4-.4-.6-.6-1.2-1.4-2-3.2-3.7-4.1-.2-.2-.4-.4-.6-.6 0-.5-.1-1-.6-1.2 0-.1-.2-.3-.4-.5zm7-5.9c.1.1.3.2.4.3 0 0 .2-.2.2-.2-.1-.1-.2-.3-.3-.4-.1.1-.2.2-.3.3z" fill="#154c23"/><path d="m503.2 247.5c2.2.9.9 2.3.6 3.6-.7.2-1.5.3-1.8 1.2-.1.1-.2.2-.3.2-2-.3-3.9-.5-5.9-.8.6-1.4 2.1-2.9.9-4.3-1-1.1-3-.8-4.2-.2-1.5.7-1.4 2.8-1.5 4.2-.1 1 1.7.9 2.8.9h1.5c1.1 2.1-.1 4.3.2 6.5-.1.1-.2.2-.2.3-.7 0-1.4.1-2.2.1-.1-.1-.1-.2-.2-.3.2-.3.5-.6.7-.9 1-1.1 1.5-2.5.9-3.9-.6-1.6-2.2-.9-3.4-1.2-1.9-.6-1.6 1.8-2.8 2.1-.1-.1-.2-.2-.4-.3.5-1.1.4-1.8-1.1-1.7-1.2.1-2.4.1-3-1.2 3.9.7 5.7 0 6.7-2.5.6-1.4.5-2.3-1.3-2.3-1.5 0-2.9-.4-4.3-1 .1-.1.2-.2.2-.3 6 1.4 12 .4 18-.4v.4c-.2.2-.4.5-.6.7-.1.1-.2.2-.3.3-1.3-.4-2.9-.9-3.7.6-.5 1-1.1 2.6-.2 3.6.8.8 2.3.5 3.4.1 1.6-.6 1.5-1.9 1.2-3.2z" fill="#0f140f"/><path d="m506.8 261.4c-2.8-1.7-5.6-1.6-8.5 0-.2-1.8-2.3-1.2-3.1-2.3.1-.1.2-.2.2-.3 5.8.6 7-.6 6.3-6.3.1-.1.2-.2.3-.2 1.2.9 1.1 2.2 1 3.5 0 .8-1.1 1.8.1 2.4 1.6.7 1.6-1.1 2.4-1.6.5 1.6.9 3.2 1.3 4.8z" fill="#0f140f"/><path d="m490.2 229.5c.3 0 .7-.1.9 0 1.2 1 4.5.3 3.5 3.1-.8 2.3-3.1 2.6-5.3 2-.4-.8-1-1-1.8-.9 0-.4-.2-.6-.7-.6 0-.8 0-1.6 0-2.5.5.1.7-.1.7-.6 1 .3 1.9 0 2.7-.5zm-1 2.4c.1.9.6 1.2 1.4 1.2.9 0 1.6-.5 1.4-1.5-.1-.7-.8-1-1.6-1-.7.1-1.2.5-1.2 1.3z" fill="#c4050e"/><path d="m505.6 256.6c-.8.5-.8 2.4-2.4 1.6-1.3-.6-.2-1.6-.1-2.4.1-1.3.2-2.6-1-3.5.3-.8 1-1 1.8-1.2h-.1c-.1.8-.1 1.5.9 1.8.1.3.2.6.3.9.2.3.4.6.6.9z" fill="#144821"/><path d="m503.2 245.6c0-.1 0-.3 0-.4.9-1 2.3-.9 3.7-1.4-2.2 1.1-1 2 .3 3.1-1.8-.2-2.6-1.7-4-1.3z" fill="#2e0815"/><path d="m481 234.2c1.3 1.4-.5 3.9 1.7 4.9-.1.1-.2.3-.4.4-1.7-1.6-2.5 1.1-3.9.9 1-1.8 3.2-3.2 2.1-5.8.2-.1.3-.3.5-.4z" fill="#0f140f"/><path d="m515.8 271.7c-1.6-.8-1.8-2.5-2.4-3.9 1.2.9 2.5 1.7 3.7 2.6-.1.1-.1.2-.2.2-.8-.1-1 .4-1.1 1.1z" fill="#0f140f"/><path d="m482.7 239.1c1.3 1.2 1.2 2.5.1 3.8 0-.1-.1-.2-.2-.2.3-1.1.5-2.1-.2-3.1 0-.2.1-.3.3-.5z" fill="#0f140f"/><path d="m490.2 229.5c-.8.6-1.7.8-2.7.6.7-.9 1.8-.7 2.7-.6z" fill="#2e0815"/><path d="m486.9 230.7v2.5c-1.1-.9-1.1-1.7 0-2.5z" fill="#2e0815"/><path d="m508 263.5c-.6-.6-1.4-1.1-1.2-2.1.8.5 1.5 1.1 1.2 2.1z" fill="#0f140f"/><path d="m487.5 233.7c.8-.1 1.5.1 1.8.9-.6-.4-1.5-.1-1.8-.9z" fill="#2e0815"/><path d="m504.7 253c-1-.3-.9-1.1-.9-1.8.9.3.5 1.2.9 1.8z" fill="#0f140f"/><path d="m505.6 256.6c0-.6 0-1.2 0-1.9 1 .7 1.7 1.3 0 1.9z" fill="#0f140f"/><path d="m480.3 233.1c.6.2.6.7.7 1.2-.1.1-.3.2-.4.4-.2-.4-.4-.7-.7-1.1.1-.2.2-.4.4-.5z" fill="#0f140f"/><path d="m502.6 246.3c.2.4.4.8.7 1.2 0 0-.2.2-.2.2-.2-.3-.5-.7-.7-1 0-.1.1-.2.2-.4z" fill="#0f140f"/><path d="m517.1 270.3c.5.1 1 .1 1.1.7 0 0-.2.2-.2.2-.4-.2-.8-.4-1.2-.7.2 0 .3-.1.3-.2z" fill="#150c0a"/><path d="m487.5 230.1c0 .5-.2.7-.7.6.1-.4.3-.6.7-.6z" fill="#2e0815"/><path d="m486.9 233.1c.4 0 .7.2.7.6-.5 0-.7-.2-.7-.6z" fill="#2e0815"/><path d="m482.7 242.9c-.1.2-.2.5-.3.7-.2-.1-.3-.2-.4-.3.2-.2.4-.4.5-.6.1 0 .2.1.2.2z" fill="#3f240a"/><path d="m505.6 254.8c-.2-.3-.4-.6-.6-.9.2.3.4.6.6.9z" fill="#0f140f"/><path d="m402.6 321.2c-1 3.1-1.9 6.3-3.1 9.3-.9 2.3-.3 3.7 1.6 5 2.7 1.8 5.2 3.9 7.5 6.5-3.6 0-7.1.1-10.7 0-1.7-.1-2.6.6-3.1 2.1-1 3-2.1 6-3.5 9.9-1.3-3.8-2.4-6.8-3.3-9.8-.5-1.5-1.3-2.4-3-2.4-3.4 0-6.8 0-10.1 0-.1-.3-.2-.6-.2-.8 2.6-1.9 5.2-3.9 7.9-5.7 1.4-1 1.7-1.9 1.1-3.5-1.1-3.1-2-6.3-2.5-9.9 2.5 1.7 5.1 3.2 7.4 5.1 2 1.6 3.6 1.5 5.5-.2 2.5-2.1 5.2-4 7.8-6 .3.1.5.3.7.4z" fill="#154c23"/><path d="m509.2 203.6c-3.4-1.3-5.9-4-8.9-6.1-1.5-1-2.5-1-4 .1-2.7 2-5.5 3.9-8.9 5.5 1-3.2 1.9-6.4 3.1-9.5.8-1.9.3-3.1-1.3-4.3-2.5-1.8-4.9-3.7-7.2-6.2 2.8 0 5.5-.2 8.2.1 2.9.3 4.1-1 4.9-3.5.8-2.6 1.5-5.3 3.1-8.1 1.6 3.1 2.3 6.1 3.2 8.9.5 1.6 1.3 2.2 3 2.2 3.2 0 6.4.3 10.1.5-2.2 2.9-5 4.3-7.3 6.2-1.7 1.3-1.9 2.4-1.3 4.3 1.2 3.2 2.8 6.3 3.3 9.9z" fill="#154c23"/><path d="m509.2 203.6.2.2c-.1-.1-.1-.2-.2-.2z" fill="#154c23"/><path d="m616.2 280.9c-3.2-2.1-5.7-3.6-8.1-5.5-2-1.6-3.6-1.6-5.5.1-2.5 2.1-5.2 4-8.5 5.7.9-2.8 1.6-5.8 2.8-8.5 1.4-3.1.5-4.9-2.2-6.7-2.4-1.6-4.8-3.1-7.3-5.8 3.9 0 7.3-.1 10.6 0 2.1.1 3.3-.5 3.9-2.7.8-3 2-5.8 3.3-9.4 1.2 3.5 2.4 6.5 3.3 9.6.6 1.8 1.6 2.6 3.4 2.6 3.2 0 6.4 0 9.9.7-2.6 1.9-5.1 3.9-7.8 5.7-1.4 1-1.7 1.9-1.2 3.5 1.2 3.4 2.1 6.7 3.4 10.7z" fill="#154c23"/><path d="m381.3 279.9c.8-2.9 1.5-5.8 2.5-8.7.6-1.7.5-2.9-1.2-4-2.7-1.8-5.1-3.9-8.4-6.4 3.9 0 7.1-.1 10.2 0 1.9.1 2.9-.6 3.4-2.5.9-3.1 2.2-6.1 3.5-10 1.4 3.9 2.6 6.9 3.5 10 .6 1.9 1.5 2.5 3.5 2.4 3.6-.1 7.2 0 10.9 0-2 2.2-4.7 3.8-7.3 5.5s-3.4 3.4-2.2 6.4c1.1 2.7 2.3 5.6 2.3 8.6-2.9-2.1-5.9-4.1-8.7-6.2-1.3-1-2.3-1-3.7-.1-2.6 1.8-5.3 3.5-8 5.2-.1 0-.2-.1-.3-.2z" fill="#154c23"/><path d="m401.9 281.3c.1 0 .2 0 .2.1 0 0-.1-.1-.2-.1z" fill="#154c23"/><path d="m381.6 280.2c-.1.1-.3.1-.4.2 0-.1.1-.3.1-.4.1 0 .2.1.3.2z" fill="#154c23"/><path d="m487.5 398.8c2.9 1 5.2 3.1 7.4 5 2.6 2.2 4.4 2.2 6.9 0 2.1-1.8 4.5-3.3 6.8-4.9.2.1.5.3.7.4-1 3-1.9 6.1-3.1 9.1-.9 2.3-.4 3.7 1.6 5 2.4 1.6 4.6 3.4 6.9 6-3 0-6 .1-9 0-2.2-.1-3.3.7-3.9 2.7-.9 2.9-2 5.7-3.8 8.6-.9-2.6-1.9-5.2-2.6-7.8-.6-2.2-1.6-3.1-4-3-3.1.1-6.2-.3-10-.5 3.1-2.4 5.5-4.5 8.2-6.4 1.5-1.1 1.7-2.2 1.2-3.8-1-3.6-2.8-6.8-3.3-10.4z" fill="#154c23"/><path d="m487.5 398.8c-.1-.1-.1-.1-.2-.2z" fill="#154c23"/><path d="m574.8 196.4c-1 3-1.9 6.1-3 9.1-.6 1.6-.3 2.5 1.1 3.5 2.8 1.9 5.4 4 7.9 6.8-3.2 0-6.3.1-9.5 0-2.1-.1-3.1.7-3.6 2.7-.9 3.6-2.1 7.1-3.4 11.4-1.3-4.2-2.5-7.5-3.4-10.8-.6-2-1.5-3-3.8-2.8-3.4.2-6.7.1-10.4-.6 2.9-2.1 5.6-4.3 8.6-6.2 1.6-1.1 2-2.2 1.3-4-.9-2.2-1.4-4.6-2.1-6.9-.2-.6-.5-1.3 0-1.7.7-.7 1.3.2 1.8.5 1.9 1.3 3.9 2.6 5.7 4 1.6 1.3 3 1.2 4.6 0 2.5-1.9 5.1-3.5 7.6-5.3.3 0 .4.1.6.3z" fill="#154c23"/><path d="m449.5 216.2c-3.1 0-6.2.2-9.3-.1-2.6-.2-4 .6-4.7 3.3-.7 3.1-2 6-3.3 9.8-1.4-4.2-2.5-7.4-3.5-10.8-.5-1.7-1.4-2.4-3.2-2.4-3.1 0-6.1-.3-9.7-.5 2.3-2.6 4.7-4.1 7-5.7 1.8-1.3 2.4-2.7 1.6-4.9-1-2.8-1.7-5.7-2.7-9 2.9 1.2 5 2.9 6.9 4.6 2.5 2.2 4.4 2 6.8 0 2-1.7 4.3-3.1 7.1-4.2-.9 2.9-1.6 5.9-2.6 8.8-.7 2-.5 3.3 1.5 4.5 2.9 1.8 5.7 3.9 8.5 5.9-.2.3-.3.5-.4.7z" fill="#154c23"/><path d="m594.8 321.1c2.9 2 5.8 3.9 8.6 6 1.4 1.1 2.5 1.2 3.9.1 2.5-1.9 5.2-3.6 8.7-6-1.1 3.7-1.9 6.8-3 9.7-.7 1.9-.4 3.1 1.4 4.2 2.7 1.7 5.1 3.8 8.4 6.4-3.3 0-5.8.3-8.2-.1-3.7-.5-5.5 1-6.3 4.5-.5 2.4-1.6 4.7-2.7 8-1.4-3.6-2.6-6.5-3.4-9.5-.7-2.5-2-3.1-4.3-2.9-3.4.3-6.8.3-10.6-.1 2.3-1.7 4.7-3.4 7.1-5.1 3.9-2.8 3.8-2.7 2.5-7.2-.9-2.6-2.2-5.1-2.1-8z" fill="#154c23"/><path d="m594.8 321.1c-.1 0-.2 0-.2-.1 0 0 .1.1.2.1z" fill="#154c23"/><path d="m580.6 387.4c-2.3 1.7-4.5 3.5-6.9 5.1-1.7 1.2-2.2 2.5-1.5 4.6 1 2.9 1.8 5.9 2.8 9.3-2.8-1.3-4.7-2.9-6.5-4.5-2.5-2.2-4.7-2.4-7.3-.1-1.9 1.7-4.2 3-6.9 4.2.9-3 1.6-6 2.6-9 .8-2.1.3-3.3-1.6-4.5-2.9-1.8-5.6-3.8-8.2-6.5 3.4 0 6.9-.1 10.3 0 2.1.1 3.1-.6 3.6-2.6.9-3.3 2.1-6.4 3.5-10.5 1.3 4.1 2.5 7.3 3.4 10.7.5 1.9 1.4 2.6 3.4 2.6 3 0 6 .3 9 .4.1.3.2.6.3.8z" fill="#154c23"/><path d="m449.8 386.8c-2.9 2.1-5.7 4.2-8.6 6.2-1.4 1-1.9 2-1.3 3.7 1.1 2.9 1.8 5.8 2.6 8.8-.2.2-.4.3-.7.5-2.4-1.7-4.9-3.3-7.3-5-1.5-1.1-2.8-1.2-4.3 0-2.6 1.9-5.3 3.6-8.7 5.9 1.1-3.6 1.9-6.4 3-9.2.8-2.1.7-3.4-1.4-4.7-2.6-1.6-5-3.7-7.8-5.8 2.8-.8 5.4-.4 7.9-.5 4.9-.1 4.9-.1 6.2-4.8.8-2.8 1.7-5.7 2.8-9.4 1.4 4.3 2.5 7.7 3.5 11.2.5 1.8 1.4 2.6 3.4 2.5 3.5-.2 6.9 0 10.4 0 .1.2.2.4.3.6z" fill="#154c23"/><path d="m456.8 369.9c-.1-.6-.1-1.3-.4-1.7-2-2.5-1-3.9 1.6-4.9 1-.2 1.5-.9 1.9-1.7 2.6-4.7 4.8-5.6 9.9-4.2.7.2 1.3.3 2 .5.7 1.7 2 3.2 2 5.2 0 1.5 1.2 2.1 2.7 2.1 3.6-.1 7.2-.1 10.8-.1 1.1 0 2.3-.3 2.6 1.3v-.1c-1 .3-1 1.2-1.2 1.9 1 1.5.6 3.3 1.2 4.9-.1 1.5-1.2 1.6-2.3 1.6-8.4.2-16.7-.3-25.1-.6-1.5 0-2.6-.7-3.5-1.9-.7-.9-1-2.1-2.2-2.3z" fill="#912a04"/><path d="m503 362c.2-.4.4-.7.6-1.1l.3-.3c2.4 1 2.4-.5 2.2-2.2 1.3 1.5 3 2 4.9 1.9-1.2 1-2.5 2-3.7 3-.1-.1-.1-.2-.2-.3-.8-1.7-2.4-.5-3.5-1-.1 0-.3 0-.6 0z" fill="#0f140f"/><path d="m495.4 365.8c-1.4 3.5-1.1 6.8 1.5 10.3-3.5-2.4-4.1-6.2-2-10.7.2.1.4.2.5.4z" fill="#3f240a"/><path d="m500 373c-1.3-2.3-1.3-4.5 0-6.8.2.1.3.2.5.4-.7 2-.6 4.1-.1 6.1-.1.1-.2.2-.4.3z" fill="#3f240a"/><path d="m496.5 360.3h4.3c-.5 1.2-1.8 1.4-2.6 2.1-.1-.1-.3-.2-.4-.4-.5-.5-.9-1.1-1.3-1.7z" fill="#0f140f"/><path d="m501.9 376c-1-.8-1.7-1.7-1.8-3 .1-.1.3-.2.4-.3l1.8 3c-.2.1-.3.2-.4.3z" fill="#3f240a"/><path d="m488.7 368.2c.2-.8.2-1.6 1.2-1.9 0 .8.1 1.8-1.2 1.9z" fill="#150c0a"/><path d="m498.2 362.4c-.5.5-1.1 1-1.6 1.5-.1-.1-.2-.2-.3-.3.5-.5 1-1 1.4-1.5.2.1.3.2.5.3z" fill="#0f140f"/><path d="m505.5 379c-.8-.2-1.4-.6-1.8-1.2.1-.2.3-.3.4-.5.6.4 1.2.8 1.8 1.2-.2.2-.3.4-.4.5z" fill="#3f240a"/><path d="m500.6 365c.1-.8.5-1.4 1.2-1.8.2.1.3.3.5.4-.4.6-.8 1.2-1.2 1.8-.2-.2-.3-.3-.5-.4z" fill="#3f240a"/><path d="m503 362h.7c-.3.3-.6.6-.9.9-.1-.1-.2-.3-.4-.4.2-.1.4-.3.6-.5z" fill="#3f240a"/><path d="m495 365.4c.2-.3.5-.6.7-1 .2 0 .3.1.3.2 0 .5-.1.9-.6 1.1-.1-.1-.3-.2-.4-.3z" fill="#3f240a"/><path d="m500.1 366.2c0-.5.1-1 .6-1.2.1.1.3.2.4.4-.2.4-.4.8-.6 1.2-.1-.2-.3-.3-.4-.4z" fill="#3f240a"/><path d="m498.8 378.5c-.2-.2-.6-.5-.6-.5.3-.4.7-.3.9.1 0 .1-.2.2-.3.4z" fill="#3f240a"/><path d="m499.9 379.3c-.3-.3-.7-.5-1-.8l.4-.4c.3.3.7.5 1 .8-.2.1-.3.2-.4.4z" fill="#3f240a"/><path d="m501.9 363.2c.2-.2.4-.4.6-.6.1.1.2.3.4.4-.2.2-.3.4-.5.6-.2-.2-.4-.3-.5-.4z" fill="#3f240a"/><path d="m495.7 364.4c.2-.3.4-.6.6-.8l.3.3c-.2.2-.4.5-.5.8-.1-.2-.2-.3-.4-.3z" fill="#0f140f"/><path d="m502.4 376.6c-.2-.2-.4-.4-.6-.6.1-.1.3-.2.4-.4.2.2.4.4.5.6 0 .2-.1.3-.3.4z" fill="#3f240a"/><path d="m503 377.2c-.2-.2-.4-.4-.6-.6.1-.1.2-.2.3-.3l.6.6c0 .1-.1.2-.3.3z" fill="#3f240a"/><path d="m503.7 377.8c-.2-.2-.4-.4-.6-.6l.3-.3c.2.2.5.3.7.5-.2.1-.3.3-.4.4z" fill="#3f240a"/><path d="m513.9 365c5.9-1 11.8-.9 17.8-.3 2.3.2 4.7-.9 6.6 1.2 2 5.6-.4 8-6.9 6.9 0-.4-.2-.6-.6-.6-.1-.3-.1-.5-.2-.8-.1 0-.2.1-.3.1.1.2.3.5.4.7.2.2.4.4.6.6-1.5 1.3-3.3 1.1-5 1.1-4.4.1-8.7.1-13.1.1-3.2-1.9-4-3.9-1.5-7.9.4-.1.8-.2 1-.6h-.1c.7.2 1.2.2 1.3-.5z" fill="#912a04"/><path d="m511.9 366.3c-2.5 4-1.7 5.9 1.5 7.9l4.2 2.1c.9 1.2 1.6 2.5.2 3.8-2 .2-4-.1-5.9-.9-.7-.3-1.1-1.1-2.2-.8.4.7 1 1.1 1.8 1.2-2.2 1.2-3.8-.5-5.7-1-.6-.4-1.2-.8-1.8-1.2-.2-.2-.5-.3-.7-.5s-.4-.4-.6-.6-.4-.4-.5-.6c-.6-1-1.2-2-1.8-3-.5-2-.6-4.1.1-6.1.2-.4.4-.8.6-1.2.4-.6.8-1.2 1.2-1.8.2-.2.3-.4.5-.6l.9-.9c1.1.5 2.7-.8 3.5 1-.2.3-.4.5-.6.8-.2.2-.3.4-.5.6-2.6 3.9-2.6 7.5.3 10.3-2-3.4-1.8-6.6.1-9.9.1-.3.2-.5.3-.8.2-.2.4-.5.5-.7 1.2-1 2.5-2 3.7-3h-.1c.9-.2 1.7-.2 2.3.6.2 1.6 1.3 2.2 2.7 2.7-.8.5-1.4 1-2.1 1.5h.1c-.5 0-1 0-1.2.6h.1c-.3 0-.6.3-.9.5z" fill="#f1cc0c"/><path d="m525 390.3c-.1-.2-.3-.5-.4-.7-.9-2.3-1.8-4.7-2.7-7 0-.7.1-1.4-.6-1.8 0-.6.1-1.2 0-1.8-.4-4-.4-4.1 3.9-4.2 6.4-.2 6.5-.1 5.3 6.4-.5 2.8-1 5.7-1.6 8.5-.2.4-.4.8-.6 1.2-.8.7-1.6 1-2.5.4-.3-.4-.6-.7-.8-1z" fill="#154c23"/><path d="m532.5 384.1c-.2.2-.4.3-.6.5-.7.1-.9-.3-.8-.9.3-2.5.8-4.9 1-7.4.2-1.9 1.5-2.1 2.7-2 1.6.2.7 1.5.6 2.4-.4 2.4-1.4 4.6-2.3 6.7-.3.3-.5.5-.6.7z" fill="#154a22"/><path d="m539.3 335c.7 3.2 1.9 6.3 2.1 9.6-.1.5-.1 1-.2 1.5-.4-.5-.8-1-1.2-1.6-.2-.7 0-1.6-1.2-1.9-.1 1 .3 1.5 1 2.1.2 1.3.5 2.5 1.3 3.5 1.1 4.8 1.9 9.6.7 14.5-.2 0-.4 0-.6 0-.7-1.4-1.3-2.8-2-4.2-.3-1-.7-1.9-1.5-2.6-.2-.4-.4-.8-.7-1.1-.2-.5-.5-1-.7-1.4-.1-1-.2-2-1.5-2.2-.5 1.3.7 1.7 1.2 2.5.3.4.6.9.8 1.3s.4.8.6 1.2c-.1 1.8-.2 3.6-.4 5.3-.1.8.5 2.4-1.3 2-1.2-.2-3.2.3-3.3-1.7-.2-4.5-.9-9 .3-13.5.1.1.2.1.3.2-.1-.1-.1-.2-.2-.4-.3-1.2-.8-2.3-1.9-2.9-.2-.2-.4-.4-.6-.6 0-.5-.1-1-.6-1.2-.2-.6-.6-1.1-1.2-1.2 0 0-.1-.1-.1-.1 0-.2-.1-.3-.3-.3-.2-.1-.3-.2-.3-.4.1-.5-.1-.8-.5-1-1-2.3-2.3-4.4-4.8-5.3-1.2-.4-1.9-1.1-1.8-2.4-.2-.3-.4-.5-.6-.8.1-.6-.1-1-.6-1.2-.2-.2-.4-.4-.6-.6-.2-1.8-1.3-3-2.3-4.4-.1-.6-.1-1.3-.7-1.8.1-.5 0-1.2.2-1.4 2.9-1.9 2.8-4.7 2.5-7.6h.8c1.2.7 1.4 2.2 2.4 3.1.2.4.4.8.6 1.2.1.1.2.1.4.2-.1-.1-.1-.3-.2-.4-.2-.4-.4-.8-.6-1.2.5-2.2 1.6-3.5 4.1-2.9.2.2.4.4.5.7.2.4.4.8.7 1.2.1.1.2.1.4.2-.1-.1-.1-.2-.2-.4-.2-.4-.4-.8-.7-1.2-.2-.2-.4-.4-.6-.6-.7-2.1-2.3-4.1-.7-6.5.4.2.8.4 1.2.7 2.9 1.9 4.1 1.4 4.8-1.8.2-1-.2-2.2.7-3.1.2.2.4.4.6.6-.1.5.1 1 .6 1.2 0 .5.1 1 .6 1.2 0 .5 0 1 .6 1.2-.1.7-.1 1.4.6 1.8-.2 1.3.2 2.6.5 3.8.2.8 0 1.5-1 1-.2-.2-.4-.4-.6-.6-.2-.4-.4-.8-.7-1.2-.1-.1-.2-.1-.4-.2.1.1.1.3.2.4.2.4.4.8.7 1.2.2.2.4.4.5.6.3 1.2.7 2.3 1.9 2.9 0 .5.1 1 .6 1.2 0 .5.1 1 .6 1.2-.1.7 0 1.4.6 1.8 0 .5.1 1 .6 1.2 0 1.4.1 2.7 1.2 3.6-.1 2 .1 3.9.4 5.8.1.6 1 2.1-.9 1.9-.1-.2-.2-.5-.3-.7-.1.1-.2.1-.2.2.1.3.2.6.4.8zm-12-8.6c-.2-.2-.4-.4-.5-.7-.2-.4-.5-.7-.7-1.1-.2-.2-.4-.4-.6-.6 0-.5-.1-.9-.6-1.2-.2-.2-.4-.4-.6-.6-.2-.4-.4-.8-.6-1.2-.1-.1-.2-.1-.3-.2.1.1.1.3.2.4.2.4.4.8.7 1.2.2.2.4.4.5.6 0 .5.2.9.7 1.1.2.2.4.4.6.6 0 .5.2.9.6 1.2.2.2.4.4.6.6s.4.4.6.6c.2.4.4.8.7 1.2.1.1.2.1.3.2-.1-.1-.1-.2-.2-.4-.2-.4-.5-.8-.7-1.1-.3-.2-.5-.4-.7-.6zm7.1 9.2c.1.1.2.1.4.2-.1-.1-.1-.2-.2-.4-.2-.2-.4-.4-.6-.6s-.4-.4-.5-.6c-.2-.4-.5-.8-.7-1.1-.2-.2-.4-.4-.6-.6-.1-.1-.2-.1-.3-.2.1.1.1.2.2.3.2.2.4.4.6.6.2.4.5.8.7 1.1.2.2.4.4.6.6 0 .3.2.5.4.7zm3.8-3.7c-.1-.1-.2-.1-.4-.2.1.1.1.3.2.4.1.2.3.5.4.7.1-.1.2-.2.2-.2-.2-.3-.3-.5-.4-.7zm-1.3-1.7c.1.1.2.1.3.2-.1-.1-.1-.3-.2-.4-.1-.2-.3-.5-.4-.7-.1.1-.2.2-.2.2.2.2.3.5.5.7zm-.3 8.7c0 1.1.3 1.8 1.6 1.9-.1-1.1-.3-1.9-1.6-1.9z" fill="#154a22"/><path d="m530.9 345.2c.1 5.1.7 10.2.7 15.3 0 2.3-.7 3.1-3 2.9-1.8-.2-3.6-.2-5.4 0-3 .4-4.5-.4-3.7-3.7 1.6-2.4 2.2-5.8 5.8-6.4.1 0 .2-.5.3-.8 1.2-.7 1.4-1.8 1.2-3 1.1-.9 1.1-2.2 1.3-3.4.1-1.2.3-2.4 1.8-2.6-.1.6.1 1 .6 1.2 0 .1.2.3.4.5z" fill="#154c23"/><path d="m512.8 356.6c1.5-1.3 1.1-3.3 1.8-4.8.6-.2.7-.7.6-1.2.2-.2.4-.4.6-.6 2.2-.3 3.8.4 4.8 2.4.4 2.5-.9 4.8-1.2 7.3-1.6 2.4-3.6 3.3-6.1 1.2.4-1.5-.5-2.8-.5-4.3z" fill="#154c23"/><path d="m479.9 233.5c.2.4.4.7.7 1.1 1.1 2.6-1.1 4-2.1 5.8 0 0 .1-.1.1-.1-1.6-.1-2.9.4-3.7 1.9l.1-.1c-.5-.1-.9 0-.6.6-.6-.2-.9 0-.6.6-.7-.3-.8.1-.6.6-2.1.6-1.9 3.1-3.4 4.3-1.4-4.1-2.8-8.2-.4-12.3.4-.4.8-.8 1.2-1.2 1.1-.5 2.1-1 3.2-1.5 1.9-.1 4.1-1.4 6.1.3z" fill="#f1cc0c"/><path d="m482.5 242.7c-.2.2-.4.4-.5.6-1.2.8-2.4 1.6-3.6 2.4-1.3 0-2.5.1-3.8.1s-1.6-.8-1.5-1.9c.5.1.7-.2.6-.6.5 0 .7-.2.6-.6.5 0 .8-.1.6-.6l-.1.1c1.4-.3 2.7-.7 3.7-1.9 0 0-.1.1-.1.1 1.4.2 2.2-2.5 3.9-.9.7 1 .5 2.1.2 3.2z" fill="#f1cc0c"/><path d="m540 344.5c.4.5.8 1 1.2 1.6 0 .1 0 .2-.1.3.2.2.3.3.5.5 0 .5-.1 1-.5 1.4-.8-1-1.1-2.3-1.3-3.5z" fill="#0f140f"/><path d="m541.2 362.7h.6c-.2.3-.4.4-.6 0z" fill="#144821"/><path d="m541.6 346.9c-.2-.2-.3-.3-.5-.5.2.1.4.3.5.5z" fill="#154a22"/><path d="m498.8 344.2c.2.2.4.3.7.5.4.3.7.5 1.1.8.7.6 1.1 1.4 1.4 2.3.4 1.2 1.2 2.4-.2 3.5s-2.1-.5-3.1-.8c-.6-1.7-1.3-3.3-1.8-5-.2-.6-.7-1.7.8-1.7.2.1.6.2 1.1.4z" fill="#154a22"/><path d="m521.2 380.7c.7.4.6 1.1.6 1.8-.7-.4-.6-1.1-.6-1.8z" fill="#0f140f"/><path d="m516.9 270.6c.4.2.8.4 1.2.7 1 1.2 2 2.4 2.9 3.6.2.4.5.7.7 1.1.2.2.3.4.5.7.2.4.5.7.7 1.1.2.2.3.5.5.7.2.4.5.8.7 1.1.2.2.3.5.5.7.5.8.9 1.5 1.4 2.3.1.2.3.5.4.7.6 1.2 1.3 2.3 1.9 3.5.2.4.4.8.6 1.2s.4.8.6 1.2.4.8.6 1.2.4.8.6 1.2.4.8.6 1.2c.3 1.3.9 2.6 1.6 3.7.2.6.5 1.1.7 1.7.2 1.1.5 2.1 1.2 3 .2.6.4 1.2.7 1.8 1.9 6.8 4.4 13.4 5.1 20.5.1 1.4.3 2.8.4 4.1-.1.6-.2 1.1-.3 1.8-.7-.8-.2-1.9-1-2.4 0-1.4-.1-2.7-1.2-3.6 0-.5 0-1-.6-1.2.1-.7.1-1.4-.6-1.8 0-.5-.1-1-.6-1.2 0-.5-.1-1-.6-1.2-.2-2.7.6-5.5-1.2-7.9 0-.7 0-1.4-.6-1.8 0-.5-.1-1-.6-1.2 0-.5-.1-1-.6-1.2 0-.5-.1-1-.6-1.2-.2-.2-.4-.4-.6-.6-.8-2.2-1.6-4.5-2.3-6.7-.1-.6-.1-1.3-.6-1.8-.2-.4-.4-.8-.5-1.3-.2-.4-.4-.8-.6-1.2 0-.7-.1-1.3-.6-1.8-.2-.4-.4-.8-.6-1.2s-.4-.8-.6-1.2-.4-.8-.6-1.2c-.2-.2-.3-.4-.5-.7-.2-.4-.4-.8-.6-1.2-.2-.2-.4-.4-.6-.6-.2-.4-.4-.8-.7-1.2-.2-.2-.4-.4-.6-.6s-.4-.4-.6-.6c-.2-1.1-.9-1.8-1.9-2.3 0-1.2-.3-2.2-1.2-3 0-.5-.1-1-.6-1.2 0-.5-.1-1-.6-1.2 0-.5-.1-1-.6-1.2 0-.5-.1-1-.6-1.2 0-.5-.1-1-.6-1.2.1-.5.3-1 1.1-.9z" fill="#144821"/><path d="m484.9 246c1.4.6 2.8 1 4.3 1 1.8 0 1.9.9 1.3 2.3-1 2.5-2.8 3.1-6.7 2.5-.2-.2-.4-.4-.6-.6s-.4-.4-.6-.6c-.7-4.3-.6-4.6 2.3-4.6z" fill="#154a22"/><path d="m483.9 251.8c.6 1.3 1.8 1.3 3 1.2 1.5-.1 1.6.6 1.1 1.7-1.7 1.5-3.9 1.3-5.9 1.3-.2-.2-.4-.4-.6-.6s-.4-.4-.6-.6-.4-.4-.6-.6c.2-1.5-.3-3 .3-4.5 1-.5 1.2.9 2.1.9 0 .4.2.6.6.6z" fill="#154c23"/><path d="m520 348.2c-2.6 1.4-4 .1-4.6-2.3-.4-1.6-.5-3.3-.8-5 .6-.2.7-.7.6-1.2.8-.4.7-1.1.6-1.8.8-.3.5-2 1.9-1.7 1.5 1.4 3 2.8 4.5 4.2.1.6.1 1.2.2 1.7-.8.7-.6 1.6-.6 2.4-.6.5-.7 1.1-.6 1.8-.5.2-.7.7-.6 1.2-.2.3-.4.5-.6.7z" fill="#154a22"/><path d="m514.6 341c-3.6 2.8-4.5 2.3-6-3.6.5-.3.6-.7.6-1.2.7-.5.7-1.1.6-1.8.9-.7.6-1.6.6-2.4 1.2-.9-.1-2.8 1.4-3.6 1.4 1.9 2.7 3.8 4.1 5.7v3.9c-.6.5-.6 1.1-.6 1.8-.6.2-.7.7-.7 1.2z" fill="#154a22"/><path d="m520.6 352.4c-.2-1.4-.4-2.8-.6-4.2.2-.2.4-.4.6-.6.5-.2.7-.7.6-1.2.7-.4.7-1.1.6-1.8.9-.6.6-1.6.6-2.4.5-.2.9-.4 1.4-.6.9.4 1.9.8 2.8 1.2 1.5 2.2-.1 4.4 0 6.6-.8.8-1.3 1.8-1.2 3-1.5.7-3.2.7-4.8 0z" fill="#154a22"/><path d="m508.1 316.7c-2-2.8-3.3-6-4.6-9.2.1-.1.2-.2.4-.3.3.2.6.4.9.6 0-.4.1-.8 0-1.1-1-3-1.3-6.1-.8-9.4 1.1.5 1.4 1.2 1.6 2.1-1 .2-1.2.9-1 1.8.5 3 1.1 5.9 2.2 8.7.7 2 2.2 3.6 2.4 5.8-1.1-.5-1.2.1-1.1 1z" fill="#0f140f"/><path d="m520.7 332.7c-.1 1.3.6 1.9 1.8 2.4 2.5.9 3.8 3 4.8 5.3-.7.5-1.2 0-1.6-.3-3.5-3.1-6.9-6.3-9.3-10.4l.2-.2c.6.2 1.2.4 1.8.6h.3.3c.2.2.4.4.6.6 0 .5.1 1 .6 1.2 0 .3.3.5.5.8z" fill="#144821"/><path d="m526.7 349.4c-.1-2.2 1.5-4.4 0-6.6.7-.1 1.4.2 1.8-.6.7.1 1 .6 1.2 1.2-1.5.3-1.7 1.4-1.8 2.6-.1 1.3-.1 2.5-1.2 3.4z" fill="#0f140f"/><path d="m508.1 316.7c-.1-.8 0-1.4 1.1-1 0 .5.2 1 .6 1.2v.6c0 .6 0 1.2.1 1.8l-.2.1c-.8-.8-1.3-1.7-1.6-2.7z" fill="#144821"/><path d="m511.8 328.4c-1.5.8-.1 2.7-1.4 3.6 0-1.9 0-3.8 0-5.7.7.5 1.1 1.2 1.4 2.1z" fill="#0f140f"/><path d="m515.8 338c0-1.3 0-2.6 0-3.9.6.7 1.2 1.5 1.9 2.2-1.4-.3-1.1 1.3-1.9 1.7z" fill="#0f140f"/><path d="m516.3 329.7c-.8-.7-1.5-1.4-1.7-2.5l.1-.1c.9.5 1.6 1.3 1.8 2.4z" fill="#144821"/><path d="m498.3 292.8c-.7-.6-.5-1.6-.7-2.3.1-.1.2-.2.4-.3.2.8.5 1.6.7 2.4-.2 0-.3.1-.4.2z" fill="#0f140f"/><path d="m497.6 290.5c-.2-.8-.4-1.6-.6-2.4.1-.1.3-.2.4-.3.2.8.4 1.6.6 2.4-.2.1-.3.2-.4.3z" fill="#0f140f"/><path d="m523.8 341.6c-.5.2-.9.4-1.4.6-.1-.6-.1-1.2-.2-1.7.6.3 1.1.7 1.6 1.1z" fill="#0f140f"/><path d="m501.3 301.8c-.6-.4-.5-1.1-.7-1.8l.3-.3c.2.6.4 1.2.7 1.8-.1.2-.2.3-.3.3z" fill="#0f140f"/><path d="m502.5 304.9c-.6-.4-.5-1.1-.7-1.7l.3-.3c.2.6.5 1.1.7 1.7-.1.1-.2.2-.3.3z" fill="#0f140f"/><path d="m500 298.3c-.2-.6-.4-1.2-.6-1.8.1-.1.2-.2.4-.3.2.6.4 1.2.6 1.8-.2.1-.3.2-.4.3z" fill="#0f140f"/><path d="m499.4 296.5c-.2-.6-.4-1.2-.6-1.8.1-.1.2-.2.3-.3.2.6.4 1.2.6 1.8-.1.1-.2.2-.3.3z" fill="#0f140f"/><path d="m500.6 300.1c-.2-.6-.5-1.2-.7-1.8.1-.1.3-.2.4-.3.2.6.4 1.2.6 1.8 0 .1-.1.2-.3.3z" fill="#0f140f"/><path d="m498.8 294.7c-.6-.5-.4-1.2-.5-1.9.1-.1.2-.2.4-.3.2.6.3 1.2.5 1.9-.2.1-.3.2-.4.3z" fill="#0f140f"/><path d="m503.5 307.4c-.2-.4-.3-.9-.5-1.3.1-.1.2-.2.3-.3.2.4.3.9.5 1.3-.1.1-.2.2-.3.3z" fill="#0f140f"/><path d="m510.3 320.5c-.2-.4-.5-.8-.7-1.1 0 0 .2-.1.2-.2.2.4.4.8.5 1.3z" fill="#144821"/><path d="m501.8 303.1c-.2-.4-.3-.9-.5-1.3.1-.1.2-.2.3-.2.2.4.3.9.5 1.3-.1.1-.2.2-.3.2z" fill="#0f140f"/><path d="m511 321.7c-.5-.2-.6-.7-.7-1.2 0 0 .1-.1.1-.1.2.4.5.8.6 1.3z" fill="#144821"/><path d="m512.2 323.5c-.5-.2-.7-.6-.7-1.1l.2-.2c.1.5.3.9.5 1.3z" fill="#144821"/><path d="m512.8 324.7c-.5-.2-.6-.7-.7-1.2l.1-.1c.3.5.5.9.6 1.3z" fill="#144821"/><path d="m514 326.5c-.5-.2-.6-.7-.7-1.2l.1-.1c.2.5.5.9.6 1.3z" fill="#144821"/><path d="m503 306.1c-.2-.4-.3-.9-.5-1.3.1-.1.2-.2.3-.2.2.4.3.8.5 1.3-.1.1-.2.1-.3.2z" fill="#0f140f"/><path d="m527.2 340.4c.4.2.6.5.5 1-.5-.2-.8-.4-.5-1z" fill="#144821"/><path d="m514.5 327.2c-.2-.2-.3-.4-.5-.7h.1c.2.2.4.4.4.7z" fill="#144821"/><path d="m513.3 325.4c-.2-.2-.3-.4-.5-.7.3.2.4.4.5.7z" fill="#144821"/><path d="m511.5 322.4c-.2-.2-.3-.5-.5-.7l.1-.1.6.6z" fill="#144821"/><path d="m528.1 341.8c.2 0 .2.1.3.3h-.2z" fill="#144821"/><path d="m510.4 331.9c0 .9.2 1.8-.6 2.4 0-.8-.2-1.7.6-2.4z" fill="#0f140f"/><path d="m509.8 334.3c0 .7.1 1.4-.6 1.8-.1-.6-.1-1.3.6-1.8z" fill="#0f140f"/><path d="m509.2 336.1c0 .5-.1 1-.6 1.2-.1-.5 0-.9.6-1.2z" fill="#0f140f"/><path d="m507.4 350c-2.9.4-4.4-1-5-3.9-.6-2.5-.4-5-.3-7.5.4-.2.5-1.2 1-.6 1.1 1.5 2.3 1.9 4.1 1.5 1.3-.3 1.3.9 1.3 1.8.1 2.3 0 4.6 0 6.8-.2.2-.4.4-.6.6-.4.3-.7.7-.5 1.3z" fill="#154c23"/><path d="m511.1 360.3c-1.9.1-3.6-.4-4.9-1.9 0-.7 0-1.4-.6-1.8.1-2.3-.6-4.9 1.8-6.7.5-.2.8-.6.6-1.2.2-.2.4-.4.6-.6.7 3.2 4.7 4.7 4.2 8.4-.9 1.2-1.8 2.3-1.7 3.8z" fill="#154c23"/><path d="m514.6 351.8c-3.3 0-6.1-4.2-4.8-7.3.6-1.5 1.9-.1 2.8-.7 1.1-.6 1.3.3 1.6 1.1.5 1.7 1.1 3.4 1.6 5.1-.2.2-.4.4-.6.6-.5.2-.7.6-.6 1.2z" fill="#154c23"/><path d="m506.2 358.4c.3 1.7.2 3.2-2.2 2.2-1.7-2.3-1.5-5-1.3-7.7.1-.8.4-1.6 1.4-1.6.9.1.8 1 .9 1.6.2 1.2-.4 2.6.7 3.6-.2.8-.3 1.5.5 1.9z" fill="#154a22"/><path d="m482.1 256c2.1 0 4.2.3 5.9-1.3.1.1.2.2.4.3-.3 1-.3 2.2-1.2 3-.1-.1-.2-.2-.4-.3 0-1-.6-1.1-1.4-.9-1.3.3-2.4.1-3.3-.8z" fill="#0f140f"/><path d="m480.3 254.2c.2.2.4.4.6.6-.2-.2-.4-.4-.6-.6z" fill="#0f140f"/><path d="m480.9 254.8c.2.2.4.4.6.6-.2-.2-.4-.4-.6-.6z" fill="#0f140f"/><path d="m481.5 255.4c.2.2.4.4.6.6-.2-.2-.4-.4-.6-.6z" fill="#0f140f"/><path d="m503.3 305.9c-.2-.4-.3-.8-.5-1.3-.2-.6-.5-1.1-.7-1.7-.2-.4-.3-.9-.5-1.3-.2-.6-.4-1.2-.7-1.8-.2-.6-.4-1.2-.6-1.8s-.4-1.2-.6-1.8-.4-1.2-.6-1.8-.3-1.2-.5-1.9c-.2-.8-.5-1.6-.7-2.4s-.4-1.6-.6-2.4c-.4-2.4-1-4.9-1.3-7.3-.1-.7-1.3-2.5 1.1-2.2l.6.6c-.1.6.1 1 .6 1.2l.6.6c0 2.5 1 4.7 2.4 6.7.2.2.3.5.5.7.2.4.4.8.7 1.2l.6.6c.2.4.5.8.7 1.1l.6.6.6.6c.3.5.7.6 1.2.6.6 1.7 2.4.4 3.3 1.2.8.7 1.6 7.7 1.2 8.6s-1.3.8-2 .9c-.2-.2-.4-.4-.6-.6s-.4-.4-.6-.6c.1-.6-.1-1-.6-1.2-.1-.8-.5-1.4-1.2-1.8-.2-.9-.5-1.6-1.6-2.1-.5 3.4-.2 6.4.8 9.4.1.3 0 .7 0 1.1-.3-.2-.6-.4-.9-.6-.3-.3-.5-.7-.7-1.1zm-1.2-12.7c-.1-.2-.3-.5-.4-.7-.1.1-.2.2-.2.2.1.2.2.5.4.7.1 1 .4 1.8 1.2 2.4.1.1.2.1.4.2-.1-.1-.1-.3-.2-.4-.1-.9-.4-1.8-1.2-2.4zm-1.5-3.9c-.2.5-.4.7-.3.9.1.3.4.6.6.9.1-.2.4-.4.3-.6-.1-.3-.3-.6-.6-1.2z" fill="#154c23"/><path d="m495.2 259.1c.8 1.1 2.9.5 3.1 2.3-1.1.2-1.3.9-1.2 1.8-.2.2-.4.4-.6.6-.8.9-1.5 1.6-2.8 1-.2-.2-.4-.3-.6-.5s-.3-.5-.5-.7c-.4-1.5-.7-3 .4-4.4.8 0 1.5 0 2.2-.1z" fill="#154c23"/><path d="m487.2 258c.9-.8.9-1.9 1.2-3 1.2-.4.9-2.7 2.8-2.1 1.2.4 2.8-.4 3.4 1.2.5 1.4 0 2.7-.9 3.9-.3.3-.5.6-.7.9-1.5.3-3 .9-4.7.5-.5-.4-1.4-.5-1.1-1.4z" fill="#154c23"/><g fill="#0f140f"><path d="m508.6 303.6c.8-.1 1.6 0 2-.9s-.4-7.9-1.2-8.6c-.9-.8-2.7.5-3.3-1.2l.1-.1c1.5.3 2.9-.2 2.8-1.8-.2-3.5 0-7.2-3.4-9.6l.2-.2c1.5.2 1.8-.5 1.5-1.7-.3-1.4-.8-2.7-1.1-4 .1-.1.2-.2.4-.3 1.1.8 1.8 1.8 2.3 3-.1.1-.1.2-.2.3-.9.9-.6 2-.5 3 .2 2.4 1.6 4.4 2.3 6.5-1.5 4 .3 7.6 1.8 11.1.4.9 1.5 1.8 2.7 1.4 1.3-.4 1.4-1.7 1.3-2.8-.4-3-.7-6-3.4-8 .8 0 1.5-.1 2.3-.1.1.1.2.2.3.3 0 2.3 1.5 3.9 2.2 5.9-.6 2.7-.7 5.8-4.2 6.6-.7 0-1.5-1.7-2 .4-.3 1.6-1.6 1.9-2.9.8z"/><path d="m520 280.7c1 .5 1.7 1.2 1.9 2.3l-.1.2c-.6 2.2-.7 4.4.1 6.6.7 2.2 1.3 4.4 0 6.6.2-4.1-.5-7.8-4.4-10.1.1-.1.1-.2.2-.3 3 1 3.3.7 2.7-2.4-.2-.9-.3-1.9-.4-2.9z"/><path d="m509.9 271c1.7 2.8 2.2 5.9 2.4 9 0 0-.2.2-.2.2-.9-.2-1.8-.4-2.4-1.2l.2-.2c2-.5 1.1-2 1-3.1-.2-1.5-.7-3-1.1-4.5-.1 0 .1-.2.1-.2z"/><path d="m501.3 287.4c-1.4-2-2.4-4.2-2.4-6.7 1.7 1 2.5 2.7 3.7 4.1 0 0-.2.2-.2.2-3.5-.7.1 1.8-.9 2.2z"/><path d="m503.3 278.8c1.2.4 1.9 1.3 2.4 2.4 0 0-.2.2-.2.2-.9.9.1 1.8.1 2.7-.1 1.8-.6 2.7-2.5 1.5l.2-.2c1.4 0 1.7-.8 1.3-2-.5-1.5-1-3-1.5-4.5z"/><path d="m515.3 283.7c.8.8 1.6 1.6 2.4 2.4-.1.1-.1.2-.2.3-2 .4-.4 2.9-2 3.6-.1-.1-.2-.2-.3-.3.3-1.9.3-3.9-.1-5.8z"/><path d="m518.8 277.7c.9.8 1.2 1.9 1.2 3-1.2-.7-1.3-1.8-1.2-3z"/><path d="m508.7 268.5c.8.6 1.1 1.5 1.2 2.5 0 0-.2.2-.2.2-.8-.6-1.1-1.5-1.2-2.5z"/><path d="m497.1 263.2c-.1-1 .1-1.7 1.2-1.8 0 .8-.4 1.4-1.2 1.8z"/><path d="m504.1 272.4.3-.3c.1.1.2.3.3.4 0 0-.1.2-.2.2-.1-.1-.2-.2-.4-.3z"/><path d="m512.3 280c.2.4.5.7.7 1.1l-.2.2c-.2-.4-.5-.7-.7-1.1z"/><path d="m508.7 278.1c.4.2.7.5 1.1.7 0 0-.2.2-.2.2-.4-.2-.7-.5-1.1-.7.1 0 .2-.1.2-.2z"/><path d="m507.3 266.3c-.1-.2-.3-.5-.4-.7 0 0 .1-.1.2-.2.1.2.3.5.4.7 0 0-.2.2-.2.2z"/><path d="m507.9 267.5c-.2-.4-.4-.8-.6-1.2 0 0 .2-.2.2-.2.2.4.4.8.6 1.2 0 0-.2.2-.2.2z"/><path d="m508.5 268.7c-.2-.4-.4-.8-.6-1.2 0 0 .2-.2.2-.2.2.4.4.8.6 1.2 0 0-.2.2-.2.2z"/><path d="m515.8 271.7c.5.3.6.7.6 1.2-.5-.2-.6-.7-.6-1.2z"/><path d="m516.4 272.9c.5.3.6.7.6 1.2-.5-.2-.6-.7-.6-1.2z"/><path d="m506.1 275.4c-.2-.4-.4-.8-.6-1.2l.2-.2c.3.4.5.7.8 1.1-.2.1-.3.2-.4.3z"/><path d="m517 274.1c.5.3.6.7.6 1.2-.5-.2-.6-.7-.6-1.2z"/><path d="m502.5 278.4c-.2-.4-.5-.8-.7-1.1l.2-.2c.2.4.5.8.7 1.1 0 0-.2.2-.2.2z"/><path d="m518.2 276.5c.5.3.6.7.6 1.2-.6-.2-.6-.7-.6-1.2z"/><path d="m517.6 275.3c.5.3.6.7.6 1.2-.5-.2-.6-.7-.6-1.2z"/><path d="m498.4 280.1c-.5-.3-.7-.7-.6-1.2.4.2.6.7.6 1.2z"/><path d="m496.5 263.8c.2-.2.4-.4.6-.6-.2.2-.4.4-.6.6z"/><path d="m505.5 274.2c-.1-.1-.1-.3-.2-.4.1.1.2.1.4.2z"/><path d="m502.6 284.8.6.6s-.2.2-.2.2c-.2-.2-.4-.4-.6-.5z"/><path d="m514.7 283.1c.2.2.4.4.6.6 0 0-.2.2-.2.2-.2-.2-.4-.4-.5-.6z"/><path d="m514.1 282.4c.2.2.4.4.6.6 0 0-.2.2-.2.2-.2-.2-.4-.4-.6-.6z"/><path d="m513.5 281.8c.2.2.4.4.5.7 0 0-.2.2-.2.2-.2-.2-.4-.4-.6-.6z"/><path d="m513 281.2c.2.2.4.4.6.6 0 0-.2.2-.2.2-.2-.2-.4-.4-.6-.6z"/><path d="m499 280.7c-.2-.2-.4-.4-.6-.6.1.2.3.4.6.6z"/><path d="m503.1 279c-.2-.2-.4-.4-.6-.6 0 0 .2-.2.2-.2l.6.6s-.2.2-.2.2z"/><path d="m497.8 278.9c-.2-.2-.4-.4-.6-.6.1.2.3.4.6.6z"/><path d="m501.8 277.2c-.1-.1-.1-.3-.2-.4.1.1.2.1.4.2z"/></g><path d="m501.8 252.5c.7 5.7-.5 6.9-6.3 6.3-.2-2.2.9-4.3-.2-6.5.2-.2.4-.4.6-.6 2 .3 3.9.6 5.9.8z" fill="#154c23"/><path d="m495.3 252.4c-.5 0-1 0-1.5 0-1.1 0-2.8.1-2.8-.9.1-1.4 0-3.5 1.5-4.2 1.2-.6 3.2-.9 4.2.2 1.3 1.4-.3 2.9-.9 4.3-.1.2-.3.4-.5.6z" fill="#154c23"/><path d="m502.3 246.7c.2.3.5.7.7 1 .3 1.3.4 2.6-1.2 3.2-1.1.4-2.6.8-3.4-.1-.9-.9-.3-2.6.2-3.6.7-1.5 2.3-.9 3.7-.5z" fill="#154c23"/><path d="m489.2 231.9c0-.8.4-1.2 1.3-1.2.8 0 1.5.3 1.6 1 .1.9-.5 1.4-1.4 1.5-.8-.1-1.4-.5-1.5-1.3z" fill="#150c0a"/><path d="m512.8 365.7c.2-.6.7-.6 1.2-.6-.2.6-.7.6-1.2.6z" fill="#0f140f"/><path d="m530.9 372.3c-.1-.2-.3-.5-.4-.7.1 0 .2-.1.3-.1 0 .3 0 .5.1.8z" fill="#0f140f"/><path d="m511.9 366.3c.3-.2.6-.4 1-.6-.2.4-.6.5-1 .6z" fill="#0f140f"/><path d="m531.5 372.9c-.2-.2-.4-.4-.6-.6.4 0 .6.2.6.6z" fill="#0f140f"/><path d="m506.5 364.8c-1.9 3.2-2.1 6.5-.1 9.9-2.9-2.8-2.9-6.4-.3-10.3z" fill="#3f240a"/><path d="m511 360.3c0-1.5.8-2.6 1.8-3.7 0 1.5.9 2.8.6 4.3-.6-.8-1.5-.8-2.4-.6z" fill="#0f140f"/><path d="m511.5 379.6c-.8-.1-1.4-.5-1.8-1.2 1.1-.4 1.5.5 2.2.8-.1.1-.3.3-.4.4z" fill="#3f240a"/><path d="m506.6 363.8c.2-.3.4-.5.6-.8.1.1.1.2.2.3-.2.2-.4.5-.5.7-.1-.2-.2-.2-.3-.2z" fill="#0f140f"/><path d="m506.1 364.4c.2-.2.3-.4.5-.6.1 0 .2.1.3.2-.1.3-.2.5-.3.8-.2-.1-.4-.3-.5-.4z" fill="#3f240a"/><path d="m526 315.1c-2.4-.6-3.6.6-4.1 2.9 0 0-.2.2-.2.2-1-.9-1.1-2.4-2.4-3.1 0-.2 0-.4 0-.6l.1-.1c3.6 1.2 4.2.7 4.3-3 .2-3.4-1.5-6.4-2-9.6 2 1.8 1.9 4.7 3.8 6.5l-.2.2c-1.6 2.4.1 4.4.7 6.5z" fill="#0f140f"/><path d="m518.6 315.1c.3 2.9.4 5.7-2.5 7.6-.3.2-.2.9-.2 1.4-.1.1-.2.1-.3.2-.5-.9-.9-1.7-1.5-3 2.3.2 3.6-.7 3.5-2.8-.1-1.4-.2-2.8-.3-4.2-.2-2.4-1.6-4.5-1.5-7 1.7 2.1 1.6 5.2 3.7 7.2l-.1.1c-.3 0-1-.4-.8.5z" fill="#0f140f"/><path d="m529.7 297.5c.8 2.2 1.6 4.5 2.3 6.7-.9.9-.5 2-.7 3.1-.7 3.3-1.9 3.8-4.8 1.8l.1-.1c2.8.6 3.8-.6 3.7-3.3 0-2.7-.7-5.3-.9-8z" fill="#0f140f"/><path d="m535.1 310.2c1.8 2.4 1.1 5.2 1.2 7.9-1.2-.6-1.6-1.7-1.9-2.9l.2-.2c1.1.5 1.2-.1 1-1-.3-1.2-.7-2.5-.5-3.8z" fill="#0f140f"/><path d="m536.6 338.9c1.4 0 1.6.7 1.6 1.9-1.3-.1-1.6-.8-1.6-1.9z" fill="#144821"/><path d="m518.8 330.1h-.3-.3c-.5-1.5-1.8-2.5-1.9-4.2l.2-.2c1 1.4 2.2 2.7 2.3 4.4z" fill="#0f140f"/><path d="m536 353.6c-.5-.7-1.7-1.2-1.2-2.5 1.3.2 1.5 1.2 1.5 2.2-.1.1-.2.2-.3.3z" fill="#144821"/><path d="m538.7 323.5c1.1 1 1.3 2.3 1.2 3.6-1.1-1-1.2-2.3-1.2-3.6z" fill="#0f140f"/><path d="m539.8 344.7c-.6-.5-1.1-1.1-1-2.1 1.1.3 1 1.2 1.2 1.9 0 0-.2.2-.2.2z" fill="#0f140f"/><path d="m537.5 320.5c.7.5.7 1.1.6 1.8-.6-.5-.7-1.1-.6-1.8z" fill="#0f140f"/><path d="m534.5 308.4c.6.5.7 1.1.6 1.8-.7-.4-.7-1.1-.6-1.8z" fill="#0f140f"/><path d="m515.9 324c.5.5.5 1.1.7 1.8 0 0-.2.2-.2.2-.6-.5-.6-1.1-.7-1.7.1-.2.1-.2.2-.3z" fill="#0f140f"/><path d="m536.3 353.3c.2.5.5 1 .7 1.4 0 0-.2.2-.2.2-.3-.4-.6-.9-.8-1.3.1-.1.2-.2.3-.3z" fill="#0f140f"/><path d="m537.4 356.1c-.2-.4-.4-.8-.6-1.2 0 0 .2-.2.2-.2.2.4.4.8.7 1.1-.1.2-.2.2-.3.3z" fill="#0f140f"/><path d="m532.7 304.8c.5.3.6.7.6 1.2-.6-.2-.7-.7-.6-1.2z" fill="#0f140f"/><path d="m533.3 306c.5.3.6.7.6 1.2-.5-.2-.6-.7-.6-1.2z" fill="#0f140f"/><path d="m533.9 307.2c.5.3.6.7.6 1.2-.6-.2-.6-.7-.6-1.2z" fill="#0f140f"/><path d="m526.6 309.1c-.4-.2-.8-.4-1.2-.7 0 0 .2-.2.2-.2.4.2.7.5 1.1.7z" fill="#0f140f"/><path d="m533.3 313.2c.2.4.4.8.7 1.2 0 0-.2.2-.2.2-.2-.4-.4-.8-.7-1.2z" fill="#0f140f"/><path d="m518.6 315.1c-.3-.8.5-.5.8-.6v.6c-.3 0-.5 0-.8 0z" fill="#144821"/><g fill="#0f140f"><path d="m527.2 316.9c-.2-.4-.4-.8-.7-1.2 0 0 .2-.2.2-.2.2.4.4.8.7 1.2z"/><path d="m522.4 319.3c-.2-.4-.4-.8-.6-1.2 0 0 .2-.2.2-.2.2.4.4.8.6 1.2z"/><path d="m536.3 318c.5.3.6.7.6 1.2-.5-.1-.7-.6-.6-1.2z"/><path d="m536.9 319.3c.5.3.6.7.6 1.2-.5-.2-.6-.7-.6-1.2z"/><path d="m523.7 321c.2.4.4.8.6 1.2l-.2.2c-.2-.4-.4-.8-.7-1.2z"/><path d="m538.1 322.3c.6.2.6.7.6 1.2-.5-.2-.6-.7-.6-1.2z"/><path d="m525.4 324.1c-.5-.2-.6-.6-.7-1.1 0 0 .2-.2.2-.2.5.3.6.7.5 1.3z"/><path d="m526.1 324.7c.2.4.5.7.7 1.1 0 0-.2.2-.2.2-.4-.3-.6-.7-.5-1.3-.1 0 0 0 0 0z"/><path d="m527.9 327.1c.2.4.4.8.7 1.1l-.2.2c-.2-.4-.4-.8-.7-1.2.1 0 .2-.1.2-.1z"/><path d="m536.9 330.2c-.1-.2-.3-.5-.4-.7 0 0 .1-.1.2-.2.1.2.3.5.4.7z"/><path d="m520 331.9c-.5-.3-.7-.7-.6-1.2.6.3.7.7.6 1.2z"/><path d="m538.2 331.9c.1.2.3.5.4.7 0 0-.1.1-.2.2-.1-.2-.3-.5-.4-.7z"/><path d="m532.7 333.1c.2.4.5.7.7 1.1 0 0-.2.2-.2.2-.2-.4-.4-.8-.7-1.1.1-.1.2-.2.2-.2z"/><path d="m539.3 335c-.1-.2-.3-.5-.4-.7 0 0 .1-.1.2-.2.1.2.2.5.3.7 0 0-.1.2-.1.2z"/><path d="m530.3 344.6c-.5-.2-.7-.7-.6-1.2.4.2.6.7.6 1.2z"/><path d="m533.2 313.4c-.1-.1-.1-.3-.2-.4.1.1.2.1.4.2z"/><path d="m534.4 315.2c-.2-.2-.4-.4-.5-.6 0 0 .2-.2.2-.2.2.2.4.4.6.6z"/><path d="m526.1 315c.2.2.4.4.6.6 0 0-.2.2-.2.2-.2-.2-.4-.4-.5-.7 0 0 .1-.1.1-.1z"/><path d="m527.4 316.8c.1.1.1.2.2.4-.1-.1-.2-.1-.4-.2z"/><path d="m532.1 332.5c.2.2.4.4.6.6 0 0-.2.2-.2.2-.2-.2-.4-.4-.6-.6z"/><path d="m534.4 335.6c-.2-.2-.4-.4-.6-.6l.2-.2c.2.2.4.4.6.6z"/><path d="m532 332.6c-.1-.1-.1-.2-.2-.3.1.1.2.1.3.2z"/><path d="m528.6 328.2c.1.1.1.2.2.4-.1-.1-.2-.1-.3-.2-.1 0 .1-.2.1-.2z"/><path d="m527.3 326.4c.2.2.4.4.6.6 0 0-.2.2-.2.2-.2-.2-.4-.4-.6-.6z"/><path d="m519.4 330.7c-.2-.2-.4-.4-.6-.6.2.2.4.4.6.6z"/><path d="m527.2 326.6c-.2-.2-.4-.4-.6-.6 0 0 .2-.2.2-.2.2.2.4.4.5.7 0-.1-.1.1-.1.1z"/><path d="m534.6 335.5c.1.1.1.2.2.4-.1-.1-.2-.1-.4-.2 0-.1.2-.2.2-.2z"/><path d="m524.4 322.2c.2.2.4.4.6.6 0 0-.2.2-.2.2-.2-.2-.4-.4-.5-.6z"/><path d="m532.1 304.2c.2.2.4.4.6.6-.2-.2-.4-.4-.6-.6z"/><path d="m525.5 324.1c.2.2.4.4.6.6 0 0-.1.1-.1.1-.2-.3-.4-.5-.5-.7-.1 0 0 0 0 0z"/><path d="m530.9 345.2c-.2-.2-.4-.4-.6-.6.2.2.4.4.6.6z"/><path d="m520.7 332.7c-.2-.3-.4-.5-.6-.8.1.3.4.5.6.8z"/><path d="m533.8 335c-.2-.2-.4-.4-.6-.6 0 0 .2-.2.2-.2.2.2.4.4.6.6 0 0-.2.2-.2.2z"/><path d="m523.5 321.2c-.1-.1-.1-.2-.2-.4.1.1.2.1.3.2z"/><path d="m522.6 319.2c.1.1.1.3.2.4-.1-.1-.2-.1-.4-.2 0-.1.2-.2.2-.2z"/><path d="m532.8 348.1c.1.1.1.2.2.4-.1-.1-.2-.1-.3-.2z"/><path d="m538 332c-.1-.1-.1-.3-.2-.4.1.1.2.1.4.2z"/><path d="m537 330c.1.1.1.3.2.4-.1-.1-.2-.1-.3-.2 0 0 .1-.2.1-.2z"/><path d="m520.6 352.4c1.6.7 3.2.7 4.8 0-.1.3-.1.8-.3.8-3.6.7-4.2 4-5.8 6.4.4-2.4 1.7-4.6 1.3-7.2z"/><path d="m525.5 352.4c-.1-1.2.4-2.2 1.2-3 .1 1.2 0 2.3-1.2 3z"/><path d="m514.6 351.8c-.1-.6.1-1 .6-1.2.1.6 0 1-.6 1.2z"/><path d="m515.2 350.6c.2-.2.4-.4.6-.6-.2.2-.4.4-.6.6z"/><path d="m478.5 240.3c-1 1.1-2.3 1.6-3.7 1.9.8-1.5 2.1-2 3.7-1.9z"/></g><path d="m474.9 242.1c.2.6-.2.7-.6.6-.3-.6.1-.7.6-.6z" fill="#3f240a"/><path d="m474.3 242.7c0 .5-.2.7-.6.6-.3-.6-.1-.8.6-.6z" fill="#3f240a"/><path d="m473.7 243.3c0 .5-.1.7-.6.6-.2-.5-.1-.8.6-.6z" fill="#3f240a"/><path d="m529.1 295.7c.6.5.6 1.1.6 1.8 0 0-.2.2-.2.2-.2-.6-.4-1.2-.6-1.8z" fill="#0f140f"/><path d="m527.3 291.5c.6.5.6 1.1.6 1.8 0 0-.1.1-.1.1-.6-.4-.6-1.1-.7-1.7z" fill="#0f140f"/><path d="m525.5 287.9c.2.4.4.8.6 1.2 0 0-.2.1-.2.1-.2-.4-.4-.8-.6-1.2z" fill="#0f140f"/><path d="m524.3 286.1c.2.4.4.8.6 1.2 0 0-.2.1-.2.1-.2-.4-.4-.8-.7-1.2z" fill="#0f140f"/><path d="m523.1 284.3c.2.4.4.8.7 1.2l-.1.1c-.2-.4-.4-.8-.7-1.2z" fill="#0f140f"/><path d="m528.6 294.5c.2.4.4.8.5 1.3 0 0-.2.1-.2.1-.2-.4-.4-.8-.6-1.2.1-.1.2-.2.3-.2z" fill="#0f140f"/><path d="m528 293.3c.2.4.4.8.6 1.2-.1.1-.2.1-.2.2-.2-.4-.4-.8-.5-1.3z" fill="#0f140f"/><path d="m526.7 290.3c.2.4.4.8.6 1.2 0 0-.2.2-.2.2-.2-.4-.4-.8-.6-1.2z" fill="#0f140f"/><path d="m526.1 289.1c.2.4.4.8.6 1.2 0 0-.2.1-.2.1-.2-.4-.4-.8-.6-1.2z" fill="#0f140f"/><path d="m525 287.2c.2.2.3.4.5.7 0 0-.1.1-.1.1-.2-.2-.4-.4-.6-.6z" fill="#0f140f"/><path d="m523.7 285.4c.2.2.4.4.6.6 0 0-.2.1-.2.1-.2-.2-.4-.4-.5-.7z" fill="#0f140f"/><path d="m522.5 283.6c.2.2.4.4.6.6 0 0-.2.1-.1.1-.2-.2-.4-.4-.6-.6z" fill="#0f140f"/><path d="m521.9 283c.2.2.4.4.6.6 0 0-.1.1-.1.1-.2-.2-.4-.4-.6-.6z" fill="#0f140f"/><path d="m483.3 251.2c-.4 0-.6-.2-.6-.6.2.2.4.4.6.6z" fill="#0f140f"/><path d="m483.9 251.8c-.2-.2-.4-.4-.6-.6.2.2.4.4.6.6z" fill="#0f140f"/><path d="m522.5 342.2c0 .9.3 1.8-.6 2.4-.1-.9-.2-1.8.6-2.4z" fill="#0f140f"/><path d="m515.2 339.8c0-.7 0-1.4.6-1.8.1.6.2 1.3-.6 1.8z" fill="#0f140f"/><path d="m521.9 344.6c.1.7.1 1.4-.6 1.8-.1-.7-.1-1.4.6-1.8z" fill="#0f140f"/><path d="m514.6 341c0-.5.1-1 .6-1.2.1.5 0 1-.6 1.2z" fill="#0f140f"/><path d="m521.2 346.4c0 .5-.1 1-.6 1.2 0-.5.1-1 .6-1.2z" fill="#0f140f"/><path d="m520.7 347.6c-.2.2-.4.4-.6.6.1-.2.3-.4.6-.6z" fill="#0f140f"/><path d="m515.7 324.2c.1.6.1 1.3.7 1.7.1 1.6 1.4 2.7 1.9 4.2-.6-.2-1.2-.4-1.8-.6-.2-1.1-.9-1.8-1.8-2.4-.2-.2-.4-.4-.6-.6-.2-.4-.4-.8-.6-1.2-.2-.2-.4-.4-.6-.6-.2-.4-.4-.8-.6-1.2s-.4-.8-.6-1.2c-.2-.2-.4-.4-.6-.6-.2-.4-.4-.8-.6-1.2s-.4-.8-.6-1.2c0-.6 0-1.2-.1-1.8.4-.2.6-.4 0-.6.1-.6-.1-1-.6-1.2-.2-2.2-1.7-3.8-2.4-5.8-1.1-2.8-1.7-5.7-2.2-8.7-.2-.9 0-1.6 1-1.8-.1 1 .1 1.7 1.2 1.8-.1.6.1 1 .6 1.2l.6.6.6.6c1.3 1.2 2.6.8 2.9-.7.4-2.2 1.3-.4 2-.4-.1.5.1 1 .6 1.2 0 .5.1 1 .6 1.2 0 .5 0 1 .6 1.2 0 .5 0 1 .6 1.2-.1 2.5 1.3 4.6 1.5 7 .1 1.4.2 2.8.3 4.2.1 2.1-1.2 3-3.5 2.8.6 1.1 1 2 1.5 2.9z" fill="#154c23"/><path d="m509.2 315.6c.6.2.7.7.6 1.2-.5-.2-.6-.6-.6-1.2z" fill="#0f140f"/><path d="m509.8 316.8c.6.2.4.4 0 .6 0-.1 0-.4 0-.6z" fill="#0f140f"/><path d="m508 348.8c.1.6-.1 1-.6 1.2-.2-.6.1-1 .6-1.2z" fill="#0f140f"/><path d="m508.6 348.2c-.2.2-.4.4-.6.6.2-.2.4-.4.6-.6z" fill="#0f140f"/><path d="m506.2 358.5c-.8-.4-.7-1.1-.6-1.8.6.4.6 1.1.6 1.8z" fill="#0f140f"/><path d="m500.6 289.3c.3.6.5.9.6 1.2 0 .1-.2.4-.3.6-.2-.3-.5-.6-.6-.9-.1-.2.1-.4.3-.9z" fill="#0f140f"/><path d="m503.1 295.8c-.8-.6-1.2-1.4-1.2-2.4l.2-.2c.8.6 1.1 1.5 1.2 2.4z" fill="#0f140f"/><path d="m506.8 301.2c-1.1-.2-1.3-.9-1.2-1.8.7.4 1.1 1 1.2 1.8z" fill="#0f140f"/><path d="m502.5 289.2c-.2-.4-.4-.8-.7-1.2 0 0 .2-.2.2-.2.2.4.4.8.6 1.2z" fill="#0f140f"/><path d="m507.4 302.4c-.5-.3-.7-.7-.6-1.2.5.2.7.7.6 1.2z" fill="#0f140f"/><path d="m506.1 292.8c-.5 0-.9-.2-1.2-.6 0 0 .1-.1.1-.1.4.2.8.4 1.1.7z" fill="#0f140f"/><path d="m501.9 293.4c-.1-.2-.3-.5-.4-.7 0 0 .1-.1.2-.2.1.2.3.5.4.7 0 0-.2.2-.2.2z" fill="#0f140f"/><path d="m503.7 291c-.2-.4-.5-.8-.7-1.1 0 0 .2-.1.2-.1.2.4.5.8.7 1.1z" fill="#0f140f"/><path d="m508.6 303.6c-.2-.2-.4-.4-.6-.6z" fill="#0f140f"/><path d="m508 303c-.2-.2-.4-.4-.6-.6z" fill="#0f140f"/><path d="m501.8 288.1c-.2-.2-.3-.5-.5-.7 0 0 .2-.2.2-.2.2.2.3.4.5.7z" fill="#0f140f"/><path d="m503.3 295.7c.1.1.1.3.2.4-.1-.1-.2-.1-.4-.2z" fill="#0f140f"/><path d="m503 289.9c-.2-.2-.4-.4-.6-.6 0 0 .2-.2.2-.2.2.2.4.4.5.7z" fill="#0f140f"/><path d="m504.9 292.2c-.2-.2-.4-.4-.6-.6l.1-.1.6.6z" fill="#0f140f"/><path d="m504.3 291.6c-.2-.2-.4-.4-.6-.6 0 0 .2-.1.2-.1.2.2.4.4.5.6z" fill="#0f140f"/><path d="m519.5 314.4c-2.1-2-1.9-5.1-3.7-7.2 0-.5-.1-1-.6-1.2 0-.5-.1-1-.6-1.2 0-.5-.1-1-.6-1.2 0-.5-.1-1-.6-1.2 3.5-.9 3.6-3.9 4.2-6.6.3.5.7.7 1.2.6.4 1 .8 2 1.8 2.4 0 .5.1 1 .6 1.2-.1.7 0 1.4.6 1.8.5 3.2 2.1 6.2 2 9.6-.2 3.7-.8 4.2-4.3 3z" fill="#154c23"/><path d="m512.8 281.3c.2.2.4.4.6.6s.4.4.6.6.4.4.6.6.4.4.5.6c.4 1.9.3 3.8.1 5.8-.8 0-1.5.1-2.3.1-.3-.5-.7-.7-1.2-.6-.2-.2-.4-.4-.6-.6s-.4-.4-.6-.6c-.7-2.2-2.1-4.2-2.3-6.5-.1-1-.4-2.2.5-3 .4.2.7.5 1.1.7.6.8 1.5 1 2.4 1.2.1.4.3.8.6 1.1z" fill="#154c23"/><path d="m512.8 289.7c2.7 2 3 5 3.4 8 .1 1 0 2.4-1.3 2.8-1.2.4-2.3-.5-2.7-1.4-1.5-3.5-3.3-7.1-1.8-11.1l.6.6.6.6c.2.5.7.6 1.2.5z" fill="#154c23"/><path d="m504.4 291.5c-.2-.2-.4-.4-.5-.6-.2-.4-.5-.8-.7-1.1-.2-.2-.4-.4-.5-.7-.2-.4-.4-.8-.6-1.2-.2-.2-.3-.4-.5-.7 1-.4-2.6-2.9.9-2.2l.6.6c1.9 1.2 2.4.3 2.5-1.5.1-.9-1-1.8-.1-2.7 3.4 2.4 3.3 6.1 3.4 9.6.1 1.6-1.3 2.1-2.8 1.8-.4-.2-.8-.4-1.1-.7-.2-.2-.4-.4-.6-.6z" fill="#154c23"/><path d="m515.4 289.9c1.6-.6 0-3.1 2-3.6 3.9 2.3 4.5 6 4.4 10.1-1 0-2 0-3 0-.3-.5-.7-.7-1.2-.6-.7-2-2.2-3.7-2.2-5.9z" fill="#154c23"/><path d="m521.8 283.2c.2.2.4.4.6.6s.4.4.6.6c.2.4.4.8.7 1.2.2.2.4.4.5.7.2.4.4.8.7 1.2.2.2.4.4.6.6.2.4.4.8.6 1.2s.4.8.6 1.2.4.8.6 1.2c.1.6.1 1.3.7 1.7.2.4.3.8.5 1.3.2.4.4.8.6 1.2.2.6.4 1.2.6 1.8.3 2.7.9 5.2.9 8 0 2.7-1 3.9-3.7 3.3-.4-.2-.7-.5-1.1-.7-1.9-1.8-1.8-4.8-3.8-6.5.1-.7.1-1.4-.6-1.8 0-.5-.1-1-.6-1.2-.1-1.1.9-1.6 1.2-2.4 1.3-2.2.7-4.4 0-6.6-.8-2.2-.8-4.4-.2-6.6z" fill="#154c23"/><path d="m495.3 252.4c.2-.2.4-.4.6-.6-.2.2-.4.4-.6.6z" fill="#0f140f"/><path d="m515.2 306c.5.3.6.7.6 1.2-.6-.2-.6-.7-.6-1.2z" fill="#0f140f"/><path d="m514 303.6c.5.2.6.7.6 1.2-.5-.2-.6-.7-.6-1.2z" fill="#0f140f"/><path d="m513.4 302.4c.5.3.6.7.6 1.2-.5-.2-.7-.7-.6-1.2z" fill="#0f140f"/><path d="m514.6 304.8c.5.2.6.7.6 1.2-.5-.2-.6-.7-.6-1.2z" fill="#0f140f"/><path d="m521.9 296.4c-.3.8-1.3 1.4-1.2 2.4-1.1-.5-1.4-1.5-1.8-2.4z" fill="#0f140f"/><path d="m521.2 300c.7.4.7 1.1.6 1.8-.6-.5-.7-1.1-.6-1.8z" fill="#0f140f"/><path d="m520.6 298.8c.5.2.6.7.6 1.2-.5-.2-.6-.7-.6-1.2z" fill="#0f140f"/><path d="m517.6 295.8c.5 0 1 .1 1.2.6-.5 0-.9-.1-1.2-.6z" fill="#0f140f"/><path d="m512.8 289.8c-.5 0-1-.1-1.2-.6.5-.1.9.1 1.2.6z" fill="#0f140f"/><path d="m511 288.6c-.2-.2-.4-.4-.6-.6.2.1.4.3.6.6z" fill="#0f140f"/><path d="m511.6 289.2c-.2-.2-.4-.4-.6-.6.2.1.4.3.6.6z" fill="#0f140f"/></g></svg>