<svg enable-background="new 0 0 1473.8 860.1" viewBox="0 0 1473.8 860.1" xmlns="http://www.w3.org/2000/svg" xmlns:xlink="http://www.w3.org/1999/xlink"><clipPath id="a"><path d="m0 0h1473.8v860.1h-1473.8z"/></clipPath><clipPath id="b"><path d="m0 0h1473.8v860.1h-1473.8z"/></clipPath><clipPath id="c"><path d="m970 616.7c0-1 0-3.8-1.8-6.7 0-1.7 0-3.7 0-3.7 5.8 2 9.4 4.8 16.9 9.4-2 1-3.8 1-5.8 1.9-1.6 0-3.8 0-3.8 0-1.4 0-1.4 0-5.5-.9zm263.2.9c-3.7-.9-7.6-.9-7.6-1.9 7.6-4.6 13.2-7.4 16.9-10.2v4.5c0 2.8-1.8 5.6-3.7 6.7 0 0 0 .9-2 .9-1.8 0-3.6 0-3.6 0zm-251.9-42c3.8-3.7 9.5-9.3 14.9-9.3h1.6c2.3 0 7.5 2.8 11.5 5.6v2.8c-3.9 3.7-3.9 9.3-7.5 15-7.5-4.8-14.9-10.4-20.5-14.1zm221.9-.9c0-.9 0-1.9 0-2.8 1.8-2.7 7.7-5.6 11.1-5.6 5.6 0 11.1 5.6 15.1 9.3-3.9 3.7-13.2 9.3-22.5 14-1.8-5.6-3.7-11.3-3.7-14.9zm-214.6-44.8c-1.8 0-1.8 0-1.8.9-5.5 0-12.8 16-18.6 25.2-5.5 10.3-9.5 15.9-13 21.4-1.8.9-1.8 2.8-1.8 5.6-9.3 2.8-11.3 11.2-11.3 14.9 0 2.7 2 4.8 2 4.8l7.5 12c3.7 13.9 15 31.7 18.4 32.7 7.7 2.7 27.9-4.8 44.8-16.8 24.4 9.2 54.3 17.6 91.4 17.6 35.7 0 65.4-8.4 91.5-17.6 13.1 12 35.3 19.5 40.9 16.8 7.5-1 16.8-18.8 22.4-32.7l5.7-12s1.8-2 1.8-4.8c0-3.7 0-12.1-9.5-14.9 0-2.8-1.6-4.8-3.6-5.6-3.9-5.6-5.7-13.9-13.1-22.3-3.7-8.4-13-24.3-16.9-24.3-9.3-1.9-22.3 1-22.3 2.9l-31.5 28c0 1.8 1.6 23.2 9.1 41.1-20.4 7.3-44.6 12-74.5 12-29.7 0-54.1-4.7-74.7-12 5.6-17.9 7.6-39.3 7.6-41.1l-29.9-28c.2-1.9-11.3-3.8-20.6-3.8z"/></clipPath><linearGradient id="d"><stop offset="0" stop-color="#8c1901"/><stop offset="1" stop-color="#fff"/></linearGradient><linearGradient id="e" gradientTransform="matrix(27.1172 -15.3196 15.4043 26.9681 -15955.0605 -20188.8125)" gradientUnits="userSpaceOnUse" x1="126.8973" x2="128.3405" xlink:href="#d" y1="852.707" y2="852.707"/><clipPath id="f"><path d="m0 0h1473.8v860.1h-1473.8z"/></clipPath><clipPath id="g"><path d="m986.9 530.8c-9.2 0-20.3 30.9-22.3 32.7 0 0 10.9 15.8 13.1 14.8 0-.9 9.2-12 18.6-12 9.2-2.8 18.6 15.8 18.6 15.8s-5.5-47.5-5.5-48.5c0-1.8-11.5-3.7-20.8-3.7-1.7 0-1.7 0-1.7.9z"/></clipPath><linearGradient id="h" gradientTransform="matrix(-34.2914 -20.2569 -19.4796 35.6596 21708.6406 -27176.2773)" gradientUnits="userSpaceOnUse" x1="122.0346" x2="123.5337" xlink:href="#d" y1="847.439" y2="847.439"/><clipPath id="i"><path d="m0 0h1473.8v860.1h-1473.8z"/></clipPath><clipPath id="j"><path d="m1009.4 574.7c-3.9 13.1-13.1 40.1-30.1 42.9-14.7 4.6-35.2-17.7-35.2-17.7s20.4 45.7 25.9 47.6c9.3 2.7 35.4-7.5 50.4-22.4 14.7-16.8 18.8-61.6 18.8-63.4l-29.9-28c.1-.1 1.8 26 .1 41z"/></clipPath><linearGradient id="k" gradientTransform="matrix(-75.2913 -13.9417 -11.6901 89.7933 20229.2402 -74036.0859)" gradientUnits="userSpaceOnUse" x1="122.7724" x2="124.2201" xlink:href="#d" y1="850.2894" y2="850.2894"/><clipPath id="l"><path d="m0 0h1473.8v860.1h-1473.8z"/></clipPath><clipPath id="m"><path d="m1203.2 533.6c0 .9-7.4 48.5-7.4 48.5s9.3-18.6 18.6-15.8c11.1 0 18.8 11.1 18.8 12l13.1-14.8c0-1.8-13.1-32.7-20.8-32.7 0-.9-3.5-.9-5.5-.9-5.6 0-16.8 1.9-16.8 3.7z"/></clipPath><linearGradient id="n" gradientTransform="matrix(-35.0612 2.0421 -1.9637 -36.4602 7051.8247 31426.8086)" gradientUnits="userSpaceOnUse" x1="117.6931" x2="119.1948" xlink:href="#d" y1="853.3372" y2="853.3372"/><clipPath id="o"><path d="m0 0h1473.8v860.1h-1473.8z"/></clipPath><clipPath id="p"><path d="m1171.8 561.6c0 1.8 3.5 46.7 20.4 63.4 13 14.9 41 25.1 46.7 22.4 11.1-1.9 29.9-47.6 29.9-47.6s-20.6 22.3-35.5 17.7c-18.8-2.9-28.1-29.9-29.9-42.9-1.8-14.9 0-41.1 0-41.1z"/></clipPath><linearGradient id="q" gradientTransform="matrix(-74.354 6.3147 -5.2948 -88.6755 14823.4219 75374.1797)" gradientUnits="userSpaceOnUse" x1="121.6175" x2="123.0471" xlink:href="#d" y1="852.0275" y2="852.0275"/><clipPath id="r"><path d="m0 0h1473.8v860.1h-1473.8z"/></clipPath><clipPath id="s"><path d="m1106.3 614.8c-87.6 0-138.1-44.7-138.1-59.7-5.5 8.4-9.5 16.8-13 22.3-1.8 4.6-1.8 11.3 5.3 20.6 7.7 10.3 67.4 50.3 145.8 50.3 78.3 0 136.1-40 143.6-50.3 7.7-9.3 9.3-15.9 5.7-20.6-3.9-5.6-5.7-13.9-13.1-22.3 0 14.9-50.4 59.7-136.2 59.7z"/></clipPath><linearGradient id="t" gradientTransform="matrix(-209.6572 0 0 -209.6572 27248.1602 179184.7812)" gradientUnits="userSpaceOnUse" x1="123.9679" x2="125.4114" xlink:href="#d" y1="851.7861" y2="851.7861"/><clipPath id="u"><path d="m0 0h1473.8v860.1h-1473.8z"/></clipPath><clipPath id="v"><path d="m1235 628.7c-1.8 6.7 5.6 14 3.8 12.2 1.8-1 13-24.2 13-24.2l-5.4-3.8c-1.9 5.6-9.6 9.3-11.4 15.8z"/></clipPath><linearGradient id="w" gradientTransform="matrix(306.7204 2.4822 -1.6069 473.7969 -36246.1562 -403034.6562)" gradientUnits="userSpaceOnUse" x1="125.7751" x2="127.2084" xlink:href="#d" y1="851.3099" y2="851.3099"/><clipPath id="x"><path d="m0 0h1473.8v860.1h-1473.8z"/></clipPath><clipPath id="y"><path d="m1240.6 594.3s1.8 5.6 1.8 15.8c-1.8 10.3-5.6 12.2-5.6 16.9-1.8 1 0 0 2-1.8 0 0 3.7-2.8 7.5-2.8 5.4 1.8 3.6 12.1 3.6 12.1l17-31.6s1.8-2 1.8-4.8c0-3.7 0-13.1-13.1-14.9h-2c-9.1-.1-13 11.1-13 11.1z"/></clipPath><linearGradient id="z" gradientTransform="matrix(-24.8195 1.4852 -.9905 -37.2152 4954.4263 32177.2676)" gradientUnits="userSpaceOnUse" x1="114.4736" x2="115.9259" xlink:href="#d" y1="852.8661" y2="852.8661"/><clipPath id="A"><path d="m0 0h1473.8v860.1h-1473.8z"/></clipPath><clipPath id="B"><path d="m958.7 616.7s11.3 23.2 13.2 24.2c-1.8 1.8 3.6-5.5 3.6-12.2 0-6.5-8.9-10.2-10.9-15.8z"/></clipPath><linearGradient id="C" gradientTransform="matrix(23.9513 3.7994 2.4596 -36.998 -4307.9604 31714.2539)" gradientUnits="userSpaceOnUse" x1="131.9954" x2="133.4086" xlink:href="#d" y1="853.8379" y2="853.8379"/><clipPath id="D"><path d="m0 0h1473.8v860.1h-1473.8z"/></clipPath><clipPath id="E"><path d="m955.3 583.1c-11.1 1.8-13.1 11.2-13.1 14.9 0 2.7 2 4.8 2 4.8l16.4 31.6s-3.4-10.3 4-12.1c3.7 0 7.3 1.8 9.5 2.8 1.4 1.8 1.4 2.8 1.4 1.8-1.4-4.7-5.4-6.6-7.2-16.9 0-10.1 1.8-15.8 1.8-15.8s-3.5-11.2-12.9-11.2h-1.9z"/></clipPath><linearGradient id="F" gradientTransform="matrix(-40.7097 -22.5955 -15.0694 61.0415 18737.1953 -48456.4062)" gradientUnits="userSpaceOnUse" x1="121.7118" x2="123.1318" xlink:href="#d" y1="849.1024" y2="849.1024"/><clipPath id="G"><path d="m0 0h1473.8v860.1h-1473.8z"/></clipPath><clipPath id="H"><path d="m964.6 198.8h281.7v407.5h-281.7z"/></clipPath><clipPath id="I"><path d="m1016.6 361.1h197.7v54.1h-197.7z"/></clipPath><clipPath id="J"><path d="m1014.9 360.1h199.5v56h-199.5z"/></clipPath><clipPath id="K"><path d="m1169.9 375.1h7.3v13h-7.3z"/></clipPath><clipPath id="L"><path d="m1169.9 374.1h9.1v15h-9.1z"/></clipPath><clipPath id="M"><path d="m1153.2 382.5h10.7v14.9h-10.7z"/></clipPath><clipPath id="N"><path d="m1153.2 382.5h12.9v14.9h-12.9z"/></clipPath><clipPath id="O"><path d="m1138.1 374.1h1.6v8.5h-1.6z"/></clipPath><clipPath id="P"><path d="m1138.1 374.1h4v9.3h-4z"/></clipPath><clipPath id="Q"><path d="m1134.2 388.1v-1.8z"/></clipPath><clipPath id="R"><path d="m1132.6 386.3h3.6v1.9h-3.6z"/></clipPath><clipPath id="S"><path d="m1121 375.9h2.1z"/></clipPath><clipPath id="T"><path d="m1121 375.1h2.1v1.8h-2.1z"/></clipPath><clipPath id="U"><path d="m1028 375.9h7.3v24.3h-7.3z"/></clipPath><clipPath id="V"><path d="m1028 375.1h7.3v25.1h-7.3z"/></clipPath><clipPath id="W"><path d="m1041.1 380.6h35.6v14.9h-35.6z"/></clipPath><clipPath id="X"><path d="m1039.3 379.8h37.4v15.8h-37.4z"/></clipPath><clipPath id="Y"><path d="m1180.8 377.8h9.3v11.3h-9.3z"/></clipPath><clipPath id="Z"><path d="m1180.8 376.9h11.3v12.2h-11.3z"/></clipPath><clipPath id="aa"><path d="m1123.1 372.2h13.1z"/></clipPath><clipPath id="ab"><path d="m1123.1 372.2h13.1v.9h-13.1z"/></clipPath><clipPath id="ac"><path d="m981.3 471.1h52.1v35.4h-52.1z"/></clipPath><clipPath id="ad"><path d="m1042.9 469.3h13.1v46.5h-13.1z"/></clipPath><clipPath id="ae"><path d="m1044.5 470.2h13.3v46.5h-13.3z"/></clipPath><clipPath id="af"><path d="m1050.4 470.2h9.3v46.5h-9.3z"/></clipPath><clipPath id="ag"><path d="m1042.9 506.5h9.3v3.8h-9.3z"/></clipPath><clipPath id="ah"><path d="m1044.5 501h9.5v1.9h-9.5z"/></clipPath><clipPath id="ai"><path d="m1044.5 495.4h9.5v2.8h-9.5z"/></clipPath><clipPath id="aj"><path d="m1046.7 489.9h9.3v1.7h-9.3z"/></clipPath><clipPath id="ak"><path d="m1050.4 486h5.6z"/></clipPath><clipPath id="al"><path d="m1052.2 480.4h5.6v1h-5.6z"/></clipPath><clipPath id="am"><path d="m1108.1 466.4h16.9v81.2h-16.9z"/></clipPath><clipPath id="an"><path d="m1106.3 467.5h14.7v77.3h-14.7z"/></clipPath><clipPath id="ao"><path d="m1102.5 467.5h9.3v70.9h-9.3z"/></clipPath><clipPath id="ap"><path d="m1111.8 531.8h13.3v5.7h-13.3z"/></clipPath><clipPath id="aq"><path d="m1111.8 522.4h9.3v3.8h-9.3z"/></clipPath><clipPath id="ar"><path d="m1110 514h9.5v1.8h-9.5z"/></clipPath><clipPath id="as"><path d="m1108.1 501.9h9.3v2.8h-9.3z"/></clipPath><clipPath id="at"><path d="m1106.3 494.4h5.4v1.8h-5.4z"/></clipPath><clipPath id="au"><path d="m1106.3 486h5.4v1.8h-5.4z"/></clipPath><clipPath id="av"><path d="m1154.9 470.2h15v60.6h-15z"/></clipPath><clipPath id="aw"><path d="m1153.2 470.2h10.7v58.7h-10.7z"/></clipPath><clipPath id="ax"><path d="m1151.2 470.2h7.5v54.1h-7.5z"/></clipPath><clipPath id="ay"><path d="m1158.6 518.6h11.3v3.7h-11.3z"/></clipPath><clipPath id="az"><path d="m1158.6 510.3h7.5v3.7h-7.5z"/></clipPath><clipPath id="aA"><path d="m1156.6 503.8h7.3v2.7h-7.3z"/></clipPath><clipPath id="aB"><path d="m1154.9 496.2h9v2h-9z"/></clipPath><clipPath id="aC"><path d="m1154.9 491.6h3.7z"/></clipPath><clipPath id="aD"><path d="m1153.2 484.2h5.4v1.8h-5.4z"/></clipPath><clipPath id="aE"><path d="m1100.5 393.7h5.8v143.8h-5.8z"/></clipPath><clipPath id="aF"><path d="m1147.3 400.2h7.6v126h-7.6z"/></clipPath><clipPath id="aG"><path d="m1025.9 496.2h162.5v74.6h-162.5z"/></clipPath><clipPath id="aH"><path d="m1160.5 486h48.5v21.5h-48.5z"/></clipPath><clipPath id="aI"><path d="m1197.8 492.6h7.3v12.1h-7.3z"/></clipPath><clipPath id="aJ"><path d="m1190.1 492.6h5.7v13.9h-5.7z"/></clipPath><clipPath id="aK"><path d="m1182.8 494.4h5.6v12.1h-5.6z"/></clipPath><clipPath id="aL"><path d="m1173.4 497.2h7.5v9.4h-7.5z"/></clipPath><clipPath id="aM"><path d="m1163.9 497.2h6v9.4h-6z"/></clipPath><clipPath id="aN"><path d="m1037.3 512.3h28v21.3h-28z"/></clipPath><clipPath id="aO"><path d="m1044.5 510.3h130.7v42.9h-130.7z"/></clipPath><clipPath id="aP"><path d="m1044.5 512.3h138.3v54h-138.3z"/></clipPath><clipPath id="aQ"><path d="m1056 402.1h3.7v107.3h-3.7z"/></clipPath><clipPath id="aR"><path d="m981.3 475.8h41v24.1h-41z"/></clipPath><clipPath id="aS"><path d="m997.9 470.2h13.1v36.3h-13.1z"/></clipPath><clipPath id="aT"><path d="m1037.3 464.6h39.4v11.2h-39.4z"/></clipPath><clipPath id="aU"><path d="m1044.5 414.3h29.9v15h-29.9z"/></clipPath><clipPath id="aV"><path d="m1039.3 426.3h42.9v16h-42.9z"/></clipPath><clipPath id="aW"><path d="m1138.1 410.5h31.9v17.8h-31.9z"/></clipPath><clipPath id="aX"><path d="m1136.2 470.2h33.7v12.1h-33.7z"/></clipPath><clipPath id="aY"><path d="m1041.1 411.3h35.6v16h-35.6z"/></clipPath><clipPath id="aZ"><path d="m1085.9 402.1h39.1v15.9h-39.1z"/></clipPath><clipPath id="a0"><path d="m1130.6 426.3h44.6v43.9h-44.6z"/></clipPath><clipPath id="a1"><path d="m1082.1 418h48.5v15.9h-48.5z"/></clipPath><clipPath id="a2"><path d="m1014.9 497.2h15.1v16.8h-15.1z"/></clipPath><clipPath id="a3"><path d="m1014.9 497.2h15.1v16.8h-15.1z"/></clipPath><clipPath id="a4"><path d="m1085.9 464.6h39.1v9.3h-39.1z"/></clipPath><clipPath id="a5"><path d="m1039.3 471.1h37.4v10.3h-37.4z"/></clipPath><clipPath id="a6"><path d="m1035.2 430.1h43.1v40.1h-43.1z"/></clipPath><clipPath id="a7"><path d="m1132.6 465.5h39.2v10.3h-39.2z"/></clipPath><clipPath id="a8"><path d="m1130.6 422.6h48.5v16.7h-48.5z"/></clipPath><clipPath id="a9"><path d="m1136.2 407.8h35.5v12.9h-35.5z"/></clipPath><clipPath id="ba"><path d="m1173.4 427.4h33.6v55.8h-33.6z"/></clipPath><clipPath id="bb"><path d="m1169.9 429.2h1.8v37.2h-1.8z"/></clipPath><clipPath id="bc"><path d="m1087.6 405.8h35.5v16h-35.5z"/></clipPath><clipPath id="bd"><path d="m1082.1 420.7h46.5v47.6h-46.5z"/></clipPath><clipPath id="be"><path d="m1085.9 467.5h42.7v12.9h-42.7z"/></clipPath><clipPath id="bf"><path d="m1087.6 441.2h7.4v6.6h-7.4z"/></clipPath><clipPath id="bg"><path d="m1087.6 441.2h7.4v7.5h-7.4z"/></clipPath><clipPath id="bh"><path d="m1108.1 436.7h5.7v5.6h-5.7z"/></clipPath><clipPath id="bi"><path d="m1108.1 436.7h5.7v6.5h-5.7z"/></clipPath><clipPath id="bj"><path d="m1100.5 447.8h4v5.6h-4z"/></clipPath><clipPath id="bk"><path d="m1098.9 446.9h5.7v6.6h-5.7z"/></clipPath><clipPath id="bl"><path d="m1100.5 431h4v5.6h-4z"/></clipPath><clipPath id="bm"><path d="m1098.9 431h5.7v6.6h-5.7z"/></clipPath><clipPath id="bn"><path d="m1106.3 395.6h76.5v92.3h-76.5z"/></clipPath><clipPath id="bo"><path d="m1153.2 405h18.6v18.6h-18.6z"/></clipPath><clipPath id="bp"><path d="m1057.9 402.1h18.8v26.2h-18.8z"/></clipPath><clipPath id="bq"><path d="m997.9 433.8h61.8v52.2h-61.8z"/></clipPath><clipPath id="br"><path d="m985.2 423.6h59.4v54h-59.4z"/></clipPath><clipPath id="bs"><path d="m1082.1 431.9h60v97.9h-60z"/></clipPath><clipPath id="bt"><path d="m1134.2 473h26.3v35.5h-26.3z"/></clipPath><clipPath id="bu"><path d="m1132.6 473.9h26v41.9h-26z"/></clipPath><clipPath id="bv"><path d="m1085.9 471.1h46.7v61.6h-46.7z"/></clipPath><clipPath id="bw"><path d="m1085.9 470.2h56.1v56.9h-56.1z"/></clipPath><clipPath id="bx"><path d="m1042.9 473h16.8v39.3h-16.8z"/></clipPath><clipPath id="by"><path d="m1042.9 473.9h40.8v57.8h-40.8z"/></clipPath><clipPath id="bz"><path d="m1067.1 528.9h9.5v9.5h-9.5z"/></clipPath><clipPath id="bA"><path d="m1087.6 538.3h7.4v8.4h-7.4z"/></clipPath><clipPath id="bB"><path d="m1111.8 540.2h11.3v8.3h-11.3z"/></clipPath><clipPath id="bC"><path d="m1138.1 531.8h7.4v8.4h-7.4z"/></clipPath><clipPath id="bD"><path d="m1154.9 522.4h5.5v6.5h-5.5z"/></clipPath><clipPath id="bE"><path d="m1031.6 404h24.4v11.2h-24.4z"/></clipPath><clipPath id="bF"><path d="m1030 404h26v12.2h-26z"/></clipPath><clipPath id="bG"><path d="m1085.9 394.7h16.5v11.1h-16.5z"/></clipPath><clipPath id="bH"><path d="m1085.9 394.7h16.5v12h-16.5z"/></clipPath><clipPath id="bI"><path d="m1134.2 400.2h15v11.1h-15z"/></clipPath><clipPath id="bJ"><path d="m1134.2 400.2h15v11.1h-15z"/></clipPath><clipPath id="bK"><path d="m1130.6 473h16.8v60.6h-16.8z"/></clipPath><clipPath id="bL"><path d="m1136.2 474.8h11.1v56.9h-11.1z"/></clipPath><clipPath id="bM"><path d="m1142.1 474.8h9.1v52.3h-9.1z"/></clipPath><clipPath id="bN"><path d="m1130.6 522.4h11.5v3.8h-11.5z"/></clipPath><clipPath id="bO"><path d="m1136.2 515h7.4v2.8h-7.4z"/></clipPath><clipPath id="bP"><path d="m1136.2 507.5h9.3v1.9h-9.3z"/></clipPath><clipPath id="bQ"><path d="m1138.1 500h9.3v1.9h-9.3z"/></clipPath><clipPath id="bR"><path d="m1142.1 494.4h5.3v1h-5.3z"/></clipPath><clipPath id="bS"><path d="m1143.7 487.1h3.7v2.8h-3.7z"/></clipPath><clipPath id="bT"><path d="m1082.1 471.1h18.4v62.5h-18.4z"/></clipPath><clipPath id="bU"><path d="m1087.6 471.1h13v63.4h-13z"/></clipPath><clipPath id="bV"><path d="m1091.4 471.1h13.1v63.4h-13.1z"/></clipPath><clipPath id="bW"><path d="m1082.1 522.4h12.9v3.8h-12.9z"/></clipPath><clipPath id="bX"><path d="m1087.6 515h7.4v1.7h-7.4z"/></clipPath><clipPath id="bY"><path d="m1087.6 506.5h11.3v2.9h-11.3z"/></clipPath><clipPath id="bZ"><path d="m1091.4 499.1h9.1v2.8h-9.1z"/></clipPath><clipPath id="b0"><path d="m1091.4 492.6h9.1v1.8h-9.1z"/></clipPath><clipPath id="b1"><path d="m1095 486h7.5v1.8h-7.5z"/></clipPath><clipPath id="b2"><path d="m1061.3 467.5h15.3v59.6h-15.3z"/></clipPath><clipPath id="b3"><path d="m1057.9 468.3h14.8v58h-14.8z"/></clipPath><clipPath id="b4"><path d="m1056 468.3h11.1v53.2h-11.1z"/></clipPath><clipPath id="b5"><path d="m1065.3 515h11.4v5.6h-11.4z"/></clipPath><clipPath id="b6"><path d="m1065.3 508.5h7.3v1.8h-7.3z"/></clipPath><clipPath id="b7"><path d="m1061.3 501.9h9.5v1.9h-9.5z"/></clipPath><clipPath id="b8"><path d="m1061.3 492.6h7.8v2.8h-7.8z"/></clipPath><clipPath id="b9"><path d="m1061.3 487.9h5.8v2h-5.8z"/></clipPath><clipPath id="ca"><path d="m1057.9 481.4h7.4v1.7h-7.4z"/></clipPath><clipPath id="cb"><path d="m1156.6 506.5h54.3v5.8h-54.3z"/></clipPath><clipPath id="cc"><path d="m1160.5 481.4h50.4v15.7h-50.4z"/></clipPath><clipPath id="cd"><path d="m1100.5 439.4h4v5.6h-4z"/></clipPath><clipPath id="ce"><path d="m1098.9 439.4h5.7v6.6h-5.7z"/></clipPath><g clip-path="url(#a)"><path clip-path="url(#b)" d="m0 0h1473.8v860.1h-1473.8z" fill="#0b0045"/><path clip-path="url(#b)" d="m0 0h737v369.4h-737z" fill="#0b0045"/><path clip-path="url(#b)" d="m369.5 224.9 285.2 144.6h82.3v-41.9l-285.5-143.8zm-369.5 102.6v41.9h82.2l287.3-144.6-84-41.1zm0-327.5v42l285.5 141.7 84-40-287.3-143.7zm654.7 0-285.2 143.8 82 40 285.5-141.8v-42z" fill="#fff"/><path clip-path="url(#b)" d="m307.9 0v123.2h-307.9v124.2h307.9v122h123.2v-122h305.9v-124.2h-305.9v-123.2z" fill="#fff"/><path clip-path="url(#b)" d="m330.4 0v148.4h-330.4v72.8h330.4v148.2h76.3v-148.2h330.3v-72.8h-330.3v-148.4z" fill="#bc0000"/><path clip-path="url(#b)" d="m248 247.4-248 122h56l246.5-122.1h-54.5zm244.5 0 244.5 122v-28l-192-94.1h-52.5zm-492.5-218.5 190.4 94.3h57.6l-248-123.2zm682.9-28.9-246.4 123.2h56l244.5-123.2z" fill="#bc0000"/><g clip-path="url(#b)"><path clip-path="url(#c)" d="m1022.3 790.1 298.5-169.8-132.3-231.2-298.6 168.8z" fill="url(#e)"/></g><g clip-path="url(#b)"><g clip-path="url(#f)"><path d="m1106.3 655.8c-39.2 0-69.1-8.3-91.4-16.8-17 11.3-35.6 17.8-46.6 16-1.7-1-7.7-2.9-24.1-38.3l-5.6-10.4c-2-.8-2-3.5-2-8.3 0-9.3 3.8-15.9 11.1-20.6 0 0 0-2.8 2.1-3.6l1.9-1.9c1.8-5.6 3.7-13 11.1-19.6 11.3-23.4 15-28 22.4-29.9h3.5c2.2 0 22.4 0 26.3 8.4l29.6 28.1v2.8c0 1.8 0 20.4-3.4 36.4 37.2 13.1 89.5 13.1 130.7 0-3.8-15.9-5.7-34.5-5.7-36.4v-2.8l29.7-28.1c3.8-8.4 20.4-8.4 24.2-8.4h5.5c7.6 1.9 13.2 6.5 24.4 29.9 5.7 6.6 9.3 14 11.3 19.6l-5.6 5.6 5.6-3.6c1.7.9 1.7 2.7 3.7 3.6 7.5 4.6 11.1 11.3 11.1 20.6 0 4.8-3.6 7.5-3.6 7.5l-5.5 11.2c-15.1 32.5-18.8 37.3-24.4 38.3-9.3 2.7-31.6-4.8-46.7-16-28 11.1-59.7 16.7-89.6 16.7zm-93.3-33.6 5.6 1.8c18.6 7.5 48.4 16.8 87.6 16.8 37.3 0 67-9.3 87.6-16.8l3.9-1.8 3.6 1.8c12.9 11.3 28 16.8 35.4 16.8 2 0 5.6-3.7 18.8-29.8l5.6-11.2s0 0 0-1.9c0-5.7-2-7.6-5.6-7.6l-5.7-1.7v-6.6-3.8c-3.6-3.7-7.4-9.2-11.1-18.6l-2-.9c-11.3-16.9-11.3-21.4-14.8-21.4 0 0 0 0-2 0-3.8 0-9.1.9-13.1.9v.8l-26.1 27.1c0 6.5 2 20.4 5.5 33.6l2.2 6.4-5.6 2.9c-46.6 18.7-106.2 18.7-154.9 0l-5.6-2.9 1.8-6.4c3.8-13.2 5.8-27.1 7.5-33.6l-29.7-28c-4-.9-11.1-.9-15-.9 0 0-1.7 2.8-11.4 21.4l-1.4.9c-5.8 9.4-9.5 14.9-9.5 18.6l-1.8 3.8 1.8 6.6-9.3 1.7c-1.8 0-3.7 1.8-3.7 7.6v1.9l3.7 11.2c13 27 18.7 29.8 18.7 29.8 7.3 0 23.9-5.5 37-16.8zm223.8 4.7c-3.7 0-3.7-.9-7.3-.9-3.9-.9-3.9-1.9-7.5-3.7l-11.1-7.5 11.1-5.5c7.5-3.7 11.1-6.5 16.8-9.3l11.1-9.5v15 4.5c0 3.8 0 6.7-1.8 10.3l-1.8 3.7-3.8 1.9c-3.7.1-3.7 1-5.7 1zm-261.3 0c-1.4 0-3.6-.9-5.4-.9l-3.5-1.9-2-3.7c0-3.7 0-6.5-1.8-10.3v-19.6l11.3 9.5c1.4 2.9 7.3 5.6 14.6 9.3l9.3 5.5-9.3 7.5c-1.8 1.8-5.4 2.8-7.3 3.7-2.1 0-5.9.9-5.9.9zm227.7-27-1.8-7.6c-1.8-5.5-3.6-11.1-5.6-15.8l-1.8-6.5 3.9-3.7c5.4-6.6 9.1-9.5 16.6-9.5 7.6 2 15.1 4.8 20.6 13.2l5.6 5.6-5.6 4.7c-9.5 5.6-16.6 11.2-24.1 14.9zm7.7-24.3v2.7c3.5-.9 3.5-1.8 5.3-2.7-1.8-1.8-1.8-2.8-1.8-2.8s-1.9 0-3.5 2.8zm-205.5 24.3-7.5-4.7c-7.1-4.7-16.6-9.3-22.4-14.9l-5.4-4.7 5.4-5.6c5.8-8.4 13.1-11.2 18.8-13.2h3.6c4 0 11.5 2.9 15.1 9.5l1.8 3.7v6.5c0 4.7-1.8 10.2-3.8 15.8zm-12.9-25.2c1.8 1.8 5.5 2.8 5.5 3.7 0-.9 0-1.8 0-2.7 0-2.8 0-2.8 0-2.8-1.7-.1-3.7.9-5.5 1.8z" fill="#fff"/></g></g><g clip-path="url(#b)"><path clip-path="url(#g)" d="m1001.9 603.6-57.7-33.6 31.3-63.5 61.8 35.5z" fill="url(#h)"/></g><g clip-path="url(#b)"><g clip-path="url(#i)"><path d="m1014.9 582.1s-9.4-15.8-17-15.8c-5.5 0-11.1 3.7-18.6 12-3.8 0-14.7-12-14.7-14.8 0-1.8 0-3.8 2-4.6 5.3-13.1 14.7-28.1 20.3-30h1.8c5.7 0 22.4 1.9 22.4 4.8 0 .9 3.8 35.5 5.6 48.5h-1.8zm-18.6-18.6c5.6 0 14.8 9.3 18.6 13.9-1.8-11.1-5.5-42.9-5.5-43.8-3.9-.9-16.9-3.7-22.5-2.9-5.5 1-16.8 22.4-20.3 29v3.8s8.9 13.9 11.1 13.9c9.2-9.4 14.8-11.1 18.6-13.9z" fill="#070606"/></g></g><g clip-path="url(#b)"><path clip-path="url(#j)" d="m1035.2 668-106.2-20.5 16.8-130.8 108.3 20.7z" fill="url(#k)"/></g><g clip-path="url(#b)"><g clip-path="url(#l)"><path d="m974.1 649.2s-2.2 0-4 0c-7.3-2.7-25.9-43.7-27.9-49.3 2 0 20.6 16.8 33.3 16.8h3.8c15-2.9 26.1-28 26.1-42 5.6-14.9 3.9-40.1 3.9-41.1l29.9 28c0 1.8-4 47.6-16.9 64.3-16.9 14-35.4 23.3-48.2 23.3zm-31.9-48.5c9.4 10.3 22.4 44.8 29.7 46.7 7.4 1.7 33.6-7.5 48.6-23.4 13-15.8 16.8-60.6 16.8-62.4l-27.9-26.2c1.7 2 1.7 24.3 0 39.3 0 3.7-11.5 40.1-30.1 43.8-14.7 3.7-35.1-16.8-37.1-17.8z" fill="#070606"/></g></g><g clip-path="url(#b)"><path clip-path="url(#m)" d="m1246.3 527.1-54.2 2.8 3.7 54.1 54.1-1.9z" fill="url(#n)"/></g><g clip-path="url(#b)"><g clip-path="url(#o)"><path d="m1195.8 582.1h-1.8c3.9-12.9 7.5-47.5 7.5-48.5 0-2.9 12.9-4.8 18.6-4.8h5.5c7.6 1.9 13.2 16.9 20.8 30v2.8c0 4.7-11.3 17.7-13.1 17.7-7.6-9.3-16.9-13-18.8-13-9.4 0-16.7 15.8-18.7 15.8zm24.2-51.3c-5.6 0-16.8 1.9-16.8 1.9 0 1.8-3.6 33.6-5.4 44.7 3.6-4.6 9.1-13.9 16.6-13.9 1.8 2.8 11.1 4.5 18.8 13.9 1.8 0 11.3-11.1 13.1-13.9 0 0 0-1.8-1.8-3.8-3.8-6.5-15-28-18.9-29-.1.1-3.6.1-5.6.1z" fill="#070606"/></g></g><g clip-path="url(#b)"><path clip-path="url(#p)" d="m1266.9 526.2-100.8 8.3 7.3 123.2 100.9-7.5z" fill="url(#q)"/></g><g clip-path="url(#b)"><g clip-path="url(#r)"><path d="m1236.8 649.2c-11.3 0-33.6-9.3-44.7-23.2-16.9-16.8-20.4-62.5-20.4-64.3l29.7-28c1.8.9 0 26.1 1.8 41.1 3.7 14.1 13 39.2 29.9 42 13.1 3.7 33.7-16.8 33.7-16.8 0 5.6-17 46.6-26.2 49.3-1.8-.1-1.8-.1-3.8-.1zm-63.4-85.7s3.8 44.8 18.8 60.6c13 15.8 41 25.1 46.7 23.4 7.5-1.9 22.4-33.6 28.1-46.7-4 4.7-20.6 21.5-33.7 17.8-18.8-3.7-28.1-29.8-31.7-43.8-1.8-14.9 0-39.3 0-41.1z" fill="#070606"/></g></g><g clip-path="url(#b)"><path clip-path="url(#s)" d="m953.5 555.1h305.7v93.2h-305.7z" fill="url(#t)"/></g><g clip-path="url(#b)"><g clip-path="url(#u)"><path d="m1106.3 649.2c-82.2 0-139.7-41.9-145.8-50.3-7.1-10.2-7.1-16.8-7.1-22.4 3.7-6.5 9.3-13 14.8-21.4l1.8-1.9v1.9c0 14.9 50.4 58.8 136.3 58.8 85.8 0 136.1-43.8 136.1-58.8v-1.9 1.9c7.4 6.6 9.3 14.9 13.1 19.6l2 1.8c3.6 5.6 1.6 12.2-7.7 22.4-7.3 11.1-69 50.3-143.5 50.3zm-138-90.3c-3.7 7.4-7.7 13-11.1 17.7-3.7 5.6-1.8 12.2 5.6 20.6 3.9 8.4 65.2 50.4 143.6 50.4 78.3 0 138.1-42 143.6-50.4 5.7-8.4 7.7-15 5.7-19.7l-2-1.8c-3.7-3.7-3.7-9.3-11.1-16.7-3.7 17.7-54 56.8-136.1 56.8-84.2-.1-132.4-39.3-138.2-56.9z" fill="#070606"/></g></g><g clip-path="url(#b)"><path clip-path="url(#v)" d="m1233.2 612.9h18.6v29.9h-18.6z" fill="url(#w)"/></g><g clip-path="url(#b)"><g clip-path="url(#x)"><path d="m1238.8 642.7v-.9c-2-1.9-5.6-7.5-3.8-13.1 0-4.6 3.8-6.5 3.8-10.2 3.7-1.8 5.7-3.7 7.5-6.4l5.4 4.6s-11.1 23.2-13 24.2v1.8zm7.5-29.8c0 2.8-3.8 4.8-5.7 7.5-1.8 1.9-3.8 4.7-3.8 8.4-1.8 5.6 2 10.3 2 11.2 3.7-5.6 11.1-23.2 11.1-23.2z" fill="#070606"/></g></g><g clip-path="url(#b)"><path clip-path="url(#y)" d="m1268.7 580.2-35.5 2.9 1.8 54.1 35.5-2.9z" fill="url(#z)"/></g><g clip-path="url(#b)"><g clip-path="url(#A)"><path d="m1251.7 635.4-1.8-1s0-5.6 0-7.4-1.8-2.8-3.6-2.8c-5.7 0-7.5 1.9-9.5 3.8h-1.8c0-2.8 1.8-3.8 1.8-5.6 2-1.9 3.8-5.6 3.8-12.2 1.8-10.1 0-15.8 0-15.8s3.8-14 15-12.2c9.3 1 14.9 6.6 14.9 15.9 0 3.7-1.8 5.6-1.8 5.6zm-7.2-13.2h1.8c3.6 0 3.6 1.8 3.6 3.7 1.8 1.9 1.8 2.7 1.8 4.7l15.1-27.9s0-2 0-4.8c0-8.4-4-13.1-11.3-14.9-9.3-1-13.1 11.2-13.1 11.2v15.8c0 6.7-3.7 12.2-3.7 14.1v1c.1 0 1.9-2.9 5.8-2.9z" fill="#070606"/></g><g fill="#070606"><path clip-path="url(#A)" d="m1206.9 595.2 4 4.7h1.6l-1.6-3.8v-.9l3.5-.9 7.6 13v1l-3.6.9 1.6.8 9.5-4.5h-4l-9.3-13.2 2.2-1.9h1.6l2 2.9 3.5-1-3.5-4.6z"/><path clip-path="url(#A)" d="m1192.1 606.3v1-1 1l7.5 13v1.9h-1.8l1.8 1.9 5.5-3.8-1.9-2.7v.9l-3.6-6.5 5.5-3.7 5.8 6.5-2 .9-2 1h2l5.5-2.9v-1.8.9l-9.3-13h1.8v-1-1.8l-5.4 3.6v1h1.7l1.9 4.6-5.5 4.8-3.8-5.6 2-1v-1.7z"/><path clip-path="url(#A)" d="m1186.3 616.7v1.8l2.2-.9v.9l3.6 6.6c-2 0-2 0-3.6.9 0 0-7.7-1.9-7.7-7.5-1.8-3.7 0-7.4 3.8-8.5 1.7-.8 1.7-.8 1.7-.8l2.2.8v2l3.6-1-2-3.7c-1.6 0-3.8 0-5.4 1-5.6 1.7-9.4 6.5-7.5 12 1.8 6.6 5.6 8.4 11.3 7.5 3.6 0 3.6-1.9 5.5-3.8l-1.8-7.4h1.8v-1.9z"/><path clip-path="url(#A)" d="m1169.9 634.3 7.3-2.7v-2l-2 1.1-1.8-1.1-3.5-14.8 1.9-1v-1.8l-7.9 2.8v1.9l2.2-1 1.8 1 3.9 14.9h-1.9v.9z"/><path clip-path="url(#A)" d="m1125.1 640.9 17-1-2.5-5.6h-1.5v3.8l-5.5.8-2-7.3h5.6v1.8h1.9l-1.9-6.5v1 .8l-5.6.9v-7.4h5.6v3.8l1.9-.9v-4.8l-13 1.9h1.8v1.9l1.7 14.8-1.7 1h-1.8z"/><path clip-path="url(#A)" d="m1104.5 622.2v1.9h1.8v15.8h-1.8v1h7.3v-1h-1.8v-7.4h9.5v7.4h-2.1v1h7.7v-1l-2-1v-14.8l2-1.9h-11.3v1.9h3.6 2.1v6.6h-9.5v-6.6h1.8v-1.9z"/><path clip-path="url(#A)" d="m1087.6 622.2v4.7-2.8l3.8-1.9v1.9 14.8 1l9.1 1v-1h-1.6l-3.9-1v-14.8h5.5v3.8h2v-5.7z"/><path clip-path="url(#A)" d="m1061.3 638.1 15.4.8v-5.5l-2.3 2.8v1l-7.3-1v-7.5h5.5v.9 2h1.8v-6.5h-1.8v2.8h-5.5v-7.6h7.3v1.9 1.9h2.3v-5.6l-13.3-.9v2.7h1.9v15.1.8h-4z"/><path clip-path="url(#A)" d="m1031.6 629.6 7.7 2.9v-1.8l-2-1.1 5.6-14.8h1.6v-1.9l-7.2-1.8v.9l2 .9-5.8 15.8h-1.9z"/><path clip-path="url(#A)" d="m1018.7 624.1c1.8 1.9 3.6 2.8 3.6 3.8 3.6.8 7.7 0 9.3-3.8 0-1.8 0-3.7-1.6-6.5l-2-2.9c-2-.9-2-1.9-2-3.7 0-1 2-1 4-1l1.6 1v3.7h1.8v-3.7c0-1-1.8-2.8-3.5-2.8-4-1-7.7 0-7.7 2.8v3.7c1.8 1.9 1.8 2.9 3.6 3.7 2 1.8 2 3.7 2 5.6 0 0-3.8 1.9-5.6 1v-1-3.7l-1.8-1.8z"/><path clip-path="url(#A)" d="m1000.3 616.7 14.6 7.4 1.7-5.6-1.7-.9-1.9 2.7v1.9l-7.6-4.6 5.7-6.5 1.9 1.8v2.8h1.9l1.7-5.7-1.7-.8v1.9l-3.8-1.1 3.8-5.5 3.8 1v.8 2.9l1.8.8 1.8-4.5-11.2-5.6-1.7.8 1.7 1v1.1l-5.7 13.9h-3.5l-1.6-1z"/><path clip-path="url(#A)" d="m997.9 594.3-5.5-3.8v1l1.8.8v1l-7.4 12.2h-1.7-2-1.8l7.3 4.5c2.2 1 3.8 2 5.7 2 3.6-1 3.6-2 6-3.7 5.1-5.5 5.1-10.3-2.4-14zm-1.6 0 1.6.9c2.3 2.8 2.3 5.6 0 10.3-1.6 4.5-5.5 5.6-9.3 2.8h-1.8z"/><path clip-path="url(#A)" d="m1046.7 613.8v1.8h1.7v1l-3.9 14.9v.9-.9 1.8l5.9.9v-.9h-2v-.9l2-5.6c3.7 0 3.7 1.8 3.7 4.7 0 0 0 2.7 2 3.7 0 0 0 .8 1.8.8 0 0 0 1 1.8 1v-1.8c-1.8 0-1.8-1-1.8-1-1.8-2.7 0-4.7-1.8-5.6v-1.8c1.8 0 1.8-1.8 3.7-4.7 0-3.7-1.8-5.6-3.7-6.6zm5.5 2.9h1.8c2 0 2 1.8 2 5.6 0 1.8-2 3.7-3.8 2.8l-1.8-1z"/><path clip-path="url(#A)" d="m1147.3 617.6v2.7l3.8 15-2 .8v1.9l9.5-1.9-2-1.8v1l-1.7-1v-5.6c1.7-.8 3.7 0 3.7 2.9l1.8 2.7c1.8 1 3.4 1 3.4 1 2.2 0 2.2-1 4-1v-.9c-4 .9-4 0-4-1.8-1.6-.9-1.6-2.9-3.4-2.9l-1.8-1.8c1.8-.9 3.6-2.8 1.8-6.6 0-3.7-1.8-3.7-5.5-3.7zm5.9.9h1.8c1.7-.9 3.7 1.8 3.7 3.7 0 2.8 0 4.7-3.7 4.7 0 0 0 0-1.8 0z"/></g></g><g clip-path="url(#b)"><path clip-path="url(#B)" d="m960.6 610 18.7 2.9-3.8 32.7-18.4-2.9z" fill="url(#C)"/></g><g clip-path="url(#b)"><g clip-path="url(#D)"><path d="m971.9 641.8-1.8-.9 1.8-1c-1.8 0-13.2-22.3-13.2-22.3l5.8-5.6c2 2.7 3.7 4.6 5.5 6.4 4 3.7 5.4 5.6 5.4 10.2 2.2 5.6-1.4 11.2-1.4 13.1h-2.1zm-11.3-24.2s9.5 17.8 11.3 22.3c2.2-1.8 3.6-6.5 3.6-11.2 0-3.6-1.4-6.5-5.4-8.4-1.8-2.7-3.5-4.7-5.5-7.5z" fill="#070606"/></g></g><g clip-path="url(#b)"><path clip-path="url(#E)" d="m971.9 651.1-41-22.4 16.7-62.4 39.3 22.4z" fill="url(#F)"/></g><g clip-path="url(#b)"><g clip-path="url(#G)"><path d="m960.6 635.4-16.4-31.8c-2 0-2-1.9-2-5.6 0-12.1 7.5-14.9 13.1-15.9 11.3-1.8 14.7 12.2 14.7 12.2s0 5.6 0 15.8c0 6.7 4 10.3 5.4 12.2v3.7 1.9c-1.4-1.9-5.4-3.8-8.9-3.8-2 0-2 1-3.9 2.8-2.2 1.8 0 7.4 0 7.4zm-3.5-52.3h-1.8c-7.7 1.8-11.1 6.6-11.1 14.9v4.8l14.6 27.9c0-2 1.8-2.8 1.8-4.7 2.2-1.9 4-3.7 4-3.7 3.7 0 7.3 0 9.5 1.8-2.2-1.8-5.8-7.4-5.8-14.1 0-10.1 0-15.8 0-15.8s-1.7-11.1-11.2-11.1z" fill="#070606"/></g><g clip-path="url(#G)"><path clip-path="url(#H)" d="m1106.3 606.3s-141.7-40-141.7-198.5l2-209h279.7v207.9c0 156.8-140 199.6-140 199.6z" fill="#3a4fa2"/></g><g clip-path="url(#G)"><path d="m1106.3 609.2h-1.8c-2.1-.9-141.8-42.9-140-201.4v-211.8h283.5l1.8 210.7c.1 156.8-141.7 201.6-143.5 202.5zm-138-407.6v206.2c-1.7 145.4 123.1 192.1 138.1 195.8 11.1-3.7 138.1-50.4 136.1-196.9v-205.1z" fill="#fff"/></g><path clip-path="url(#G)" d="m986.9 247.4s0-2 1.8-3.8c2.2-.9 5.7-1.9 7.7-2.7 1.6-1 4-2.8 5.6-2.8 3.5-2.8 3.5-2.8 7.5-4.7 0-3.7 0-5.6 0-9.3 1.7 0 3.7-2 5.5-2.8 3.8-1 3.8-1.9 7.4-2.8h5.6c3.7 0 5.5 1.8 7.3 2.8 4 .8 5.9 1.8 9.3 3.6 0 1.9 0 4.7 2.2 4.7 1.7 1.7 5.5 3.7 7.3 3.7 2 1.9 3.8 1.9 5.6 4.7 1.6 1.8 1.6 3.6 3.7 4.5 1.9.9 3.7 2.7 5.8 4.8 1.6.9 5.3 1.7 9.1 1.7 0 0 3.8-.8 7.7 0h5.5c3.6 0 9.1 1 11.1 1 2.1.8 5.7.8 7.5.8 1.8 1 7.5 1 9.5 1h7.5 9.3c1.8 0 5.8 0 7.4 1 3.7 0 5.5-1 7.5-1 3.8 0 7.5-1 9.3-1h9.4c1.8 1 5.3 2 7.3 2.9 1.8 0 3.6 1.9 5.6 1.9 1.8 1 5.6 2.8 5.6 3.8 3.6 1.9 3.6 4.6 3.6 6.5 1.8 2.6 3.7 5.6 5.7 8.3v7.6c1.8 3.7 1.8 5.6 1.8 10.3-1.8 1.7-1.8 5.6-1.8 8.4s-2 4.7-2 7.4c-1.8 1.9-1.8 3.8-1.8 7.4v7.6c0 2.7 0 4.6-1.8 8.4 0 1.8 0 5.6-2 8.3-1.6 1.9-3.8 3.8-5.4 5.5l-1.8 2.8c3.5 1.9 1.8 2.7 1.8 6.6 1.7 1.9 1.7 4.7 1.7 6.6v5.6c2.2 2.7 2.2 1.8 2.2 1.8-3.8 1.9-5.6.9-5.6-1.8-2-.9-2-2.8-2-5.6s-1.8-5.6-1.8-7.6c0-3.6-1.8-3.6-5.7-3.6-1.6-1.9-3.5-1.9-5.4-1.9-4 0-4 0-4 2.7v9.5c-1.6.9-3.4 3.7-3.4 6.6-1.8 0-1.8 2.7-3.8 4.7 0 1.8-1.7 2.7-5.5 2.7 0-.9-2-2.7-3.8-3.6 1.8-3.7 3.8-3.7 5.8-5.7 1.8-3.6 1.8-4.6 3.5-6.5-1.7-1.8-3.5-2.8-5.5-5.6 0-2-2-4.7-3.8-7.5 0-1.7-1.8-1.7-3.7-1.7-4 0-4 1.7-7.4 1.7h-9.3c-1.8 0-1.8 2.8-5.9 2.8-1.6 0-3.6 0-9.3 0-1.8 1.9-3.6 1.9-7.2 1.9-4 0-4-1.9-9.5-1.9 0-2.8-3.6-2.8-7.4-2.8-1.6 0-5.5 0-7.3 2.8-2 1.9-3.6 2.7-5.8 4.7 0 2.8-1.8 5.6-1.8 8.4-1.8 1.9-1.8 3.6-3.5 5.6 0 0-2 4.7-2 7.4 0 3.7 0 3.7-1.8 1.8-1.9-1.8-3.9-3.6-3.9-4.5 0-3.8 0-4.7 0-8.4 0-1.9 0-1.9-1.6-1 0 3.9 0 5.6-1.8 7.5 0 2.8-1.8 3.7-1.8 4.7-2 2.8-3.8 3.7-5.6 3.7 0 0 0 0 0-1.9-2-2.7 0-4.5 0-8.4 0-2.8 0-4.6 0-7.4 0-2.7-2-5.6-2-7.5-1.7-2.8-1.7-4.7-3.9-4.7-1.6-2.8-5.3-2.8-5.3-4.6-2-1.9-4-3.8-5.8-4.7-3.5-.9-3.5-1.8-5.5-2.8-3.8-1.7-3.8-3.7-5.6-5.5 0-1.7 0-4.7 0-7.4-1.8-2.9-1.8-4.8-3.6-7.6 0-2.8 0-4.6 0-6.4-2-2.8-3.8-4.8-3.8-8.5 0-2.8 0-6.6 0-8.4v-9.5c0-1.8 0-5.6 0-7.4 0-2.7-1.8-5.7-1.8-5.7-2-3.6-2-4.6-2-4.6-1.7 1-5.6 1.9-10.8 2.8-2.3-.9-2.3-.9-6-1.8-3.5-1-3.5-1.9-7.4-1.9 0-1.8 0-3.8-1.7-4.6 0-3.8-2-5.6-2-8.5-.7-2.7-.7-1.9 3-3.6z" fill="#b9b3ab"/><path clip-path="url(#G)" d="m1022.3 268.6c0-.8 0-.8 0-.8-1.8 1.8 0 .8 0 0 1.8-.9 3.6-2.8 5.6-3.7 0 0 2 0 3.7-.9 0-1.8 1.8-2.9 3.6-3.7 2-1.9 4-1.9 5.9-2.7 1.8-1 1.8-2 3.4-1 2.2 1 2.2 1 3.9-1.9 2 0 5.6-.8 5.6-3.7v-1.8c0 2.6 0 3.7-3.7 4.7 0 .8-2 2.7-3.7 4.6-2.2 1.9-2.2 2.7-2.2 3.8 0 1.8-1.6 1.8-1.6 3.6v1.9c1.6.9 1.6.9 1.6.9 3.9-2.8 3.9-3.7 5.9-5.6 1.8-2 1.8-2.8 1.8-4.7 1.8-.8 3.8-1.8 3.8-3.7 1.8 0 1.8-.8 3.7-1.8 1.6-1 1.6-2.8 3.7-2.8 0 3.8-2 4.7-2 4.7v5.6c2 .8 2 1.9 2 3.7 1.9-1.8 1.9-4.6 1.9-6.5v4.7c0 2.7 0 3.6 1.8 5.5v2.7c0-2.7 0-4.6 0-6.5 2 .9 0 3.7 2 5.5 0 2.1 1.6 3.9 1.6 3.9 1.8 1.7 1.8 2.7 1.8 2.7 1.8-3.7 1.8-6.7 1.8-10.3 0-.9 0-3.6 2.2-4.7l-2.2 4.7c0-.9 0-3.6 2.2-4.7v-.8 7.4 4.7c1.6 0 1.6-1.9 1.6-1.9 0-3.6 2-4.6 3.8-5.5l-3.8 4.5c0-2.6 2-3.6 3.8-4.5v-.9 6.5 5.7c0 1.8 1.6 1.8 1.6 4.7v1.9c2.2.8 2.2 0 2.2-1.9 0-2.8 1.6-4.7 1.6-7.4 0-2.9 0 0 0 1.7v5.7c0 1 0 1.9 3.8 1.9 0 0 0-.9 0-1.9 3.6-2.8 3.6-3.6 3.6-4.7 3.9 0 3.9-1.8 3.9-4.5 0-1.1 0-3.9 0-5.8 1.7-.9 1.7-3.6 1.7-5.5 0 0 0 .8 1.9 1.9v5.5c0 2.7 2.1 2.7 3.9 4.7 0 2.7 0 3.7 1.8 4.7v5.6c1.8-.9 1.8-4.7 1.8-6.6 0-2.7 0-5.7 0-5.7 0-2.7 0-4.6-1.8-5.5 0 0 0-.9 0-3.8 1.8-.8 3.6-.8 3.6-.8 2 1.9 2 2.8 2 4.6 0 2.8 0 4.5 3.6 5.5 0 1.1 2 1.9 2 4.7l1.6 1c0-1.8 2.1-4.5 2.1-5.7 2-1.8 2-2.7 2-2.7v4.7c0 2.7 1.8 3.7 1.8 4.7 1.7.8 1.7 2.7 1.7 2.7 0-1.9 0-3.7 0-6.5v-5.7c0-2.8 2-2.8 2-4.7 2 1.8 2 1.8 2 4.7 1.6-.9 1.6-1.9 3.6-2.8 0 2.8 0 4.5 1.8 6.7 0 0 0 3.5 1.6 4.5 2.4 1 2.4 1.8 2.4 3.7 1.6.9 1.6 1.9 3.4 1.9 0-2.8 0-5.6 0-8.4 0-2.9-1.8-2.9-1.8-5.7 0-1.9-1.6-2.8 0-3.7 1.8 1.8 1.8 2.8 3.7 4.6v5.7c1.8.8 3.8 2.8 3.8 2.8 2 2.7 3.8 4.6 5.5 4.6l2 .9c0-1.9 0-3.7 0-6.6 0-2.7-2-3.7-2-5.7-1.7 0-3.5-1.8-3.5-3.6-2-1-2-1-2-1.9 3.8 1.9 5.5 3.7 7.5 5.5 0 1.9 0 2.9 1.8 2.9l3.4 2.7c2.2 1.8 6 1.8 6 2.8l-6-2.8c2.2 1.8 6 1.8 6 2.8v.9c0-3.7 0-5.5-2-7.5-1.8-1.9-4-2.9-4-4.7-1.6-1.9-3.4-2.8-5.3-3.7 0-.9-2-3.7-2-3.7 2-.9 2 0 3.8.8 1.8 2.9 3.4 3.8 3.4 4.7 2.2 2.8 4 4.6 6 5.8 0 1.8 1.8 2.7 3.5 4.5 1.8 0 1.8-1 0-2.7 0-2.9 0-2.9 1.8-1 2 1 3.8 1.9 5.6 3.7h2v-1c0-2.7-2-4.7-3.8-5.6 0-.8-1.8-2.6-3.8-3.6 0-.9-1.8-1.8-1.8-3.6l1.8 3.6c0-.9-1.8-1.8-1.8-3.6h-1.6c3.5.9 3.5 1.8 7.3 1.8l1.8 2.8c2 .9 3.8 2.6 3.8 2.6 1.7 2.1 3.8 2.9 3.8 3.9 3.6 1.7 3.6 2.7 3.6 5.5v4.6c0 2.9 0 1 0-.8-2-.9-3.6-.9-3.6-.9v5.6 3.7s-2.2-1.9-2.2-2.8c0-1.8-1.7-1.8-3.5-3.7v1.9c1.8.9 1.8 2.8 3.5 6.6v5.6 6.5 5.6 5.6 5.7c-1.7.9-1.7 3.6-1.7 3.6l1.7-3.6c-1.7.9-1.7 3.6-1.7 3.6v1.9c0-1.9-1.8-3.6-1.8-6.5-2-1-2-1.9-2-3.8-1.8-1.7-1.8-4.6-1.8-4.6 0-1.9 0-3.8-1.8-2.7-2 2.7 0 4.5 1.8 7.3v4.7c1.8 3.6 1.8 3.6 0 5.6 0 2 0 2.8-1.8 3.7-2 1-2 1-2 2.8 0-1.8-1.8-2.8-3.5-5.5 0-1.9 0-3.8 0-6.6-1.8 0-1.8-2.8-1.8-3.7-2-1-6-2.7-6-4.7-1.6-1.8-1.6-2.8-3.4-3.6 0-1.1 0-2.8-1.8-1.1v5.6c1.8 1.8 1.8 3.7 1.8 6.6v4.5c0-3.6-1.8-4.5-1.8-7.4l-2-4.7c-1.7-.9-1.7-2.8-1.7-2.8-1.8-1.9-1.8-1.9-1.8-3.6 0 3.6 0 3.6 1.8 5.6v4.6c-1.8-2.7-1.8-6.5-3.8-8.4-2-1.8-3.8-3.7-3.8-5.7 0 0-1.8-.8-1.8-2.8-1.8 0-3.4-.9-3.4-.9 0 .9 1.6 2.8 1.6 4.6 0 1.9 1.8 3.7 1.8 5.7 0 2.7-1.8-1.1-1.8-2.8 0-1.9-1.6-2.9-1.6-4.7-2.4 0-2.4-1.9-4-2.8-1.8 0 0 0 0 1.9v5.7 4.6 6.6 2.8s-1.8-1.9-1.8-4.7c0-1.8 0-3.6-3.6-5.6 0 0-2 0-4 0 0 1.9 2 2.8 2 5.6-2 .9-2 1.9-2 0-1.7-1.8-3.5-1.8-3.5-3.6v-2.7c0-2 0-3.9 0-4.8-4 0-5.6 0-7.6.9v5.6 5.6c0 1.9-3.6 1.9-3.6 1.9 0 2.8-2 5.6-2 7.5 0 0 0 .9 0-1v-8.4-5.6c0-1.7 0-2.8 0-5.6 0-.9 0-.9-3.6-1.9v4.7 4.7c0 2.8 1.8 3.7 1.8 5.6 0 2.8-1.8 3.7-1.8 4.8l-1.8 2.7c-1.8-1-3.9-2.7-5.8-4.6 0 0-1.7 0-5.5 0-3.6 0-3.6 0-3.6-1.9 0-2.8 0-4.5 0-7.4-3.8-1.9-3.8-2.7-3.8-5.6 0 0 0-1.9-1.6-1.9v5.6c-2.2.9-2.2 3.7-2.2 4.7-1.6-1-1.6-3.8-1.6-4.7 0-3.6-1.8-5.6-3.8-4.7-1.6 1-1.6 1-1.6 3.9 0 0 1.6 2.7 1.6 4.5v6.6c0 .9 0 2.9-1.6 2.9 0-1.9 0-4.8-4-6.7 0-1.7 0-.9-1.8-.9-1.6 0-3.7 0-3.7 0v3.7-.9c-1.8 1.9-1.8 2.8 0 4.8-1.8 1.7-1.8 3.6-3.7 4.6v-1c-2-.9-5.5-.9-7.4-1.9 0 0 0 1-2 1.9-1.8 1-3.7 1-5.6 2-3.9 0-3.9 0-3.9 0-1.6.8-3.4.8-7.3.8 0 0-2 0-3.8-.8 1.8-2 1.8-2 3.8-3.9 0-.8 2-1.7 3.8-3.6 1.8 0 1.8-.9 3.4-2.8 0-1.9 0-2.8 0-2.8 3.9 0 3.9 0 5.9.9 3.7 1 5.6 1 5.6-.9 1.8 0 3.7-1.8 5.3-1.8 2-1 2-1.8 3.9-2.8 1.8-.9 1.8-1.7 3.9-2.8 0-2.8 1.6-3.7 1.6-5.7-3.7 0-3.7 0-3.7 1-1.8 1-3.7 1.9-5.8 2.9-1.6.8-1.6 1.8-3.5 2.8-1.8 0-3.8 0-5.6 0s-5.5 0-7.7.8c3.9-1.9 5.9-3.6 7.7-3.6 1.8-1 3.8-1.9 3.8-1.9 1.8-1 1.8-1 1.8-2.8 1.8-2.8 0-1.9-1.8-.9 0 0-3.8 1.8-5.6 1.8 0 1-3.7 1-5.9 1 0 0 0-1 0-2.8 3.9-1 3.9-1 3.9-2.8-1.7.9-3.9.9-3.9.9-1.6.9-3.4.9-7.3.9h-5.6c-1.6 0-3.7 0-3.7 0-3.8-.9-3.8-.9-3.8-3.6 1.8-2 3.8-2 5.8-2 1.6-1.7 3.5-1.7 3.5-1.7 1.8 0 3.8-1.9 3.8-2.9h-5.6c-3.7-.9 0-.9 0-1.8 1.8 0 3.6 0 5.6.9 3.8 0 3.8-.9 5.7-1.8 1.6-1.8 1.6-2.8 1.6-2.8 2.2-2.8 3.9-2.8 5.9-3.7 1.8-1.8 1.8-2.8 3.7-4.7 2 0 2-1 2-1.8-3.8.8-3.8 1.8-7.6 2.8 0 0-1.7 1.8-3.9 2.7 0 1.9 0 1.9-1.6 1.9-3.7 0-5.7 0-7.7 0-1.8-1 0-1 0-1 2-1.8 2-3.6 2-4.7-2 0-5.6 0-5.6 0h-7.5c-1.8 0-1.8-1-3.7-1.8 0 0 0-.9 1.8-.9s3.6 0 5.6-1c2 0 2-.8 2-2.9-2 0-4 0-5.8 0h-1.6z" fill="#fff"/><path clip-path="url(#G)" d="m985.2 259.4c0-3.8-2-5.6-2-8.5 0-2.6 0-1.8 3.7-3.5 0 0 0-2 1.8-3.8 2.2-.9 5.7-1.9 7.7-2.7 1.6-1 4-2.8 5.6-2.8 3.5-2.8 3.5-2.8 7.5-4.7 0-3.7 0-5.6 0-9.3 1.7 0 3.7-2 5.5-2.8 3.8-1 3.8-1.9 7.4-2.8h5.6c3.7 0 5.5 1.8 7.3 2.8 4 .8 5.9 1.8 9.3 3.6 0 1.9 0 4.7 2.2 4.7 1.7 1.7 5.5 3.7 7.3 3.7 0 1.9 0 1.9-1.8 1.9 0 2.8 0 2.8-3.8 2.8-1.7-2.8-3.9-2.8-3.9-4.7 0-2 0 1.9 0 1.9v2.8c-1.6-2.8-1.6-4.7-1.6-6.8 0-3.6-1.8-1.7-1.8 0v3.9c-1.8 0-3.8 0-5.9 0-1.8 0-3.6 0-5.2 0-2 2.8-2 2.8 0 5.6 1.6.8 3.5 1.8 5.2 1.8h5.9c1.8-1 3.4-1 3.4 0h3.9s0 2.7 0 3.7c-1.7 1.1-1.7 2-3.9 2.8 0 0-1.6 1-3.4 1.8-3.8 0-3.8 1-5.9 2 0 1.7-1.8 2.7-3.6 3.7-1.6.8-3.7.8-3.7.8-3.8 0-3.8 0-5.6 0 1.8-2.8 3.6-3.7 3.6-5.6 2-1 2-1.8 2-2.8-3.8 0-3.8 0-5.6 3.8v2.7c0-1.9 0-2.7 0-5.5 0 0-3.6 0-5.7 0-1.8 1.8-1.8 1.8-1.8 3.7h-3.8c-1.7 0 0-.8-1.7-1.8-3.9-2.8-3.9-2.8-3.9-2.8-3.5 1-5.2 1.8-7.5 2.8 0 0 0 1-1.6-1-2 0-2 1-2 2.9h2c0 1.9 1.6 1.9 1.6 1.9h7.5c3.9 0 3.9 0 3.9 1.8-3.9 1.9-3.9 1.9-7.5 1.9-4-.9-4-1.9-4-1.9-3.6 0-3.6 0-5.5 0-1.6 1-3.8 1-1.6 1.9h7.1v3.7c-1.6 0-3.6 0-3.6 0-1.8.9-3.5.9-7.4.9 3.9.1 0-3.7-1.7-4.5z" fill="#fff"/><path clip-path="url(#G)" d="m997.9 244.5s-1.6.9-1.6 1.8c-2 2-5.5 2.8-5.5 2.8-2.2 1-2.2 1.8-3.9 1.8 3.9 0 3.9-.8 5.6-1.8 1.8 0 5.5-.8 5.5-.8v-3.8z" fill="#b9b3ab"/><path clip-path="url(#G)" d="m1016.6 224c2 0 2 .8 2 .8 1.8 1.9 1.8 4.7 1.8 4.7 0-1.8 1.8-3.8 1.8-5.6 0 0 0-1-1.8-1 .1.1.1.1-3.8 1.1z" fill="#b9b3ab"/><path clip-path="url(#G)" d="m1005.4 242.6c-3.5 0 0-1 0-1 3.9-1.8 3.9-3.6 5.6-6.4l2 4.6c1.8 1 1.8 1 5.6 1.8 0 1 1.8 1 0 1-2 0-3.8.9-5.6.9-2 0-2 0-3.7.9-3.9.1-3.9.1-3.9-1.8z" fill="#c1bcb1"/><g clip-path="url(#G)"><path d="m1009.4 245.3c-3.9 0-3.9 0-3.9-2.7-3.5 0 0-1 0-1 0-3.6 3.9-3.6 5.6-6.4 0 0 2 0 3.8 2.8v1.8c1.8 1 1.8 1 3.8 1l1.8 1.8h-1.8c-2 .9-3.8.9-5.6.9-2 0-2 1-3.7 1.8zm1.7-7.2c-1.7 0-1.7 1.8-1.7 3.6-3.9 1-3.9 1-3.9 1s0 .9 3.9.9v.9-.9c1.7 0 1.7-.9 3.7-.9h5.6c-2 0-3.8-1-3.8-1s0-.8-1.8-.8c-2-2.8-2-2.8-2-2.8z" fill="#070606"/></g><g fill="#b9b3ab"><path clip-path="url(#G)" d="m1024.2 224v1.7c1.8 2 1.8 3.8 1.8 5.5 0-1.7 2-1.7 2-3.6 0-3.6 0-3.6-3.8-3.6z"/><path clip-path="url(#G)" d="m1041.1 273.4c-1.8 0 0 0 1.8-.9 1.6-1 1.6-2.9 1.6-2.9 3.9-1.8 3.9-2.7 7.7-2.7 0-.9 1.8-1.9 3.8-.9-2 2.6-2 3.6-3.8 3.6-1.8 1.1-3.8 1.9-3.8 2.9-1.7 0-3.9 0-3.9 2.7-1.6 0-1.6 0-3.4-1.8z"/><path clip-path="url(#G)" d="m1046.7 286.4c1.7-.9 3.7-3.8 5.5-4.7s3.8-2.8 3.8-4.7c0-1.8 1.8-1.8 3.7-4.6 1.6-1 1.6-2.9 1.6-2.9 0 1.1 0 2.9 2 4.7 0 2-2 2.8-2 5.7 0 1-1.6 1.9-3.5 1.9-1.8 1.8-1.8 1.8-3.8 3.7 0 0-1.8.9-3.7.9-1.9 1-1.9 1-3.6 0z"/><path clip-path="url(#G)" d="m1035.2 296.6c-1.8 0 0 0 2-2.8 2-1.7 3.8-1.7 5.7-1.7 1.6 0 1.6-1.9 3.8-2.9 1.7 0 1.7-.9 1.7-.9 2 3.8 2 3.8 0 5.5l-3.9 2s-1.6.8-3.4.8-3.8 1-3.8 0h3.8c-1.8 0-3.8 1.1-5.9 0z"/><path clip-path="url(#G)" d="m1052.2 296.6v-.8s0 .8 1.8-2c2-1.7 2-4.7 3.8-4.7 0-1.8 1.8-1.8 3.5-2.7v5.6c0 1.7-1.6 1.7-3.5 3.7l-1.8 2.8c-1.9.1 0 .1-3.8-1.9z"/></g><path clip-path="url(#G)" d="m1013 240.8c0 1.8-2 1.8-2 1.8s-1.7 0-1.7-1.8c0-1 1.7-2.8 1.7-2.8s2 1.8 2 2.8z" fill="#070606"/><g clip-path="url(#G)"><path clip-path="url(#I)" d="m1016.6 361.1h2c-3.8 0-2 0 5.5 5.6 5.8-2 5.8-2.8 7.5 2.7 1.8 2.8 1.8-.9 5.6-2.7 2 5.5 2 11.1 7.3 5.5 3.9 0 9.5 0 11.5 1.8 3.7 6.6 1.8-.9 5.3 1.8 5.8 1 5.8-6.4 15.3-8.4 3.6 6.6 5.4 1.9 10.9-.8 7.4 0 11.3 7.4 13 0 1.9-5.6 1.9-4.8 5.8 0 3.7 4.7 5.4 0 7.5-2 7.2 2 13.1 2.8 22.4 2 0 4.7 3.4 2.7 7.4 0 7.5 4.7 9.5 4.7 16.8 0 3.4-3.7 1.8.8 5.6 4.7 5.7-2.9 3.8-3.8 11.1-1.9 7.5 0 7.5 0 9.1-4.7 5.8 2.8 5.8 5.7 9.5 2 7.4 0 5.6 0 9.3-2 3.9 7.5 5.8 2 9.3 4.7-3.5 6.4-7.5 9.3-11.1 13.1-3.6 5.6-5.4 11.1-11.1 13-5.8 6.6-11.3 9.4-14.9 13.1-7.3 1.8-14.9 1.8-22.3 1.8h-22.3-24.5-24.4c-5.4 1.8-12.9 3.7-18.4 4.7-9.3 0-16.9 0-20.8-1.8-3.4-2.9-11.1-6.7-14.5-11.2-4-3.8-4-9.4-7.7-13 0-4.7-1.8-11.3-5.7-16.9v-11.1z" fill="#1a3610"/></g><g clip-path="url(#G)"><g clip-path="url(#J)"><path d="m1061.3 416.2c-5.3 0-14.6 0-16.8-1.9-1.6-2-5.3-2.9-7.3-4.8-2-2.8-5.6-3.7-7.3-7.4-2-1.9-4-4.7-4-7.5-1.8-1.9-1.8-3.8-3.6-5.6 0-1 0-5.7-1.8-7.6-1.8-3.7-1.8-6.5-3.8-9.3l-1.8-11.2 1.8-.9h2v.9.9c3.6 1 3.6 2.8 7.3 4.8 2-3.7 4-2.8 5.7 1.8 1.8.9 1.8 0 1.8-1 1.8-.8 1.8-.8 1.8-1.7l2-1.1 2 2c0 3.7 0 7.4 1.8 7.4 0 0 1.8 0 1.8-1.8h3.8c5.5 0 9.3 0 9.3 1.8 1.8 1.8 1.8 1.8 1.8 1.8 0-.8 0-1.8 1.8-1.8l1.6 1.8c3.9-.8 5.8-1.8 5.8-3.6 2-2.8 3.7-4.7 9.5-5.5 1.6 2.7 1.6 2.7 1.6 2.7 3.8 0 3.8 0 7.7-1.9 0 0 1.6-.8 1.6-1.7 3.8.9 3.8.9 7.4 1.7 0 1 0 1.9 3.9 1.9 0 0 0-1.9 1.7-2.7 1.9-7.6 4-5.6 5.8 0h5.4c0-2 0-2 0-2.8 9.3 2.8 15.1 2.8 24.4 1.9 0 1.7 1.8 2.7 1.8 2.7 1.6 0 1.6-1 4-1.8h1.6c7.5 2.7 9.5 4.7 16.8 0 0-.9 1.8-2 1.8-2h1.6v2s0 2.7 2.2 3.7l3.8-1c1.8-1.9 1.8-1.9 7.3-1.9 7.5 0 7.5 0 9.1-3.6v-.9l2.2 1.7c3.6 2.8 3.6 3.8 7.3 1.1h5.6 1.8l1.8-1.9c1.8 3.6 3.9 3.6 5.8 3.6v-.8c1.6 0 3.5.8 3.5 1.8-1.8 8.4-7.5 11.3-11.1 14.9l-1.8 2.9c-1.8 3.7-3.6 8.4-9.3 11.1-3.6 2.8-5.8 4.7-9.3 8.4-2 .9-3.8 2-5.6 3.7-5.4 1.8-13.3 1.8-18.6 1.8h-74.9c-5.4.9-9.3 2.9-16.6 3.8zm-42.6-53.2v9.3c1.8 1.8 1.8 5.6 3.6 9.3 0 1.8 0 5.6 1.8 7.6 1.8.8 1.8 3.6 3.8 5.6 0 2.7 2 4.6 3.7 5.5 1.8 3.8 3.6 6.5 7.6 8.5 1.8 1.8 3.7 3.6 5.3 4.7 3.9.9 11.5.9 16.8.9v.9l2-.9 3.7-.9c5.5-1.1 11.1-1.1 16.6-2.9h71.2 3.7c5.3 0 13.1-1 18.6-2.7 1.8-1.1 3.6-2 3.6-2 3.8-3.6 7.7-6.5 11.3-10.2 3.7-1.9 7.5-6.5 9.3-10.2v-2.8c5.5-3.8 9.4-6.7 12.9-14-1.8.9-1.8.9-3.5.9-4 0-4-1.9-5.8-4.7-1.8 2-1.8 2-3.6 2h-5.6c-3.7 3.7-3.7 1.8-7.3 0-2.2 2.7-3.8 2.7-11.3 2.7-5.4 0-5.4 0-7.3 1l-3.8.9c-2.2-1.9-2.2-3.8-3.8-4.7 0 0 0 0-1.8.8-7.3 4.7-9.3 3.8-16.8 0-5.6 3.8-7.4 3.8-7.4-.8-7.6 2.7-15.2.8-24.4-2v2c-1.8 1.8-3.6 3.7-5.4.8-1.8-.8-3.9-3.6-3.9-3.6l-1.9 3.6s0 3.8-1.7 3.8c-3.9 0-3.9-.9-7.5-1.9 0-1.9 0-2.7-3.8-2.7 0 0 0 .8-1.6 2.7-3.8 2.8-7.7 2.8-9.3-1.9-4 1.9-5.8 3.8-9.5 4.7 0 2.9-1.8 4.7-5.8 4.7l-1.6-1c-1.8 1.9-1.8 2.9-3.7-1.8 0 0-3.8-.9-9.3-.9h-2.2c-1.6 1.9-1.6 2.7-3.4 2.7s-3.8-3.6-3.8-9.2-2 .8-2 1.8c0 1.9-1.8 2.9-1.8 2.9h-1.8v-1.9c-1.6-2.7-3.7-3.6-5.7-1.9-3.6-1.7-7.3-3.6-7.3-3.6v-1.1z" fill="#121a0e"/></g></g><g clip-path="url(#G)"><path clip-path="url(#K)" d="m1177.2 375.9v1.9c0-5.6 0-1.9-3.8 5.5-1.6 2.9-1.6 3.7-3.5 4.8z" fill="#1a3610"/></g><g clip-path="url(#G)"><g clip-path="url(#L)"><path d="m1169.9 389.1c1.8-2.9 1.8-2.9 1.8-5.7 1.6-2.7 3.5-5.5 3.5-6.5l2-2.8h1.8v3.7l-3.8-1.9c2 1.9 0 4.8-1.8 8.5 0 2.7-1.6 3.7-3.5 4.7z" fill="#121a0e"/></g></g><g clip-path="url(#G)"><path clip-path="url(#M)" d="m1162.3 382.5h1.6c-5.3 6.6-9 8.4-10.7 14.9l10.7-14.9c-5.3 6.6-9 8.4-10.7 14.9z" fill="#1a3610"/></g><g clip-path="url(#G)"><g clip-path="url(#N)"><path d="m1153.2 397.4c0-1.8 1.8-2.7 1.8-4.7 1.7-3.6 3.7-4.6 5.5-8.4l3.4-1.8h-1.6 1.6l-3.4 3.7v.9z" fill="#121a0e"/></g></g><g clip-path="url(#G)"><path clip-path="url(#O)" d="m1139.6 374.1s0 6.6-1.6 8.5z" fill="#1a3610"/></g><g clip-path="url(#G)"><g clip-path="url(#P)"><path d="m1138.1 383.4c0-2.7 1.6-8.3 1.6-8.3l2.4-1s-2.5 6.5-4 9.3z" fill="#121a0e"/></g></g><g clip-path="url(#G)"><path clip-path="url(#Q)" d="m1134.2 386.3v1.9-1.9s0 .8 0 0z" fill="#1a3610"/></g><g clip-path="url(#G)"><g clip-path="url(#R)"><path d="m1134.2 386.3v1.9-1.9s0 .8 0 0z" fill="none"/></g></g><g clip-path="url(#G)"><path clip-path="url(#S)" d="m1121 375.9h2.1z" fill="#1a3610"/></g><g clip-path="url(#G)"><g clip-path="url(#T)"><path d="m1121 375.9h2.1z" fill="none"/></g></g><g clip-path="url(#G)"><path clip-path="url(#U)" d="m1028 375.9s3.7 5.7 7.3 7.5c-1.8 5.7-3.6 11.3 0 16.8z" fill="#1a3610"/></g><g clip-path="url(#G)"><g clip-path="url(#V)"><path d="m1035.2 399.3c-3.6-3.8-1.8-10.2-1.8-13.9-1.8-2-3.5-4.7-5.5-7.6l-2-.9 2-1.8s0 .8 2 2.7c1.6.9 3.5 4.7 5.2 5.5v2c.1 3.8-1.6 9.4.1 14z" fill="#121a0e"/></g></g><g clip-path="url(#G)"><path clip-path="url(#W)" d="m1041.1 386.3c1.8 0 3.4 4.7 7.3 8.4l-7.3-8.4c1.8 0 3.4 4.7 7.3 8.4v.9c0-4.7-1.7-10.2 2-13 1.8 2.8 3.7 8.4 5.6 3.7 7.4-.9 11.1-2.9 18.4-5.6 0 2.7 0 1.9 2.2 2.7z" fill="#1a3610"/></g><g clip-path="url(#G)"><g clip-path="url(#X)"><path d="m1048.4 395.6-1.7-.9c-2.2-1.9-2.2-4.7-3.8-5.6 0-1 0-1-1.8-2v-.9-.9c1.8 0 1.8 0 1.8 2.7 1.6 1 1.6 2.8 3.8 4.6 0-3.6 0-8.4 1.7-10.2l2-1 1.8 1.8 1.8 4.8 2-2.7c5.3-1 9.3-2 13.2-3.8l7.5-1.7-2.2 2.7 2.2 1.8c-4-1-4-1-4-1.8l-1.8.8c-3.7 1-9.5 2.9-14.8 3.7 0 0 0 2-2 2-1.8 0-1.8-2-3.7-5.7-2 2-2 5.7-2 11.3z" fill="#121a0e"/></g></g><g clip-path="url(#G)"><path clip-path="url(#Y)" d="m1188.5 377.8h1.6c-3.8 2.8-5.4 7.6-9.3 11.3z" fill="#1a3610"/></g><g clip-path="url(#G)"><g clip-path="url(#Z)"><path d="m1182.8 389.1c0-1 0-2.9 1.8-5.7 1.7-1.8 3.8-4.6 5.4-5.5l-1.6-.9h1.6c-1.6 2.9-3.8 5.6-3.8 8.5-1.5 1.6-1.5 3.6-3.4 3.6z" fill="#121a0e"/></g></g><g clip-path="url(#G)"><path clip-path="url(#aa)" d="m1123.1 372.2h13.1z" fill="#1a3610"/></g><g clip-path="url(#G)"><g clip-path="url(#ab)"><path d="m1123.1 372.2h13.1z" fill="none"/></g></g><path clip-path="url(#G)" d="m1013 385.4c-20.6 0-26.2 21.3-46.5 21.3 0 0 0 0-2 0v1.1c0 13.9 2 26.9 3.7 39.1 18.6-.9 26-20.6 44.8-20.6 20.4 0 28.1 20.6 44.8 20.6 20.4 0 28.1-20.6 48.5-20.6 18.7 0 27.8 20.6 46.9 20.6 18.6 0 25.9-20.6 44.6-20.6 18.4 0 27.7 19.7 44.6 19.7 3.8-11.3 3.8-25.2 3.8-39.3-20.8 0-30.1-21.3-48.5-21.3-18.8 0-26.1 21.3-44.6 21.3-19 0-28.1-21.3-46.9-21.3-20.4 0-28 21.3-48.5 21.3-16.6 0-24.2-21.3-44.7-21.3z" fill="#fff"/><path clip-path="url(#G)" d="m1013 467.5c-15.1 0-22.2 12.1-35.3 16.7 3.6 11.2 9.2 21.3 14.7 30.8 5.5-4.7 13-7.5 20.6-7.5 20.4 0 28.1 21.3 44.8 21.3 20.4 0 28.1-21.3 48.5-21.3 18.7 0 27.8 21.3 46.9 21.3 18.6 0 25.9-21.3 44.6-21.3 7.3 0 13.1 2.8 18.4 7.5 5.8-9.5 13.2-19.6 16.9-30.8-13.1-4.6-20.6-16.7-35.3-16.7-18.8 0-26.1 19.6-44.6 19.6-19 0-28.1-19.6-46.9-19.6-20.4 0-28 19.6-48.5 19.6-16.7 0-24.3-19.6-44.8-19.6z" fill="#fff"/><path clip-path="url(#G)" d="m1106.3 546.7c-20.4 0-28 21.3-48.5 21.3-16.8 0-24.4-19.6-41.2-20.4 24.5 26.2 48.6 41.1 65.5 50.4 5.5-4.8 12.9 5.6 24.2 5.6 7.5 0 16.8-10.3 22.3-5.6 18.7-9.3 43.2-24.2 65.4-50.4-16.8.9-24 20.4-40.8 20.4-19 0-28.1-21.3-46.9-21.3z" fill="#fff"/><g clip-path="url(#G)"><g clip-path="url(#ac)"><path d="m1009.4 506.5-28-29.8c5.5-.9 16.6-5.7 20.6-5.7l31.6 30.8zm-7.5-35.4c-1.6 0-15 4.7-20.6 6.5l28 29 24.1-4.7c-1.8-.9-31.6-29.9-31.6-29.9v-.9z" fill="#36120b"/></g></g><g clip-path="url(#G)"><g clip-path="url(#ad)"><path d="m1042.9 515.8c0-7.4 13.1-45.6 13.1-45.6s-11.5 38.3-13.1 45.6z" fill="#36120b"/></g></g><g clip-path="url(#G)"><g clip-path="url(#ae)"><path d="m1046.7 516.7h-2.2c0-.9 9.5-33.6 11.5-46.5-1.9 14.9-9.3 44.8-9.3 46.5z" fill="#36120b"/></g></g><g clip-path="url(#G)"><g clip-path="url(#af)"><path d="m1050.4 516.7c0-2.7 7.5-46.5 7.5-46.5 1.8 0-5.7 44.8-7.5 46.5z" fill="#36120b"/></g></g><g clip-path="url(#G)"><g clip-path="url(#ag)"><path d="m1042.9 510.3v-.8c1.6-1 9.3-2.9 9.3-2.9 0 .9-7.7 1.9-9.3 3.7z" fill="#36120b"/></g></g><g clip-path="url(#G)"><g clip-path="url(#ah)"><path d="m1044.5 502.9c2.2 0 7.7-1.9 7.7-1.9 0 .9-3.8 1.9-7.7 1.9z" fill="#36120b"/></g></g><g clip-path="url(#G)"><g clip-path="url(#ai)"><path d="m1046.7 498.2c0-1.1 7.3-2 7.3-2z" fill="none"/></g></g><g clip-path="url(#G)"><g clip-path="url(#aj)"><path d="m1048.4 491.6 7.6-1.7z" fill="none"/></g></g><g clip-path="url(#G)"><g clip-path="url(#ak)"><path d="m1052.2 486h3.8z" fill="none"/></g></g><g clip-path="url(#G)"><g clip-path="url(#al)"><path d="m1052.2 480.4c1.8 0 5.6 1 5.6 1z" fill="none"/></g></g><g clip-path="url(#G)"><g clip-path="url(#am)"><path d="m1125.1 547.6c0-12.2-16.9-80.1-16.9-81.2-.1 1.1 16.9 69 16.9 81.2z" fill="#36120b"/></g></g><g clip-path="url(#G)"><g clip-path="url(#an)"><path d="m1119.5 544.8-13.1-77.3c1.8 8.4 14.7 76.4 14.7 76.4z" fill="#36120b"/></g></g><g clip-path="url(#G)"><g clip-path="url(#ao)"><path d="m1111.8 538.3c0-3.8-9.3-70.9-9.3-70.9 2 .1 9.3 67.1 9.3 70.9z" fill="#36120b"/></g></g><g clip-path="url(#G)"><g clip-path="url(#ap)"><path d="m1125.1 537.4c-4-2-13.3-5.7-13.3-5.7s11.3 3.7 13.3 5.7z" fill="#36120b"/></g></g><g clip-path="url(#G)"><g clip-path="url(#aq)"><path d="m1121 526.2c-3.6 0-9.3-3.8-9.3-3.8s5.7 2.8 9.3 2.8z" fill="#36120b"/></g></g><g clip-path="url(#G)"><g clip-path="url(#ar)"><path d="m1119.5 515.8s-7.7-.8-9.5-1.8c9.5 1 9.5 1.8 9.5 1.8z" fill="#36120b"/></g></g><g clip-path="url(#G)"><g clip-path="url(#as)"><path d="m1117.4 504.7-9.3-1.8z" fill="#36120b"/></g></g><g clip-path="url(#G)"><g clip-path="url(#at)"><path d="m1106.3 496.2c3.7-.8 5.4-.8 5.4-.8v-1c.1 0 .1 1.8-5.4 1.8z" fill="#36120b"/></g></g><g clip-path="url(#G)"><g clip-path="url(#au)"><path d="m1106.3 487.9s3.7-1.8 5.4-1.8c-1.8 0-5.4 1-5.4 1z" fill="#36120b"/></g></g><g clip-path="url(#G)"><g clip-path="url(#av)"><path d="m1169.9 529.9c0-9.3-15-59.7-15-59.7 1.7.9 15 50.4 15 59.7z" fill="#36120b"/></g></g><g clip-path="url(#G)"><g clip-path="url(#aw)"><path d="m1163.9 528.9c0-1.7-7.3-39-10.7-58.7 1.7 10.2 10.7 57.8 10.7 58.7z" fill="#36120b"/></g></g><g clip-path="url(#G)"><g clip-path="url(#ax)"><path d="m1158.6 524.3c0-3.7-7.5-54.1-7.5-54.1s7.5 50.4 7.5 53.2z" fill="#36120b"/></g></g><g clip-path="url(#G)"><g clip-path="url(#ay)"><path d="m1169.9 522.4c-2-.9-11.3-3.7-11.3-3.7s9.3 1.9 11.3 3.7z" fill="#36120b"/></g></g><g clip-path="url(#G)"><g clip-path="url(#az)"><path d="m1166.1 514c-2.2 0-7.5-3.7-7.5-3.7z" fill="none"/></g></g><g clip-path="url(#G)"><g clip-path="url(#aA)"><path d="m1163.9 506.5s-5.3-1.8-7.3-1.8c7.3.8 7.3 1.8 7.3 1.8z" fill="#36120b"/></g></g><g clip-path="url(#G)"><g clip-path="url(#aB)"><path d="m1162.3 498.2-7.4-1h9z" fill="#36120b"/></g></g><g clip-path="url(#G)"><g clip-path="url(#aC)"><path d="m1154.9 491.6h3.7s0 0-3.7 0z" fill="#36120b"/></g></g><g clip-path="url(#G)"><g clip-path="url(#aD)"><path d="m1158.6 484.2c-2 0-5.4.9-5.4.9z" fill="none"/></g></g><path clip-path="url(#G)" d="m1100.5 537.4v-142.7s5.8-1 5.8 0v142.8c-1.8-.1-5.8-.1-5.8-.1z" fill="#d0713c"/><g clip-path="url(#G)"><g clip-path="url(#aE)"><path d="m1100.5 537.4v-142.7s4-1 5.8-1v1c-3.9 0-5.8 0-5.8 0v142.7c1.9 0 4 0 5.8-1 0-1.9 0-83 0-121.2v121.2s-3.8 1-5.8 1z" fill="#36120b"/></g></g><path clip-path="url(#G)" d="m1154.9 400.2c0 1.9-1.8 120.4-1.8 120.4l-4 4.6v-125z" fill="#d0713c"/><g clip-path="url(#G)"><g clip-path="url(#aF)"><path d="m1147.3 526.2v-1l1.8-125h5.8c0 1.9-1.8 120.4-1.8 120.4zm5.9-126h-4v124.1l4-3.7s0-118.5 0-120.4z" fill="#36120b"/></g></g><path clip-path="url(#G)" d="m1041.1 514s3.4 57.9 67 56.8c61.8-1.7 78.2-60.6 78.2-60.6l-25.9-.8c-1.8 0-20.8 28-48.7 28-28.1-1-35.1-7.5-44.6-13.1-3.7-6.5-9.3-14.9-9.3-14.9l-29.9-12.3v11.3z" fill="#d0713c"/><g clip-path="url(#G)"><g clip-path="url(#aG)"><path d="m1104.5 570.8c-60 0-63.4-55.8-63.4-56.8l-13.1-5.5-2-11.3 31.9 11.3s5.5 9.4 11.3 14.9c7.5 6.5 14.5 12 42.6 13 13.3 0 27.9-4.6 46.9-26.1l1.8-.8 28 .8c0 2-18.6 59.7-80.4 60.6h-3.6zm-78.6-73.6 4 11.3 11.1 5.5c0 1 3.4 56 63.4 56h3.6c61.8-.9 78.2-57.7 78.2-59.7 0 2-25.9-.8-25.9-.8-18.4 22.3-35.4 28-48.7 28-28.1-1-35.1-6.7-44.6-13.1-3.7-5.7-9.3-14.9-9.3-14.9z" fill="#36120b"/></g></g><path clip-path="url(#G)" d="m1206.9 507.5c0-2-1.8-7.5-1.8-7.5v-7.4l3.9-6.5-46.7 7.5v13z" fill="#d0713c"/><g clip-path="url(#G)"><g clip-path="url(#aH)"><path d="m1206.9 507.5h-44.7c0-14.9 0-14.9 0-14.9s0 0 46.7-6.5l-3.9 6.5v7.4c.1 0 1.9 5.5 1.9 7.5zm0-21.5c-14.8 3.8-43 7.5-44.7 7.5v13h44.7c-1.8-1.8-1.8-6.5-1.8-6.5v-7.4z" fill="#36120b"/></g></g><g clip-path="url(#G)"><g clip-path="url(#aI)"><path d="m1205.1 504.7h-7.3l1.8-12.1h3.6zm-1.9-12.1h-3.6l-1.8 12.1h5.4z" fill="#36120b"/></g></g><g clip-path="url(#G)"><g clip-path="url(#aJ)"><path d="m1192.1 506.5v-13l3.7-.9v12.9zm3.7-13h-3.7v12l1.8-.8z" fill="#36120b"/></g></g><g clip-path="url(#G)"><g clip-path="url(#aK)"><path d="m1182.8 506.5v-9.4l5.6-2.7v9.4zm5.7-12.1-5.6 2.7v8.4l5.6-1.7z" fill="#36120b"/></g></g><g clip-path="url(#G)"><g clip-path="url(#aL)"><path d="m1180.8 506.5-7.5-1v-8.4h7.5zm-5.6-9.3-1.8 8.4 7.5 1v-9.4z" fill="#36120b"/></g></g><g clip-path="url(#G)"><g clip-path="url(#aM)"><path d="m1169.9 506.5-6-1v-7.3l6-1z" fill="#36120b"/></g></g><g clip-path="url(#G)"><g clip-path="url(#aN)"><path d="m1065.3 533.6-13-17.8c-5.5-.8-13-1.8-15-1.8v-1.7c2 0 15 2.7 15 2.7z" fill="#36120b"/></g></g><g clip-path="url(#G)"><g clip-path="url(#aO)"><path d="m1110 553.2c-42.9 0-57.7-25.1-63.3-37.4v-.8.8c5.5 11.3 20.4 37.4 63.3 37.4 50.5 0 63.4-42.9 63.4-42.9 1.8 0-11.1 42.9-63.4 42.9z" fill="#36120b"/></g></g><g clip-path="url(#G)"><g clip-path="url(#aP)"><path d="m1113.8 566.3c-2 0-2 0-3.8 0-48.6-6.6-54-25.2-59.6-34.5-3.7-9.4-5.9-16.7-5.9-16.7s2.2 7.4 7.7 16.7c3.8 9.4 9.1 27.1 57.7 31.7 48.6 4.5 72.9-51.2 72.9-51.2s-24.2 54-69 54z" fill="#36120b"/></g></g><path clip-path="url(#G)" d="m1057.9 509.4c0-2.9 0-105.5 0-105.5h-1.8v103.6z" fill="#d0713c"/><g clip-path="url(#G)"><g clip-path="url(#aQ)"><path d="m1057.9 509.4-1.8-1v-104.4h1.8c1.8 3.8 1.8 102.5 0 105.4zm-1.9-105.4v103.6l1.8.9c0-7.5 0-102.7 0-104.5z" fill="#36120b"/></g></g><path clip-path="url(#G)" d="m981.3 475.8 41 21.3v2.8l-41-19.6c0 .1 0-2.7 0-4.5z" fill="#d0713c"/><g clip-path="url(#G)"><g clip-path="url(#aR)"><path d="m1022.3 500c-41-18.6-41-19.6-41-19.6v-3.6l41 20.4zm-41-23.2v3.6s24.1 11.2 41 18.7v-1.9z" fill="#36120b"/></g></g><path clip-path="url(#G)" d="m997.9 470.2c0 1.8 7.5 36.3 7.5 36.3h5.6l-9.2-36.3z" fill="#d0713c"/><g clip-path="url(#G)"><g clip-path="url(#aS)"><path d="m1011.1 506.5c-1.7 0-5.6 0-5.6 0 0-1.8-7.5-34.5-7.5-36.3h7.5c0 6.6 5.6 35.3 5.6 35.3zm-5.7-1h5.6v1-1c0-.8-5.6-22.4-9.2-35.3h-4c2.5.9 7.6 23.3 7.6 35.3z" fill="#36120b"/></g></g><path clip-path="url(#G)" d="m1039.3 471.1c1.8 0 37.4-5.6 37.4-5.6v5.6l-35.6 4.7z" fill="#d0713c"/><g clip-path="url(#G)"><g clip-path="url(#aT)"><path d="m1041.1 475.8-1.8-4.7c1.8 0 37.4-6.5 37.4-6.5v6.5zm35.6-10.3s-35.6 5.6-37.4 5.6l1.8 4.7 35.6-4.7z" fill="#36120b"/></g></g><path clip-path="url(#G)" d="m1044.5 423.6s11.5 5.7 16.8 5.7c5.8-2.9 0-6.6 2-6.6 1.9 0 3.7 2.7 7.4.9 1.8-2.8 3.6-9.3 1.8-8.4.1 0-28 11.1-28 8.4z" fill="#f3d12a"/><g clip-path="url(#G)"><g clip-path="url(#aU)"><path d="m1057.9 429.2c-1.8 0-9.4-2.9-13.3-3.8v-.8c3.9-1 28.1-9.4 28.1-9.4 1.8 1 0 6.6-1.8 8.4-1.6 1-3.7 1-5.5 0 0 0 0 4.7-3.9 5.7-.2-.1-1.8-.1-3.6-.1zm14.7-14c0 1-22.2 9.4-28.1 9.4 5.9 1.7 13.3 4.7 16.8 3.7 2-.9 2-3.7 2-3.7l1.9-1c1.8 0 1.8 1 5.5 0 1.9-2.9 3.7-7.4 1.9-8.4z" fill="#36120b"/></g></g><path clip-path="url(#G)" d="m1039.3 437.6c3.7.9 42.9-11.3 42.9-11.3v2.9l-42.9 12z" fill="#d0713c"/><g clip-path="url(#G)"><g clip-path="url(#aV)"><path d="m1039.3 442.2v-4.7c3.7 0 42.9-11.3 42.9-11.3v3.8c-1.8 0-28.1 7.5-42.9 11.1zm42.8-15.9c-1.8 1.1-39.2 12.2-42.9 12.2v2.7c9.2-2.7 42.9-12 42.9-12s0-.9 0-2.9z" fill="#36120b"/></g></g><path clip-path="url(#G)" d="m1138.1 420.7s1.6 7.6 5.6 5.6c3.7-1.7 3.7-3.6 3.7-3.6s3.8 6.6 7.6 5.6c3.7-2 3.7-8.5 3.7-8.5s5.3.9 7.5.9c1.8-.9 3.8-9.4 3.8-9.4z" fill="#f3d12a"/><g clip-path="url(#G)"><g clip-path="url(#aW)"><path d="m1153.2 428.3c-2 0-5.8-4.7-5.8-4.7s0 1.8-3.7 2.7c-4 0-5.6-5.6-5.6-5.6l31.9-9.4c0 .9-2 9.4-3.8 9.4-3.8 0-5.6 0-7.5 0 1.8 0 0 5.6-3.7 7.6zm-5.9-5.7s3.8 4.7 5.8 4.7v.9l1.8-.9c3.7-1.1 3.7-7.6 3.7-7.6 1.8 0 3.6.9 5.3.9 2.2-.9 6-6.5 6-9.4l-31.9 9.4c0 1 4 5.6 5.6 5.6 1.9-1.6 3.7-3.6 3.7-3.6z" fill="#36120b"/></g></g><path clip-path="url(#G)" d="m1136.2 475.8c0 .9 1.8 4.5 3.4 4.5 4 0 4-4.5 5.8-3.6 0 0 0 6.4 5.7 4.7 7.5-1 7.5-5.6 7.5-5.6s-2 0 1.8.9c5.6.8 9.4-6.6 9.4-6.6z" fill="#f3d12a"/><g clip-path="url(#G)"><g clip-path="url(#aX)"><path d="m1149.2 482.3c-3.7 0-3.7-2.7-3.7-4.7-1.8 1-3.4 2.8-5.8 2.8-1.6 0-3.4-1.8-3.4-1.8v-1.8c1.8 2.8 5.8 2.8 7.4.8h1.8c0 2 1.8 4.7 5.7 3.9 5.5-1 7.5-3.9 7.5-5.6 0 0 0 0 1.8.9 5.6 0 9.4-6.6 9.4-6.6s-2 0-6 .9c-7.3 1.9-18.4 4.7-25.8 4.7 7.4-1 18.6-3.8 25.8-5.6h6s-3.8 7.4-9.4 7.4c-1.8-.8-1.8-.8-1.8-1.7 0 1.7-2 4.5-7.5 5.6z" fill="#36120b"/></g></g><path clip-path="url(#G)" d="m1041.1 421.7c0 1.8 1.8 4.5 1.8 4.5l33.7-12v-2c-2.2 0-35.6 10.4-35.6 10.4v-.9z" fill="#d0713c"/><g clip-path="url(#G)"><g clip-path="url(#aY)"><path d="m1042.9 427.4h-1.8c0-1.1 0-3.8 0-5.6 1.8 0 13-3.7 20.2-6.6 7.8-2.9 15.3-3.8 15.3-3.8v2.9zm33.8-15.1c-2.2 0-9.5 2-15.3 3.9-10.9 3.7-18.4 5.6-20.2 5.6 0 1.8 1.8 3.6 1.8 3.6l33.7-11.1c0-.9 0-2 0-2z" fill="#36120b"/></g></g><path clip-path="url(#G)" d="m1085.9 413.4c1.6 0 39.1-11.2 39.1-11.2v4.6l-37.5 10.3z" fill="#d0713c"/><g clip-path="url(#G)"><g clip-path="url(#aZ)"><path d="m1087.6 418-1.6-3.7c1.6-.9 24-7.6 39.1-12.1v4.6s-24.5 8.5-33.7 11.3h-3.8zm37.5-15.9c-4 1.8-37.5 12.1-39.1 12.1l5.5 2.7c7.5-2.7 33.7-10.3 33.7-10.3s-.1-1.6-.1-4.5z" fill="#36120b"/></g></g><path clip-path="url(#G)" d="m1136.2 438.5s-7.6 5.6-5.6 14.9 5.6 16.8 5.6 16.8 5.8-12.2 11.1-12.2c7.6 0 18.8 6.7 18.8 6.7s-2.2-15-2.2-21.5c2.2-6.5 9.5-16.9 9.5-16.9z" fill="#f3d12a"/><g clip-path="url(#G)"><g clip-path="url(#a0)"><path d="m1136.2 470.2s-5.6-12.2-5.6-16.8c-2-9.3 5.6-14.9 5.6-14.9l37.2-12.2c0 1.1-7.3 11.3-9.5 16.9 0 6.5 2.2 21.5 2.2 21.5-2.2 0-11.1-6.7-18.8-6.7-3.7 0-9.3 7.6-11.1 10.3zm0-31.7s-7.6 5.6-5.6 14.9 5.6 14.8 5.6 16.8v-1.9c1.8-3.6 7.4-10.3 11.1-10.3 7.6 0 16.6 5.6 18.8 6.7 0 0-2.2-15-2.2-21.5s9.5-15.8 9.5-16.9z" fill="#36120b"/></g></g><path clip-path="url(#G)" d="m1083.7 429.2-1.6 4.6c1.6 0 48.5-13.1 48.5-13.1v-2.7z" fill="#d0713c"/><g clip-path="url(#G)"><g clip-path="url(#a1)"><path d="m1082.1 433.8s0-3.8 0-5.6l48.5-10.3v2.7c-9.6 4-46.9 13.2-48.5 13.2zm48.5-15.8-46.9 11.2-1.6 4.6c3.8-1 31.7-9.3 48.5-13.1z" fill="#36120b"/></g></g><g clip-path="url(#G)"><path clip-path="url(#a2)" d="m1025.9 497.2s-11.1-1.7-11.1 1.1 7.4 4.6 7.4 7.3c0 0-1.8 8.5 0 8.5 3.6-1.7 7.7-4.6 7.7-5.5 0-1.9 0-9.4 0-9.4z" fill="#b1aca0"/></g><g clip-path="url(#G)"><g clip-path="url(#a3)"><path d="m1022.3 514c0-1.7 0-4.6 0-5.5 0-1.9 0-1.9 0-1.9 0-1.8-1.8-2.7-3.6-3.6 0 0-3.8-2.9-3.8-4.6 1.8-3.8 11.1-1.1 11.1-1.1l4 1.1v10.2c0 .8-4.1 3.7-7.7 5.4zm-1.8-16.8c-3.8 0-3.8 0-5.6 0 1.8 2.8 3.8 4.7 5.6 5.7 1.8 0 1.8 1.8 1.8 1.8v3.7 3.8 1.7-1.7c3.6 0 7.7-2.9 7.7-3.8 0-1.9-2-9.4-2-9.4l-2-1.9c-.1.1-3.7.1-5.5.1z" fill="#36120b"/></g></g><path clip-path="url(#G)" d="m1085.9 470.2v2.8l39.2-4.7v-3.7z" fill="#d0713c"/><g clip-path="url(#G)"><g clip-path="url(#a4)"><path d="m1085.9 473.9v-3.7l39.1-5.6v2.9zm39.2-9.3-39.1 5.6v2.8l39.1-5.5z" fill="#36120b"/></g></g><path clip-path="url(#G)" d="m1041.1 475.8s0 4.5 3.4 4.5c3.9-1.8 3.9-4.5 3.9-4.5s2 6.5 7.6 5.6c5.3-1 9.3-6.6 9.3-6.6s1.8 4.7 3.9 2.7c3.5-1.7 5.3-5.5 5.3-5.5l-31.5 4.7z" fill="#f3d12a"/><g clip-path="url(#G)"><g clip-path="url(#a5)"><path d="m1056 481.4c-3.8 0-5.6-3.9-7.6-5.6 0 1.7-1.7 3.7-3.9 4.5-1.6 0-3.4-2.8-3.4-2.8l33.3-6.5c0 1.9 0 4.7-5.3 6.5-2 1-3.9-1.7-3.9-1.7s-3.9 5.6-9.2 5.6zm-7.6-5.6c2 .9 3.8 5.6 7.6 5.6 5.3-1 9.3-6.6 9.3-6.6l1.8 2.7c5.5-1.7 7.3-5.5 7.3-5.5zm0 0-5.5 1.7s0 2.8 1.6 2.8c2.2-1.7 3.9-3.5 3.9-4.5z" fill="#36120b"/></g></g><path clip-path="url(#G)" d="m1041.1 441.2s-5.9 1.9-3.8 12.2c2 11.2 5.7 16.8 5.7 16.8 1.6 0 3.8-9.4 11.1-12.2 5.6 0 16.8 6.7 16.8 6.7s-1.6-11.2 0-18.7c1.8-9.3 7.5-14.9 7.5-14.9s-35.5 10.1-37.3 10.1z" fill="#f3d12a"/><g clip-path="url(#G)"><g clip-path="url(#a6)"><path d="m1042.9 470.2s-3.7-5.6-7.7-16.8c0-10.3 5.9-12.2 5.9-12.2 1.8 0 22.3-6.6 37.2-11.1 0 .9-3.8 7.5-5.6 15.9-1.8 7.5-1.8 18.7-1.8 18.7s-9.5-4.7-14.8-4.7c0 0 0 0-2 0-5.6.9-9.5 6.6-9.5 9.4zm-1.8-29s-5.9 1.9-3.8 12.2c2 11.2 5.7 15.8 5.7 15.8 1.6-3.7 5.5-8.5 11.1-11.3 5.6 0 15.1 5.6 16.8 6.7 0 0-1.6-11.2 0-19.7 1.8-8.3 7.5-13.9 7.5-13.9-1.7 1.8-35.5 10.2-37.3 10.2z" fill="#36120b"/></g></g><path clip-path="url(#G)" d="m1132.6 472v3.8l37.3-5.6v-3.7c0-.1-37.3 6.5-37.3 5.5z" fill="#d0713c"/><g clip-path="url(#G)"><g clip-path="url(#a7)"><path d="m1132.6 475.8v-3.8c3.6-.9 20.6-3.8 29.7-5.6 5.7 0 7.7-.9 7.7-.9s1.8 0 1.8 4.7c0 0 0 0-39.2 5.6zm37.3-9.4s-2 0-6 1c-10.7 2.7-27.7 5.5-31.3 5.5v2.8c14.7-2.8 37.3-5.6 37.3-5.6 0-2.6 0-3.7 0-3.7z" fill="#36120b"/></g></g><path clip-path="url(#G)" d="m1130.6 434.7 2 3.8 44.6-12.2 1.8-3.6c-1.8-.1-46.4 14-48.4 12z" fill="#d0713c"/><g clip-path="url(#G)"><g clip-path="url(#a8)"><path d="m1132.6 439.4-2-4.7c5.6 0 29.9-6.4 41.2-11.1 5.4-.9 5.4-.9 7.3-.9 0 .9 0 1.9-1.8 3.6zm44.6-15.8s-2 0-5.4 1c-11.3 3.7-35.5 10.1-39.2 10.1v3.8l44.6-12.2c0-1.7 0-2.7 0-2.7z" fill="#36120b"/></g></g><g clip-path="url(#G)"><g clip-path="url(#a9)"><path d="m1136.2 420.7s0-2.7 0-3.7c3.4 0 18.7-4.7 27.7-6.5 4-1.8 6-2.7 6-2.7 1.8.9 1.8 2.7 0 3.6 0 .9-33.7 9.3-33.7 9.3zm33.7-12s-2 1.8-6 2.6c-9 2-24.3 6.7-25.8 6.7-1.8 0-1.8 1.8-1.8 1.8 3.4 0 33.7-7.5 33.7-7.5-.1-1.8 1.8-3.6-.1-3.6z" fill="#36120b"/></g></g><g clip-path="url(#G)"><g clip-path="url(#ba)"><path d="m1205.1 483.1-31.7-54.8 33.5 54.8z" fill="#36120b"/></g></g><g clip-path="url(#G)"><g clip-path="url(#bb)"><path d="m1169.9 466.4c0-1.8 1.8-27.1 1.8-37.2.1 1.8-1.8 35.4-1.8 37.2z" fill="#36120b"/></g></g><path clip-path="url(#G)" d="m1087.6 415.2c0 1 3.8 6.6 7.4 5.5 3.9-.9 5.5-4.6 5.5-4.6s0 6.5 5.8 5.6c3.7-1 3.7-5.6 3.7-5.6s1.8 1.8 7.5 0c3.6-1.9 7.6-9.5 5.7-9.5-2.2.1-35.6 9.6-35.6 8.6z" fill="#f3d12a"/><g clip-path="url(#G)"><g clip-path="url(#bc)"><path d="m1104.5 421.7h-2.1c-1.9-1.9-1.9-3.7-1.9-4.7 0 1-1.7 2.8-5.5 3.7 0 0-3.6-.9-3.6-2.7-3.8-1-3.8-1.8-3.8-1.8 0-1 13-3.9 22.4-7.4 7.5-2 11.1-2.9 13.1-2.9 2 2-2.1 9.4-5.7 11.2-3.6 1-7.5 0-7.5 0s0 3.7-3.7 4.7h-1.7zm-4-5.5s0 3.7 1.9 4.6l2.1 1h1.8c3.7-1 3.7-5.6 3.7-5.6l1.8.8c2 0 2-.8 5.7-.8 2-1.9 5.7-9.5 3.6-9.5 0 0-7.2 1.1-11.1 3.8-9.4 1.8-18.6 4.7-22.4 5.6 0 0 3.8.8 3.8 1.8l3.6 2.7c3.9-1.7 5.5-4.4 5.5-4.4z" fill="#36120b"/></g></g><path clip-path="url(#G)" d="m1085.9 431.9c0 .9-5.7 9.3-3.8 19.7 1.6 8.3 5.5 16.6 5.5 16.6s7.4-10.3 17-12c7.2-2.8 20.5 6.5 18.6 6.5 0 0-3.7-9.3-3.7-16.8 0-5.6 7.5-24.2 7.5-24.2z" fill="#f3d12a"/><g clip-path="url(#G)"><g clip-path="url(#bd)"><path d="m1087.6 468.3s-3.9-10.3-5.5-16.6c-1.8-8.5 1.6-15 3.8-17.8v-1.9l41-10.2s-5.9 18.6-5.9 24.2c0 5.7 0 14.9 2.1 16.8-2.1-.9-13.1-6.5-18.6-4.8-4 0-13.1 6.7-13.1 8.5-3.8 1.8-3.8 1.8-3.8 1.8zm-1.7-36.4c1.6 0 0 .9 0 .9 0 3.8-3.8 10.3-3.8 18.8 1.6 6.4 5.5 14.8 5.5 15.9v-1c3.8-2.9 13-8.5 17-10.2 5.4-2.8 16.5 4.5 18.6 5.6-2.1-1-3.7-10.2-3.7-15.9 0-5.6 7.5-23.3 7.5-23.3z" fill="#36120b"/></g></g><path clip-path="url(#G)" d="m1085.9 473c0 1.8 1.6 4.6 5.5 4.6 3.6 0 3.6-2.7 3.6-2.7s0 5.5 7.5 5.5c5.7-.8 7.5-7.4 7.5-7.4s0 2.8 7.5 2.8c5.7-2.8 11.1-7.6 9.5-7.6-.1.1-39.4 7.6-41.1 4.8z" fill="#f3d12a"/><g clip-path="url(#G)"><g clip-path="url(#be)"><path d="m1100.5 480.4s0 0-1.7-1.8c-3.9-1-3.9-2.7-3.9-2.7s0 1.7-3.6 1.7c-3.8 0-5.5-2.7-5.5-4.6 5.5 0 25.8-2.8 39.1-4.7l1.8-.8c1.7.8-5.9 6.5-9.5 8.4-5.7 0-7.5-1-7.5-1.9 0 1.9-1.8 6.5-7.5 6.5h-1.7zm-5.5-6.5c0 .9 0 2.8 3.9 4.6 1.7 1 1.7 1 1.7 1v.8l1.9-.8c5.7 0 7.5-6.6 7.5-6.6s1.8 2.8 7.5 1.8c3.6-1.8 7.6-5.6 9.5-6.6-1.8 0-1.8 0-1.8 0-13.3 1.9-33.7 6.6-37.5 6.6s0 1.9 3.8 1.9c3.5.2 3.5-1.8 3.5-2.7z" fill="#36120b"/></g></g><g clip-path="url(#G)"><path clip-path="url(#bf)" d="m1091.4 441.2s3.6 1.9 3.6 3.7l-3.6 2.8c-3.8 0-3.8-1.8-3.8-1.8 0-2.7 3.8-4.7 3.8-4.7z" fill="#aa0007"/></g><g clip-path="url(#G)"><g clip-path="url(#bg)"><path d="m1091.4 448.7-3.8-.9c0-1.8 0-1.8 0-1.8 0-2.8 0-4.7 3.8-4.7 0 0 0 0 3.6 1v2.7z" fill="#36120b"/></g></g><g clip-path="url(#G)"><path clip-path="url(#bh)" d="m1111.8 436.7s2 1.8 2 3.6c-2 .9-2 2.9-2 1.9-1.8 0-3.6-1-3.6-1.9-.1-1.8 1.8-3.6 3.6-3.6z" fill="#aa0007"/></g><g clip-path="url(#G)"><g clip-path="url(#bi)"><path d="m1111.8 443.2c-1.8 0-3.6-1.9-3.6-2.9 0-2.7 1.8-3.6 3.6-3.6 0 0 2 .9 2 3.6 0 .9-2 2.9-2 2.9zm0-6.5c-1.8 0-1.8 1.8-1.8 3.6 0 .9 0 1.9 1.8 1.9s0-1 0-1.9c0-1.8 0-3.6 0-3.6z" fill="#36120b"/></g></g><g clip-path="url(#G)"><path clip-path="url(#bj)" d="m1100.5 447.8c1.9 0 4 .9 4 3.8 0 0-2.1 1.8-4 1.8v-1.8c0-2.9 0-3.8 0-3.8z" fill="#aa0007"/></g><g clip-path="url(#G)"><g clip-path="url(#bk)"><path d="m1100.5 453.4-1.7-1.8c0-2.9 1.7-4.8 1.7-4.8 1.9 0 5.8 1.8 4 4.8 0 0-2 1.8-4 1.8zm0-5.6v3.8 1.8c1.9 0 4-1.8 4-1.8 0-2-2-3.8-4-3.8z" fill="#36120b"/></g></g><g clip-path="url(#G)"><path clip-path="url(#bl)" d="m1100.5 431c1.9 0 4 1.8 4 3.7 0 2-2.1 2-4 2v-2c0-1.9 0-3.7 0-3.7z" fill="#aa0007"/></g><g clip-path="url(#G)"><g clip-path="url(#bm)"><path d="m1100.5 437.6-1.7-2.9c0-1.8 1.7-3.7 1.7-3.7 1.9 0 5.8 1.8 4 3.7 0 2-2 2.9-4 2.9zm0-5.7v2.7 2c1.9 0 4-1.1 4-1.1 0-1.7-2-3.6-4-3.6z" fill="#36120b"/></g></g><g clip-path="url(#G)"><g clip-path="url(#bn)"><path d="m1182.8 487.1c-2 0-57.8-81.3-57.8-81.3-2-1.8-18.7-10.2-18.7-10.2s18.7 8.4 18.7 9.4c.1 1.7 55.8 81 57.8 82.1z" fill="#36120b"/></g></g><g clip-path="url(#G)"><g clip-path="url(#bo)"><path d="m1171.8 423.6-1.9-12.3-16.7-5.5v-.8l16.7 6.3z" fill="#36120b"/></g></g><g clip-path="url(#G)"><g clip-path="url(#bp)"><path d="m1076.7 428.3-2.2-11.3c-16.6-13-16.6-13-16.6-13s9.3 8.3 16.6 13z" fill="#36120b"/></g></g><g clip-path="url(#G)"><g clip-path="url(#bq)"><path d="m997.9 486c7.5-3.8 59.9-51.4 59.9-52.2.1 1.8-52.4 49.3-59.9 52.2z" fill="#36120b"/></g></g><g clip-path="url(#G)"><g clip-path="url(#br)"><path d="m985.2 477.6v-.8c5.6-5.7 59.4-53.2 59.4-53.2s-53.8 47.5-59.4 54z" fill="#36120b"/></g></g><g clip-path="url(#G)"><g clip-path="url(#bs)"><path d="m1142.1 529.9-60-97.1v-.9z" fill="#36120b"/></g></g><g clip-path="url(#G)"><g clip-path="url(#bt)"><path d="m1160.5 507.5c-1.8 0-7.3-5.7-13.1-8.5-7.7-3.6-11.1-24.2-13.2-26.1h2s5.8 21.4 11.1 25.2c5.9 3.8 13.2 9.4 13.2 9.4z" fill="#36120b"/></g></g><g clip-path="url(#G)"><g clip-path="url(#bu)"><path d="m1158.6 515c-2 0-9.5-5.6-13.1-10.3-7.4-4.7-11.3-29.9-12.9-30.8h1.6s3.9 26.1 11.3 30.8c5.7 4.7 13.1 10.3 13.1 10.3z" fill="#36120b"/></g></g><g clip-path="url(#G)"><g clip-path="url(#bv)"><path d="m1132.6 531.8c-2 0-11.5-5.5-26.3-13.9-14.9-9.4-18.7-44.8-20.4-46.7h1.6s7.4 37.4 18.7 45.6c14.8 8.4 26.4 15 26.4 15z" fill="#36120b"/></g></g><g clip-path="url(#G)"><g clip-path="url(#bw)"><path d="m1142.1 526.2s-17-7.6-30.3-17.8c-11.2-8.5-25.8-37.4-25.8-37.4v-.9c1.6.9 14.6 29.8 25.8 38.3 13.3 9.4 30.3 17.8 30.3 17.8z" fill="#36120b"/></g></g><g clip-path="url(#G)"><g clip-path="url(#bx)"><path d="m1059.7 512.3c-1.8 0-7.5-10.4-11.3-15.1-3.9-2.7-3.9-6.5-3.9-12 0-4.7-1.6-9.3-1.6-11.2v-1c1.6 2.8 1.6 7.4 1.6 12.1 0 4.8 0 9.3 3.9 12 5.7 4.8 11.3 15.2 11.3 15.2z" fill="#36120b"/></g></g><g clip-path="url(#G)"><g clip-path="url(#by)"><path d="m1083.7 531.8c-1.6 0-27.7-28.9-29.7-32.7-1.8-2.8-5.6-10.2-9.5-15.9 0-3.6-1.6-7.3-1.6-7.3v-1.9c1.6 1.9 1.6 4.6 1.6 9.2 3.9 4.7 7.7 12.3 11.5 15.9 0 3.8 27.7 32.7 27.7 32.7z" fill="#36120b"/></g></g><path clip-path="url(#G)" d="m1074.4 533.6c0 2.8-1.8 3.8-3.6 3.8-3.7 0-3.7-1-3.7-3.8 0-1.8 0-3.7 3.7-3.7 1.8 0 3.6 1.9 3.6 3.7z" fill="#070606"/><g clip-path="url(#G)"><g clip-path="url(#bz)"><path d="m1070.8 538.3c-3.7 0-3.7-1.9-3.7-4.7 0-4.8 9.5-4.8 9.5 0 .1 2.8-4 4.7-5.8 4.7zm0-8.4c-3.7 0-3.7 1.9-3.7 3.7 0 3.8 7.3 3.8 7.3 0 0-1.8-1.8-3.7-3.6-3.7z" fill="#36120b"/></g></g><path clip-path="url(#G)" d="m1095 542c0 1.9-3.6 4.7-3.6 4.7-3.8 0-3.8-2.8-3.8-4.7 0-1.8 0-3.6 3.8-3.6 0-.1 3.6 1.8 3.6 3.6z" fill="#070606"/><g clip-path="url(#G)"><g clip-path="url(#bA)"><path d="m1091.4 546.7c-3.8 0-3.8-1.9-3.8-4.7 0-3.6 7.4-3.6 7.4 0 0 2.8-3.6 4.7-3.6 4.7zm0-7.5c-3.8 0-3.8 1-3.8 2.8 0 3.8 7.4 3.8 7.4 0 0-1.8-3.6-2.8-3.6-2.8z" fill="#36120b"/></g></g><path clip-path="url(#G)" d="m1123.1 544.8c0 2.8-2.1 3.7-3.7 3.7-5.6 0-7.7-.9-7.7-3.7s2-3.7 7.7-3.7c1.6 0 3.7.9 3.7 3.7z" fill="#070606"/><g clip-path="url(#G)"><g clip-path="url(#bB)"><path d="m1119.5 548.5c-5.6 0-7.7-.9-7.7-3.7 0-4.6 11.3-4.6 11.3 0 0 2.8-2.1 3.7-3.6 3.7zm0-6.5c-2 0-7.7 0-7.7 2.8 0 3.7 9.3 3.7 9.3 0-.1-2.8-.1-2.8-1.6-2.8z" fill="#36120b"/></g></g><path clip-path="url(#G)" d="m1145.5 536.4s-1.8 2.8-3.4 2.8c-2.4 0-4-1.7-4-1.7 0-2.9 1.6-4.7 4-4.7 1.6-.1 3.4 1.7 3.4 3.6z" fill="#070606"/><g clip-path="url(#G)"><g clip-path="url(#bC)"><path d="m1142.1 540.2c-2.4 0-4-1.8-4-3.8 0-4.6 7.4-4.6 7.4 0 0 1.9-1.8 3.8-3.4 3.8zm0-7.5c-2.4 0-4 1.8-4 3.7 0 2.8 5.6 2.8 5.6 0 0-1.9-1.6-3.7-1.6-3.7z" fill="#36120b"/></g></g><path clip-path="url(#G)" d="m1160.5 525.2c0 1.9-1.8 3.6-1.8 3.6-2 0-3.7-1.7-3.7-3.6 0-1.8 1.7-2.8 3.7-2.8-.1 0 1.8 1 1.8 2.8z" fill="#070606"/><g clip-path="url(#G)"><g clip-path="url(#bD)"><path d="m1158.6 528.9c-2 0-3.7-1.7-3.7-3.6 0-3.8 5.5-3.8 5.5 0 .1 1.8-1.8 3.6-1.8 3.6zm0-6.5c-2 0-3.7 1.9-3.7 2.8 0 3.6 5.5 3.6 5.5 0 .1-.9-1.8-2.8-1.8-2.8z" fill="#36120b"/></g></g><g clip-path="url(#G)"><path clip-path="url(#bE)" d="m1056 404c-2 1.8-28.1 8.3-24.4 7.4 3.6 0 24.4 5.6 24.4 3.8s0-9.4 0-11.2z" fill="#fb0003"/></g><g clip-path="url(#G)"><g clip-path="url(#bF)"><path d="m1056 416.2c-2 0-7.6-1-11.5-2.8-5.3-1.1-11.1-1.1-12.9-1.1 3.6-.9 9.5 0 12.9 0 3.9 2 9.5 2.9 11.5 2.9 0-1.8 0-4.7 0-9.4 0 0-7.6.9-16.8 3.7-4 1-7.6 1.8-7.6 1.8-1.6 0 0 0 7.6-2.6 5.3-2 16.8-3.7 16.8-4.7v1.8 9.4z" fill="#36120b"/></g></g><g clip-path="url(#G)"><path clip-path="url(#bG)" d="m1100.5 394.7s-16.8 7.5-14.6 7.5c0 0 16.5 4.6 16.5 3.6.1 0 .1-9.3-1.9-11.1z" fill="#fb0003"/></g><g clip-path="url(#G)"><g clip-path="url(#bH)"><path d="m1102.5 406.7c-1.9 0-11.1-1.7-14.9-2.7 0-1.8-1.6-1.8-1.6-1.8 0-1.9 14.6-7.5 14.6-7.5 1.9.9 1.9 2.7 1.9 5.5v5.6zm-16.6-4.6h1.6c3.8 1.8 13 3.6 14.9 3.6s0-1.8 0-5.6c-1.9-2.8-1.9-4.6-1.9-4.6s-12.9 4.7-14.6 6.6z" fill="#36120b"/></g></g><g clip-path="url(#G)"><path clip-path="url(#bI)" d="m1149.2 400.2c-1.8 1.9-18.6 6.5-12.9 6.5 1.8 0 12.9 5.6 12.9 4.7 0-1.9 0-9.3 0-11.2z" fill="#fb0003"/></g><g clip-path="url(#G)"><g clip-path="url(#bJ)"><path d="m1147.3 411.3s-3.7-.8-7.7-2.6c-1.6-.9-3.4-2-5.5-2-1.6-.9 2-.9 11.3-4.6 1.8 0 3.7-1.9 3.7-1.9v11.1zm-13.1-4.6c2 0 3.9 1.1 5.5 2 4 .8 7.7 1.8 7.7 1.8v.8l1.8-.8c0-5.5 0-8.4 0-10.3-1.8 1.9-1.8 1.9-1.8 1.9-5.3 1.9-11.2 4.6-13.2 4.6z" fill="#36120b"/></g></g><g clip-path="url(#G)"><g clip-path="url(#bK)"><path d="m1130.6 533.6c0-8.4 16.8-57.8 16.8-60.6-.1 1.8-14.8 52.2-16.8 60.6z" fill="#36120b"/></g></g><g clip-path="url(#G)"><g clip-path="url(#bL)"><path d="m1136.2 531.8s11.1-48.6 11.1-56.9c-1.8 17.7-11.1 55.9-11.1 55.9z" fill="#36120b"/></g></g><g clip-path="url(#G)"><g clip-path="url(#bM)"><path d="m1142.1 527.1c0-2.8 7.1-52.3 7.1-52.3 2 0-7.1 49.5-7.1 52.3z" fill="#36120b"/></g></g><g clip-path="url(#G)"><g clip-path="url(#bN)"><path d="m1130.6 526.2c3.6-1.9 11.5-3.8 11.5-3.8s-5.9 2.8-11.5 3.8z" fill="#36120b"/></g></g><g clip-path="url(#G)"><g clip-path="url(#bO)"><path d="m1136.2 517.8v-1.1c1.8 0 7.4-1.7 7.4-1.7s-5.5 2.8-7.4 2.8z" fill="#36120b"/></g></g><g clip-path="url(#G)"><g clip-path="url(#bP)"><path d="m1136.2 509.4s0-1 9.3-1.9c-3.4 1-7.4 1.9-9.3 1.9z" fill="#36120b"/></g></g><g clip-path="url(#G)"><g clip-path="url(#bQ)"><path d="m1138.1 501.9 9.3-1.9z" fill="none"/></g></g><g clip-path="url(#G)"><g clip-path="url(#bR)"><path d="m1142.1 494.4h5.3z" fill="none"/></g></g><g clip-path="url(#G)"><g clip-path="url(#bS)"><path d="m1143.7 487.9c1.8 0 3.7 1 3.7 1z" fill="none"/></g></g><g clip-path="url(#G)"><g clip-path="url(#bT)"><path d="m1082.1 533.6c0-8.4 18.4-59.7 18.4-62.5 0 0-16.8 54.1-18.4 62.5z" fill="#36120b"/></g></g><g clip-path="url(#G)"><g clip-path="url(#bU)"><path d="m1087.6 534.5c0-.9 13-52.2 13-63.4-5.6 21.5-13 62.5-13 63.4z" fill="#36120b"/></g></g><g clip-path="url(#G)"><g clip-path="url(#bV)"><path d="m1091.4 534.5c0-3.8 11.1-63.4 11.1-63.4 2 .9-11.1 59.7-11.1 63.4z" fill="#36120b"/></g></g><g clip-path="url(#G)"><g clip-path="url(#bW)"><path d="m1083.7 526.2h-1.6c3.8-1.9 12.9-3.8 12.9-3.8s-9.1 2.8-11.3 3.8z" fill="#36120b"/></g></g><g clip-path="url(#G)"><g clip-path="url(#bX)"><path d="m1087.6 516.7c3.8 0 7.4-1.7 7.4-1.7s-3.6 1.7-7.4 1.7z" fill="#36120b"/></g></g><g clip-path="url(#G)"><g clip-path="url(#bY)"><path d="m1087.6 509.4c0-1 0-1 7.4-2.9-3.6 2-7.4 2.9-7.4 2.9z" fill="#36120b"/></g></g><g clip-path="url(#G)"><g clip-path="url(#bZ)"><path d="m1091.4 501 9.1-1.9z" fill="none"/></g></g><g clip-path="url(#G)"><g clip-path="url(#b0)"><path d="m1095 492.6 5.5.9z" fill="none"/></g></g><g clip-path="url(#G)"><g clip-path="url(#b1)"><path d="m1095 486 5.5 1z" fill="none"/></g></g><g clip-path="url(#G)"><g clip-path="url(#b2)"><path d="m1076.7 527.1c0-8.5-15.3-58.8-15.3-58.8-.1 1 15.3 50.3 15.3 58.8z" fill="#36120b"/></g></g><g clip-path="url(#G)"><g clip-path="url(#b3)"><path d="m1070.8 526.2s-7.4-39.2-13-58c3.5 8.5 14.8 57 14.8 57z" fill="#36120b"/></g></g><g clip-path="url(#G)"><g clip-path="url(#b4)"><path d="m1065.3 521.5c0-3.6-9.3-53.2-9.3-53.2 1.8 0 11.1 49.6 11.1 53.2z" fill="#36120b"/></g></g><g clip-path="url(#G)"><g clip-path="url(#b5)"><path d="m1076.7 520.6c-2.2-1.9-11.4-3.9-11.4-3.9 1.8-.9 9.1 1.1 11.4 3.9z" fill="#36120b"/></g></g><g clip-path="url(#G)"><g clip-path="url(#b6)"><path d="m1072.6 510.3c-3.5 0-7.3-1.8-7.3-1.8z" fill="none"/></g></g><g clip-path="url(#G)"><g clip-path="url(#b7)"><path d="m1070.8 503.8c0-.9-3.7-.9-9.5-1.9 9.5 1 9.5 1 9.5 1.9z" fill="#36120b"/></g></g><g clip-path="url(#G)"><g clip-path="url(#b8)"><path d="m1069.2 495.4-7.9-1h7.9z" fill="#36120b"/></g></g><g clip-path="url(#G)"><g clip-path="url(#b9)"><path d="m1061.3 489.9c0-2 3.9-2 5.8-2s0 2-5.8 2z" fill="#36120b"/></g></g><g clip-path="url(#G)"><g clip-path="url(#ca)"><path d="m1065.3 481.4c-1.9 0-7.4 1.7-7.4 1.7z" fill="none"/></g></g><path clip-path="url(#G)" d="m1158.6 509.4 50.3.9v-3.8h-50.3z" fill="#d0713c"/><g clip-path="url(#G)"><g clip-path="url(#cb)"><path d="m1208.9 512.3-50.3-2.9v-2.9h50.3zm-50.3-5.8v2.9l50.3.8v-3.8h-50.3z" fill="#36120b"/></g></g><path clip-path="url(#G)" d="m1160.5 496.2c5.6 0 50.4-9.2 50.4-9.2s1.6-5.6 0-5.6c-2 0-50.4 10.2-50.4 10.2z" fill="#d0713c"/><g clip-path="url(#G)"><g clip-path="url(#cc)"><path d="m1160.5 497.2v-.9-4.7c1.8 0 48.5-10.2 50.4-10.2 1.6 1.7 0 4.6 0 5.6-2 .9-44.8 10.2-50.4 10.2zm50.4-15.8c-2 0-37.5 8.5-50.4 10.2v3.8c9.4 0 50.4-9.4 50.4-9.4z" fill="#36120b"/></g></g><g clip-path="url(#G)"><path clip-path="url(#cd)" d="m1100.5 439.4c1.9 0 4 .9 4 2.9 0 1.9-2.1 2.7-4 2.7 0 0 0-1.8 0-2.7 0-2 0-2.9 0-2.9z" fill="#aa0007"/></g><g clip-path="url(#G)"><g clip-path="url(#ce)"><path d="m1100.5 445.9v-1c0-.8-1.7-1.8-1.7-2.7 0-1.9 1.7-2.9 1.7-2.9 1.9 0 1.9 0 4 .9 0 0 1.8.9 0 1.9 0 2-2 3.8-4 3.8z" fill="#36120b"/></g></g></g></g></svg>