<svg enable-background="new 0 0 8250 5500" viewBox="0 0 8250 5500" xmlns="http://www.w3.org/2000/svg"><path d="m0 0h8250v5500h-8250z" fill="#ce1126"/><g fill="#fcd116" stroke="#bd9c08"><path d="m4994.6 2588.6c162.4 43.5 408.1 32.7 518.4 161.4-162.4-43.5-362.4 218.9-518.4 161.4 137.7 96.4-2002.9 0-1831.1 0-162.4-43.5-408.1-32.7-518.4-161.4 162.4 43.5 362.4-218.9 518.4-161.4-137.7-96.4-376.6-171-431.9-329 137.7 96.4 417.8-82.5 542.3 25.6-96.4-137.7-297.9-288.8-293.3-456.9 96.4 137.7 420.9 64 500.9 209.5-43.5-162.4-174.5-371.7-119.4-529.6 43.5 162.3 370.3 202.7 399 368.2 14.6-167.4-44.5-409.8 69-538.5-14.6 167.4 280.5 316.9 249 482.5 71-152.3 110.3-398.4 249-482.5-71 152.3 160.7 393 69 538.5 118.9-118.9 233.5-339 399-368.2-118.8 118.8 7.9 421.6-119.4 529.6 152.3-71 332.1-238.7 500.9-209.5-152.3 71-137.3 399.4-293.3 456.9 167.4-14.7 392.4-109.6 542.3-25.6-167.6 14.6-260.3 329-432 329z" stroke-width=".75"/><path d="m3307.1 2750-585.5-239.4 632.1-24.7-468.4-425.2 602.4 193-294.7-559.6 500.1 387.4-85.5-626.8 337.4 535.1 134-618.2 134 618.2 337.4-535.1-85.5 626.8 500-387.4-294.7 559.7 602.4-193-468.3 425.2 632.1 24.7-585.6 239.3 585.5 239.4h-2714.8z" stroke-linejoin="round" stroke-width=".75"/><path d="m4845.7 2750c0 423.4-343.3 766.7-766.7 766.7s-766.6-343.2-766.6-766.7c0-423.4 343.2-766.7 766.6-766.7s766.7 343.3 766.7 766.7z" stroke-linecap="round" stroke-width=".9"/></g><path d="m0 3028.1h8250v2471.9h-8250z" fill="#003f87"/><path d="m8250 4540v397.2c-278.1-67-556.2-201.1-834.2-201.1-370.8 0-741.5 238.3-1112.2 238.3-370.8 0-741.5-238.3-1112.3-238.3s-741.5 238.3-1112.3 238.3c-370.7 0-741.5-238.3-1112.2-238.3-370.8 0-741.5 238.3-1112.2 238.3-370.8 0-741.5-238.3-1112.3-238.3-247.4 0-494.8 106.1-742.2 176.8v-397.2c247.4-70.6 494.8-176.7 742.2-176.7 370.8 0 741.5 238.3 1112.3 238.3s741.5-238.3 1112.2-238.3c370.8 0 741.5 238.3 1112.2 238.3 370.8 0 741.5-238.3 1112.3-238.3s741.5 238.3 1112.3 238.3 741.5-238.3 1112.2-238.3c278 0 556.1 134 834.2 201z" fill="#fff"/><g stroke="#bd9c08" stroke-width=".6"><g fill="#fcd116"><path d="m4331.1 893.7 411.1 2.7c2.6-17.4-35.3-52-67.5-57.1-104.1-16.3-182.2 17.4-308.5 18.6z"/><path d="m3512.3 796.9c96.5 122 283.7 206.7 462.5 207.9 241 1.5 508.2-193.5 831.4-253.3l-1055.1-21.7c-136.5-93.5-240.1-81.7-310.7-23.7l-201.7 6.1c-28.5 15.6 23.6 80.5 65.8 82.9z"/><path d="m3989.3 726.9c-38.4-176.4-179.9-252.5-350.2-275-196.6-26.1-649.2-52.8-949.9-139.1 130.1 127.9 402.5 191.8 591.7 220.7 200.4 30.6 395.5 75.2 550.1 191.9z"/><path d="m3861.5 844.7c62.9 80.7 160.5 76.1 265.3 5.7 104.5-70.2 218.1-267.8 273-271.1 383.6-22.3 847.6-184.2 1069-309.2-280.6 39.7-558.8 84.8-841.8 85.9-482.9 1.9-540.1 221.8-736.8 376" stroke-linecap="round"/></g><path d="m3936.4 749.8c102.9-65.6 186.6-151.1 282.9-222.6 159.6-118.3 343.9-121.8 541.7-124.2 175.4-2.2 482.8-75.4 649.6-114.5" fill="none" stroke-linecap="round"/><path d="m3829.4 719c-30.4-157.8-178-205.1-364.6-233.5-203-30.8-410-48-612.4-103.9-50.2-13.9-97-38.4-145.5-57.6" fill="none"/><path d="m3894 951.5c190.4 14 332-43.3 494.5-124.3" fill="none" stroke-linecap="round"/><path d="m3238 744.8h240.2" fill="none" stroke-linecap="round"/></g><path d="m3585.3 719c0 16.6-13.4 30-30 30s-30-13.5-30-30c0-16.6 13.5-30.1 30-30.1 16.6 0 30 13.5 30 30.1z" fill="#bd9c08"/><path d="m8250 2951.1v397.2c-278.1-67-556.2-201.1-834.2-201.1-370.8 0-741.5 238.4-1112.2 238.4-370.8 0-741.5-238.4-1112.3-238.4-180.4 0-360.8 56.4-541.2 114.4-190.3 61.1-380.7 124-571 124s-380.6-62.8-571-123.9c-180.4-58-360.8-114.4-541.3-114.4-370.8 0-741.5 238.4-1112.2 238.4-370.8 0-741.5-238.4-1112.3-238.4-247.4 0-494.8 106.1-742.2 176.8v-397.2c247.4-70.6 494.8-176.8 742.2-176.8 370.8 0 741.5 238.4 1112.3 238.4 277.3 0 554.5-133.3 831.8-200.5 93.5-22.7 187-37.8 280.5-37.8 86.6 0 173.2 13 259.8 32.9 29.2 6.7 58.5 14.3 87.7 22.3 145.7 40.2 291.3 94.3 437 133.2 109.2 29.2 218.4 49.9 327.7 49.9 90.1 0 180.2-14.1 270.3-35.4 164.8-39 329.6-102.2 494.4-147.7 29.2-8.1 58.4-15.6 87.6-22.3 86.6-19.9 173.2-32.9 259.9-32.9 62.3 0 124.6 6.7 186.9 17.9 308.4 55.4 616.9 220.4 925.4 220.4 370.8 0 741.5-238.4 1112.2-238.4 278-.1 556.1 134 834.2 201z" fill="#fff"/><path d="m8250 3745.6v397.2c-278.1-67-556.2-201.1-834.2-201.1-370.8 0-741.5 238.3-1112.2 238.3-370.8 0-741.5-238.3-1112.3-238.3s-741.6 238.3-1112.3 238.3-741.5-238.3-1112.2-238.3c-370.8 0-741.5 238.3-1112.2 238.3-370.8 0-741.5-238.3-1112.3-238.3-247.4 0-494.8 106.1-742.2 176.8v-397.2c247.4-70.6 494.8-176.8 742.2-176.8 370.8 0 741.5 238.4 1112.3 238.4s741.5-238.4 1112.2-238.4c370.8 0 741.5 238.4 1112.2 238.4 370.8 0 741.5-238.4 1112.3-238.4s741.5 238.4 1112.3 238.4 741.5-238.4 1112.2-238.4c278 0 556.1 134.1 834.2 201.1z" fill="#fff"/></svg>