<svg enable-background="new 0 0 6000 3500" viewBox="0 0 6000 3500" xmlns="http://www.w3.org/2000/svg" xmlns:xlink="http://www.w3.org/1999/xlink"><clipPath id="a"><path d="m0 0h6000v3500h-6000z"/></clipPath><clipPath id="b"><path d="m0 0h6000v3500h-6000z"/></clipPath><clipPath id="c"><path d="m0 0h6000v3500h-6000z"/></clipPath><clipPath id="d"><path d="m3931.8 2028.8h211.4v232.4h-211.4z"/></clipPath><clipPath id="e"><path d="m4872.2 2028.8h194.1v202.2h-194.1z"/></clipPath><clipPath id="f"><path d="m4812.5 2098.5h447.9v353.2h-447.9z"/></clipPath><clipPath id="g"><path d="m3770.8 2072.1h426.8v380h-426.8z"/></clipPath><clipPath id="h"><path d="m3851 2049.2h1321.1v553.6h-1321.1z"/></clipPath><clipPath id="i"><path d="m5146.2 2191.2h134.1v202.5h-134.1z"/></clipPath><clipPath id="j"><path d="m3730.8 2196.9h134.8v214h-134.8z"/></clipPath><clipPath id="k"><path d="m4063.7 1351.5h901.8v417.7h-901.8z"/></clipPath><clipPath id="l"><path d="m4063.7 1802.6h901.8v187.7h-901.8z"/></clipPath><clipPath id="m"><path d="m4083.2 2026.2h862.9v189.6h-862.9z"/></clipPath><clipPath id="n"><path d="m4304.8 2253.5h420.4v187.8h-420.4z"/></clipPath><clipPath id="o"><path d="m4140.5 1586.3h295.7v79.2h-295.7z"/></clipPath><clipPath id="p"><path d="m4144.8 1411.5h196v199.2h-196z"/></clipPath><clipPath id="q"><path d="m4795.2 1627.6h30.1v12.7h-30.1z"/></clipPath><clipPath id="r"><path d="m4835.1 1642.7h19.4v25.5h-19.4z"/></clipPath><clipPath id="s"><path d="m4881.9 1642.5h23.2v22.2h-23.2z"/></clipPath><clipPath id="t"><path d="m4488.5 1619.5h36.4v15.9h-36.4z"/></clipPath><clipPath id="u"><path d="m4525.7 1638.7h25.8v24.5h-25.8z"/></clipPath><clipPath id="v"><path d="m4502.1 1593.4h25.6v14.3h-25.6z"/></clipPath><clipPath id="w"><path d="m4134.1 1578.3h34.7v19h-34.7z"/></clipPath><clipPath id="x"><path d="m4100.3 1610h47.5v19.4h-47.5z"/></clipPath><clipPath id="y"><path d="m4130.3 1637.8h41.4v20.2h-41.4z"/></clipPath><clipPath id="z"><path d="m4146.8 1417.8h25.7v22.3h-25.7z"/></clipPath><clipPath id="A"><path d="m4183.4 1398h26.6v16.7h-26.6z"/></clipPath><clipPath id="B"><path d="m4221.8 1401.9h23.8v27.9h-23.8z"/></clipPath><clipPath id="C"><path d="m4507.6 1560h217.3v91.6h-217.3z"/></clipPath><clipPath id="D"><path d="m4357.8 1389.2h554.4v267.2h-554.4z"/></clipPath><clipPath id="E"><path d="m4286.2 1395.6h172v202.3h-172z"/></clipPath><clipPath id="F"><path d="m4345.2 1448.4h33.3v13.1h-33.3z"/></clipPath><clipPath id="G"><path d="m4386.2 1447.5h33.5v13.3h-33.5z"/></clipPath><clipPath id="H"><path d="m4361.8 1500.8h20.1v35.1h-20.1z"/></clipPath><clipPath id="I"><path d="m4374.9 2050.9h292.2v261.5h-292.2z"/></clipPath><clipPath id="J"><path d="m4158.2 1814.4h289v247.2h-289z"/></clipPath><clipPath id="K"><path d="m4595.3 1814.4h292.8v247.2h-292.8z"/></clipPath><g clip-path="url(#a)"><path clip-path="url(#b)" d="m0 0h6000v3500h-6000z" fill="#120065"/><path clip-path="url(#b)" d="m0 0h3031.5v1515.7h-3031.5z" fill="#120065"/><path clip-path="url(#b)" d="m1515.7 927.2 1176.8 588.5h339v-169.4l-1176.9-588.5zm-1515.7 419.1v169.4h338.8l1176.9-588.5-338.9-169.4zm0-1346.3v169.5l1176.8 588.3 338.9-169.4-1176.9-588.4zm2692.5 0-1176.8 588.4 338.8 169.4 1176.9-588.3v-169.5z" fill="#fff"/><path clip-path="url(#b)" d="m1263 0v505.2h-1263v505.4h1263v505.1h505.3v-505.1h1263.2v-505.4h-1263.2v-505.2z" fill="#fff"/><path clip-path="url(#b)" d="m1364.1 0v606.3h-1364.1v303.2h1364.1v606.2h303.1v-606.2h1364.3v-303.2h-1364.3v-606.3z" fill="#ba0019"/><path clip-path="url(#b)" d="m1010.4 1010.6-1010.4 505.1h225.8l1010.6-505.1zm1010.5 0 1010.6 505.1v-113l-784.6-392.2h-226zm-2020.9-1010.6v113.1l784.4 392.2h226zm2805.5 0-1010.5 505.2h226l1010.5-505.2z" fill="#ba0019"/><g clip-path="url(#b)"><path clip-path="url(#c)" d="m4330.2 1015.9c-6 3.6-17.9 14.4-29.9 10.9-12-3.7-38.9-50.6-68.7-43.5-29.8 7.2-47.9 18.1-59.8 18.1-12 0-44.9 10.8-44.9 39.7 0 28.8 3.1 50.6 9 50.6s14.9-18.1 14.9-18.1 3 36.3 23.8 36.3c20.9 0 65.8 3.5 68.8 14.3s-21 36.2-14.9 57.8c6 21.7 32.8 57.9 32.8 57.9s-38.9 28.9-38.9 46.9 6.1 36.2 6.1 36.2l-173.4 7.2s-11.9 513.1-6 552.8c6 39.8 20.9 137.2 20.9 137.2s-38.8-12.6-71.7 19.9c-32.8 32.6-147.9 88.5-150.9 113.9-3.2 25.2-13.5 46.9-1.6 65.1 11.9 18 54.1 67 41.9 64.9-40.2-7-55.1-64-82.1-85-26.8-20.5-79.4-16.2-85.2 5.6-6 21.7-3 57.7 0 64.9s35.9 122.8 44.7 148.2c9.1 25.2 103.2 63.2 145 59.6 79.2 1.9 115.2-34.3 118.1-30.6 3 3.6 170.4 176.2 514.1 177 267.6.6 469.3-173.4 469.3-169.8s110.6 36.1 149.4 25.3 95.6-36.2 107.6-61.5c11.9-25.4 44.8-155.4 47.9-177.1 2.9-21.5 0-46.9-27-54.1-26.9-7.4-41.8-5.5-56.8 1.7-15.1 7.4-19.5 27.2-41.8 63.2-12 10.8-43.5 39.8-34.3 32.6 8.8-7.3 28.2-61.5 31.2-79.5 3.1-18.1 11.9-50.6-8.9-68.6-20.9-18.2-52.9-25.6-89.7-52.4-34.8-24-62.6-63.3-83.7-63.3-20.8 0-44.8-10.8-41.8-10.8s26.8-52.4 21-106.6c-5.9-54.2 2.9-572.6 0-572.6-3.1 0-149.5 10.8-149.5 3.7 0-7.4 11.9-57.9 0-90.5-11.9-32.3-62.8-54.1-47.9-61.3s80.8-25.3 77.8-54.1c-3-28.9-44.8-25.4-62.8-36.2-17.9-10.8-71.7-61.5-77.6-61.5-6.2 0 155.3-97.4 143.4-97.4s-74.7-18.1-95.7-7.3c0-18.1 86.6-72.2 71.7-79.5-14.9-7.2-83.6-14.5-65.6-18.1 17.9-3.6 23.8-46.9 20.8-46.9-2.9 0-77.6 10.8-77.6 10.8s-18.1-25.4-24-25.4c-6.1 0-32.9 14.5-32.9 14.5l-14.9-39.8-32.9 21.8-14.9-18.2s-26.9 7.2-26.9 0c1.2-.2-3-18.1-7.2-18.1-4.3 0-33.8 23-34.9 21.8-1-1.3-33.8-47.3-33.8-46.1 0 1.3-23.3 86.9-24.3 86.9-1.2 0-23.2 2.6-24.4 3.9-.9 1.2-118.3-67.6-117.2-66.4 1 1.3 30.6 66.4 30.6 66.4s-25.5 14-25.5 15.3 4.3 29.3 4.3 29.3l-78.2-26.8s29.6 60 27.5 60-58.1 2.6-57.1 2.6c1.1 0 26.6 49.8 26.6 49.8l-9.7 29.4c0 .1 84.3 59.5 78.3 63.1zm499.1 1257.2c7.5 10.8 47.8 61.4 41.9 61.4s-106.1 66.9-146.4 79.4c-40.5 12.7-171.9 36.2-164.5 34.4 7.5-1.8 118.1-62.4 162.9-91.3 44.9-28.8 106.1-80.3 106.1-83.9zm-624.7-1.9c-5.9 7.4-34.3 63.2-34.3 63.2s82.2 57.8 143.4 79.4c61.2 21.7 165.9 28.9 159.9 27.2-6-1.9-131.5-58-167.5-86.8-35.8-28.8-100-83-101.5-83z" fill="#fff"/><path clip-path="url(#c)" d="m4270.2 933.5s52.3 37.9 64.3 46.9c11.9 9 50.7 48.8 53.7 47 3-1.9 23.8-21.8 23.8-21.8s-43.2-41.5-70.2-50.5c-26.7-9-71.6-17.9-71.6-21.6z" fill="#f3c427"/><g clip-path="url(#c)"><path d="m4388.1 1031.3c-3.4 0-8.5-4.3-32.1-26.3-9.5-9.1-18.9-17.7-23.8-21.4-10.2-7.8-50.1-36.8-61.2-44.8l-2.7-2.1h-.2l.1-.1-1.7-3v-7.5l8.3 6.1c5 2.1 16.2 4.9 28.8 8.2 13.2 3.4 28.1 7.4 39.6 11.1 27.4 9.3 69.8 49.7 71.6 51.4-5 10.3-21.4 25.9-24.5 27.8zm-94.9-85.8c15.9 11.7 36.6 26.8 43.6 32 5 3.7 14.6 12.6 24.4 22 9.4 8.8 22 20.6 26.5 23.8 5-4.2 18.7-17.2 21.4-19.9h-.1c-4.8.1-43.9-36.4-68.2-44.7-11.3-3.8-26-7.5-39.1-10.9-2.9-1-5.9-1.7-8.5-2.3z" fill="#6c6666"/></g><path clip-path="url(#c)" d="m4262.8 892c4.4 0 86.7 50.5 112 75.9 25.6 25.2 36 57.8 39 57.8 2.9 0 41.8-7.2 40.2-7.2-1.4 0-17.9-65-55.1-84.9-37.5-20-134.7-41.6-136.1-41.6z" fill="#f3c427"/><g clip-path="url(#c)"><path d="m4413.7 1029.4c-3.4 0-4.6-2.6-8.9-11-6-11.7-15.9-31.1-32.6-47.8-24.7-24.6-102.8-72.7-110-74.8l.6-7.6.2 3.4-.2-3.4.9.1c5.9 1 100.2 22.4 136.9 41.9 31.9 17.1 49.1 65.5 54.7 81.4h3.8l-1.2 6.9c0 1.2-1.5 2.3-4 3.4l-.8.4c-11.3 4.4-39.1 7.1-39.4 7.1zm-125.3-127.6c28.2 17 72.1 46.4 89.1 63.3 17.5 17.5 28.2 38.5 34 49.8 1.2 2.4 2.7 5.2 3.6 6.8 5.8-.9 25.1-4.4 33.6-6.1l-.6-1.5c-5.4-15.3-21.7-61.6-51.2-77.2-24.7-13.3-76.7-27.3-108.5-35.1z" fill="#6c6666"/></g><path clip-path="url(#c)" d="m4649.8 761.3c-1.4 0-16.5 54.1-20.9 70.5-4.5 16.2-11.9 50.6-11.9 50.6s-65.8 7.2-62.8-1.9c2.9-9 100.2-119.2 95.6-119.2z" fill="#f3c427"/><g clip-path="url(#c)"><path d="m4573.6 888.9c-15.7 0-20.3-1.9-22.3-4.7.8-9.5 16.9-29.1 50.9-69.7 19.1-22.6 37.4-44.2 42.9-52.2l4.7-4.8 2.3 7.8c-4 11.2-15.7 53.4-19.5 67.5-4.5 16.1-11.9 50.3-11.9 50.3-3.3 3-28.4 5.8-47.1 5.8zm-14.4-8.3c5.8 0 51.1-1.4 56.8-2-1.6-2.2 5.2-32.8 9.3-47.9 2.4-9.3 8.5-31.1 13.5-48.1-8.3 10.2-19.5 23.5-30.7 36.8-19.4 23.1-45.6 54.3-49.9 61.5.3-.3.5-.3 1-.3z" fill="#6c6666"/></g><path clip-path="url(#c)" d="m4277.7 826.8s77.7 63.2 104.6 99.5c26.8 36 53.7 99.2 55.3 99.2 1.4 0 73.3-18 73.3-16.2 0 1.7-83.6-101.2-124.1-131.9-40.3-30.6-107.7-46.9-109.1-50.6z" fill="#f3c427"/><g clip-path="url(#c)"><path d="m4437.6 1029.4c-2.8 0-2.8 0-10.4-15.9-10.2-20.7-28.9-59.6-47.9-84.9-24.7-33.2-93.6-90.3-102.6-97.6l-2.4-2.7-5.3-13.3 11 9-1.1 2.5 1.7-2c2.1 1.2 7.5 3.1 15.3 5.8 22.5 8 64.5 22.6 93.1 44.2 30.8 23.4 85.2 86.9 111.4 117.3 7 8.1 11.6 13.7 12.7 14.7l9 8.1-11.2-1.5-1.5.2-.1-.2c-6.5.9-38.5 8.6-54.3 12.3-16.5 4-16.6 4-17.4 4zm-139.6-190.4c24.7 21 68.4 59.7 87.3 85.1 19.3 26 38.4 65 48.6 86.2 2.5 5 4.3 8.9 5.5 11.1 2.8-.7 7.8-1.9 13.8-3.4 23.4-5.6 39.7-9.5 48.9-11.3l-3.3-2.8 2.6.3c-2-1.9-4.2-4.5-6.8-7.5-23.9-28-80-93.4-110.2-116.2-25.7-19.6-63.4-33.5-86.4-41.5z" fill="#6c6666"/></g><path clip-path="url(#c)" d="m4358.4 810.1s38.8 72.3 46.2 97.4c7.4 25.4 29.9 90.3 29.9 90.3h61.4s-30-81.2-62.8-121c-32.8-39.6-73.3-63.2-74.7-66.7z" fill="#f3c427"/><g clip-path="url(#c)"><path d="m4501.4 1001.6h-66.8c-3.6-2.5-26-67.6-33.6-93-7.1-23.9-43.2-91.9-45.8-96.5l-.4-.8 6.9-3.2c.7.7 4.9 3.8 8.8 6.8 14.6 10.8 41.8 30.8 65.4 59.5 32.9 39.8 62.2 118.7 63.4 122.1zm-131.2-177.5c11.9 23 32.7 64.1 38.2 82.4 7.4 25.2 29.8 90.1 29.8 90.1l52.3-2.3c-7-18.1-32.8-81.8-60.3-115-21-25.4-45.1-44-60-55.2z" fill="#6c6666"/></g><path clip-path="url(#c)" d="m4379.3 770.3c1.6 5.4 56.7 68.6 70.3 110.2 13.4 41.6 23.8 94 23.8 94l53.9-16.3s-47.8-106.5-77.7-135.5c-30-29-67.3-48.8-70.3-52.4z" fill="#f3c427"/><g clip-path="url(#c)"><path d="m4470.5 979.3-.9-4.1c0-.6-10.5-52.7-23.7-93.6-9.5-29.5-41.2-71-58.3-93.2-9.1-12-11.4-15.1-11.9-17.1l6.4-3.4c.8.7 5.3 3.7 9.7 6.5 13.7 8.7 39 24.9 60.5 45.5 30 29.1 76.4 132.2 78.3 136.6zm-75.7-194c17.5 23 48.5 63.9 58.3 94.1 11.2 34.6 20.4 77.2 23.1 90.3l49.5-15c-5.1-1.5-50.6-101.8-78.8-129.3-17.6-17-38.1-31-52.1-40.1z" fill="#6c6666"/></g><path clip-path="url(#c)" d="m4826.2 940.7s-112.2 14.5-152.5 27.2c-40.2 12.6-62.8 59.7-62.8 59.7s52.4 23.4 55.4 19.8 34.4-41.6 68.7-56c34.4-14.5 94.2-48.9 91.2-50.7z" fill="#f3c427"/><g clip-path="url(#c)"><path d="m4664.9 1051.5c-9.2 0-47.9-17.1-55.5-20.6-1-7.1 21.9-53.7 63.2-66.6 40.1-12.6 148.4-26.7 152.9-27.3 3.8 12.1-67.8 48.9-89.1 57.9-32.1 13.5-61.7 48.1-67.3 54.9zm156.1-110.7c-15.5 6.6-110.4 19.4-146.2 30.7-38.2 11.8-60.2 57.1-60.4 57.6 14.7 2.5 42.7 13.9 49.8 14.7 7.6-9 37.1-42.4 69.3-56 29.7-12.4 76.5-39 87.5-47z" fill="#6c6666"/></g><path clip-path="url(#c)" d="m4821.6 852.2c-3 1.9-92.7 90.3-120.9 119.2-28.6 28.8-55.5 59.6-58.4 61.4-3 1.9-58.4-9-55.2-12.6 2.9-3.5 82.1-81.1 134.3-115.5 52.5-34.4 95.8-48.8 100.2-52.5z" fill="#f3c427"/><g clip-path="url(#c)"><path d="m4640.8 1036.8c-4 0-53.9-7.3-57.3-14.5 3-7.4 82.3-85.7 135.8-120.9 38.4-25.2 71.2-39.4 89-47 5.6-2.4 9.2-4 10.8-5l.6-.4 4.3 6.2-1.6-1.7 1.4 1.9c-5.6 4.5-91.1 88.7-120.5 118.7-15.3 15.6-30.2 31.6-41.2 43.5-12.7 13.7-16.1 17.4-17.8 18.4zm-49.5-14.4c7.9 0 41.5 6.9 49.5 6.9v3.8l.4-3.8c.6-.8 6.7-7.5 15.3-16.8 11-11.9 26.1-28 41.4-43.8 21-21.4 76.3-76.2 104.6-103.5-18.5 8.2-46.9 21.5-78.9 42.5-52.6 34.7-131.1 111.9-133.6 114.9.3-.1.7-.2 1.3-.2z" fill="#6c6666"/></g><path clip-path="url(#c)" d="m4799.2 788.9c-9 12.7-97.2 99.3-121 130.1-23.9 30.7-62.9 84.9-62.9 84.9s-46.3-25.2-43.2-36.1c2.9-10.8 65.7-74.1 110.6-110.3 44.9-36 121-64.9 116.5-68.6z" fill="#f3c427"/><g clip-path="url(#c)"><path d="m4616.6 1008.9-3-1.6c-14.7-8-48.6-28-45-40.6 3.5-13.1 70.7-79.1 111.9-112.2 27.4-22.1 66.2-41.4 91.9-54.1 10.6-5.4 18.9-9.4 22.7-11.9l.7.7-.7-.7.5.7h-1.3l3 2.4-.2-1-.8-3.1.2.1-.2-.9 7.3-10.3-.3 13.1-3.9-.2.6 4.9c-6.2 7.5-22.5 24.2-41.1 43.5-28.5 29.4-64 66.1-77.7 83.7-23.9 30.6-62.8 84.8-62.8 84.8zm162.7-203.5c-1.2.6-2.4 1.2-3.6 1.8-25.5 12.5-63.7 31.6-90.5 53.3-47.1 37.8-107 99.4-109.4 108.3-.9 4.1 17.1 18.2 38.5 30.1 8.3-11.3 40.2-55.6 61-82.2 13.8-17.9 49.5-54.8 78.2-84.4 9.6-10 18.6-19.3 25.8-26.9z" fill="#6c6666"/></g><path clip-path="url(#c)" d="m4709.7 781.8c-1.6 1.8-53.8 68.6-64.4 86.6-10.3 18.2-41.8 97.6-41.8 97.6s-46.3-48.7-46.3-50.6c0-1.8 58.2-75.9 92.7-104.8 34.3-28.8 61.2-23.5 59.8-28.8z" fill="#f3c427"/><g clip-path="url(#c)"><path d="m4604.8 972.9-4.2-4.4c-47.3-49.7-47.3-51.2-47.3-53.1 0-6 65-83.2 94.1-107.6 23.4-19.8 43.2-24 53.9-26.2l5.5-2.3.1.1 7.6-3.1-3.4 9.8c-10.8 13.7-53.2 68.3-62.5 84.2-10.2 17.6-41.3 96.2-41.7 97zm93.5-183c-13.7 3.6-28.8 9.1-46.1 23.7-33.3 28-88.9 98.3-91.7 103.3 1.8.1 25.1 24.7 41.6 42.3 7.4-18.6 31-77.1 40-92.6 7.8-13.4 37.8-52.7 54.4-74.1l-.1.1z" fill="#6c6666"/></g><path clip-path="url(#c)" d="m4580 880.5c0 12.6-8.6 23-18.9 23-10.6 0-19.1-10.3-19.1-23 0-12.8 8.5-23.1 19.1-23.1 10.3.1 18.9 10.3 18.9 23.1z" fill="#f3c427"/><g clip-path="url(#c)"><path d="m4561.1 906.5c-12.2 0-22.1-11.6-22.1-26s9.8-26 22.1-26c12.1 0 22 11.6 22 26 0 14.3-9.9 26-22 26zm0-46c-8.8 0-16.1 9-16.1 20 0 22 32 22 32 0 0-11-7.2-20-15.9-20z" fill="#6c6666"/></g><path clip-path="url(#c)" d="m4618.1 911c0 11.3-8.5 20.5-19 20.5-10.6 0-19.1-9.2-19.1-20.5 0-11.2 8.5-20.4 19.1-20.4 10.4.1 19 9.2 19 20.4z" fill="#f3c427"/><g clip-path="url(#c)"><path d="m4599.1 934.6c-12.2 0-22.1-10.5-22.1-23.6 0-12.8 9.9-23.4 22.1-23.4 12.1 0 22.1 10.5 22.1 23.4 0 13.1-10 23.6-22.1 23.6zm0-40.8c-8.8 0-16 7.8-16 17.3 0 19.2 31.9 19.2 31.9 0 0-9.6-7.2-17.3-15.9-17.3z" fill="#6c6666"/></g><path clip-path="url(#c)" d="m4533.6 888.2c0 11.2-10.5 20.4-23.2 20.4-12.9 0-23.2-9.2-23.2-20.4 0-11.3 10.3-20.5 23.2-20.5 12.7 0 23.2 9.1 23.2 20.5z" fill="#f3c427"/><g clip-path="url(#c)"><path d="m4510.4 911.5c-14.5 0-26.3-10.5-26.3-23.4 0-13 11.8-23.6 26.3-23.6 14.4 0 26.2 10.5 26.2 23.6 0 12.9-11.8 23.4-26.2 23.4zm0-40.8c-11.1 0-20.3 7.9-20.3 17.5 0 19.1 40.4 19.1 40.4 0 0-9.7-9-17.5-20.1-17.5z" fill="#6c6666"/></g><path clip-path="url(#c)" d="m4594.9 930.2c0 21.9-11.9 39.6-26.6 39.6-14.5 0-26.3-17.7-26.3-39.6 0-21.8 11.8-39.6 26.3-39.6 14.7.1 26.6 17.9 26.6 39.6z" fill="#f3c427"/><g clip-path="url(#c)"><path d="m4568.3 972.9c-16.2 0-29.3-19.1-29.3-42.7 0-23.5 13.1-42.6 29.3-42.6 16.6 0 29.5 18.7 29.5 42.6.1 23.6-13.2 42.7-29.5 42.7zm0-79.1c-12.8 0-23.3 16.3-23.3 36.5 0 19.9 10.7 36.7 23.3 36.7 12.9 0 23.5-16.5 23.5-36.7s-10.5-36.5-23.5-36.5z" fill="#6c6666"/></g><path clip-path="url(#c)" d="m4523 931.5c0 16.9-11.8 30.7-26.5 30.7-14.5 0-26.2-13.8-26.2-30.7s11.7-30.6 26.2-30.6c14.7 0 26.5 13.7 26.5 30.6z" fill="#f3c427"/><g clip-path="url(#c)"><path d="m4496.5 965.1c-16.1 0-29.3-15-29.3-33.6 0-18.5 13.2-33.7 29.3-33.7 16.3 0 29.6 15.2 29.6 33.7 0 18.6-13.3 33.6-29.6 33.6zm0-61.2c-12.8 0-23.3 12.4-23.3 27.6s10.4 27.6 23.3 27.6 23.5-12.4 23.5-27.6c-.1-15.2-10.6-27.6-23.5-27.6z" fill="#6c6666"/></g><path clip-path="url(#c)" d="m4487.1 955.8c0 14.9-9.1 26.8-20.2 26.8s-20-11.9-20-26.8v-.1c0-14.8 8.8-26.8 20-26.8 11.2.1 20.2 12.1 20.2 26.9z" fill="#f3c427"/><g clip-path="url(#c)"><path d="m4466.9 985.6c-12.8 0-23-13.3-23-29.7 0-16.8 10-30 23-30 12.8 0 23.2 13.4 23.2 29.9 0 16.4-10.3 29.8-23.2 29.8zm0-53.7c-9.4 0-17 10.8-17 23.9s7.7 23.8 17 23.8c9.4 0 17.1-10.6 17.1-23.8s-7.6-23.9-17.1-23.9z" fill="#6c6666"/></g><path clip-path="url(#c)" d="m4635 953.2c0 17.8-13.8 32-30.7 32s-30.5-14.2-30.5-32c0-17.6 13.6-31.8 30.5-31.8s30.7 14.2 30.7 31.8z" fill="#f3c427"/><g clip-path="url(#c)"><path d="m4604.2 988.1c-18.5 0-33.6-15.6-33.6-34.9 0-19.2 15.1-34.9 33.6-34.9 18.7 0 33.8 15.7 33.8 34.9.1 19.3-15.1 34.9-33.8 34.9zm0-63.7c-15.1 0-27.4 12.9-27.4 28.8s12.3 28.8 27.4 28.8c15.3 0 27.7-12.9 27.7-28.8s-12.3-28.8-27.7-28.8z" fill="#6c6666"/></g><path clip-path="url(#c)" d="m4561.1 907.3c0 10.5-10.9 19.2-24.5 19.2-13.3 0-24.2-8.6-24.2-19.2 0-10.5 10.9-19.1 24.2-19.1 13.6 0 24.5 8.5 24.5 19.1z" fill="#f3c427"/><g clip-path="url(#c)"><path d="m4536.6 929.4c-15 0-27.2-9.9-27.2-22.2 0-12.2 12.2-22.3 27.2-22.3 15.1 0 27.4 10 27.4 22.3.1 12.3-12.2 22.2-27.4 22.2zm0-38.3c-11.7 0-21.2 7.4-21.2 16.2 0 17.9 42.6 17.8 42.6 0 0-8.9-9.6-16.2-21.4-16.2z" fill="#6c6666"/></g><path clip-path="url(#c)" d="m4565.3 949.4c0 15.5-15.2 28.1-33.8 28.1-18.7 0-33.8-12.6-33.8-28.1s15.1-28 33.8-28c18.6 0 33.8 12.5 33.8 28z" fill="#f3c427"/><g clip-path="url(#c)"><path d="m4531.5 980.5c-20.3 0-36.8-13.9-36.8-31.1 0-17.1 16.5-31.1 36.8-31.1s36.8 14 36.8 31.1c-.1 17.2-16.5 31.1-36.8 31.1zm0-56.1c-17 0-30.8 11.2-30.8 25s13.8 25.1 30.8 25.1c16.9 0 30.8-11.2 30.8-25.1 0-13.8-13.9-25-30.8-25z" fill="#6c6666"/></g><path clip-path="url(#c)" d="m4651.9 999.2c0 19.1-14.2 34.5-31.7 34.5s-31.6-15.4-31.6-34.5c0-19 14.1-34.5 31.6-34.5s31.7 15.5 31.7 34.5z" fill="#f3c427"/><g clip-path="url(#c)"><path d="m4620.2 1036.7c-19.1 0-34.7-16.7-34.7-37.5 0-20.7 15.6-37.6 34.7-37.6 19.2 0 34.8 16.9 34.8 37.6 0 20.8-15.7 37.5-34.8 37.5zm0-69c-15.7 0-28.6 14.1-28.6 31.5s12.9 31.4 28.6 31.4c15.9 0 28.7-14 28.7-31.4-.1-17.4-12.8-31.5-28.7-31.5z" fill="#6c6666"/></g><path clip-path="url(#c)" d="m4478.6 990.3c0 12.6-8 23-18 23-9.8 0-17.8-10.3-17.8-23s8-23 17.8-23c10 0 18 10.3 18 23z" fill="#f3c427"/><g clip-path="url(#c)"><path d="m4460.6 1016.3c-11.5 0-20.9-11.7-20.9-26s9.3-26 20.9-26 21.1 11.6 21.1 26c0 14.3-9.5 26-21.1 26zm0-45.9c-8.2 0-14.8 8.9-14.8 19.9 0 22.1 29.8 22 29.8 0 0-11-6.8-19.9-15-19.9z" fill="#6c6666"/></g><path clip-path="url(#c)" d="m4605.4 986.4c0 16.2-12.3 29.4-27.4 29.4-15.3 0-27.5-13.2-27.5-29.4 0-16.1 12.2-29.2 27.5-29.2 15.1 0 27.4 13.1 27.4 29.2z" fill="#f3c427"/><g clip-path="url(#c)"><path d="m4578 1018.8c-16.9 0-30.6-14.5-30.6-32.4 0-17.8 13.7-32.3 30.6-32.3 16.7 0 30.4 14.5 30.4 32.3 0 17.9-13.7 32.4-30.4 32.4zm0-58.6c-13.5 0-24.5 11.7-24.5 26.2s10.9 26.3 24.5 26.3c13.4 0 24.4-11.8 24.4-26.3s-11-26.2-24.4-26.2z" fill="#6c6666"/></g><path clip-path="url(#c)" d="m4518.7 985.2c0 14-10.7 25.5-24.2 25.5s-24.2-11.4-24.2-25.5 10.7-25.6 24.2-25.6 24.2 11.5 24.2 25.6z" fill="#f3c427"/><g clip-path="url(#c)"><path d="m4494.5 1013.8c-15.1 0-27.3-12.8-27.3-28.5 0-15.8 12.2-28.6 27.3-28.6 15 0 27.3 12.8 27.3 28.6 0 15.6-12.3 28.5-27.3 28.5zm0-51.1c-11.7 0-21.3 10.1-21.3 22.6 0 12.3 9.6 22.5 21.3 22.5 11.8 0 21.3-10.1 21.3-22.5 0-12.5-9.6-22.6-21.3-22.6z" fill="#6c6666"/></g><path clip-path="url(#c)" d="m4561.1 992.8c0 15.7-11.5 28.2-25.5 28.2-14.1 0-25.2-12.5-25.2-28.2 0-15.5 11.2-28 25.2-28s25.5 12.5 25.5 28z" fill="#f3c427"/><g clip-path="url(#c)"><path d="m4535.6 1023.9c-15.6 0-28.3-13.9-28.3-31.1 0-17.1 12.7-31.1 28.3-31.1 15.7 0 28.4 14 28.4 31.1.1 17.2-12.7 31.1-28.4 31.1zm0-56.2c-12.3 0-22.2 11.2-22.2 25.1s9.9 25.1 22.2 25.1 22.4-11.1 22.4-25.1c0-13.8-10-25.1-22.4-25.1z" fill="#6c6666"/></g><path clip-path="url(#c)" d="m4451.1 824.3c6.3 0 50.7 17.9 50.7 17.9s-54.9 25.5-46.4 23c8.5-2.6 61.3-10.3 57-10.3-4.2 0-46.4 48.6-33.8 46 12.7-2.5 38.1-33.2 40.2-33.2 2.2 0 27.5 48.5 29.7 45.9 2.1-2.6 0-48.4 2.1-48.4s52.8 30.5 48.6 27.9c-4.2-2.5-33.8-38.3-31.7-38.3s69.7 7.8 65.5 5.1c-4.2-2.5-44.4-25.5-44.4-25.5s29.5-33.3 23.3-33.3c-6.4 0-55 33.3-50.7 30.7 4.2-2.5 52.7-69 52.7-69l-48.5 28.1s8.4-40.9 4.2-38.3-38 53.7-40.2 53.7c-2 0-10.6-51.1-10.6-51.1s2.2 56.2-10.5 58.7c-12.8 2.7-57.2 12.9-57.2 10.4z" fill="#f3c427"/><g clip-path="url(#c)"><path d="m4548.2 916.8c-3 0-4.9-2.4-19.9-28.3-3.9-6.7-8.6-14.7-10.5-17.5 0 1.4-2.4 3.8-4.5 6.1-12.4 12.6-25.2 25.1-34.1 26.9-6.2-9.2 11.9-32.4 23.3-44.2-2.4.7-5.2 1.1-8 1.6-14.7 2.4-33.5 5.4-38.2 6.8-5.4-5.1-5.5-5.5 41.7-27.3-8.6-.2-35.8-10.9-45-13.1 7.6-6.3 28.4-10.8 43-13.9l11.7-2.5c6.1-1.3 9.2-29.8 8.2-55.8 9.2 20.3 13.7 43.2 15.5 48.4-.2-3.5 7.6-14.6 13.9-23.6 15-21.4 20.4-28.7 22.8-30.1 5.5 1.9 7.8 4.8.3 41.6l44.2-31.3c1.6 5.4-24.1 42.1-39 61.7 12.5-10.4 33.4-23.7 38.4-23.7 4.2 3.8 6 7.8-20.5 37.6 2.4-.6 39.2 19.2 43.2 21.6l-3.9 6.1c-8.4 0-36.7-2.9-52.5-4.6l-10.7-1c4.8.6 29.7 30.3 33.3 32.7-.1 0-.1 0-.1 0-.9.9-2.7.1-5.1-1.4-17.2-5.3-40.8-19-45.3-21 2.3 1.6 2.3 12.2 2.3 20.1 0 21.4-.3 25.4-1.8 27.2zm-29.5-52.2c2.5 0 3 .6 14.7 20.9 4 6.8 9.4 15.9 12.8 21.4.1-5 .1-12.4.1-18.5 0-23.8 0-26.2 4.1-26.2.7 0 2.5 0 36.5 20.3-10.7-9.9-23.6-25.2-22.6-28.3 3.5-2.1 7.8-1.7 14.3-1.1 14.4 1.5 38.9 4 49.3 4.5-9.7-2.4-41.1-20.3-41.1-20.3 10.2-16.9 22.1-32 22.7-35.2-2.6 2.9-36.1 24.8-46.2 31.9 0-.3.1-.6.2-.8-.1-.6.2-1.3.6-2.2 5.6-13.4 32.8-50.2 47.1-69.8l-44.7 32.6c-1.3-17.1 1.2-34 .9-38.7-.4 4.2-10.2 18.2-17.5 28.5-18.2 25.9-18.5 25.9-20.9 25.9s-4 0-9.1-28c.3 16.3-2.8 33.9-11.4 35.6l-11.6 2.6c-12.4 2.6-29.5 6.3-39 7.6 14.8.2 44.8 12.2 44.8 12.2-9.3 7.5-22.1 14.8-31.8 20.2 6.8-1.8 15.1-3.1 22.3-4.3l17.5-3c-.4.8-1 1.8-1.6 2.9-.2.3-.4.6-.6.9-7.8 12.3-29.4 38.6-29.4 43.5 6.5-3.2 21.5-18.5 29.5-26.8 7.3-7.3 8.3-8.3 10.1-8.3z" fill="#6c6666"/></g><g fill="#233697"><path clip-path="url(#c)" d="m4313.4 1237.2c1.1 5.3 34.9 97 86.6 94.6 51.9-2.6 73-17.9 70.8-19.2-2-1.3-24.3-16.6-37-49.7-12.7-33.2-14.7-47.3-14.7-47.3z"/><path clip-path="url(#c)" d="m4498.3 1201.4s38.1 90.8 55 103.6 56.1 23 73 21.7 36.8 0 36.8 0-16.9-8.8-30.5-58.8c-13.8-49.8-18-66.5-18-66.5z"/><path clip-path="url(#c)" d="m4730.8 1234.7s-7.3 66.4 0 83.1c7.6 16.4 44.4 47.1 44.4 47.1s44.3-6.3 45.4-47.1c1-41.1-14.7-79.3-14.7-79.3z"/></g><path clip-path="url(#c)" d="m4277.5 1118.5s2 10.2 0 17.9c-2.2 7.5-20.1 28-20.1 44.6s21.2 67.7 85.5 69c64.5 1.3 145.8-42.1 144.8-43.4s-154.2-125.3-156.3-124c-2.1 1.4-53.9 38.4-53.9 35.9z" fill="#225326"/><g clip-path="url(#c)"><path d="m4345.7 1253.1-2.8-.1c-66.8-1.3-88.5-54-88.5-72 0-11.8 8.2-25.2 14.3-34.8 2.6-4.4 5.2-8.5 5.8-10.7 1.9-6.6 0-15.9 0-16.3 6.3-4.8 36.1-25.7 47.3-33.5l7.9-5.6h.1c7.8 0 159 123.3 160.2 124.5-1.8 8.1-81.4 48.5-144.3 48.5zm-66.6-131.7c2.1 1.1 3.2 9.2 1.3 15.8-.9 3-3.4 7.1-6.6 12.1-5.7 9.2-13.3 21.6-13.3 31.7 0 14.2 19.8 64.7 82.5 65.9l2.7 3.1v-3c62.2 0 135.8-39.3 139.8-42.4-2.4 4.1-146.8-115.2-155.1-119.2l-5.6 5.5c-34 23.9-42.6 29.3-45.7 30.5z"/></g><path clip-path="url(#c)" d="m4703.3 1206.7s13.8 44.7 19.1 49.7c5.4 5.2 7.4 15.3 8.4 15.3 1.2 0 88.8 23 88.8 23s8.5-29.2-4.3-52.2c-12.6-23.2-60.1-83.1-60.1-83.1z" fill="#225326"/><g clip-path="url(#c)"><path d="m4821.6 1298.5-2.8-.8s-84.9-22.3-88.5-22.9c-5.2-8.1-7.2-13.3-10.2-16.1-5.5-5.6-17.5-43.6-19.8-51.2l52.7-50.4c6.3 2.8 52.2 60.8 64.8 83.9 13.2 23.7 4.9 53.3 4.5 54.6zm-68.8-137.3-47.4 47.7c7.5 18.4 16.2 42.5 19.1 45.3 3.9 3.8 6.3 9.6 7.7 13.3-.8 1.2.2 1.2 85.2 23.4 1.7-7.7 5-29.6-4.7-47.1-12.5-22.5-59.5-82-59.9-82.6z"/></g><path clip-path="url(#c)" d="m4763.6 1151.7c2.2 0 23.2 21.7 40.2 10.1 16.9-11.3 44.4-42.1 44.4-42.1s-23.2 9-40.1 7.8c-17-1.5-43.5 25.5-44.5 24.2z" fill="#225326"/><g clip-path="url(#c)"><path d="m4792.8 1168.3c-11.3 0-21.9-7.8-27.4-11.9l-10.9-3.6 7.5-3.5c.4-.3.9-.5 1.3-.6 13.7-10.9 34-24.2 44.3-24.4 20.1 0 39.4-7.3 39.6-7.5 2.2 6.2-24.6 36-41.6 47.5-3.8 2.6-8.2 4-12.8 4zm-28.5-13.6c13.1.8 27.2 11.8 37.8 4.8 11.6-7.9 28.5-25.2 37.5-34.9-7 3.4-16.4 5.8-28.5 6.1-15.7 0-32 13.1-39.9 19.4l-5 3.4c-.4.6-1 1.1-1.9 1.2z"/></g><path clip-path="url(#c)" d="m4274.3 1123.5s-6.4-21.7-23.3-23-47.5 2.6-58.1-7.6c-10.7-10.3-13.7-34.6-19.1-33.3-5.2 1.3-19 0-20 0-1.1 0-6.3-20.4 8.5-30.7 14.8-10.1 27.4-1.2 36-8.9 8.3-7.7 21.1-12.8 38-14.1 16.9-1.2 44.4 25.7 57.1 32 12.6 6.4 40.2 14.1 50.7 7.7s69.7-34.6 90.9-35.8c21.1-1.3 65.4-2.6 82.3-1.3s83.5 11.5 103.6 23.1c20.1 11.4 126.7 56.1 141.6 66.3 14.7 10.3 47.5 25.6 47.5 25.6s-58.2 69-86.6 80.5c-28.5 11.4-119.4 29.3-173.4 25.5-53.8-3.8-96.2-10.3-137.3-35.8-41.2-25.5-85.5-49.9-87.7-62.5-2.1-12.8-1.1-29.4-1.1-29.4z" fill="#225326"/><g clip-path="url(#c)"><path d="m4566.3 1233.1c-5.8 0-11.2-.1-16.4-.5-57.4-4.1-98.5-11.3-138.7-36.3l-22.7-13.8c-40-24.2-64.5-39.6-66.4-50.8-2.2-12.8-1.2-29.3-1.2-30l-45.3 24.7c-4.2-2.1-10-21.6-24.7-22.7-3.3-.3-7.2-.3-11.3-.3l-8.4-3.1v3.1c-16 0-32.3-.7-40.3-8.2-6-5.8-9.6-15.1-12.4-22.7-1.5-3.9-3.5-9-4.7-9.8-1.9 1.2-14.1.4-18.5.2-6.8-9.5-8.5-26.6 5.4-36.2 8.1-5.6 15.9-5.6 22.5-6.1 6.9 0 10.4-.2 13.1-2.7 9.4-8.5 23.2-13.5 40-14.7 13.8 0 30 11.9 43.2 21.7 6.1 4.5 11.5 8.6 15.4 10.5 13 6.6 40 12.6 47.8 7.8 10.8-6.7 70.5-34.9 92.3-36.2 21.2-1.3 65.8-2.4 82.7-1.3 15.1 1.1 83.5 11 104.8 23.4 9.2 5.3 36 17.2 63.9 29.6 34.2 15.3 69.6 31.1 77.9 36.9 14.7 10.2 47.2 25.4 47.2 25.4-1.3 7.5-58 74.4-86.8 86.1-26.4 10.4-104.5 26-158.4 26zm-243.5-134c4.2 3.2 3.3 19.4 5.2 31.6 1.6 9 33 28.1 63.6 46.6l22.8 13.9c39.2 24.3 79.6 31.3 135.9 35.2 53.1 3.7 143.5-13.7 172.1-25.2 25.8-10.5 78-71 84.8-78.8-5.2 1.1-33-12.7-46.3-22-7.9-5.4-44.6-21.8-77-36.3-28.2-12.6-55.3-24.7-64.4-29.9-19.2-11-84.1-21.3-102.2-22.6-16.8-1.3-61.1 0-82.1 1.3-19.9 1.1-78.1 28.3-89.4 35.3-10.8 6.3-39.6-.5-53.7-7.5-4.2-2.1-9.9-6.4-16.3-11-12.3-9.1-27.8-20.6-38.2-20.6-16.3 1.2-28.8 5.8-37.2 13.3-4.5 3.9-10.5 2.2-15.3 4.2-8.5 0-14.5.4-20.9 5-12.2 8.4-8.7 24.8-7.9 26.4 1.8-.9 6.3-.6 10.4-.7l7.7-.6c4.6 0 6.6 5.4 9.8 13.6 2.7 7 6.1 15.7 10.9 20.5 6.3 6.1 21.9 6.6 36.1 6.6h8.4c4.4 0 8.3 0 11.8.3 18.9 1.4 25.8 24.1 26 25.1z"/></g><path clip-path="url(#c)" d="m4208.9 1040.5c-2.2 1.3-12.7 6.4-10.5 9 2 2.7 6.2 10.2 18.9 8.9 12.8-1.2 26.5-10.2 26.5-10.2s-15.9-8.9-34.9-7.7z" fill="#225326"/><g clip-path="url(#c)"><path d="m4214.5 1061.6c-10.9 0-15.7-6.4-18-9.5-1-7.2 2.5-9.6 9.1-13.2 24.8-1.1 38.9 6.3 39.5 6.7-.4 5.6-14.2 14.5-27.4 15.8zm-1.9-18.1c-8.7 3.3-11.2 5-11.7 5.8 2.6 2.1 5.7 6.3 13.6 6.3v3.1l2.5-3.3c8.3-.8 17.3-5.4 21.9-7.9-4.8-.3-14.7-4-26.3-4z"/></g><path clip-path="url(#c)" d="m4207.7 1043.1v14.1s14.8 5.1 14.8 1.2c0-3.8 1.1-12.7-2.1-12.7s-11.5-1.3-12.7-2.6z"/><g clip-path="url(#c)"><path d="m4207.7 1043.1v14.1s14.8 5.1 14.8 1.2c0-3.8 1.1-12.7-2.1-12.7s-11.5-1.3-12.7-2.6z" fill="none"/></g><path clip-path="url(#c)" d="m4355.7 1053.6c3.8-8 0-18.9 21.7-31.5 21.7-12.7 59.4-9.1 59.4-9.1s-10.9 10-11.3 20.3c-.4 10.4.8 14.9.8 14.9s-20.5-8.2-36.2-3.1c-15.8 5.1-34 9.9-34.4 8.5z" fill="#0a1e10"/><g clip-path="url(#c)"><path d="m4356.4 1057-4-3.2 2.1-7.3c1.7-7.6 3.7-16.9 21.2-27 21.5-12.5 61.2-9.4 61.2-9.5 1.8 5.4-8.2 14.6-8.5 23.6-.4 9.7.6 14 .6 14-4.2 3.5-15.6-1-27.5-1-4 0-7.6.5-10.8 1.5-10.3 3.4-29.3 8.9-34.3 8.9zm68.1-41.3c-11.2 0-32 1.1-45.7 9.1-15.2 8.8-16.8 16.4-18.3 23.1l-.8 2.6c5.9-1.2 17.2-4.4 29.3-8.2 10.8-3.3 26.7-.5 34 1.8-.6-2.3-.8-6-.6-10.7.3-7.1 4.6-13.5 8-17.8-1.8.1-3.7 0-5.9.1z" fill="#00000f"/></g><path clip-path="url(#c)" d="m4452.9 1009.4c-2.4 1.5-18.8 23.6-16.9 30.3 1.9 6.8 23.9 23.1 30.9 21.7 7.2-1.4 39.7-20.3 41.6-29.8 1.9-9.4 3.4-22.2.7-24.9-2.6-2.6-56.1 3.7-56.3 2.7z" fill="#0a1e10"/><g clip-path="url(#c)"><path d="m4466 1064.5c-8.8 0-30.6-15.9-33-24-2.4-8.7 15.5-32 18.3-33.6 4.4-.4 10.2-.9 17.4-1.6 11.6-1 26.5-2.2 34.7-2.2l8 1.7c3 2.9 3 12 0 27.3-2.1 11.3-36.2 30.8-44 32.2zm41-55.6c-11.5.2-26.2 1.5-37.8 2.5-7.4.7-13.5 1.2-15.6 1.2-2.3 2.1-16 22-14.8 26.4 1.6 5.1 20.5 19.4 27.2 19.4v3l.3-3c7.2-1.4 37.8-20.1 39.2-27.4 2.7-13.8 2.3-20.9 1.5-22.1z" fill="#00000f"/></g><path clip-path="url(#c)" d="m4524.1 1005.9c-4.1 5-2.6 28.8-1.1 31.5s27.3 34 32.9 35.7c5.6 1.8 47.1-3.2 50.5-8.6 3.4-5.3 13.3-28.4 10.3-33.8-3-5.3-11.9-12.6-39.6-19.8-27.5-7.3-43.9-6.4-53-5z" fill="#0a1e10"/><g clip-path="url(#c)"><path d="m4560.3 1076.5-5.3-.4c-7.2-2.3-33.7-35.5-34.7-37.1-1.8-3.6-3.6-28.9 1.5-35.1 16.4-5 33.8-1.8 56.2 4 23.4 6.1 37 13.1 41.5 21.3 4.2 7.7-8.2 33.2-10.4 37-4.5 7-40.4 10.3-48.8 10.3zm-23.1-68.5c-5.4 0-9.5.5-12.6.9-.9 2.2-.3 23.8 1.1 27.3 2.2 3.6 26.7 32.4 31.2 34.1l3.4.3c14.3 0 40.8-4.7 43.5-7.8 4.5-7 12-27.2 10.3-30.6-2.6-4.6-11.1-11.4-37.8-18.4-14.5-3.9-27.7-5.8-39.1-5.8z" fill="#00000f"/></g><path clip-path="url(#c)" d="m4629.9 1036c6.8 4.1 45.9 27.1 69 45.6 23.3 18.6 32.6 39.8 39.4 41.6s33.9-18 35-23.5c1.2-5.4-33.2-34.3-56.3-47.3-23.2-13.1-87.1-15-87.1-16.4z" fill="#0a1e10"/><g clip-path="url(#c)"><path d="m4739.2 1126.4-1.7-.2c-4-1.1-7.5-5.7-12.8-12.7-6.3-8-14.8-19.1-27.7-29.4-21-16.9-55.2-37.3-66.4-44 .1-.2.1-.4.2-.6-.7-.1-1.1-.1-1.5-.3.5.1 1 .2 1.5.3 1.7-5.8 5.7-5.5 10.7-4.9 20.8 1.8 59.3 5.2 76.9 15.1 17.8 10.2 59.9 41.6 57.9 50.8-1.5 7.2-28.3 25.9-37.1 25.9zm-107.9-86.9c16.5 3.7 49 23.5 69.6 39.9 13.3 10.6 22.1 22.2 28.5 30.5 4 5.1 7.7 9.9 9.7 10.4h.1c7.1 0 29.8-17.2 31.1-21.3-1.2-4.6-31.8-31-54.8-44-16.6-9.3-55.7-12.8-74.5-14.5-4.9-.4-7.9-.7-9.7-1z" fill="#00000f"/></g><path clip-path="url(#c)" d="m4621.6 1055.5c-3.2 3.7 42 98.8 50.5 102.1 8.6 3.1 60.1-18.6 59.5-25.9-.8-7.2-14.3-21.7-45.9-42.8-31.9-21.1-57.8-35.3-64.1-33.4z" fill="#0a1e10"/><g clip-path="url(#c)"><path d="m4674.3 1160.9-3.4-.5c-9.8-3.6-48.4-86.4-52.1-101.3l4.1-6.8c11.9 0 48.9 23.9 64.3 34.1 20.9 14 46 33.2 47.2 45.1-9.8 13.6-47.2 29.4-60.1 29.4zm-51.4-102.5c1.5 5.4 42 91.6 50.3 96.4l1.1.1c12.4 0 52-17.9 54.2-23.2-.2-1.5-3.3-12.5-44.7-40.2-36.5-24.4-55.6-33.1-60.9-33.1z" fill="#00000f"/></g><path clip-path="url(#c)" d="m4565.7 1090.3c-7.2 4.9-18.3 90.3-11.2 94.4s94.6-10.5 97.9-19.9c3.4-9.5-36-84.9-47.5-84.9s-32.7 3.6-39.2 10.4z" fill="#0a1e10"/><g clip-path="url(#c)"><path d="m4560 1188.5-7.1-1.1c-2.4-1.5-3.5-5-3.8-12.1-.8-20.7 7-82 14.8-87.4 7.4-7.8 30.3-10.9 40.9-10.9 2.8 0 7.2 1.7 16.3 14.8 13.6 19.1 37.4 64.6 34 74.2-4.1 11.5-79.5 22.5-95.1 22.5zm44.8-105.5c-11.3 0-31.3 3.7-37 9.5-6.8 6.7-16.2 82.9-11.5 90h3.7c22.4 0 85.3-12.2 89.6-18.7 1.3-5.1-15.5-43-32.7-67.7-8.9-12.7-12-13.1-12.1-13.1z" fill="#00000f"/></g><path clip-path="url(#c)" d="m4475.2 1072.2c-9.2 10.4-7.4 89.9-3.4 94.9 4.2 4.9 56.1 21.3 61.8 15.3 5.5-5.9 13-95.2 7.8-102-5.3-6.8-19.8-23.1-30.9-24.4-11.3-1.4-30.1 13.2-35.3 16.2z" fill="#0a1e10"/><g clip-path="url(#c)"><path d="m4528.3 1186.8c-14 0-54.1-12.1-58.8-17.8-5.4-6.6-6.8-87.2 3.5-98.7 12.3-8.5 25.7-17.4 35.8-17.4 16.1 1.9 33 23.3 34.9 25.7 5.8 7.5-1.1 98.6-7.8 106l-1 1zm-18.5-127.8c-9.3 0-22.1 8.5-28.9 13.1-10.9 10.6-10.4 86-6.5 93.3 3 3.1 39.4 15.2 53.9 15.2v3.1l3.2-3.4c5-7.2 11.5-90.9 7.3-98.2-5.8-7.4-19.3-22-28.8-23.1z" fill="#00000f"/></g><path clip-path="url(#c)" d="m4357.8 1070.8c-8.6 8.2-9 29.4.4 33 9.3 3.6 32.4 15.9 54.1 27.1 21.8 11.2 34.2 24.8 40.6 24.4 6.2-.4 12.1-80 5.6-84.5-6.8-4.5-26.7-8.1-45.2-7.2-18.8.9-46.1 3.2-55.5 7.2z" fill="#0a1e10"/><g clip-path="url(#c)"><path d="m4452.5 1158.3c-4.2 0-9.2-3.6-16.6-8.8-6.5-4.6-14.6-10.4-25-15.8l-9.5-5c-18.5-9.7-36.3-19-44.2-22.1-4.2-1.6-7.2-5.8-8.4-11.7-1.6-8 .2-20 7-26.2 12.3-5.6 46.9-7.6 57.3-8 23.1-.1 40.2 3.1 47 7.7 8.5 5.8 2.5 67.7-1.5 82.2zm-33.3-91.7c-25.6 1-51.7 3.4-60.1 7.1-3.5 3.6-5.9 12.6-4.3 20.1.7 3.9 2.4 6.5 4.6 7.2 7.9 3.1 26 12.5 44.8 22.3l9.6 5.1c10.7 5.5 19 11.4 25.6 16.2 5.6 4 10.8 7.8 13.1 7.8v3.1l.1-3.1c4.1-5.8 8.5-72.8 3.9-79.2-4.8-3.2-20.2-6.6-37.3-6.6z" fill="#00000f"/></g><g clip-path="url(#c)"><path clip-path="url(#d)" d="m3972.8 2081.9c15.3-14.9 39.2-51.4 71.5-53.1 32.3-1.6 66.5 28.3 66.5 28.3s34 139.1 32.4 139.1c-1.9 0-56.5 39.9-58 39.9-1.9 0-24-54.8-44.4-49.7-20.4 5-18.8 79.6-22.2 74.6s-90.3-107.8-86.9-111.1c3.7-3.3 42.9-63 41.1-68z" fill="#c20022"/></g><g clip-path="url(#c)"><path clip-path="url(#e)" d="m4872.2 2063.7c10.1-1.7 56.2-36.5 88.5-34.9 32.3 1.7 51.1 16.6 68.1 31.5s37.5 53.1 37.5 53.1-40.9 112.8-44.2 112.8c-3.5 0-20.4 10-24 1.7-3.4-8.3-13.5-34.8-34-38.2-20.5-3.3-25.6 36.5-25.6 36.5z" fill="#c20022"/></g><g clip-path="url(#c)"><path clip-path="url(#f)" d="m4894.2 2098.5c0 10 62.9 165.9 165.3 195.7 102.1 29.8 134.5-28.1 146.4-48.1 11.9-19.9 54.5-18.2 54.5-18.2s-10.2 145.9-27.2 164.1c-17 18.3-30.6 58.1-126.1 59.8-95.3 1.7-182.1-89.6-211.1-116.1s-66.5-96.2-81.6-127.6c-15.6-31.6 81.5-106.3 79.8-109.6z" fill="#f5dc60"/></g><g clip-path="url(#c)"><path clip-path="url(#g)" d="m3783.8 2408.6c1.7 0 45.9 48.1 110.7 43.2 64.8-5 175.4-43.2 226.5-109.5s76.6-137.6 76.6-137.6-75-132.5-76.6-132.5c-1.8 0-8.6 43.1-22.2 71.3-13.5 28.1-51.1 107.7-114 132.5-63.1 25-63.1 34.9-88.5 31.5-25.7-3.2-92.1-43.1-92.1-44.8s-32.3 77.9-32.3 77.9-6.8 51.4 11.9 68z" fill="#f5dc60"/></g><g clip-path="url(#c)"><path clip-path="url(#h)" d="m3971.6 2077.2c-4.8 0-125.3 65.8-120.5 93.9s207.2 426.8 640.8 431.5c433.5 4.8 698.5-361.1 679.2-422-19.2-61-154.1-131.4-154.1-131.4s33.6 28 28.8 65.6c-4.8 37.5-154.2 361.2-529.8 351.8-375.7-9.4-553.9-295.5-553.9-328.3s19.2-51.6 9.5-61.1z" fill="#f5dc60"/></g><g clip-path="url(#c)"><path clip-path="url(#i)" d="m5146.2 2367.2c10.3-8.3 73.3-180.8 109.1-175.8 35.8 4.9 23.8 56.3 20.4 69.6s-39.2 132.6-39.2 132.6 1.8-28.1-22.1-34.8c-23.8-6.5-63 11.6-68.2 8.4z" fill="#c20022"/></g><g clip-path="url(#c)"><path clip-path="url(#j)" d="m3783.8 2410.3c0-9.2-28.9-42.1 4.8-51.5 33.6-9.3 77 9.5 77 9.5s-24.1-70.5-52.9-126.7c-28.9-56.3-38.6-46.9-62.8-37.6-24.1 9.4-23.6 34.2-9.1 71.8 14.5 37.4 43 143.9 43 134.5z" fill="#c20022"/></g><path clip-path="url(#c)" d="m4181.2 2088.7 41.7-141.6-116.1-89 145.6-3.4 47.4-139.8 48.1 139.5 145.4 2.7-115.7 89.6 42.4 141.4-119.6-84z" fill="#f2c327"/><path clip-path="url(#c)" d="m4965.5 1351.5v545.1c1 266.2-270.6 499.4-451 544.8-180.4-45.4-451.9-278.6-450.9-544.8v-545.1z" fill="#fff"/><g clip-path="url(#c)"><path clip-path="url(#k)" d="m4063.7 1351.5.9 341.1s4.3-7.1 63.5-2.8c59.3 4.2 64.4 75.2 128.9 75.2s64.4-75.2 128.8-75.2 64.3 75.2 128.8 75.2 64.4-75.2 128.9-75.2 64.4 75.2 132.4 79.5c60.7-4.3 60.7-79.5 125.5-83.7l64.2 4.3v-338.3h-901.9z" fill="#c20022"/></g><g clip-path="url(#c)"><path d="m4775.9 1772.3h-.2c-35.3-2.3-52.8-22.7-69.7-42.5-16.3-19-31.7-37-62.5-37s-45.9 17.7-62.1 36.5c-16.3 19-33.2 38.6-66.8 38.6s-50.4-19.6-66.6-38.6c-16.1-18.8-31.4-36.5-62.2-36.5s-46 17.7-62.2 36.5c-16.2 19-33 38.6-66.6 38.6-34.7 0-52.9-19.8-70.4-39-16.1-17.6-31.4-34.2-58.7-36.1-52.7-3.8-61.1 1.7-61.2 1.8l-6.1-343.2 904.8-2.9 3.1 341.2-67.4-1.1c-31.2 1.9-46.3 21.2-62.5 41.7-15.5 19.5-31.4 39.7-62.6 42zm-132.5-85.5c33.6 0 50.7 19.9 67.1 39.2 16.1 18.7 32.7 38.1 65.3 40.3 28.3-2.1 42.8-20.4 58.1-39.8 16.1-20.5 32.9-41.7 67.2-44l64.5 4.3-3.3-335.3-898.8 3.1 3.9 334.8c3.8-4.6 22.7-5.4 60.8-2.6 29.7 2.1 46.5 20.4 62.6 38.1 17.5 19.1 34 37 66 37 30.8 0 45.9-17.7 62.1-36.5 16.3-19 33.1-38.6 66.7-38.6s50.4 19.6 66.7 38.6c16.1 18.8 31.2 36.5 62.1 36.5 30.8 0 46.1-17.7 62.2-36.5 16.5-19.1 33.2-38.6 66.8-38.6z"/></g><g clip-path="url(#c)"><path clip-path="url(#l)" d="m4063.7 1802.6v112.7h64.4c59.3 4.3 64.4 75.1 128.9 75.1s64.4-75.1 128.8-75.1 64.3 75.1 128.8 75.1 64.4-75.1 128.9-75.1 60.8 70.9 128.8 75.1c60.8-4.2 64.1-70.8 129-75.1h64.3v-112.7h-64.3c-64.7 0-64.7 75.1-129 75.1s-64.3-75.1-128.8-75.1-64.4 75.1-128.9 75.1-64.4-75.1-128.8-75.1-64.3 75.1-128.8 75.1-64.4-75.1-128.9-75.1z" fill="#325fb7"/></g><g clip-path="url(#c)"><path clip-path="url(#m)" d="m4083.2 2027.9 44.9 112.9c59.3 4.3 64.4 75.1 128.9 75.1s64.4-75.1 128.8-75.1 64.3 75.1 128.8 75.1 64.4-75.1 128.9-75.1 60.8 70.9 128.8 75.1c60.8-4.2 62.5-70.8 127.4-75.1l46.5-114.6-44.9 1.7c-64.7 0-64.7 75.3-129 75.3s-64.3-75.3-128.8-75.3-64.4 75.3-128.9 75.3-64.4-75.3-128.8-75.3-64.3 75.3-128.8 75.3-64.4-75.3-128.9-75.3z" fill="#325fb7"/></g><g clip-path="url(#c)"><path clip-path="url(#n)" d="m4514.6 2441.4c64.4 0 212-112.8 210.6-112.8 1.4 0-17.3-75.1-81.7-75.1s-64.4 75.1-128.9 75.1-64.4-75.1-128.8-75.1-80.8 75.1-81 75.1c-3 0 145.3 112.8 209.8 112.8z" fill="#325fb7"/></g><g clip-path="url(#c)"><path clip-path="url(#o)" d="m4181.6 1611.7c7.4 0 73 9.5 120.5 6.4 47.4-3.2 65.7-19.1 65.7-22.3v-9.4h62.2s10.9 44.3 3.6 47.6c-7.3 3.1-25.6 15.9-29.2 15.9s0-22.3-7.3-15.9c-7.2 6.4-10.8 15.9-10.8 15.9s-7.3-9.5-11-9.5c-3.6 0-11 9.5-11 9.5s0-9.5-3.6-9.5c-3.8 0-21.9 15.9-21.9 15.9l-18.3-12.8s-11 15.9-14.7 15.9c-3.6 0-25.4-12.7-25.4-12.7l-36.5 19s0-28.5-7.4-25.2c-7.2 3.1-47.4 3.1-47.4 3.1s-10.9 19.1-14.7 19.1c-3.6 0-18.3-15.9-14.6-15.9s11-9.5 7.3-12.6c-3.7-3.3-21.9 0-21.9-3.3 0-3.1-7.2-22.3-3.7-22.3 3.7 0 18.2 3.3 18.2 3.3v-19h18.4z" fill="#f2c327"/></g><g clip-path="url(#c)"><path d="m4241.9 1668.8v-3.2c0-13.3-2.4-23.7-4.4-23.7-7.8 3.3-44.3 3.4-48.5 3.4-3.6 8.2-10.8 19.1-14.7 19.1-4.4 0-17.1-13.6-17.1-17.2 3.7-2.4 7.2-5.5 8.6-9.2-3.5-10.4-22.5-1.9-22.5-7.4-4.4-16.2-5.6-20.8-4-23 6.1-1.2 19.3 1.7 20.8 2.1l-2.3-17.1 20.3-2 5.5 20.6c-.1-1.7 5-1 12.2-.2 23.3 2.4 70.2 7.3 106.2 5.1 47.1-3.2 63.5-18.5 64.1-20.6v-9.2l64-2c5.2 15.4 12.3 47.9 4.4 51.3-3.1 1.3-8.2 4.4-13.3 7.5-22.8 13.8-20 8.2-20.7-.7-.2-2.6-.5-7.1-1.4-7.9-7.4 6.7-10.9 15.9-11 15.9-13.7-8.5-15-9-22.2.5-3.5-5.2-4.6-8.8-5.2-8.8-2.2.3-12.3 8.2-20.7 15.5l-20.7-12.7c-1.6 5.8-9.4 16.4-13.5 16.4-3.8 0-21.3-9.9-26.4-13zm-6-30.4c7.9 0 9.4 15.1 9.7 24.1l33.7-17.6c12.2 6.2 24.3 12.4 26.3 12.5 1.8-.4 8.4-8.2 13.1-15.1l21 12.3c3.3-4.8 16.8-16.3 20.8-16.3s5.2 5.5 5.4 9.2c.9-4 5.8-9.2 9.2-9.2 3.7 0 8.8 5.8 11.4 9 0-2.9 3.5-9.8 9.2-14.7 7.8-2 8 4.1 8.4 9.5 2 5.8 9.8 1 15-2.2 5.3-3.2 10.5-6.4 13.7-7.8 3.1-1.3.9-22.6-4.7-45.5l-60.4 1.4 1.9 7.7c0 5.5-20.8 21.1-67.5 24.3-36.5 2.2-83.4-2.7-106.9-5.3-7.2-.7-12-1.3-13.7-1.3l-5.6-20.5-16.4 1.5 1.9 17.2c-6.2 1-17.2-1.3-20.1-1.3.4 1 2.7 8.8 3.8 12.7 1.2 4 1.8 6.3 1.8 7.5.5-.3 4.8-.3 7.7-.3 6.8 0 11.3.2 13.5 2.1-.5 11.2-5.1 16.1-8.6 16.1 1.9 1.1 12.2 11.7 14.7 12 1.8-.6 8.2-10 12.9-18.1 12.7-1 42.7-1.5 48.4-4z"/></g><g clip-path="url(#c)"><path clip-path="url(#p)" d="m4247.5 1430.5c-3.7 0-29.3 25.5-25.7 54.1s65.8 69.9 65.8 69.9 32.8-12.7 43.8 0c10.9 12.6 10.9 50.8 7.4 50.8-3.7 0-47.5 9.5-47.5 3.1 0-6.3 0-12.6-3.6-12.6-3.8 0-43.8 3.2-43.8 3.2l3.7-12.6-36.6-6.5 14.5-12.7s-58.4-22.3-54.7-22.3c3.6 0 25.7-12.6 25.7-12.6l-43.8-25.4h25.6s-36.6-25.5-32.9-25.5 21.9 3.3 21.9 3.3l-11-25.5h11l-11-19.1 18.3-6.2 11 15.9-3.7-38.2 25.5 3.2v31.7s11-19 11-22.3c-.3-3.1 32.6 12.8 29.1 6.3z" fill="#f2c327"/></g><g clip-path="url(#c)"><path d="m4298.2 1612.5c-3.2 0-8.9-.8-8.9-4.1 0-4 0-10.6-1.7-10.6-3.8 0-43.8 3.1-43.8 3.1l1.8-15.1-35.2-4 13.7-16c-56.1-18.3-55.9-19.1-55.6-21.1 4.2-1.8 16.2-8 26.8-14l-43.8-22.2 26.5-3.6c-36-20.7-35.4-22.4-35-24 6-1.3 24.3 1.8 24.3 1.8l-13-22.9 12.7-2.6-12.6-16.2 19.3-9.1 13.1 16.6-7.1-36.8 27.6 1.1 1.7 33.6c1.5-9.8 7.1-20.4 7.2-22.3 4.8-2.2 8.9-.8 15.8 1.7 4.9 1.7 10.1 3.6 13.1 4.3-6.2 8.5-24.5 30.4-21.6 54.2 3.6 27 62.9 67.1 65 68.5-.8-1 34.8-10.5 44.2.4 10.8 12.3 11.3 45.9 8.6 52-3.4 2-6.5 2.5-10.7 3.2-9.3 1.7-23.9 4.1-32.4 4.1zm-10.6-18.6c5.6 0 5.6 7.5 5.6 14.5l5 .4c8.4 0 22.7-2.5 31.8-4.1 4.6-.8 7.8-1.4 8.8-1.4 1.2-2.5 1.5-35.8-8.8-47.6-8.1-9.3-41.6.5-41.8.5-4.2-1.9-64.6-42.3-68.3-71.4-3.1-24 13.6-45.9 22.8-53.6-2.8 1.6-7.5-.2-11.9-1.8-4.6-1.7-10.2-3.7-11.8-3.7 1.1 1.8-6.8 15.7-10.1 21.7l-3.5-32.7-23.8-1.3 5.8 36-14.4-14.6-16.2 7.2 12.1 16.2-12.7 2.9 12.7 22.8c-1.9 2.6-18.9-.3-23.2-.5 3.6.5 19.2 12 33.5 22l-26.5 3.4 44.8 22c-4.9 5.9-20.5 15-25.7 16.1 6.3.1 35.9 11.6 54.6 18.7l-14.1 15.9 35.7 3.1-2.1 14.6c2.2-2.4 38.3-5.3 41.7-5.3z"/></g><g clip-path="url(#c)"><path clip-path="url(#q)" d="m4813.5 1627.6c-4.6 4-18.3 12.7-18.3 12.7s31.1-2.5 30.1-2.5c-.9 0-11-7.9-11.8-10.2z"/></g><g clip-path="url(#c)"><path clip-path="url(#r)" d="m4839.9 1642.7c-1.8 2.4-7.3 26.9-3.6 25.4 3.6-1.6 18.1-19.9 18.1-19.9z"/></g><g clip-path="url(#c)"><path clip-path="url(#s)" d="m4881.9 1645.8c4.6 3.9 25.6 22.3 22.9 18.3-2.8-4-5.5-20.7-7.3-21.4-1.9-.9-13.7 4.6-15.6 3.1z"/></g><g clip-path="url(#c)"><path clip-path="url(#t)" d="m4514 1619.5c-2.6.9-25.5 15.9-25.5 15.9s38.3-6.3 36.4-6.3c-1.8.1-11.9-7.2-10.9-9.6z"/></g><g clip-path="url(#c)"><path clip-path="url(#u)" d="m4537.6 1638.7c-3.5 3.1-15.5 25.4-10.8 24.5 4.5-.7 24.7-15 24.7-15z"/></g><g clip-path="url(#c)"><path clip-path="url(#v)" d="m4523.1 1607.7c-2.8-.8-21.9-8.8-21-8.8s25.6-5.6 25.6-5.6z"/></g><g clip-path="url(#c)"><path clip-path="url(#w)" d="m4161.5 1597.3-27.4-19 34.7 9.5z"/></g><g clip-path="url(#c)"><path clip-path="url(#x)" d="m4137.9 1610c-3.8 0-38.4 19.2-37.6 19.2 1 0 48.5.7 47.5 0-.8-.9-8.1-17.5-9.9-19.2z"/></g><g clip-path="url(#c)"><path clip-path="url(#y)" d="m4159.7 1637.8c-3.7 1.6-30.9 19.9-29.1 19.9s41.2.7 41.2 0c-.1-.8-11.1-19-12.1-19.9z"/></g><g clip-path="url(#c)"><path clip-path="url(#z)" d="m4156 1440s-9.9-22.3-8.9-22.3c.8 0 25.4 17.5 25.4 17.5z"/></g><g clip-path="url(#c)"><path clip-path="url(#A)" d="m4183.4 1412.3c0-.8 2.8-14.3 2.8-14.3s24.7 16.7 23.8 16.7c-1 0-24.7 0-26.6-2.4z"/></g><g clip-path="url(#c)"><path clip-path="url(#B)" d="m4221.8 1422.7c0-.9 2.8-20.8 2.8-20.8s22.9 27 21.1 27.9c-1.9.7-22.1-4-23.9-7.1z"/></g><g clip-path="url(#c)"><path clip-path="url(#C)" d="m4587.9 1561.7c0 1.5 38.4 28.6 39.3 34.9.9 6.4-69.4 8-69.4 8s-20.2-13.5-26.6-12.7c-6.3.7-9.1 14.2-9.1 14.2l16.5 8-31 1.6 9.1 15 23.8-1.5-5.4 14.2s14.5 9.5 17.3 8c2.8-1.7 11.9-15.9 19.1-18.3 7.3-2.4 22.9-2.4 22.9-2.4s-11.9 17.5-6.4 17.5 30.1-18.3 30.1-18.3 5.5 16.7 6.4 16.7c1 0 18.3-19 18.3-19s0 15.1 2.7 15.1c2.8 0 28.3-19.2 28.3-19.2s20.2 22.3 22.8 20.7c2.8-1.5 5.6-23.8 8.3-23.8s20-2.4 20-3.3c0-.7-11-8.8-12.8-19.9-1.8-11 1.8-37.3 1-37.3-1.1.1-123.4 4.1-125.2 1.8z" fill="#f2c327"/></g><g clip-path="url(#c)"><path d="m4551.6 1653.5c-4.4 0-15.5-7.1-17.6-8.5l4.8-16.6-22 4.3-10.8-16.1 32.5-4.5-17.2-4.4c-.7-3.5 2.3-16.9 9.8-17.8 8.2 0 25.8 11.7 27.8 13 29.8-1 63.8-3.7 66.6-6.8-.8-2.8-19.3-17.3-28.2-24.3-11-8.7-11.3-9-11.3-10.2 3.1-1.6 5.7-1.1 19-1.2 29.6 0 88.9-1.8 104.2-2.3 6 1.4 6 1.8 5.4 10.1-.8 8.7-1.8 21.8-.7 28.7 1.3 8 8.1 14.4 10.8 17.2 2 6.7-19.7 8-19.9 8-.2.7-1.6 6.7-2.5 10.5-2 8.5-3.1 12-4.9 13.1-.1 0-.2 0-.2 0-5.4 0-17.9-13.2-25.1-21.1-9.2 9.1-24.1 19.7-26.9 19.7-1.4 0-4.6 0-4.6-16.9-14.5 20.9-15.4 20.9-16.4 20.9-1.5 0-2.3 0-8.2-18-1.3 4-22.6 19.7-28.3 19.7-4.4-4.9.2-13.4 3.8-19.1-3.4 1.7-14.1 2-19.7 3.8-4.2 1.4-9.8 8-13.3 12.4zm-11.3-26.3-3.6 16.9c4.3 1 12.2 5.5 14.6 5.6 8.6-9.8 14.3-16.7 19.5-18.4 7.6-2.4 22.9-2.4 23.5-2.4-2.8 9.3-6.4 16.3-6 17.9 3-.5 18.6-11 28.6-18.4 5.2 8 8.1 15.8 8.8 16.9-.8-1.4 9.2-11.8 15.6-19 3.3 7.5 4.1 13.7 4.9 14.7 1.2-.7 14.6-10.1 26.4-19 10.8 9.5 21.4 19.9 23.7 20.4 0-.7 1.4-6.7 2.4-10.6 2.3-9.3 3.3-13.3 6.2-13.3 2.6 0 17.3-2.1 19-2.8-4.9-1.7-12.2-8.8-13.6-18-1.3-7.4-.2-20.8.6-29.6.2-3.4.5-6.9.4-7.5-20.6 2.2-101.8 4.2-118.4 3.5 2.3 1.3 4.7 3.1 6.9 5 19.1 14.8 28.8 23.1 29.4 27.3-5.8 8.2-56 9.6-71.3 10.1-6.2-3.9-20.8-12.8-26-12.8-4.2.4-6.9 8.8-7.8 12.8l15.4 5.9-31.6 5.1 10.6 12.3z"/></g><g clip-path="url(#c)"><path clip-path="url(#D)" d="m4393.4 1513.2h358c36.4 0 69.4-12.7 69.4-31.9 0-19-58.5-22.2-80.5-15.7-21.8 6.3-116.8 44.3-157 41.3-40.2-3.3-76.8-25.5-80.3-47.7-3.7-22.2 18.3-41.4 58.5-41.4s91.3 12.7 102.2 9.6c10.9-3.3 36.5-28.6 47.5-31.8 10.9-3.1 43.8-6.4 43.8-6.4l-14.6 9.5 47.4-9.5s-36.4 34.9-73 44.6c-36.6 9.5-113.2 6.2-142.4 6.2s-43.8-3.1-40.2 15.9c3.7 19.1 25.6 31.7 43.9 28.6 18.2-3.3 73-19 73-19l-14.6-9.6 65.8-3.2s-3.7-9.5 0-9.5 36.5 3.1 36.5 3.1-21.9-9.5-18.1-9.5c3.6 0 18.1 0 47.3 3.1 29.2 3.3 91.4 12.7 87.7 38.2-3.7 25.4-25.7 47.6-51.1 47.6-25.7 0-47.5-6.4-47.5 3.3 0 9.4 29.2 15.7 47.5 15.7s40.2-12.6 43.8-12.6c3.7 0 11.1 19 14.7 19s25.5-6.4 25.5-6.4l-14.5 35 25.5 6.5s-14.6 12.6-10.9 12.6 25.7 0 25.7 3.2-29.3 22.2-29.3 25.5c0 3.1 22 12.7 22 12.7s-14.6 19-18.3 15.9c-3.7-3.3-18.3-19.2-18.3-19.2s-3.6 12.8-10.8 12.8c-7.4 0-22-3.3-22-3.3s10.9-19 7.4-19c-3.8 0-21.9 12.7-21.9 9.5l-10.9-9.5s29-10.4 29-25.5-11.8-30.2-64.8-32.6-53.8 11.1-93.2 9.7c-39.3-1.7-39.3-15.2-68.4-15.2-29.2 0-119.6 31.8-161.6 30.9-42.1-.7-94.9-3.1-93.2-4.6 1.6-1.5 34.4-74.5 35.3-76.9z" fill="#f2c327"/></g><g clip-path="url(#c)"><path d="m4887.5 1658.4-2.2-.8c-3.2-2.7-14.1-14.5-17.5-18.2.5 3.2-3.4 12.2-10.4 12.2-7.5 0-21.8-3.1-22.4-3.2 2.7-9.6 6.8-18.2 6.6-19.9-.1.9-5.2 3.8-8.6 5.7-5.9 3.2-9.6 5.2-11.5 5.2l-12.8-10.4c.9-3.3 28.6-13.3 28.6-26.8 0-18.8-20.7-28.7-63.1-30.7l-11.6-.3c-20.6 0-31.5 2.8-42.3 5.4-9.4 2.4-18.5 4.6-33 4.6-27.2-.9-37.2-5.2-46.2-9-7.9-3.4-14.9-6.2-28.4-6.2-12.7 0-38.4 6.3-65.3 13-33.3 8.5-71.1 17.9-94.8 17.9-29.6-.5-95.1-2.2-96.4-5.9 2.6-5 34-74.4 35.6-78.6l359.8-1.2c37.8 0 67.4-13.1 67.4-29.9 0-15.7-56.5-20.3-78-13.9-4.7 1.4-12.8 4.3-23.1 7.8-36 12.7-96.1 33.7-129.3 33.7-45.9-3.4-83.5-26-87.4-49.4-1.5-9 .9-17.5 7.1-24.8 19.1-22.5 76.4-18.4 118.4-12.3 13.6 2 25.1 3.7 32 3.7 9.6-2 18.8-9.1 27.6-16 9.6-7.5 18.6-14.6 24.4-16.3 11.1-3.1 44.2-6.4 44.2-6.4l-13.4 13 46-13c.2 4.7-35.6 38.7-72 48.2-18 4.7-47.8 6.9-91.1 6.9l-71-.7c-9.3 0-15.7.7-18.2 3.8-1.6 2-1.9 5.2-1 10 3.3 17.1 21.4 27.6 36.2 27.6 23.6-3.7 78.2-19.5 78.2-19.5l-15.2-6.2 66.8-6.7c-1.2 1.5-4.4-5.5-2.6-8.2 6.4-1.3 39.4 1.9 39.4 1.9-21.2-5.3-21-6.3-20.7-8 6-1.7 20.7-1.7 50 1.6 32.1 3.5 73.1 10.9 85.6 27.1 3.1 4.1 4.4 8.5 3.6 13.1-3.8 27.2-27.7 49.2-52.9 49.2-8.3 0-16.2-.7-23.1-1.2-17.5-1.5-22.5.8-22.5 2.6 0 7 26 13.9 45.5 13.9 12.2 0 26.5-6.1 35.1-9.8 14.4-6.1 11.8-2.7 17.6 7.5 1.8 3.1 4.8 8.2 6 8.7 2.2 0 16.4-3.9 24.7-6.4l-12.1 37.6 24.2 3.8c-4.1 7.6-9.7 13-10.2 14.3 26.3-1.6 26.3 1.4 26.2 3.4 0 2.2-3.1 4.9-15.4 14.2-5.6 4.2-13.2 10-13.9 11.6 1 1 11.5 6.5 20.9 10.5-2.4 7.1-12.8 20.2-18.1 20.2zm-20.9-21.9c3.6 0 17.3 14.7 21.1 18.1 2.4-.2 9.9-8.2 15.6-15.5-22.4-7.2-22.4-10.4-22.4-11.5 0-2.3 3.2-5 15.4-14.2 5.6-4.3 13.2-10 14-11.7-.6.6-6.9-.8-23.9-.8-2.8-2.6-3.5-4.5 9.8-16l-24.7-3.2 12.9-36.8c-2.2 3.3-19.9 8.4-23.5 8.4-2.8 0-5.2-3.8-8.9-10.5-1.8-3-4.8-8-6-8.5-.6.1-4 1.5-7 2.8-8.8 3.7-23.7 9.9-36.6 9.9-17.7 0-49.4-6-49.4-17.7 0-7.2 8.8-7.2 12.6-7.2 3.9 0 8.7.3 14 .8 6.8.6 14.6 1.1 22.8 1.1 23.5 0 45.6-20.6 49.2-45.9.5-3.6-.5-7-2.9-10.1-12.4-15.9-57.4-23-83.1-25.8-22.3-2.5-36-3-42.9-3.2 3.9 1.1 9.5 3.6 14.6 5.9-.9 3.5-33.6.6-37.3.4 0 .6.7 4 1.8 7.1l-67.5 5.7 15.6 6.1c-.5 3.5-55.4 19.3-73.7 22.5-23.5 0-42.8-13.2-45.9-30.1-1.2-6.1-.6-10.2 1.8-13.2 3.5-4.2 10.3-5 21.1-5l71 .7c43 0 72.4-2.3 90.1-6.9 35.6-9.2 71.8-43.7 72.1-44.1l-45.8 12.8 11.6-11.4c-6.6 2.9-31.4 5.5-40.7 8.2-5.2 1.6-14.2 8.7-23.2 15.6-9.4 7.5-18.5 14.5-24.2 16.2-12.7.5-24.5-1.1-38.2-3.1-40.9-6-96.9-10.2-115.1 11-5.3 6.3-7.4 13.7-6.2 21.7 3.6 21.6 40.4 43.1 78.8 46h.5c37.5 0 97-20.8 132.5-33.2 10.3-3.7 18.6-6.6 23.3-8 6.7-2 16.9-3.1 28.1-3.1 20.3 0 54.8 4.4 54.8 20.7 0 22-36.8 33.7-71.3 33.7h-358c1 .6-31.8 74.4-34.3 76.7 3.1-1.7 50.5.5 92 1.4 24.7 0 62.1-9.5 95.2-17.8 28.4-7 52.9-13.2 66.2-13.2 14.3 0 21.9 3.2 29.9 6.6 8.7 3.6 18.4 7.8 38.6 8.5 20.4.1 28.9-2.1 38.2-4.3 10.8-2.8 22.2-5.6 43.2-5.6l11.8.2c44.8 2.2 66.6 13.4 66.6 34.6 0 16.2-29.2 26.8-30.4 27.2l11.5 6.2c.6 0 5.8-2.9 9.2-4.7 5.8-3.3 9.5-5.4 11.5-5.4 3.4 3.6 1 10.1-5.2 21.1 2.8-.9 13.9 1.3 19.8 1.2 4.8 0 8-8.2 9-11.2.3-.2.4-.2.5-.2z"/></g><g clip-path="url(#c)"><path clip-path="url(#E)" d="m4324 1494.9c-3.6 1.5-35.6 5.5-37.4 34.9-1.9 29.4 2.8 29.4 6.5 27.8s10.8-27 10.8-27-10.8 35 1 42.9c11.8 8 24.7 11.1 24.7 11.1l4.5-27.8s-9.1 26.8 12.8 36.5c22 9.5 30.1 2.4 28.2-4.8-1.8-7.1-8.2-25.5-8.2-25.5s17.4 16.7 18.3 18.4c.9 1.5 9.2 14.2 31 8.8 21.9-5.7 6.4-18.4 6.4-18.4l-26.5-19s27.2 24.5 39.3 15.8c11.8-8.8-9.2-27.7-8.2-26.9 1 .7 17.3 26.9 23.8 10.3 6.3-16.6-10.1-21.5-15.5-37.4-5.5-15.9-10.2-17.4-4.7-27 5.6-9.5 6.6-27.8 6.6-27.8s22.8 4.8 20.9-11.9c-1.8-16.7-24.7-20.6-29.2-21.5-4.6-.7-3.7-17.4-5.6-16.6-1.8.7-16.3 10.3-16.3 10.3s-12.7-26.2-15.5-24.7c-2.8 1.7-17.4 15-28.2 15.9-11 .8-17.5 14.3-17.5 14.3s-38.4-15.9-37.4 10.3c.9 26.2 22.9 19.8 22.9 20.6-.1 1.1-3.7 36.9-7.5 38.4z" fill="#f2c327"/></g><g clip-path="url(#c)"><path d="m4364.8 1599.8c-5.2 0-11.4-1.6-18.7-4.7-7.8-3.4-11.9-8.8-13.9-14.5l-.8 4.4c-2.8 1.4-15.6-1.9-27.5-9.9-6-4-7-13.5-6.1-23-2 6.4-3.4 7.1-4 7.2-8.4-3-10.5-8.2-9.2-29.6 1.8-27 27.6-33.7 36.2-35.9 4.4-3 7.7-27.3 8.5-35.2 2.9 10-.1 36.1-4.5 37.9-11.7 3.2-34.8 9.2-36.4 33.4-1.2 19.7.6 24.8 1.9 26 3.3-1 6.9-9 11.2-24.1-.5 15.9-2.8 35.2 4.4 40 11.4 7.8 24 10.9 24.1 10.9l.3-13c0-.5 0-1 0-1.4l.1-.3c0-6.5 1.8-11.7 1.9-11.9l.1.4c3.4 1 1.9 5.9 1.7 11.9l-.1.2h.1c-.3 11.1 4.3 18.9 13.6 23 12.1 5.2 21.9 5.7 24.9 1.7-1-11.3-7.4-29.6-7.4-29.6 9.8 4.4 20.9 15.2 21.7 16.9 1.6 2.6 11.5 12.2 29 7.8 6-1.5 9.6-3.8 10.2-6.5.8-4-4.6-8.5-4.6-8.5l-8.9-6.4c-9.2-5.3-17.3-12.4-17.6-12.7l.2.1c2.3-3 10.4 4.3 19.5 9.3l.2.2c5.7 3.1 10.5 4.8 14.4 4.8 6.6-2.6 10.9-5.8 5.1-15.4-3.1-2.9-6-6.9-7.6-9 .1-.1.1-.2.1-.2-.6-.7-.9-1-.9-1 .5.1.9.2 1.4.3 3-2.2 8.8 5.7 10.2 8 3.6 3.5 6 4.4 7.3 4.4 7.8-13.6 3.6-18.7-1.8-25.2-3.4-4.2-7.2-8.8-9.4-15.3-1.5-4.5-3.1-7.8-4.3-10.5-3-7-4.6-10.4-.2-18 5.2-9.1 6.2-26.9 6.2-27l.2-1.9 8.6.7c3.4 0 8.2-.5 10.5-3.4 1.6-1.7 2.1-3.9 1.8-7.1-1.5-13.4-18.1-18.1-27.8-19.7-4-.8-4.8-7.4-5.6-13.1-.6-3.2-14.8 6.4-14.8 6.4-7.9-11.2-14.7-23.4-16.7-24.5-7.9 6.9-19 15.4-28.1 16-9.8.8-15.8 13.2-15.9 13.3-2.6.5-13.7-3.7-23.5-3.7-5 0-8.7 1.2-10.8 3.5-2 2.1-3 5.4-2.8 9.5.4 12.6 5.9 19 16.3 19 .8.3 1.3.9 1.8 1.9-15.1 1.5-21.5-6.5-21.9-20.7-.2-5.3 1.1-9.4 3.9-12.4 7.8-8.1 32.5-1.1 35.7.2-.8-1.5 5.8-13.5 16.9-14.4 7.9-.6 18.9-9 24.1-13 5.8-2.8 9-2.8 21.3 22.3.8-2.3 12.5-10 14.2-10.6l2.3-.9 1.8 8c.3 2.2 1.2 9.2 2.5 9.5 10.8 1.8 29.1 7.2 30.9 23.1.4 4.2-.5 7.6-2.8 10-2.7 3.1-7.2 4.7-13.3 4.7l-6.8-.8c1.6 1.3.4 17.8-4.8 26.9-3.5 6-2.5 8 .4 14.6 1.3 2.7 2.8 6.2 4.4 10.7 1.9 5.9 5.5 10 8.9 14.2 5.6 6.8 10.9 13.2 6.6 24.5-3.3 9-8 7.8-12.2 5.6 1.7 6.7-1.5 10.2-3.9 11.9l-7.3 2.3c-1.2 0-2.4-.1-3.6-.3 2.1 2.2 5 6.3 4.1 10.6-.9 4.2-5.2 7.3-12.9 9.2-19.9 5-31.2-6.4-33.1-9.5-.8-1.2-7.2-7.5-13.9-14.1 2.9 5.5 6.1 15 7.2 19.7l.3.9-1.8 6.6c-1.6 2.1-4.7 4.3-11 4.3z"/></g><g clip-path="url(#c)"><path clip-path="url(#F)" d="m4345.2 1454.8c4.4-1.4 10.8-7.1 18.3-6.4s19.4 6.5 13.5 9.5c-5.9 3.1-10.2 4.6-17 2.9-6.8-1.6-11.9-4.9-14.8-6z"/></g><g clip-path="url(#c)"><path clip-path="url(#G)" d="m4419.7 1453.9c-4.4-1.4-10.8-6.9-18.3-6.4-7.5.7-19.5 6.6-13.5 9.6 6 3.2 10.3 4.5 17.1 3 6.5-1.6 11.7-4.9 14.7-6.2z"/></g><g clip-path="url(#c)"><path clip-path="url(#H)" d="m4361.8 1500.8c1 4 3.7 37.3 5.6 34.9 1.8-2.4 15.4-34.2 14.5-34.2s-19.1.8-20.1-.7z" fill="#07003b"/></g><g clip-path="url(#c)"><path d="m4367.2 1537c-1.8 0-2.4-1.1-5-24.6-.6-5.5-1.2-10.1-1.5-11.3 2.1-1 3.3-.6 11.2-.5l8.9-.2c3.2 2.8-12.5 35.7-12.7 36zm-5-34.8c1.3 1.7 1.8 5.6 2.2 10 .8 6.6 2 17.1 2.9 21.2 3.3-6.6 13.3-29.8 13.6-31.8l-8.9 1.3c-5.9 0-8.6-.3-9.8-.7z"/></g><g clip-path="url(#c)"><path d="m4375.8 1511.3-3.1-.1c-4.5-1.2-8.1-1.3-11.2-1.6-5.6-.3-11.3-.6-10.9-7.9.6-14.1 10.8-10.8 24.5-9.3 13.4 1.5 21 6.8 22.6 9.8-1.9 6.1-13.6 9.1-21.9 9.1zm-13.1-15.3c-6.5 0-7.6 1.8-7.9 6 0 2.3.2 2.8 6.9 3.2 3.3.2 7.2.4 11.6 1.7h2.4c8.5 0 17.1-3.1 18.2-4.1-1.1.4-7.1-4.4-19.6-5.8-4.5-.6-8.5-1-11.6-1z"/></g><g clip-path="url(#c)"><path d="m4374.7 1478.1-1.9 15z" fill="none"/></g><g clip-path="url(#c)"><path d="m4436.6 1457.2c.6-6.5 5.4-8.7 6.4-11.1-.2-1.2-4.4-4.1-8.4-5.7l2.3-5.7c2.5 1 14.5 6.3 11.7 13.5-2.3 6-11 8.7-12 9z"/></g><g clip-path="url(#c)"><path d="m4336.3 1433.6c-2.8.7-6.6 2.4-8.3 8.8-1.8 6.4 8.3 10.2 8.3 10.2z" fill="none"/></g><g clip-path="url(#c)"><path d="m4373.8 1481.1c-5.6 0-13.4-.6-15.3-5.9-1.9-4.9 3.3-9.8 4.4-10.7l4 4.6c-1.6 1.4-3 3.6-2.7 4.1 0 0 1.1 1.9 9.7 1.9 7.6 0 8.9-1.3 8.9-1.3l-.8-8.4c1.9 1.2 7.9 5.6 6.6 10.4-1.5 4.7-8.7 5.3-14.8 5.3z"/></g><path clip-path="url(#c)" d="m4413.1 2345.7 37.9-124.6-105.4-78.4 132-3 43.1-123 43.8 122.8 131.9 2.4-105.1 78.7 38.6 124.6-108.6-74z" fill="#f2c327"/><g clip-path="url(#c)"><path clip-path="url(#I)" d="m4431.1 2312.4 31.6-99-87.8-62.5 110-2.3 35.8-97.7 36.4 97.6 110 1.9-87.5 62.7 32.2 98.8-90.5-58.9z" fill="#16341d"/></g><path clip-path="url(#c)" d="m4195.8 2093.2 37.7-118-104.3-74.1 130.5-2.7 42.6-116.4 43.2 116.3 130.6 2-103.9 74.7 38.1 117.8-107.4-70.2z" fill="#f2c327"/><g clip-path="url(#c)"><path clip-path="url(#J)" d="m4213.8 2061.6 31.3-93.6-86.9-58.9 108.6-2.3 35.5-92.4 36 92.3 108.8 1.8-86.5 59.2 31.8 93.5-89.5-55.6z" fill="#16341d"/></g><path clip-path="url(#c)" d="m4633.6 2093.2 37.9-118-105.5-74.1 132.3-2.7 43.1-116.4 43.6 116.3 132.3 2-105.2 74.7 38.6 117.8-108.8-70.2z" fill="#f2c327"/><g clip-path="url(#c)"><path clip-path="url(#K)" d="m4651.6 2061.6 31.6-93.6-87.9-58.9 110.2-2.3 35.9-92.4 36.5 92.3 110.2 1.8-87.8 59.2 32.3 93.5-90.7-55.6z" fill="#16341d"/></g><path clip-path="url(#c)" d="m3884.8 2192.6 65.1-36.7 6.2 13.3-25.7 14.5 8.5 18.5 25.7-14.5 6.1 13.5-65 36.8-6.3-13.4 29.5-16.7-8.3-18.5-29.6 16.7zm27.1 57.1 60.9-44.9 20.9 34.7-10.2 7.5-13.2-22.3-14 10.5 12.3 20.7-9.8 7.3-12.2-20.8-16.8 12.4 13.5 22.7-10.2 7.6zm42.5 65.4 53.6-55.1 9.2 10.9-21 21.7 12.6 15.3 21-21.8 9.3 11.1-53.7 55.1-9.3-10.9 24.5-25.2-12.8-15.1-24.2 25zm70.1 32.6 8.8 8.7 15.8-30zm-34 10.4 60.6-49 13.8 13.3-35.8 73.3-10.9-10.8 9.3-17.9-11.8-11.5-14.8 12.8zm52.8 49 36.2-54.7-12.6-10.2 7.2-10.8 36.2 29.5-7.2 10.8-12.5-10.4-36.2 54.9zm29.7 23.7 38-69.3 11.5 7.9-14.9 27.2 15.9 10.8 14.9-27.3 11.6 7.9-38.1 69.3-11.5-7.8 17.2-31.4-15.9-10.8-17.2 31.4zm71.6 45.3 30.6-73.7 34.7 17.8-4.9 12-22.5-11.3-7.2 17.3 21 10.8-4.9 11.8-21.1-10.8-13.5 32.4zm67.7-11.1c-4.2 12.4-6.2 20.6-6.1 24.4.3 3.8 2.2 6.5 5.6 8 3.6 1.5 6.6 1 8.8-1.8 2.4-2.6 5.8-10.2 10.1-22.8s6.4-20.9 6.3-24.7c-.3-3.8-2.1-6.4-5.7-7.8-3.5-1.6-6.5-.9-8.8 1.8s-5.8 10.2-10.2 22.9zm-13-5.5c2.9-8.2 5.3-14.4 7.7-18.9s4.7-7.8 6.8-9.5c3.3-2.7 6.4-4.1 9.7-4.4 3.4-.3 7.2.4 11.6 2.4 4.6 1.8 8 4.1 10.2 6.8 2.3 2.7 3.8 6.1 4.7 10.4.6 3.1.3 7.2-.7 12.2-.8 5.1-2.8 11.7-5.5 19.7s-5.3 14.2-7.7 18.8c-2.2 4.5-4.6 7.8-6.9 9.5-3.1 2.7-6.3 4.1-9.6 4.4-3.4.4-7.2-.4-11.7-2.3-4.5-2-7.8-4.2-10.1-6.9s-3.8-6.1-4.5-10.4c-.8-3-.4-7.1.4-12.1 1.1-5.1 2.8-11.7 5.6-19.7zm62.9-17.3 13.1 4.4-14.1 52.3c-1.5 6.2-2 10.3-1.2 13 .7 2.5 2.8 4.4 6.2 5.5 3.4 1.2 6 .9 7.8-1 1.8-1.7 3.7-5.6 5.2-11.6l14.1-52.3 12.8 4.3-14.4 53.8c-1.4 5.2-2.6 8.8-3.9 11.1-1.1 2.2-2.5 4.1-4.2 5.5-2.6 2.1-5.6 3.2-9.2 3.7-3.4.3-7.4-.3-11.5-1.6-8-2.7-13.1-6.5-15.3-11.4-2.3-4.9-2.2-12.2.4-21.8zm35.1 95.7 16-79.3 13.6 3.4 7.2 60.2 11-55.5 12.5 3.1-15.9 79.3-13.7-3.4-7.4-60.4-10.8 55.7zm71.5 4.1 5.9 1c3.1.6 5.2.7 6.4.4 1.3-.3 2.4-1 3.3-2 1.5-2 2.8-4.6 3.9-8.2 1-3.5 2.2-9.2 3.3-17.3 1.1-7.8 1.5-13.4 1.4-17.1-.1-3.6-.7-6.6-1.9-8.5-.8-1.1-1.8-1.8-2.9-2.4-1.1-.7-3.1-1.1-5.8-1.7l-5.7-1zm-14.9 9.5 11.3-80.2 21.6 3.8c4.5.7 7.8 1.7 10.4 3 2.4 1.4 4.4 3.1 5.8 5.2 2.2 3.3 3.5 7.1 4 11.4.4 4.4.1 10.8-1.2 19.7-1.7 11.4-3.1 19.5-4.5 24-1.5 4.7-3.3 8.5-5.3 11.4-2.1 3-4.8 5-7.9 5.8-3.2.7-8.3.4-15.7-.8zm56.5 9.2 7.1-80.8 37.3 4.1-1.1 13.4-24-2.5-1.7 18.7 22.3 2.4-1 12.8-22.2-2.4-2 22.3 24.6 2.5-1.3 13.7zm61.8-6.5 6 .3c3.2.2 5.3-.1 6.6-.6 1.2-.4 2.2-1.2 3-2.4 1.4-1.9 2.4-4.9 2.9-8.5.7-3.7 1.1-9.5 1.4-17.7.3-7.8.1-13.5-.3-17.2-.6-3.5-1.5-6.4-3-8.2-.8-1-1.8-1.7-3-2.1-1.4-.5-3.2-.7-5.8-.7l-5.9-.3zm-13.7 11.5 2.6-81.1 21.9.8c4.4.2 7.9.8 10.6 1.8 2.5 1 4.8 2.4 6.3 4.4 2.6 2.9 4.3 6.5 5.2 10.8 1 4.3 1.2 10.9 1 19.8-.4 11.5-1 19.7-1.9 24.4-.9 4.8-2.3 8.8-4.1 11.9-1.8 3.4-4.2 5.6-7.3 6.8-3 1.2-8.2 1.7-15.5 1.3zm81.4 1.1-3-81.1 13.6-.7 2.9 81.1zm36.3-2.2-5-67.5-15.5 1.4-1-13.3 44.8-4.1 1 13.3-15.6 1.4 4.8 67.6zm47.9-87.1 13.5-2.5 8.5 53.9c.9 6.3 2.3 10.1 4 12.1s4.3 2.6 7.7 2c3.4-.7 5.8-2.3 6.8-4.8.9-2.4.9-6.8 0-13.1l-8.5-53.7 13.3-2.5 8.6 55.2c.8 5.4 1.2 9.3 1 11.9s-.8 4.9-1.7 7c-1.5 3.3-3.7 5.8-6.7 7.9-3 2-6.6 3.4-10.9 4.3-8.2 1.5-14.4.7-18.3-2.6-4.2-3.4-6.8-10-8.3-19.9zm72.8 20.6 5.6-1.4c4.1-1.2 6.8-2.8 8-5.1 1.4-2.3 1.4-5.5.6-9.8-1-4.4-2.4-7.2-4.4-8.5-1.8-1.3-5-1.5-9.2-.2l-5.8 1.5zm-3 47.9-17.4-79 23-6.2c7-2 12.3-1.6 16.3 1.1 3.8 2.7 6.7 8 8.4 15.8s1.4 14.1-1.2 18.9c-2.4 4.7-6.8 7.9-13.6 9.8l-9.7 2.5 7.2 33.5zm52.3-57.3c3.5 12.7 6.5 20.6 8.8 23.5 2.4 2.8 5.3 3.5 8.8 2.2 3.7-1.2 5.7-3.6 6-7.2.4-3.9-1.2-12-4.8-25-3.9-12.8-6.8-20.7-9.1-23.6-2.2-2.8-5.2-3.5-8.7-2.2-3.7 1.2-5.7 3.7-5.9 7.5-.5 3.7 1 12.1 4.9 24.8zm-13.5 4.7c-2.2-8.2-3.8-14.8-4.5-20s-.7-9.2.1-12.2c1-4.3 2.8-7.7 5.2-10.1s5.8-4.5 10.3-6.1c4.6-1.7 8.5-2.3 11.7-1.7s6.4 2.1 9.5 4.9c2.3 2.2 4.4 5.4 6.4 10 2 4.7 4.2 11.1 6.6 19.3 2.3 8.2 3.9 14.8 4.6 20 .7 5.1.7 9.2 0 12.3-1.2 4.2-2.8 7.6-5.2 10.1s-5.8 4.5-10.5 6.2c-4.4 1.6-8.3 2.1-11.6 1.6s-6.3-2.2-9.5-5c-2.1-2-4.2-5.2-6.3-9.8-2.1-4.8-4.4-11.1-6.8-19.5zm67.1 18.6-27.2-75.4 12.9-5.8 36.6 44.8-19.3-52.6 12-5.4 27.1 75.4-12.9 5.8-36.9-44.7 19.4 52.5zm84.6-41.6-28.6-60-13.8 8.2-5.6-11.8 39.7-23.4 5.7 11.8-13.8 8.2 28.4 60.1zm32.1-19.1-39-68.8 11.3-8 15.3 26.9 15.8-10.9-15.3-27 11.4-8.1 39 68.6-11.4 8-17.6-31-15.7 11.1 17.5 31.1zm48.7-35.2-43.9-64.8 29.8-25.1 7.4 10.6-19.1 16.1 10.1 15 17.9-15 7 10.2-17.9 15.1 12.1 17.7 19.6-16.4 7.5 10.9zm37.6-69.6 9.8-10.8 3.4 3.8c3.1 3.6 5.6 5.6 7.6 6s3.9-.4 5.8-2.6c2.2-2.2 3.2-4.5 3.3-6.9 0-2.3-.9-4.7-2.9-7-1.6-1.7-3.3-2.8-5.2-3.2-1.8-.5-4.8-.3-9 .5l-8.4 1.6c-7.3 1.3-12.4 1.6-15.5.7-3-1-6.1-3-8.8-6.4-4.4-4.8-6.4-9.9-6.2-15.6.1-5.6 2.5-10.8 7-15.8 4.8-5.3 9.9-7.9 14.9-7.7 5.3.1 10.3 2.9 15.1 8.4.6.5.8 1 1.2 1.3.2.3.4.6.6.9l-9.2 9.9-1.3-1.5c-2.8-3.1-5.2-4.8-7.4-5.3-2.2-.2-4.4.7-6.4 3-1.6 1.7-2.4 3.6-2.4 5.7 0 2 .9 3.8 2.4 5.7 2.2 2.4 6.6 2.9 13.1 1.5h.2l8.9-1.8c6.3-1.5 11.2-1.6 14.9-.6 3.4 1 6.9 3.5 10.3 7.3 4.7 5.2 7 10.8 6.8 16.6s-2.8 11.5-7.9 16.9c-5.2 5.8-10.4 8.5-15.6 8.2-5.3-.1-10.5-3.4-16.1-9.5-.6-.6-1.6-1.7-2.7-3.4zm56.7-22.8-56.1-52.3 24.1-31.9 9.3 8.8-15.3 20.4 12.9 12.1 14.3-19.2 8.9 8.4-14.4 19 15.4 14.4 15.7-20.9 9.6 8.8zm14.2-72.8 6.5-10.6-28.8-13.6zm13.4 36.3-51.5-60.5 10.2-16.9 70 30.1-8.2 13.5-17.2-8.2-8.8 14.5 13.3 14.6zm8.6-66.1 6.4-13.5 4.1 2.4c4.1 2.3 7.1 3.2 9.1 3.1 1.9-.4 3.5-1.8 4.8-4.7 1.2-2.8 1.6-5.4 1.1-7.5-.7-2.2-2.3-4.1-4.8-5.6-2-1.2-3.9-1.6-5.7-1.3-2 .3-4.8 1.4-8.5 3.7l-7.7 4.4c-6.3 3.8-11.2 5.9-14.4 6-3 .3-6.6-.7-10.2-2.8-5.2-3.1-8.8-7.4-10.2-12.7s-.8-11 2.2-17.4c3.2-6.8 7.2-11 12-12.7s10.5-.7 16.8 2.9c.5.2 1 .5 1.4.8.2.2.6.4.8.6l-6 12.8-1.6-1c-3.6-2.1-6.4-2.9-8.6-2.4-2 .4-3.9 2-5.2 4.9-1 2.3-1.2 4.3-.7 6.3.6 1.8 1.9 3.4 4 4.5 2.7 1.6 7.1.4 12.8-3.1.1-.1.1-.1.2-.1l8-4.9c5.6-3.5 10.3-5.3 13.9-5.6 3.7-.3 7.6.7 11.9 3.2 6 3.4 9.7 7.9 11.1 13.4 1.5 5.6.7 11.8-2.5 18.9-3.4 7.3-7.7 11.6-12.5 13.3-5.2 1.6-11 .4-18.1-3.5-.7-.4-1.8-1.3-3.5-2.3z"/></g></g></svg>