<svg enable-background="new 0 0 10000 6666" viewBox="0 0 10000 6666" xmlns="http://www.w3.org/2000/svg"><path d="m-7.1 4.6h10007.1v6661.4h-10007.1z" fill="#ffce00"/><path d="m3745.7 420.5h5837v5829.1h-5837z" fill="#9c1e3d"/><path d="m410.2 420.5h1459.4v5829.1h-1459.4z" fill="#007229"/><path d="m1869.5 420.5h1458.9v5829.1h-1458.9z" fill="#ff7300"/><g fill="#fece00"><path d="m3873.7 572.5 24.9-18.5 118 111.4c35.8-42 95.5-47.4 146.8-42l83.1 45.9c55.4 86.8 94.8 182.2 138.5 274.8l38.7 81.4 2.9 16.9-131.6-21.3c-76-6.8-152.2-11.9-224.9-35.1-53.2-18.4-110-49.9-130.6-105.6l.7-99.8 9.8-31.5 7.6-19.5 16.9-31.4c-12.5-55.6-62.4-88.9-100.8-125.7z"/><path d="m9435.4 572.5-25.2-18.5-117.6 111.4c-36.1-42-95.7-47.4-146.8-42l-83.4 45.9c-55.4 86.8-94.8 182.2-138.2 274.8l-39 81.4-2.9 16.9 132-21.3c75.3-6.8 152.4-11.9 224.7-35.1 53.4-18.4 110.2-49.9 130.8-105.6l-1-99.8-9.3-31.5-7.3-19.5-17.4-31.4c12.6-55.6 62.5-88.9 100.6-125.7z"/><path d="m3873.7 6097.4 24.9 18.4 118-110.3c35.8 41.3 95.5 47.1 146.8 41.3l83.1-46c55.4-86.8 94.8-182.7 138.5-274.5l38.7-81.4 2.9-18.1-131.6 22.5c-76 6.1-152.2 11.9-224.9 35.1-53.2 18.8-110 49.5-130.6 106l.7 99.1 9.8 32.2 7.6 18.8 16.9 31.4c-12.5 55.4-62.4 88.6-100.8 125.5z"/><path d="m9435.4 6097.4-25.2 18.4-117.6-110.3c-36.1 41.3-95.7 47.1-146.8 41.3l-83.4-46c-55.4-86.8-94.8-182.7-138.2-274.5l-39-81.4-2.9-18.1 132 22.5c75.3 6.1 152.4 11.9 224.7 35.1 53.4 18.8 110.2 49.5 130.8 106l-1 99.1-9.3 32.2-7.3 18.8-17.4 31.4c12.6 55.4 62.5 88.6 100.6 125.5z"/><path d="m5133 1926.6 80-119.7-6.6 30.7c-27.1 137.1-33.2 276.6-40.1 415.2l-5.9 122.2c-6.1 60.4 1.5 122.6-6.4 183-3.3 198.2-3.3 396-2.3 593.9l4.3 130.9 2.9 113.6c-78.1 36.1-167.9 30-250 9.8l5.5-22.5 7.6-100.2c6.4-48.8 5.3-98.7 12.9-147.5l11.2-120.1 7.3-95.1 10.9-110c12.3-89.7 19.5-179.7 33.5-268.3l8.3-68.3 12.8-78.2 10.4-63 9.2-53.1 11.9-58.2 19.5-89.4 27.8-104.9 18.1-58.6 9-20.3z"/><path d="m5483.5 2673.4c91.2 28.2 186.6 32.9 281.1 38.7 48.9 1.5 98.3 4.3 146.8 1.5l80-10.5 90.3 80.3 26.1 69.1 1.7 21.7-77.4-26.4c-60.6-10.4-122.5-2.2-181.2 14.2v-72.4l-11.9-8.3c-74.8 18.8-153.7 32.6-230.3 12.3-58.4-15-108.6-61.6-125.2-120.2z"/><path d="m4716 3327.7 113.1-48.1 45.6 18.8-1 32.6-20.9 26.8 12.6 26c41.3 41.3 100.9 55.7 157.7 57.9 63.9.7 129.7-11.2 183.6-46.3l-13-68.3c36.5-44.1 109.2-8.7 120.7 40.2l.7 38.3c-28.5 55.4-90.3 77.8-146.8 89.4-103.3 19.5-211.1 15.5-311.6-12.4-47.5-14.8-97.8-36.5-127.7-77.4z"/><path d="m5270.8 3523.7 124.4 19.2c54.2 31.4 82.9 90.8 108.1 145.4l41.6 100.2 20.9 47 71 107.4c53.9 54.6 104.8 113.2 140.6 181.2l10.9 94.7-7.3 13.4-100.5 54.6c-68.7-4-125.1-48.5-172.6-94.4l-94.3-117.9-22.1-20.6-5.4 44.5-9.5 28.2-57 8.4-88.3-46v-7.6l44.7-55.7 22.8-37.7-9.3-40.9-9.5-32.6-61.8-105.5 33-35.5-31.1-48.1 27.5-19.5-1.4-32.9-21.8-26.8 28.5-18.4-13.3-67.6 11.2-1.5z"/><path d="m4805.3 3545.8 87.9-5.8c44.6 7.9 89.7 16.3 135.6 14.9l130.9-15.9 41.3 13.4-.7 26.3-107.8 33.7c-63.1 6.8-126.3 6.8-189.2-1.1l-99.2-40.2z"/><path d="m4814.4 3655 40.8-10.9c46 2.5 90.5 17 136.5 15.9 51.3.8 101.6-16.9 153.2-14.4l40.9 27.1-44.9 28.2c-66.9 20.6-137 18.4-205.4 13.7l-120.1-35.1z"/><path d="m4955.1 3755.2c64.1 7.2 125.9-11.2 189.1-17l48.2 8.3-9.5 1.5 1.5 15.5-118 45.9c-57.9 11.6-117.1 8-174.3-6.1l-53.2-31.9-3.3-2.5 7.6-20.3z"/><path d="m5138.2 3825 56-2.9v19.2l-49.2 31.5c-67.2 23.5-139.9 30-210.8 26l-94.8-21.3-8.6-26.8c51.6-12.3 103.5-3.6 155.8-6.1 50.9 1.7 101.3-9.1 151.6-19.6z"/><path d="m7396.4 3869.5c76.4-32.2 162-56.1 245.6-39.4 46.3 8.3 87.8 35.8 113.1 75.1l24.5 56.1 5.2 22.4-2.2 45.9-8.3 52.4c-15.5 64.8-35.1 127.7-58.6 190.6l-5.2 15.5-11.2 41.6 79.3-37.7 130.9-13c-30.4 80.3-104.9 130.9-176.9 170.8l-2.9 42-10 57.9-21.1 73.8-10.7 35.1c-19.2 60-40.9 118.7-61.5 177.9-108.1 0-217.1 0-325.6 0l46.3-105.2-85.3 105.2h-114.7l101.4-124.7-13.5-2.2c-45.6 49.8-96.6 95.8-158.4 123.2l-54.2 12.7 1.7-37.7 65.5-120.7c40.3-34 97.1-38.4 146.8-28.6l110.7 33.6 6.6-19.9 15.5-58.2 4.3-16.2 15.2-63.7 6.9-36.2-11.9-132.1-63.4-82.8c-44.4-47.3-90.4-94.7-119-153.7l-8.6-20 12.6-110.3c50.8-58.6 119.4-99.1 191.1-129.5z"/><path d="m4797.4 3935.3 41.6-17 58.2 12.4 35.4 44.5 11.6 14.4 7.6.8 97.8-56.5 75.8 48.9 56.1-47.1 57.2-13.4 11.2 6.9 11.9 22 .7 63.3-66.5 39.5h-113l38 96.6-20.6 79.2 90.4 62.5-16.6-57.1-1-36.5 34.7-30.1c48.4 0 88.3 40.2 107.3 82.1l.5 33.6-88.3 52.4c-51.1 9.1-103.1 6.1-154.8 4.3l1 40.9 82.4 46.6 7.6 18.8-91.4 14.4 1.4 69.1-30.7 22-37-54.6-2.4-21.3-17.1 7.9-71.9-25 89.3-79.5 7.3-43.4c-56.5 6.6-115 9.1-170.8-4l-62.9-46.3v-40.6l2.6-12.3 30.7-51.7 83.4-5.4 17.1 69.4-17.1 43.8-13 6.1c51 11.9 103.8-31.1 103.8-82.1l-19.9-41.5 4-65.1 35.7-49.6c-57.9 9.1-121.4 17-175.8-13l-44.7-50.3v-36.9z"/><path d="m6020.5 2421-25.2-16.7-4 1.1-14.5 13.7-6.6 32.6 4 31.1 21.1 44.5 26.1 16.3 4-1.1 14.3-13.7 6.6-32.6-4-30.8zm2385.1 1827.1-66.7-111-.3-111.4 22.5-106.3 10.5-26.8 10.9-26.4 54.6-124c24.9-57.9 50.6-116.1 71.2-175.8l32.1-109.9c10.9-51.4 18.5-104.5 10.2-157.4-6.1-51-29.7-99.8-69.1-133.8l-98.3-59c35.7-37.2 64.3-80.7 83.1-127.7 27.5-67.3 48.2-142.9 31.1-215.6l-2.4-11.1-46.3-81.8c-55.1-65.1-137.1-100.2-218.2-123.3-134.6-38.7-275.9-45.2-414.7-38.7l-51.8 10.1c-65.1 21.3-132 43.1-201.4 43.8l-109.2-36.5c-48.9-32.2-90.5-75.6-132.5-116.4h-10.9l-8.8 60.4-10.4 64.4-53.9-61.5-1.9-1.8-10.5-28.6v-47.4l33.3-58.9 13-3.6-136.6-13.7-91.6 80.2 4.7-35.1 34.4-80.2 77-84 100.2 26.4 102.4 70.8 9 2.2c0-56.8-.3-113.6 1-170 39.9 49.5 73.9 102.3 112.3 153.7l16.9 16.3c7.2-47.1 19.2-93.7 19.5-140.4l11.6-2.2 34 53.9v48.1l-41.6 71.6 112.8-20 40.9-100.1 42.7 39c31.4 38.3 65.8 76.3 111.8 97.3 40.9 19.9 86.4 28.9 131.6 35.5l-46.6-103.5 6.6 6.8c101.6 50.7 199.5 115 312.5 138.9 46.3 9.4 100.2 9.4 138.9-22l36.8-80.7c.4-53.5-65.5-94.4-112.8-66.9l-45.3 60.7-1.4 64-82.9-49.9c-178.6-108.5-367.4-204.4-568.1-266.2-101.9-30-209-53.9-316.1-42.3-83.1 17-165.3 42.3-239.1 85.8-57.5 35.1-108.5 83.9-137.3 145.4-21.4 55.7-28 116.9-18.8 174.7l12.3 57.5-64.4 103-2.4 5.1 2.4 75.6 19.9 58.2 14.9 24.3 7.3-1.1 21.8-59.7 83.1-103 47.5-8.7 84.5 58.6 90.9 39.7c65.5 19.2 132.7 29.7 200.4 40.9l102.3 2.2c89.5-2.2 179.5-4.7 267.4-23.9 69.4-21 136-49.6 206.8-66.5l120.9-3.6c75.8 24.2 139.9 86.5 164.1 163.5l6.6 47.7v141.5c-51-.8-101.6-4.7-149.8-20.3l-94.3-37.6c-48.5-19.2-102.1-23.1-153.7-19.2-177.2 4-347.9 55.6-520.8 88.6l-120.9 22c-125.4 30.7-256.7 28.2-382.6 54.6l-120.7 14.5 10.5-4.7 32.5-49.1-29.2-79.2-31.1 16.2-12.4-1.4-44.1-50.7-44.6-95.4c-19.9-47.1-36.4-94.1-44.7-117.2l-21.4 190.6-130.9-188.8 26.1 150.5-1 10.9-6.2 6.1h-1.4l-29.4-11.2-43-24.6-49.6-31.4-5 124.8-5.9 35.8-5.3 3.3-2.9-.3-23.5-24.6-36.5-45.3-49.9-62.9 6.4-5.4 85.9 108.8 19.5 20.3 1-2.5 2.9-18.5 4-57.5 2.1-83.2v-7.9l5.9 4 96.9 60.4 26.4 10.5v-.8l1-8.6-15.9-100.2-15.5-68.8 6.9-2.8 132 188 20.9-187.3 6.9-.7s12.9 37.2 31.1 83.9c17.8 47.4 41.3 104.6 64.4 144.7l38.7 46.3 10.2 1.5 26.3-17-4 1.1 37-328.4-49.9-32.2-69.8-63.6-84-85.3 7.9 196.4-70.1-63.7 3.3 39.8-2.9 25-14.2 12.7h-.3l-31.8-13.7-42.7-30.4-45.6-36.9 4.7 59.7-3.6 31.1-13.6 17.7-3.3.7-34.7-14.8-45.6-31.5-37.7-30 25.7 44.1 38.4 91.8-2.9 9.8-9 4.4h-1l-47.1-23.5-61.9-48.9-78.6-70.5 6.2-5.4 48 43.8 90.5 74.4 42.7 21.3h.3l2.6-.7 1-5.1-37-87.8-37.5-64.1 5-5.4 34.7 28.5 66.2 47.8 30.7 13 1.9-.3 8.3-11.6 2.8-29.3-6.4-69.1-1.9-10.2 8.3 7.3 33.7 26.8 61.5 46 27.8 13.4h.3l6.6-8 2.6-22.5-4.3-49.9-2.6-10.8 72.7 66.2-7.6-198.9 7.3 7.9 57.5 59 102.6 97.2 46 27.5 11.6-107c-9.7-48.9-32.1-94.4-63.2-134.2v-5.1l95.3-76.3 26.4-83.5 4.8-19.2c-77 30.7-160.3 75.2-246.3 50.3l-23.1-60.8-110.4-98.4-9-1-1 88.6-60.8 66.5-63-78.1c-33.2-31.2-79.5-48.1-124.7-45.6l7.3 18.8v85.3l-93.6 71.6-57.2-81.4-99.1-21.7-96.2 48.1c55.8 9 119 31.8 144.8 87.8-56.1 4.3-110 18.1-163.9 31.5-70.8 18.4-141.3 37.9-211.1 60.4l-37 5.4 12.6-5.4 28.7-66.9-40.6-25-123.3 31.9 7.9 78.4 62.2 85 78.9 60.5 79.1-45.9 73.1 106.3 108.1 45.2.7-96.1 99.8 99.4 77.4 80.3 32 53.1 7.9 22.5 5.4 21.7 4.3 21 5.5 30.1c-49.9-17.4-98.5-38.3-151.7-41.6-45.1-2.5-89.7 9.4-134.1 16.3l.7-79.3-88.6 17-103.8 1.5c-51.3-7.3-101.2-23.1-151.8-34l37.5 110.7-9 111.8-62.9 63.3 91.4-4.1c50.3-24.9 92.2-64.7 129.6-106.7-6.2 60.4-13.8 121.2-32.1 179l10.4.7 61.5-86.4 9.5-43.4 3.6-49.9h48.7l-5.3 25-6.2 22.1 1.2 34.7 9.7 33.9 56.8 53.5.4-75.9 21.2-58.7 52.9-36.9-2.1 22.5-12.8 51.6-8.3 46.3-6.6 9.4 42.3-8.3 63.1-78.9 9.3-8 46 44.1.4 116.9c-60.8 22.7-120.1 51.7-174 87.5l-132 93.3c-71.3 52.1-131.6 120.8-164.6 203.3-32.8 81.7-36.4 173.2-10 257.1l2.1 10.9 8.3 19.5 7.6 22.4 54.2 87.9 105 121.9c61.9 52.8 132.3 94.4 197.8 141.4l-2.2-94-8.3-131.3c-.3-49.9-6.6-99.5-6.6-148.3l-2.4-76 23.5 129.9 5 99.4 1.6 78.2 13.6 58.2 24.2 96.9 16.4 61.5 22.3 105.3c7.3 55.3 11.6 112.8 0 168.2l-75.1 104.9c-44.9 18.1-94.8 1.1-141.8 10.1l-85.3 23.9-47.3 81.4-7.6 32.6-10.5 43.4-10.5 4 91.9-8.6 107.8-91.1-36.5 63.7-7.9 14.8-9.2 23.9 87.6-12.4c50.6-21.3 83.1-66.5 125.1-101.6v13l-3.3.4-61.9 99.4c132.8 1.5 266.2 0 400.1.3l57.9-42.7-26.4-123.3-13.6-37.2-1.9-37.7 125.2-77 67.5-73.9 11.2-49.1-78.8 11.6c-67 12.3-129.9 39.4-192.8 66.5l18.3-40.2 31.6-78.8 10.4-37 24.4-70.5c49.1-65.8 105.9-125.8 153.2-193.5 53.6-73.1 97.4-153 134.6-234.8l1.6-13.4 7.2.3-3.3-10.1 6.7-.3-1.7-16.7 5.3 1.5 11.6-46 1.5 35.1-5.9-1-1.4 13.7-5.9 23.8h-2.1l-21.8 59.7-20.9 47.8-6.9 17c-24.5 46.3-51.3 92.2-82.4 134.9-45.6 67.6-102.8 127.3-158.4 187v31.4l-8.8 6.5 88.6-14.4c232.2-51 451.4-150.8 655.7-270.6 52.2-32.5 108.8-56.4 158.4-94 53.2-34.4 110.4-62.3 171.2-81.4 73.1-21.7 153.6-35.4 226.3-5.7l92.3 81.4 120.1 110.3 79.6 72.3c39 35.5 83.6 71.3 95.5 124.8l7.3 31.9c2.1 45.5 1 91.5-.3 137.1l5 131.3-9.5 95.1-6.4 16.7-95.9-1.5c-47.3-23.1-103.1-39.5-155.5-23.8-57.9 18.4-94.5 73.8-113.3 128.7l-14.5 58.6-4 49.5 64.1-9.4 60.1-43.4-19.2 48.1-8.8 2.8 127.3-12.6 66.7-57.2-34 71.3 62.9 10.9c47.3 3.2 95.5 9.8 143.9 10.4l2.9-70.1 80.3 27.8c56.5 15.5 119 22.5 174.6-1.5l26.1-48.8-2.9-24.6-10.4-47.3-8.8-33.7-13.3-87.8 42.7-84.3-78.1-90.4 129.4-18.1c48.5-16.3 86.2-55.7 109.3-101.3-64.3 2.6-134.1 3.9-189.3-34.8zm-2351.4-1712.5-25.7 22.5-7.1 1.1-38-22.1-24.7-51.3-4-34 7.6-38.7 25.4-23.2 7.6-.3 38 21.3 23.8 51.3 4.7 34zm-39.4-182.9 5.4-5.8 23.8 24.5 61.5 54.7c51.1 39.4 116.9 78.8 177.6 78.8h.9l-59.8-111.3.7-6.6 1.2-6.5 5 3.6 77 42.7 142.9 43 31.1-4.3-35.1-30.7-40.9-60.7.7-2.9.5-4 4 .3 43.7 5.4 95.2 5.8c45.8.3 90.7-5.8 108.8-22.8l5.4 6.1c-22.5 19.6-67.5 24.6-114.2 24.6-58.7 0-119-9.1-135.8-10.8l38 53.1 39.9 34 4.7 4.3-5.5 2.5-40.4 7.9c-79.3-.3-192.1-67.2-218.5-83.2l31.4 72.4 31.6 39.4 5.7 5.8-8.3.8h-9.8c-128.8-.7-268.4-160.1-268.4-160.1zm245.2 854.6-77.7-89.4-34.4-64-4.7 87.9-7.6-.4 5.5-103.4 8-1.5 40.1 77.4 66.8 83.6c-3.6-26.4-14.9-125.6-14.9-176.9l2.6-28.6 7.3 2.5-2.3 26.1 7.6 113.2 8 69.4 1.2 5.8zm468.4-4h-1.9-.7c-34-5.4-75.5-56.8-111.4-107.4l-34.7-53.9c23.5 79.9 29 187.7 29 187.7l.7 5.1-5-1.5c-81.9-20.6-156.3-145.4-178.8-187.3 1.6 81 49.9 143.2 74.6 168.5l13.6 13.8 5 4.3-6.4 2.2-13.1 2.5-65.8-36.2-65.5-76.6c-40.8-56.5-72.2-112.5-72.2-112.5l6.7-3.2 43.5 70.1 92.9 116.9 60.3 33.9h4.5c-20.4-19.5-86.2-89.7-86.2-188.4v-10.9l1.2-14.5 6.4 12.7 15.5 28.2 40.2 62.5 120.1 105.3-9.8-85.8c-6.4-48.1-18.5-104.5-37.1-139.6l-1.5-2.9 6.9-4 .3 1.1.7.7c4.3 7.3 29 51.7 60.5 97.3 33.3 49.1 76.4 98.7 104.2 103.4l3.3-2.5 9.7-10.5 15.2-53.9-1-13 8-1.1.4 14.2c-.1 55.7-31.9 74.9-32.3 75.3z"/></g></svg>