<svg enable-background="new 0 0 800 450" viewBox="0 0 800 450" xmlns="http://www.w3.org/2000/svg"><path d="m0 0h800v450h-800z" fill="#fff"/><path d="m0 0 400 232.6h-245.6l245.6 217.4h-400z" fill="#013893"/><path d="m17.6 28.2 328.1 190.3h-229.7l229.7 214.7h-328.1z" fill="#dc143b"/><g fill="#fff"><path d="m165.5 345.2-27.1 9.4 18.8 21.7-28.2-5.5 5.5 28.3-21.8-18.9-9.3 27.2-9.4-27.2-21.8 18.9 5.5-28.3-28.2 5.5 18.8-21.7-27.1-9.4 27.1-9.4-18.8-21.7 28.2 5.5-5.5-28.3 21.8 18.9 9.4-27.2 9.3 27.2 21.8-18.9-5.5 28.3 28.2-5.5-18.8 21.7z"/><path d="m147.6 132.2c-3.7 14.1-17.3 25.6-35.3 30.5l-4.9-5.6 11.9-4.1-11.9-4.1 8.2-9.5-12.3 2.4 2.4-12.3-9.5 8.2-4.1-11.9-4.1 11.9-9.5-8.2 2.4 12.3-12.3-2.4 8.2 9.5-11.8 4.1 11.9 4.1-4.4 5c-20-6-34.2-20.5-34.4-37.3-.6 3-1 6.1-1 9.2 0 27.1 24.7 49.1 55.3 49.1 30.5 0 55.3-22 55.3-49.1 0-.6 0-1.2-.1-1.8zm-43.4 32.1c-.3 0-.5.1-.8.1l-.1-.3z"/></g></svg>