<svg enable-background="new 0 0 800 550" viewBox="0 0 800 550" xmlns="http://www.w3.org/2000/svg"><path d="m17 531.2v-512.4h767.2v510.9 1.5zm765.6-1.5v-1.6zm-762.4-1.6h760.8v-506.2h-760.8z" fill="#231f20"/><path d="m18.6 359.9h764v169.8h-764z" fill="#009543"/><path d="m18.6 190.1h764v169.8h-764z" fill="#fc3d32"/><path d="m18.6 20.4h764v169.7h-764z" fill="#fff"/><path d="m18.6 20.4h191v509.3h-191z" fill="#fc3d32"/><path d="m168.9 171.8-1.6.4c-8.5-6.8-19.6-16.4-33.3-29.8-20.4-20-30.5-33.4-36.3-41.6l1.2-.6c-18.4-31.7-36-56.3-39.4-54.8-3.4 1.6 8.9 28.6 27.3 60.4l1.3-.7c6.2 10.5 18.4 25.1 34.1 40.7 11.5 11.5 22.7 21.8 32.6 29.7l-.3.1c13.7 12.9 29 18.3 33.3 16 4.1-2.3-7.8-7.6-18.9-19.8z" fill="#fff"/><g fill="#ef2d28"><path d="m84.5 94.5.2.2 4.4 7.6 5.3-2.5-4.6-7.8zm4.5 6.6-3.4-5.9 3.7 2.1zm.2-4.3-3.8-2.2 4-1.8zm.2 4.8.3-4 3.7 2.2zm3.9-2.5-3.6-2.1.2-3.9zm-31.3-46.6 1.5 1.5 1.6-1.5-1.6-1.5zm125 135.1c-3.4-3.2-10.8-8.2-17.9-16.1l-.1-.1h-.2l-1.5.3c-8.4-6.8-19.5-16.4-33.2-29.7-19.8-19.4-29.9-32.6-35.8-41l-.3-.4 1.2-.6h-.2c-8.9-15.3-17.7-29.1-24.7-39-3.5-4.9-6.6-8.9-9-11.6l-5.5-4.3-.5.1-.7 1.7c0 3.2 2.8 10.8 7.8 21.3 4.9 10.4 11.9 23.6 20 37.7l.1.2h.2l1-.5.1-.1 6 8.8c6.8 9.2 16.5 20.3 27.9 31.7 11.4 11.3 22.5 21.5 32.3 29.4l-.3.1.4.3c11.7 11 24.5 16.6 30.9 16.6l2.7-.6 1-1.4zm-100.2-82.2c-8.1-14-15-27.1-19.9-37.5s-7.8-18.1-7.8-21l.4-1.2h.2l5.1 4.1c7.4 8.2 20.3 27.3 33.6 50.3l-.8.3c-2.2-3.8-4.4-7.8-6.5-11.3l-.1-.2h-.1c-6.1-10.2-11.9-19.2-16.7-26.2-3.3-4.8-6.2-8.7-8.5-11.3l-2.9-3.1-2-1.1h-.3l-.5 1.3c0 2.6 2.9 9.9 7.8 20 3.5 7.1 8 15.8 13.2 25.1l-.1.1.1.2c2 3.6 4.3 7.5 6.5 11.3zm-19-50.7c5.6 7.3 13.8 19.6 22.7 34.4l-9 4.2c-5.2-9.3-9.7-17.9-13.2-25.1-2.1-4.4-3.9-8.2-5.2-11.3zm-4.9 1.7c-1.5-3.9-2.5-6.7-2.5-7.9l.2-.8h.1l1.7 1 5 5.6zm25.1 48.5c-2.2-3.9-4.3-7.5-6.3-11.1l9.1-4.2c2.1 3.6 4.3 7.2 6.5 11h.1l-9.1 4.2zm34.2 40.7c-11.5-11.6-21.1-22.4-27.9-31.6l-6-8.8 3.6-1.6 5.7-2.6c5.8 8.3 15.9 21.7 36.2 41.5 13.5 13.2 24.5 22.7 33 29.6l-12 3.2c-9.9-7.9-21.1-18.2-32.6-29.7zm65.3 45.8-2.5.4c-6.1 0-18.7-5.4-30.2-16.1l13.9-3.6c4.8 5.3 9.6 9.1 13.3 12.1l4.5 3.8 1.6 2.5zm-97.2-101.1-.1-.2-.2.1-7.6 3.4.2.3c2 3.7 3.7 6.3 5.9 10.1l.1.2 7.8-3.5-.2-.3c-2.2-3.8-3.7-6.5-5.9-10.1zm-1.5 13.3c-2.1-3.6-3.7-6.2-5.6-9.6l6.8-3.2c2 3.4 3.5 6.1 5.6 9.7zm97.2 84.3c-3-2.7-10-7.1-17-14.8v-.1h-.2l-12.4 3.2.3.3c11.4 10.7 22.8 14.9 28.1 14.9l2.1-.4.8-.9zm.7 2.7-1.9.3c-5 0-16.1-4-27.3-14.4l11.3-2.9c4.7 5 9.3 8.7 12.8 11.4l4.2 3.2 1.5 1.9z"/><path d="m138.7 157.4v-.2l.8-1.2.7-1-.1-.2-1.3-1-1.9-.8-.7-1.5-1.1.3h-1.1l-.2-.2v-.2h.2l1-.1 1.3-.5.5.3-.1.1-.1.3.6 1 1.7.8 1.6 1.2.2.5-.8 1.3-.7.9v.1l.3.1.4-.1.3-.1.3.1-.1.4-.9.3h-.1z"/><path d="m145.8 163.4v-.4l.9-2.3-.2-.7-2.7-2-1-.1-1.4.2-.6.2-.3-.2.1-.3 2.2-.4 1.3.2 3 2.3.1.8-1 2.7h-.1z"/><path d="m149.9 167.5-2.4-2-.4-.9.2-.7.3-.1.2.3-.1.1-.1.4.2.5 2.1 1.9h.1l1.2-.6 1.4-.8h.2l1.5.9-.1.4h-.3l-.4-.4-.7-.4h-.1l-1.2.7-1.5.7z"/><path d="m158.1 173.8-.2-1.1.4-2.1-.4.4-.1.1-3.2.8-2.1-.8-.6-1.6 1.3-2.6h.3v.4l-.5.6-.6 1.6.5 1.2 1.7.7 2-.4 1-.4.6-.6.6-.7.1-.3.5.3-.1.2-.4 1-.5 2.2.1.9-.1.3h-.1z"/><path d="m178.7 187.6-.1-.5.4-1.6.1-.5-1.2-1.7-.5-.1-3.4 1.8-1.8.4h-.1l-.1-.5.7-.6.4-.9.4-1.3-.1-.1-.7-1.5-.3-.8-1.5.5-.9-.2-.5-.5v-.1-.1-.1l-1 .8-.3 1-.3 1.4-.3.6-.6.2-1-.4-.5-1.3.1-.4v-.3l-.7-.8-1.1-.1-1.6-.4-.7-.8v-.1l1.4-1.5 1.7-.7h.2l1.2.7.8.2.5-.1.3-.6v-.1l.2-.3.3.2v.2l-.5 1-.8.2-1-.3-1-.6h-.1l-1.5.6-1.2 1.1v.1l.8.5 1.5.1.8.2.9 1.3v.3.4l.3.9.7.2.3-.1.1-.3.2-.8.4-1.7 1.2-1 1-.6.3.4-.1.1-.2.1-.2.6v.1l.2.2.7.1 1.4-.5.2-.7.2.7.4 1.1.7 1.4.2.4-.8 2.3-.3.4.8-.2 3.7-2 .8.2 1.4 2.2v.6l-.5 1.5.1.3 2 .7.8-.2.4.2-.1.3-1.1.2z"/><path d="m127.7 144.1-.4-.8v-.3l.1-.7-.2-.3-.3.1-.2.9-.2.3-.8.3h-.1l-2.6-1.2-.5-1.7-.2-1.4-.2-.2-.3.3.1 1.4.8 1.9 2.8 1.4h.2l1.2-.5.3.7.2.2.1-.1z"/><path d="m136.6 148.7-2-.3-2.5-2.7-1.8-.5-.5-.1-3.4.8-.1.3.3.2 1.2-.4 2-.3h.5l1.5.5 2.2 2.3-1.1.5-.1.3.3.1h.1l.3-.2.9-.3h.2l1.2.2.6.1.4-.1z"/></g><path d="m59.4 171.8 1.5.4c8.5-6.8 19.6-16.4 33.4-29.8 20.4-20 30.5-33.4 36.3-41.6l-1.2-.6c18.4-31.7 36-56.3 39.4-54.8 3.3 1.6-8.9 28.6-27.3 60.4l-1.3-.7c-6.3 10.5-18.4 25.1-34 40.7-11.5 11.5-22.8 21.8-32.7 29.7l.4.1c-13.7 12.9-29.1 18.3-33.3 16-4.3-2.3 7.7-7.6 18.8-19.8z" fill="#fff"/><path d="m138.5 92-4.6 7.9 5.3 2.5 4.4-7.6.1-.2zm.6 5.4 3.6-2.1-3.4 5.9zm-.3-4.6 4 1.8-3.8 2.2zm-4 7 3.8-2.2.2 4zm3.5-6.6.3 3.9-3.6 2.1zm26.3-42.2-1.5 1.5 1.5 1.5 1.6-1.5zm-125.1 139.4 1 1.4 2.7.6c6.3 0 19.2-5.6 30.9-16.6l.3-.3-.3-.1c9.8-7.8 21-18 32.3-29.4 11.5-11.5 21.2-22.5 28-31.7l6-8.8.2.1 1 .5h.2l.1-.2c8.2-14.1 15.2-27.3 20.1-37.7 4.9-10.5 7.8-18.1 7.8-21.3l-.7-1.7-.5-.1-5.5 4.3c-2.4 2.7-5.5 6.7-9 11.6-7 9.9-15.8 23.6-24.7 39l-.1.3 1.1.6-.3.4c-5.9 8.4-16 21.6-35.8 41-13.7 13.3-24.8 22.9-33.2 29.7l-1.5-.3h-.2l-.1.1c-7.2 7.9-14.6 12.8-18 16.1zm101.2-85.3c2.2-3.7 4.5-7.7 6.5-11.3l.2-.2-.1-.1c5.2-9.3 9.7-17.9 13.2-25.1 4.9-10.1 7.8-17.3 7.8-20l-.5-1.3h-.3l-2 1.1-2.9 3.1c-2.3 2.6-5.1 6.6-8.5 11.3-4.9 7-10.6 16-16.8 26.2h-.1l-.2.2c-2.1 3.6-4.3 7.5-6.6 11.3l-.7-.3c13.3-23 26.2-42.1 33.6-50.3l5.1-4.1h.2l.4 1.2c.1 2.9-2.8 10.7-7.7 21-4.9 10.4-11.8 23.5-19.9 37.5zm24.5-48.3c-1.3 3.1-3.1 7-5.2 11.3-3.4 7.1-8 15.8-13.2 25.1l-9-4.2c8.9-14.8 17.1-27.1 22.7-34.4zm-4.4-2.5 5-5.6 1.7-1h.1l.3.8c0 1.2-.9 4-2.5 7.9zm-20.7 50.5-9.1-4.2c2.2-3.7 4.4-7.4 6.5-11l9.1 4.2c-2 3.7-4.1 7.3-6.3 11.1zm-66.6 70.4-12-3.2c8.4-6.8 19.5-16.3 33-29.6 20.3-19.8 30.4-33.2 36.3-41.5l5.6 2.6 3.5 1.6-5.9 8.9c-6.8 9.2-16.4 20.1-27.9 31.6s-22.7 21.8-32.6 29.6zm-33.5 15.2 1.7-2.5 4.5-3.8c3.7-3 8.6-6.8 13.3-12.1l14 3.6c-11.5 10.8-24.2 16.1-30.2 16.1l-2.5-.4zm92-89.9-.2.3 7.8 3.5.1-.2c2.2-3.8 3.8-6.4 5.9-10.1l.2-.3-7.6-3.4-.2-.1-.1.2c-2.1 3.5-3.6 6.2-5.9 10.1zm.6 0c2.1-3.6 3.6-6.3 5.6-9.7l6.8 3.2c-1.9 3.5-3.5 6-5.6 9.6zm-92.1 89.6.8.9 2.1.4c5.3 0 16.6-4.2 28-14.9l.4-.3-12.4-3.2h-.2l-.1.1c-7 7.7-13.9 12.1-17 14.8zm.5 0 1.5-1.9 4.2-3.2c3.5-2.7 8.1-6.4 12.7-11.4l11.4 2.9c-11.3 10.4-22.3 14.4-27.4 14.4l-1.9-.3z" fill="#ef2d28"/><path d="m89.5 157.4v-.2l-.7-1.2-.7-1v-.2l1.4-1 1.9-.8.7-1.5 1.1.3h1l.3-.2-.3-.2-.9-.1-1.4-.5-.4.3.1.1v.3l-.5 1-1.8.8-1.6 1.2-.1.5.8 1.3.6.9v.1l-.2.1-.5-.1-.2-.1-.3.1.1.4.9.3z" fill="#ef2d28"/><path d="m82.4 163.4v-.4l-.8-2.3.1-.7 2.7-2 1-.1 1.4.2.6.2.4-.2-.2-.3-2.2-.4-1.2.2-3 2.3-.1.8.9 2.7h.2z" fill="#ef2d28"/><path d="m78.3 167.5 2.5-2 .3-.9-.2-.7-.3-.1-.1.3v.1l.1.4-.2.5-2.1 1.9h-.1l-1.2-.6-1.3-.8h-.3l-1.4.9v.4h.4l.3-.4.7-.4h.1l1.2.7 1.5.7z" fill="#ef2d28"/><path d="m70.2 173.8.1-1.1-.4-2.1.5.4v.1l3.3.8 2.1-.8.5-1.6-1.2-2.6h-.4v.4l.6.6.5 1.6-.4 1.2-1.7.7-2.1-.4-.9-.4-.6-.6-.6-.7-.2-.3-.4.3.1.2.3 1 .5 2.2-.2.9.2.3h.1z" fill="#ef2d28"/><path d="m49.5 187.6.1-.5-.4-1.6v-.5l1.1-1.7.5-.1 3.4 1.8 1.9.4h.1l.1-.5-.7-.6h-.1l-.3-.9-.4-1.3.1-.1.7-1.5.3-.8 1.4.5.9-.2.5-.5v-.1-.1-.1l1 .8.3 1 .3 1.4.4.6.6.2.9-.4.5-1.3v-.4-.3l.6-.8 1.1-.1 1.7-.4.6-.8v-.1l-1.4-1.5-1.7-.7h-.1l-1.3.7-.8.2-.5-.1-.2-.6v-.1l-.2-.3-.3.2-.1.2.5 1 .8.2 1-.3 1.1-.6 1.6.6 1.1 1.1v.1l-.7.5-1.6.1-.8.2-.9 1.3v.3.4l-.3.9-.6.2-.3-.1h-.1l-.1-.3-.2-.8-.4-1.7-1.2-1-.9-.6-.3.4.1.1.1.1.2.6v.1l-.2.2-.7.1-1.3-.5-.3-.7-.2.7-.4 1.1-.6 1.4-.2.4.8 2.3.2.4-.8-.2-3.7-2-.8.2-1.4 2.2.1.6.4 1.5-.1.3-2 .7-.8-.2-.3.2.1.3 1 .2z" fill="#ef2d28"/><path d="m100.6 144.1.3-.8v-.3l-.1-.7.2-.3.3.1.2.9.2.3.9.3h.1l2.6-1.2.5-1.7.1-1.4.3-.2.2.3-.1 1.4-.7 1.9-2.9 1.4h-.2l-1.1-.5-.4.7-.2.2-.1-.1z" fill="#ef2d28"/><path d="m91.7 148.7 2-.3 2.4-2.7 1.8-.5.5-.1 3.4.8.2.3-.4.2-1.1-.4-2.1-.3h-.5l-1.4.5-2.3 2.3 1.1.5.1.3-.2.1h-.2l-.3-.2-.9-.3h-.1l-1.2.2-.7.1-.3-.1z" fill="#ef2d28"/><path d="m126.9 86.8c-3.9.1-6.4-2.2-6.4-4.5h-.9v-4.6h-.9v-4.5-4.6h-.9v-6.1h.3v-3.6l5.9-4.1.7.1 2.6-2.3-2.6-2.3-.4.1c-1-2.6-3.9-4.5-7.6-5.1v-.2l-2.6-2.3-2.7 2.3v.2c-3.7.6-6.6 2.6-7.6 5.1l-.4-.1-2.6 2.3 2.6 2.3.7-.1 5.9 4.1v3.6h.3v6.1h-.9v4.6 4.5h-.9v4.6h-1c0 2.3-2.6 4.6-6.4 4.6v3.8c0 25.6.1 35.3-1.8 36.5-1.8 1.5-53.7 0-53.7 7.7 0 7.6 42.7 15.2 55.5 15.2 17.1 0 25.7-7.7 25.7-22.9v-38-2.4z" fill="#fff"/><path d="m44.6 103.6h27.7l2.8 2.6v13.1l-2.8 2.6h-27.7l-2.8-2.6v-13.1z" fill="#fff"/><path d="m44.6 122.1-3-2.8v-13.1l3-2.8v.2.3l-2.5 2.3v13.1l2.5 2.3h27.7l2.6-2.3v-13.1l-2.6-2.3h-27.7v-.3-.2h27.7l3.1 2.8v13.1l-3.1 2.8z" fill="#ef2d28"/><path d="m45.3 104.3h26.4l2.6 2.5v11.9l-2.6 2.4h-26.4l-2.7-2.4v-11.9z" fill="#fff"/><path d="m45.3 121.3-2.9-2.6v-11.9l2.9-2.7v.2.3l-2.4 2.2v11.9l2.4 2.1h26.4l2.3-2.1v-11.9l-2.3-2.2h-26.4v-.3-.2h26.4l2.8 2.7v11.9l-2.8 2.6z" fill="#ef2d28"/><path d="m57.4 108.9 1.6.1v.7l1.4.7 1-.8 1.2.6-1.2.7.3 1h1.5v1.3h-1.2l-.6.8 1.3.9-1 .8-1.1-.8-1.6.3.1 1.2-1.7.2-.2-1.2-1.5-.6-.8.8-1.2-.6.7-1-.9-.6h-1.2l-.1-1.7 1.2.1.9-1-1-.7 1.3-1 1 .8 1.6-.3z" fill="#fff"/><path d="m56.9 115.6-1.1-.5-.8.8-1.7-.8.7-1-.6-.4h-1.4l-.1-2.3 1.4.2.6-.8-1.1-.7 1.8-1.2 1 .7 1.3-.2.2-.6.1-.2 2 .1.1.8 1 .6 1-.9 1.7.9-1.4.9.2.6h1.5v1.9l-1.3-.1-.4.6 1.4.9-1.5 1.1-1.2-.9-1.3.3.1 1.2-2.2.2zm.5-.4.2 1.1 1.3-.1-.1-1.2 1.9-.4 1 .8.6-.5-1.2-.9.8-1.1 1 .1v-.8h-1.4l-.4-1.4.9-.5-.6-.4-1.1.8-1.6-.8-.1-.6-1.1-.1-.2.7-1.9.3-.9-.7-.8.6.9.7-1.2 1.3-1.1-.1v1.2h1.1l1.2.8-.7.9.8.4.8-.8z" fill="#ef2d28"/><path d="m57.9 111 1.7 1.5-1.7 1.5-1.8-1.5z" fill="#fff"/><path d="m55.9 112.5 2-1.7v.2.3l-1.5 1.2 1.5 1.3 1.5-1.3-1.5-1.2v-.3-.2l2 1.7-2 1.8z" fill="#ef2d28"/><path d="m71.7 106.3 1.1-.9v-.4h-.4l-1.2 1-.4-.4.2-.2v-.4h-.4l-.2.3-.2-.3h-.4v.4l.2.2-.5.4-.5-.4.2-.2v-.4h-.2l-.3.3-.3-.3h-.4l.1.4.2.2-.5.4-.5-.4.2-.2.1-.4h-.4l-.2.3-.3-.3h-.4v.4l.2.2-.5.4-.5-.4.2-.2v-.4h-.4l-.2.3-.3-.3h-.4v.4l.2.2-.5.4-.4-.4.2-.2v-.4h-.4l-.2.3-.2-.3h-.1v.4l.2.2-.5.4-.5-.4.2-.2v-.4h-.3l-.3.3-.3-.3h-.4v.4l.2.2-.4.4-.5-.4.2-.2v-.4h-.4l-.2.3-.3-.3h-.4v.4l.2.2-.4.4-.5-.4.2-.2v-.4h-.4l-.2.3-.3-.3h-.3v.4l.2.2-.5.4-.4-.4.2-.2v-.4h-.1l-.3.3-.2-.3h-.4v.4l.2.2-.5.4-.4-.4.2-.2v-.4h-.4l-.3.3-.2-.3h-.4v.4l.2.2-.5.4-.5-.4.2-.2v-.4h-.4l-.2.3-.3-.3h-.4v.4l.2.2-.5.4-.5-.4.2-.2v-.4h-.4l-.2.3-.3-.3h.1v.4l.2.2-.5.4-.4-.4.2-.2v-.4h-.4l-.2.3-.2-.3h-.4v.4l.2.2-.5.4-.5-.4.2-.2v-.4h-.4l-.3.3-.2-.3h-.4v.4l.2.2-.5.4-.5-.4.2-.2v-.4h-.4l-.2.3-.2-.3h-.4v.4l.2.2-.5.4-1.1-1h-.3v.4l1.1.9-1.1.9v.3l.2.1.2-.1 1.1-1 .5.5-.2.2v.3l.2.1.2-.1.2-.2.2.2.1.1.3-.1v-.3l-.2-.2.5-.5.5.5-.2.2v.3l.1.1.3-.1.2-.2.3.2.1.1.2-.1v-.3l-.2-.2.5-.5.5.5-.2.2v.3l.1.1.3-.1.2-.2.2.2.2.1.2-.1v-.3l-.2-.2.4-.5.5.5-.2.2v.3l.2.1.2-.1.3-.2.2.2.2.1.2-.1v-.3l-.3-.2.5-.5.5.5-.2.2v.3l.2.1.2-.1.3-.2.2.2.1.1.2-.1v-.3l-.2-.2.5-.5.5.5-.2.2v.3l.1.1.3-.1.2-.2.3.2.1.1.2-.1v-.3l-.2-.2.4-.5.5.5-.2.2v.3l.1.1.3-.1.2-.2.3.2.2.1.2-.1v-.3l-.2-.2.4-.5.5.5-.2.2v.3l.2.1.1-.1.3-.2.2.2.2.1.2-.1v-.3l-.2-.2.5-.5.4.5-.2.2v.3l.2.1.2-.1.3-.2.2.2.2.1.2-.1v-.3l-.2-.2.5-.5.4.5-.2.2v.3l.2.1.2-.1.3-.2.3.2.1.1.2-.1v-.3l-.2-.2.5-.5.5.5-.2.2v.3l.2.1.2-.1.2-.2.2.2.2.1.2-.1v-.3l-.7-.2.4-.5.5.5-.2.2v.3l.2.1.2-.1.3-.2.2.2.2.1.2-.1v-.3l-.2-.2.5-.5.5.5-.2.2v.3l.2.1.2-.1.3-.2.2.2.1.1.3-.1-.1-.3-.2-.2.5-.5.5.5-.2.2-.1.3.1.1.3-.1.3-.2.3.2.1.1.2-.1v-.3l-.2-.2.5-.5.5.5-.2.2v.3l.1.1.3-.1.2-.2.2.2.2.1.2-.1v-.3l-.2-.2.4-.5 1.2 1 .2.1.2-.1v-.3zm-25.2.4-.5-.4.5-.4.4.4zm1.7 0-.5-.4.5-.4.5.4zm1.7 0-.5-.4.5-.4.5.4zm1.8 0-.5-.4.5-.4.5.4zm1.7 0-.5-.4.5-.4.4.4zm1.7 0-.5-.4.5-.4.5.4zm1.7 0-.5-.4.5-.4.5.4zm1.7 0-.5-.4.5-.4.5.4zm1.7 0-.5-.4.5-.4.4.4zm1.7 0-.5-.4.5-.4.4.4zm1.7 0-.5-.4.5-.4.5.4zm1.7 0-.5-.4.5-.4.4.4zm1.8 0-.5-.4.5-.4.4.4zm1.6 0-.5-.4.5-.4.5.4zm1.7 0-.5-.4.5-.4.5.4z" fill="#ef2d28"/><path d="m71.7 119.2 1.1-.9v-.4h-.4l-1.2 1-.4-.3.2-.2v-.4h-.4l-.2.3-.2-.3h-.4v.4l.2.2-.5.3-.5-.3.2-.2v-.4h-.3l-.3.3-.3-.3h-.4l.1.4.2.2-.5.3-.5-.3.2-.2.1-.4h-.4l-.2.3-.3-.3h-.4v.4l.2.2-.5.3-.5-.3.2-.2v-.4h-.4l-.2.3-.3-.3h-.4v.4l.2.2-.5.3-.4-.3.2-.2v-.4h-.4l-.2.3-.2-.3h-.4v.4l.2.2-.5.3-.5-.3.2-.2v-.4h-.3l-.3.3-.3-.3h-.4v.4l.2.2-.4.3-.5-.3.2-.2v-.4h-.4l-.2.3-.3-.3h-.4v.4l.2.2-.4.3-.5-.3.2-.2v-.4h-.4l-.2.3-.3-.3h-.3v.4l.2.2-.5.3-.4-.3.2-.2v-.4h-.4l-.3.3-.2-.3h-.4v.4l.2.2-.5.3-.4-.3.2-.2v-.4h-.4l-.3.3-.2-.3h-.4v.4l.2.2-.5.3-.5-.3.2-.2v-.4h-.4l-.2.3-.3-.3h-.4v.4l.2.2-.5.3-.5-.3.2-.2v-.4h-.4l-.2.3-.3-.3h-.4v.4l.2.2-.5.3-.4-.3.2-.2v-.4h-.4l-.2.3-.2-.3h-.4v.4l.2.2-.5.3-.5-.3.2-.2v-.4h-.4l-.3.3-.2-.3h-.4v.4l.2.2-.5.3-.5-.3.2-.2v-.4h-.4l-.2.3-.2-.3h-.4v.4l.2.2-.5.3-1.1-1h-.3v.4l1.1.9-1.1.9v.3l.2.1h.2l1.1-1.1.5.5-.2.2v.3l.2.1h.2l.2-.3.2.3h.1l.3-.1v-.3l-.2-.2.5-.5.5.5-.2.2v.3l.1.1h1.6l.2-.3.3.3h.1l.2-.1v-.3l-.2-.2.5-.5.5.5-.2.2v.3l.1.1h.3l.2-.3.2.3h.2l.2-.1v-.3l-.2-.2.4-.5.5.5-.2.2v.3l.2.1h.2l.3-.3.2.3h.2l.2-.1v-.3l-.4-.1.5-.5.5.5-.2.2v.3l.2.1h.2l.3-.3.2.3h.1l.2-.1v-.3l-.2-.2.5-.5.5.5-.2.2v.3l.1.1h.3l.2-.3.3.3h.1l.2-.1v-.3l-.2-.2.4-.5.5.5-.2.2v.3l.1.1h.3l.2-.3.3.3h.2l.2-.1v-.3l-.2-.2.4-.5.5.5-.2.2v.3l.2.1h.1l.3-.3.2.3h.2l.2-.1v-.3l-.2-.2.5-.5.4.5-.2.2v.3l.2.1.3-.3.2.3h.2l.2-.1v-.3l-.2-.2.5-.5.4.5-.2.2v.3l.2.1h.2l.3-.3.3.3h.1l.2-.1v-.3l-.2-.2.5-.5.5.5-.2.2v.3l.2.1h.2l.2-.3.2.3h.2l.2-.1v-.3l-.5-.2.4-.5.5.5-.2.2v.3l.2.1h.2l.3-.3.2.3h.2l.2-.1v-.3l-.2-.2.5-.5.5.5-.2.2v.3l.2.1h.2l.3-.3.2.3h.1l.3-.1-.1-.3-.2-.2.5-.5.5.5-.2.2-.1.3.1.1h.3l.3-.3.3.3h.1l.2-.1v-.3l-.2-.2.5-.5.5.5-.2.2v.3l.1.1h.3l.2-.3.2.3h.2l.2-.1v-.3l-.2-.2.4-.5 1.2 1.1h.2l.2-.1v-.3zm-25.2.4-.5-.3.5-.4.4.4zm1.7 0-.5-.3.5-.4.5.4zm1.7 0-.5-.3.5-.4.5.4zm1.8 0-.5-.3.5-.4.5.4zm1.7 0-.5-.3.5-.4.4.4zm1.7 0-.5-.3.5-.4.5.4zm1.7 0-.5-.3.5-.4.5.4zm1.7 0-.5-.3.5-.4.5.4zm1.7 0-.5-.3.5-.4.4.4zm1.7 0-.5-.3.5-.4.4.4zm1.7 0-.5-.3.5-.4.5.4zm1.7 0-.5-.3.5-.4.4.4zm1.8 0-.5-.3.5-.4.4.4zm1.6 0-.5-.3.5-.4.5.4zm1.7 0-.5-.3.5-.4.5.4z" fill="#ef2d28"/><path d="m155.9 103.6h27.7l2.8 2.6v13.1l-2.8 2.6h-27.7l-2.8-2.6v-13.1z" fill="#fff"/><path d="m155.9 122.1-3.1-2.8v-13.1l3.1-2.8v.2.3l-2.6 2.3v13.1l2.6 2.3h27.7l2.5-2.3v-13.1l-2.5-2.3h-27.7v-.3-.2h27.7l3.1 2.8v13.1l-3.1 2.8z" fill="#ef2d28"/><path d="m156.6 104.3h26.3l2.7 2.5v11.9l-2.7 2.4h-26.3l-2.6-2.4v-11.9z" fill="#fff"/><path d="m156.6 121.3-2.9-2.6v-11.9l2.9-2.7v.2.3l-2.4 2.2v11.9l2.4 2.1h26.3l2.4-2.1v-11.9l-2.4-2.2h-26.3v-.3-.2h26.3l2.9 2.7v11.9l-2.9 2.6z" fill="#ef2d28"/><path d="m168.7 108.9 1.6.1v.7l1.3.7 1.1-.8 1.2.6-1.2.7.3 1h1.5v1.3h-1.2l-.6.8 1.4.9-1.1.8-1.1-.8-1.6.3.1 1.2-1.7.2-.2-1.2-1.5-.6-.8.8-1.3-.6.8-1-.9-.6h-1.2l-.1-1.7 1.3.1.8-1-1-.7 1.3-1 .9.8 1.7-.3z" fill="#fff"/><path d="m168.2 115.6-1.2-.5-.8.8-1.7-.8.8-1-.6-.4h-1.4l-.1-2.3 1.3.2.6-.8-1.1-.7 1.7-1.2 1 .7 1.3-.2.2-.6.1-.2 2 .1.1.8 1 .6 1-.9 1.8.9-1.2.9.2.6h1.5v1.9l-1.3-.1-.4.6 1.4.9-1.4 1.1-1.2-.9-1.3.3.1 1.2-2.2.2zm.5-.4.2 1.1 1.2-.1v-1.2l1.9-.4 1 .8.5-.5-1.2-.9.8-1.1 1.1.1v-.8h-1.4l-.4-1.4.9-.5-.7-.4-1 .8-1.6-.8v-.6l-1.2-.1-.2.7-1.8.3-.9-.7-.9.6.9.7-1.1 1.3-1.1-.1v1.2h1.1l1.1.8-.7.9.8.4.8-.8z" fill="#ef2d28"/><path d="m169.1 111 1.8 1.5-1.8 1.5-1.7-1.5z" fill="#fff"/><g fill="#ef2d28"><path d="m167.1 112.5 2-1.7v.2.3l-1.4 1.2 1.4 1.3 1.5-1.3-1.5-1.2v-.3-.2l2 1.7-2 1.8z"/><path d="m183 106.3 1.1-.9v-.4h-.3l-1.2 1-.5-.4.2-.2v-.4h-.3l-.2.3-.3-.3h-.4v.4l.2.2-.5.4-.4-.4.2-.2v-.4h-.4l-.2.3-.3-.3h-.3v.4l.2.2-.5.4-.4-.4.2-.2v-.4h-.4l-.3.3-.2-.3h-.4v.4l.2.2-.5.4-.5-.4.2-.2v-.4h-.4l-.2.3-.3-.3h-.1v.4l.2.2-.5.4-.5-.4.2-.2.1-.4h-.4l-.3.3-.3-.3h-.4v.4l.2.2-.4.4-.5-.4.2-.2v-.4h-.3l-.3.3-.3-.3h-.3v.4l.2.2-.5.4-.5-.4.2-.2v-.4h-.4l-.2.3-.3-.3h-.4v.4l.2.2-.5.4-.5-.4.2-.2v-.4h.1l-.2.3-.3-.3h-.4v.4l.2.2-.4.4-.5-.4.2-.2.1-.4h-.4l-.3.3-.2-.3h-.4v.4l.2.2-.5.4-.5-.4.2-.2v-.4h-.3l-.3.3-.3-.3h-.3v.4l.2.2-.5.4-.4-.4.2-.2v-.4h-.3l-.3.3-.2-.3h-.3l.1.4.2.2-.5.4-.5-.4.2-.2v-.4h-.4l-.2.3-.3-.3h-.4v.4l.2.2-.5.4-.5-.4.2-.2.1-.4h-.4l-.3.3-.3-.3h-.4v.4l.2.2-.5.4-.5-.4.2-.2v-.4h-.4l-.2.3-.2-.3h-.4v.4l.2.2-.5.4-.5-.4.2-.2.1-.4h-.4l-.3.3-.2-.3h-.4v.4l.2.2-.5.4-1.2-1h-.4l.1.4 1.1.9-1.1.9-.1.3.3.1.1-.1 1.2-1 .5.5-.2.2v.3l.2.1.2-.1.2-.2.3.2.2.1.2-.1-.1-.3-.2-.2.5-.5.5.5-.2.2v.3l.2.1.2-.1.2-.2.2.2.1.1.3-.1v-.3l-.2-.2.5-.5.5.5-.2.2v.3l.2.1.2-.1.3-.2.3.2.1.1.3-.1-.1-.3-.2-.2.5-.5.5.5-.2.2v.3l.2.1.2-.1.3-.2.2.2.1.1.2-.1v-.3l-.2-.2.5-.5.5.5-.2.2-.1.3.2.1.2-.1.2-.2.3.2.1.1.2-.1v-.3l-.1-.2.4-.5.5.5-.2.2v.3l.1.1.2-.1.3-.2.3.2.1.1.2-.1v-.3l-.2-.2.5-.5.5.5-.2.2v.3l.1.1.2-.1.2-.2.3.2.2.1.2-.1-.1-.3-.2-.2.5-.5.4.5-.2.2v.3l.1.1.2-.1.3-.2.2.2.2.1.2-.1v-.3l-.2-.2.5-.5.5.5-.2.2v.3l.2.1.2-.1.3-.2.2.2.2.1.2-.1v-.3l-.2-.2.5-.5.5.5-.2.2v.3l.1.1.2-.1.3-.2.3.2.1.1.2-.1v-.3l-.2-.2.5-.5.4.5-.2.2v.3l.1.1.2-.1.3-.2.3.2.1.1.3-.1-.1-.3-.2-.2.5-.5.5.5-.2.2v.3l.2.1.2-.1.3-.2.2.2.2.1.2-.1v-.3l-.6-.2.5-.5.5.5-.2.2v.3l.2.1.2-.1.2-.2.3.2.2.1.2-.1v-.3l-.2-.2.4-.5.5.5-.2.2v.3l.1.1.2-.1.3-.2.2.2.1.1.2-.1v-.3l-.2-.2.4-.5.5.5-.2.2v.3l.1.1.3-.1.3-.2.2.2.1.1.2-.1v-.3l-.2-.2.5-.5 1.2 1 .1.1.2-.1v-.3zm-25.2.4-.5-.4.5-.4.5.4zm1.7 0-.5-.4.5-.4.5.4zm1.7 0-.5-.4.5-.4.5.4zm1.7 0-.5-.4.5-.4.5.4zm1.7 0-.4-.4.4-.4.5.4zm1.7 0-.4-.4.4-.4.5.4zm1.7 0-.5-.4.5-.4.5.4zm1.8 0-.5-.4.5-.4.5.4zm1.7 0-.5-.4.5-.4.4.4zm1.7 0-.5-.4.5-.4.5.4zm1.7 0-.5-.4.5-.4.5.4zm1.7 0-.5-.4.5-.4.5.4zm1.7 0-.5-.4.5-.4.5.4zm1.7 0-.5-.4.5-.4.5.4zm1.7 0-.5-.4.5-.4.5.4z"/><path d="m183 119.2 1.1-.9v-.4h-.3l-1.2 1-.5-.3.2-.2v-.4h-.4l-.2.3-.3-.3h-.4v.4l.2.2-.5.3-.4-.3.2-.2v-.4h-.4l-.2.3-.3-.3h-.3v.4l.2.2-.5.3-.4-.3.2-.2v-.4h-.4l-.3.3-.2-.3h-.4v.4l.2.2-.5.3-.5-.3.2-.2v-.4h-.4l-.2.3-.3-.3h-.4v.4l.2.2-.5.3-.5-.3.2-.2.1-.4h-.4l-.3.3-.3-.3h-.4v.4l.2.2-.4.3-.5-.3.2-.2v-.4h-.3l-.3.3-.3-.3h-.3v.4l.2.2-.5.3-.5-.3.2-.2v-.4h-.4l-.2.3-.3-.3h-.4v.4l.2.2-.5.3-.5-.3.2-.2v-.4h-.4l-.2.3-.3-.3h-.4v.4l.2.2-.4.3-.5-.3.2-.2.1-.4h-.4l-.3.3-.2-.3h-.4v.4l.2.2-.5.3-.5-.3.2-.2v-.4h-.3l-.3.3-.3-.3h-.3v.4l.2.2-.5.3-.4-.3.2-.2v-.4h-.3l-.3.3-.2-.3h-.4l.1.4.2.2-.5.3-.5-.3.2-.2v-.4h-.4l-.2.3-.3-.3h-.4v.4l.2.2-.5.3-.5-.3.2-.2.1-.4h-.4l-.3.3-.3-.3h-.4v.4l.2.2-.5.3-.5-.3.2-.2v-.4h-.4l-.2.3-.2-.3h-.4v.4l.2.2-.5.3-.5-.3.2-.2.1-.4h-.4l-.3.3-.2-.3h-.4v.4l.2.2-.5.3-1.2-1h-.4l.1.4 1.1.9-1.1.9-.1.3.3.1h.1l1.2-1.1.5.5-.2.2v.3l.2.1h.2l.2-.3.3.3h.2l.2-.1-.1-.3-.2-.2.5-.5.5.5-.2.2v.3l.2.1h.2l.2-.3.2.3h.1l.3-.1v-.3l-.2-.2.5-.5.5.5-.2.2v.3l.2.1h.2l.3-.3.3.3h.1l.3-.1-.1-.3-.2-.2.5-.5.5.5-.2.2v.3l.2.1h.2l.3-.3.2.3h.1l.2-.1v-.3l-.2-.2.5-.5.5.5-.2.2-.1.3.2.1h.2l.2-.3.3.3h.1l.2-.1v-.3l.9-.1.4-.5.5.5-.2.2v.3l.1.1h.2l.3-.3.3.3h.1l.2-.1v-.3l-.2-.2.5-.5.5.5-.2.2v.3l.1.1h.2l.3-.3.3.3h.2l.2-.1-.1-.3-.2-.2.5-.5.4.5-.2.2v.3l.1.1h.2l.3-.3.2.3h.2l.2-.1v-.3l-.2-.2.5-.5.5.5-.2.2v.3l.2.1h.2l.3-.3.2.3h.2l.2-.1v-.3l-.2-.2.5-.5.5.5-.2.2v.3l.1.1h.2l.3-.3.3.3h.1l.2-.1v-.3l-.2-.2.5-.5.4.5-.2.2v.3l.1.1h.2l.3-.3.3.3h.1l.3-.1-.1-.3-.2-.2.5-.5.5.5-.2.2v.3l.2.1h.2l.3-.3.2.3h.2l.2-.1v-.3l-.7-.2.5-.5.5.5-.2.2v.3l.2.1h.2l.2-.3.3.3h.2l.2-.1v-.3l-.2-.2.4-.5.5.5-.2.2v.3l.1.1h.2l.3-.3.2.3h.1l.2-.1v-.3l-.2-.2.4-.5.5.5-.2.2v.3l.1.1h.3l.3-.3.2.3h.1l.2-.1v-.3l-.2-.2.5-.5 1.2 1.1h.1l.2-.1v-.3zm-25.2.4-.5-.3.5-.4.5.4zm1.7 0-.5-.3.5-.4.5.4zm1.7 0-.5-.3.5-.4.5.4zm1.7 0-.5-.3.5-.4.5.4zm1.7 0-.4-.3.4-.4.5.4zm1.7 0-.4-.3.4-.4.5.4zm1.7 0-.5-.3.5-.4.5.4zm1.8 0-.5-.3.5-.4.5.4zm1.7 0-.5-.3.5-.4.4.4zm1.7 0-.5-.3.5-.4.5.4zm1.7 0-.5-.3.5-.4.5.4zm1.7 0-.5-.3.5-.4.5.4zm1.7 0-.5-.3.5-.4.5.4zm1.7 0-.5-.3.5-.4.5.4zm1.7 0-.5-.3.5-.4.5.4z"/><path d="m101.3 100.8h-.1v-4-.3l.2.1c4.2.6 8.5.9 12.8.9s8.5-.3 12.8-.9l.2-.1v4.3h-.2c-4.3.6-8.6 1-12.8 1-4.4 0-8.6-.4-12.9-1zm12.8.4c4.2 0 8.4-.3 12.6-.9v-3.3c-4.2.6-8.4.9-12.6.9s-8.4-.3-12.7-.9v3.3c4.3.6 8.5.9 12.7.9zm-12.8-4.2v-.3z"/><path d="m101 95.1 1.5-1.1v.3.2l-.7.2-.2.4.2.4.7.2.7-.2.2-.4-.2-.4-.7-.2v-.2-.3l1.4 1.1-1.4 1z"/><path d="m105.7 95.5 1.5-1.1v.2.3l-.7.2-.2.4.2.3.7.2.6-.2.2-.3-.2-.4-.6-.2v-.3-.2l1.4 1.1-1.4 1.1z"/><path d="m110.4 95.9 1.4-1.2v.4.3l-.7.1-.2.4.2.4.7.2.7-.2.2-.4-.2-.4-.7-.1v-.3-.4l1.4 1.2-1.4 1.1z"/><path d="m115 95.9 1.5-1.2v.4.3l-.7.1-.2.4.2.4.7.2.6-.2.3-.4-.3-.4-.6-.1v-.3-.4l1.4 1.2-1.4 1.1z"/><path d="m119.7 95.5 1.4-1.1v.2.3l-.7.2-.2.4.2.3.7.2.7-.2.3-.3-.3-.4-.7-.2v-.3-.2l1.4 1.1-1.4 1.1z"/><path d="m124.3 95.1 1.4-1.1v.3.2l-.6.2-.3.4.3.4.6.2.7-.2.2-.4-.2-.4-.7-.2v-.2-.3l1.5 1.1-1.5 1z"/><path d="m101 106.6 1.5-1.2v.3.2l-.7.2-.2.5.2.3.7.2.7-.2.2-.3-.2-.5-.7-.2v-.2-.3l1.4 1.2-1.4 1z"/><path d="m105.7 107 1.5-1.1v.2.3l-.7.2-.2.4.2.3.7.2.6-.2.2-.3-.2-.4-.6-.2v-.3-.2l1.4 1.1-1.4 1z"/><path d="m110.4 107.3 1.4-1v.3.2l-.7.2-.2.3.2.4.7.2.7-.2.2-.4-.2-.3-.7-.2v-.2-.3l1.4 1-1.4 1.1z"/><path d="m115 107.3 1.5-1v.3.2l-.7.2-.2.3.2.4.7.2.6-.2.3-.4-.3-.3-.6-.2v-.2-.3l1.4 1-1.4 1.1z"/><path d="m119.7 107 1.4-1.1v.2.3l-.7.2-.2.4.2.3.7.2.7-.2.3-.3-.3-.4-.7-.2v-.3-.2l1.4 1.1-1.4 1z"/><path d="m124.3 106.6 1.5-1.2v.3.2l-.7.2-.3.5.3.3.7.2.6-.2.3-.3-.3-.5-.6-.2v-.2-.3l1.4 1.2-1.4 1z"/></g><path d="m106.8 86 2.8 2.2-2.8 2.3-2.7-2.3z" fill="#fff"/><path d="m121.5 86 2.7 2.2-2.7 2.3-2.8-2.3z" fill="#fff"/><path d="m114.1 84.6 3.7 3-3.7 3-3.7-3z" fill="#fff"/><path d="m103.5 50.5.2-.5h-.2v.2z" fill="#ef2d28"/><path d="m124.7 50.5v-.3-.2h-.2z" fill="#ef2d28"/><path d="m124.2 50.6.5-.1-.2-.5-.5.1z" fill="#ef2d28"/><path d="m116.5 44.9-.1.5h.6v-.4z" fill="#ef2d28"/><path d="m111.8 45.4-.1-.5-.5.1.1.4z" fill="#ef2d28"/><path d="m127.2 88.9v-2.4h-.2-.1l-4.4-1.4-1.7-2.8.3-.3h-1.2v-4.5h-.9v-9.2h-1v-5.5h.3v-3.7l5.8-4 .6.1 2.9-2.6-2.9-2.5v.5l2.4 2-2.4 2h-.2l-.6-.1-1.6-1.9 1.9-2-.2-.5-2.2 2.4 1.8 2.4-2.1 2.1-.6-1.3-.7-3.7.7-3.5.5-1 .2-.2 2.5 2.8.5-.1c-1.1-2.5-3.9-4.3-7.5-5v.5l2.5.8-1.5 5.8 1.5 6.1-5.3 1-2.6-.2-1.7-.5-1.2-.4 1.5-6.1-1.5-5.8 2.6-.8-.1-.5c-3.5.7-6.4 2.6-7.4 5l-.2.5.5.1 1.9 2-1.6 1.9-.5.1h-.3l-2.4-2 2.4-2v-.5l-2.9 2.5 2.9 2.6.6-.1 5.8 4v3.7h.3v5.5h-.9v9.2h-.9v4.6h-.6-.7l.3.3-1.7 2.9-4.5 1.4h-.4v4.3 8.3 1 3.3c0 7.3 0 12.7-.3 16.4-.2 4.5-.8 6.7-1.4 7.1l-.8.2c-2.5.4-9.9.6-18.3.9-3.5.1-7.2.3-10.8.6-6.2.3-12.1.9-16.5 1.9l-5.3 1.8-2.1 2.5c.1 2.1 2.8 4 7 5.9 12.7 5.3 39.1 9.6 48.8 9.6l4-.2c5.1-.3 9.4-1.5 12.7-3.6l2.7-2 3.4-4c2.1-3.6 3.1-7.9 3.1-13.3zm-8-32.8-.7-4.1.7-3.9.7-1.7-.3-.2 1.4.8-1.4 5 1.4 5.3-1.2.6zm-14.6-1.2 1.8-2.4-2.2-2.4 2.4-2.8.1.2 1.2 4.5-.7 3.7-.6 1.2zm2.5 2.3 1.4-5.2-1.4-5 1.2-.6.7 1.7.7 3.9-.7 4.1-.7 1.8zm19.5 29.8v3.4h-3.5l1.3-2.2-1.1-1.9zm-2.7 1.2-2.5 2.1-2.5-2.1 2.5-2zm-1.2-2.2-1.2-.3-3 2.5 1.3 2.2h-3.5l1.8-2.8-.5-1.7 2.8-3zm-8.6 4.4-3.4-2.8 3.4-2.8 3.4 2.8zm-3.7-31.2 3.7.5 3.6-.5v2.9h-7.4v-2.9zm7.1 3.5v5.5h-6.8v-5.5zm-7.7 6.1h8.6v4.1h-8.6zm0 4.6h8.6v4.1h-8.6zm-.9 4.6h10.4v4h-10.4zm-.5 4.5h11.5l-2.8 2.9-3-1.2-3 1.2zm-.5.4 2.9 3-.6 1.7 1.8 2.8h-3.5l1.3-2.2-3-2.5-1.2.3zm-1.1 3.4 2.5 2-2.5 2.1-2.5-2.1zm-5.2.8 3.2-.8-1 1.9 1.4 2.2h-3.6v-1zm0 21.6.7.6-.8.6zm19.5.4 1.2-.1.3.2-.8.7-.9-.7zm4.5.5 1 .9-.6.4-1-.7zm-.3-1 .7-.1-.4.3zm-8.6 14.5-1 .8-1-.8.9-.9zm-.6-1.2.9-.8 1 .8-1 .8zm-3.3 6.5-1-.8 1-.8 1 .8zm0 .7 1 .8-1 .8-1-.8zm.4-2.6 1-.8 1 .8-1 .8zm1-1.5-1-.8 1-.8 1 .8zm-.4.4-.9.8-1-.8 1-.8zm-2.4-.4-1-.8 1-.8 1 .8zm0 .7 1 .8-1 .8-1-.8zm0 2.3 1 .8-1 .8-1-.8zm0 2.2 1 .8-1 .8-1-.8zm.1 2.3 1 .8-1 .7-1-.8zm.4-.4 1-.8 1 .8-1 .8zm1.4-1.1.9-.8 1.1.8-1 .8zm.9-1.4-1-.8 1-.8 1.1.8zm.5-2 1-.8 1 .8-.9.8zm.9-1.4-1-.8 1-.8 1 .8zm-1.4-3.5-1-.8 1-.8 1 .8zm-.4.4-1 .8-1-.8 1-.9zm-2.4-.3-1-.8 1-.8 1 .8zm-.4.3-1 .8-1-.8 1-.8zm-1 1.4 1 .8-1 .8-1-.8zm0 2.3 1 .8-1 .8-1-.8zm0 2.3 1 .8-1 .8-1.1-.8zm.1 2.2 1 .8-1 .8-1-.8zm-.4 2-.9.7-1-.8 1-.8zm-1 1.4 1 .8-.9.8-1-.9zm.5-.4.9-.7 1.1.8-1 .8zm2.3.5 1 .7-.9.8-1-.8zm.5-.5.9-.7 1.1.8-1 .8zm1.3-1 1-.8 1 .8-1 .7zm1.4-1.2 1-.8.9.8-.9.7zm1-1.5-1.1-.8 1.1-.9.9.9zm.4-1.9.9-.8 1 .8-.9.9zm.9-1.5-1-.8 1-.8 1 .8zm0-2.2-1-.8.9-.8 1 .8zm.4-1.9 1-.9 1 .9-1 .8zm1.1-1.6-1-.8 1-.8 1 .8zm-1.5-1.1-.9-.9.9-.8 1 .8zm-.4.3-1 .8-1-.8 1-.8zm-2.4-.3-1-.8 1-.8 1 .8zm-.5.3-.9.8-1-.8 1-.8zm-2.3-.3-1-.8 1-.8.9.8zm-.4.3-1 .9-1-.8 1-.8zm-2.4-.2-1-.8 1-.8 1 .8zm0 .6 1 .8-1 .8-1-.8zm1 3.1-1 .8-.9-.8 1-.8zm-1 1.5 1 .8-1 .8-1-.8zm0 2.3 1 .8-1 .8-1-.9zm.1 2.2.9.8-.9.8-1-.8zm-.4 1.9-1 .8-1-.8.9-.7zm-1 1.5 1 .8-.9.8-1-.8zm-.3 1.8-1.1.8-1-.8 1.1-.8zm-1.1 1.6 1 .8-.9.8-1-.8zm.4-.4 1-.8 1 .8-1.1.9zm2.5.3 1 .8-1.1.9-1-.8zm.4-.3 1-.8 1 .8-.9.8zm2.4.4 1 .8-.9.8-1-.8zm.4-.4.9-.8 1 .8-.9.8zm1.4-1.2.9-.7 1 .8-.9.7zm2.3.5 1 .8-1 .8-1-.8zm0-.8-1-.8 1-.8 1 .8zm.4-1.8 1-.8 1 .8-.9.7zm1-1.5-1.1-.8 1.1-.8 1 .8zm.4-1.9 1-.8 1 .8-1 .8zm1-1.5-1-.8 1-.8 1 .8zm0-2.3-1-.8 1-.8 1 .8zm.3-1.9 1-.8 1 .8-1 .8zm1.1-1.5-1-.8 1-.8 1 .8zm-.1-2.3-1-.8.9-.8 1.1.8zm-.1-2.1-1-.8 1-.8 1 .8zm-.4.3-.9.7-1-.8.9-.8zm-2.3-.4-1-.8.9-.8 1 .8zm-.4.3-1 .8-1-.8.9-.8zm-2.4-.4-1-.8 1-.8.9.8zm-.5.4-.9.8-1-.8 1-.8zm-2.3-.3-1-.8 1-.8 1 .8zm-.4.3-1 .8-1-.8 1-.8zm-2.4-.3-1-.8 1.1-.8.9.8zm-.4.3-1.1.8-1-.8 1.1-.8zm-.1 2.3-.9.8-1.1-.9 1-.8zm-.9 1.5.9.8-1 .8-1-.8zm.9 3.1-.9.8-1-.8 1-.8zm-.9 1.5 1 .8-1 .8-1-.8zm0 2.2 1 .8-1 .8-1-.8zm-.4 1.9-.9.8-1.1-.8 1-.7zm-.9 1.5 1 .8-1 .7-1-.8zm-.4 1.8-1 .8-1-.8 1-.8zm-1 1.6 1 .8-.9.8-1-.8zm.1 2.2 1 .8-1.1.9-1-.8zm-.1 2.3 1 .8-1 .7-1-.7zm.4-.3 1.2-.9 1 .8-1.1.9zm1.5-1.3.9-.7 1.1.8-1 .7zm2.4.4 1 .8-.9.8-1-.8zm.4-.3 1.1-.8 1 .7-1.1 1zm2.5.3 1 .7-1.2.9-.9-.8zm.4-.4.9-.7 1 .8-.9.7zm1.3-1.1 1-.8 1 .8-1 .8zm2.4.4.9.7-1 .8-1-.8zm.4-.4.9-.8 1 .8-1 .8zm.9-1.4-1-.8 1-.7 1 .7zm.5-1.9 1-.7 1 .7-1 .8zm.9-1.4-1-.8 1-.8 1 .8zm.5-2 .9-.8 1 .8-1 .8zm.9-1.4-1-.9 1-.8 1 .8zm0-2.4-1-.8.9-.8 1 .8zm.4-1.8 1-.8 1 .8-1 .8zm1-1.6-1-.8 1-.8 1 .8zm-.1-2.3-1-.8 1-.7 1 .8zm0-2.2-1-.8.9-.8 1.1.8zm-.1-2.2-1-.8 1-.8 1 .8zm-1.5-1.1-1-.8.9-.7 1.1.8zm-.3.4-1 .8-1-.8.9-.8zm-2.4-.4-.9-.8.9-.7 1 .7zm-.5.4-.9.7-.9-.8.9-.7zm-2.2-.4-1-.8.9-.6 1 .7zm-.5.3-.9.8-.9-.8.9-.7zm-2.3-.3-.9-.8.9-.7 1 .7zm-.4.3-1 .8-1-.8 1-.8zm-2.3-.3-1-.8 1.1-.7.9.7zm-.5.3-1 .8-1-.8 1.1-.8zm-2.4-.3-1-.9 1.1-.7.9.7zm1 1.4-1.1.8-1-.8 1.1-.8zm-.1 2.3-1 .8-1-.8 1-.8zm.1 2.2-1.1.8-1-.8 1-.8zm-1.1 1.5 1.1.8-1 .8-1-.8zm0 2.3 1 .9-1 .7-1-.8zm.1 2.2 1 .8-.9.9-1-.9zm-.4 2-1 .8-1-.8 1-.8zm-1 1.4 1 .8-.9.8-1-.8zm-.3 2-1 .8-1-.7 1-.9zm-1 1.5 1 .8-.9.7-1-.9zm.1 2.1 1 .8-1.2.9-1-.8zm-.1 2.4 1 .8-1 .8-1-.8zm0 2.3 1 .8-1 .8-1-.8zm1.4 1.1 1 .8-1 .8-1-.8zm.4-.3 1-.8 1 .8-1 .8zm1.4-1.1 1.1-.9 1 .8-1.1.8zm2.6.2 1 .7-1.1.9-1-.8zm.4-.3.9-.8 1 .8-.9.7zm2.2.3 1 .7-1 .8-.9-.8zm.5-.3 1.1-1 1 .8-1.1.9zm1.5-1.3.9-.7 1 .7-.9.8zm2.3.3 1 .8-.9.8-1-.8zm.4-.3 1-.8 1 .8-1 .8zm1.4-1.1.9-.7.9.7-.9.8zm.9-1.4-1-.8 1-.8 1 .8zm.5-1.9.9-.7 1 .7-1 .8zm.9-1.5-1-.7 1-.8 1 .8zm.4-1.9 1-.8 1 .8-1 .8zm1-1.5-1-.8 1-.9 1 .9zm0-2.2-1-.8 1-.8 1 .8zm.4-2 1-.8 1 .8-1 .8zm1-1.4-1-.8 1-.8 1 .8zm0-2.2-1-.8 1-.8 1 .8zm-.1-2.3-1-.8 1-.8 1 .8zm0-2.2-1-.8 1-.8 1 .8zm-.1-2.3-1.1-.8 1-.7 1.1.7zm-.1-2.2-1.1-.7 1-.8 1.1.7zm-.4.3-.9.8-1.1-.8.9-.7zm-2.4-.2-1-.8.9-.7 1 .7zm-.5.2-.9.8-.9-.8.9-.6zm-2.3-.2-.9-.7.9-.6 1 .6zm-.4.3-.9.6-.9-.6.9-.8zm-2.3-.3-.9-.8.9-.6.9.6zm-.4.3-.9.6-.9-.8.9-.6zm-2.2-.3-.9-.8.9-.6.9.6zm-.5.2-1 .8-.9-.8.9-.6zm-2.2-.2-.9-.8 1-.7.9.7zm-.4.2-1.1.8-.9-.8 1-.7zm-2.5-.3-1-.8 1.1-.7 1 .7zm-.5.3-1 .8-1.1-.9 1.2-.7zm-.1 2.2-1 .8-1.1-.8 1.1-.8zm0 2.2-1.1.8-1-.8 1-.8zm0 2.2-1 .8-1-.8 1-.8zm0 2.4-1.1.8-1.1-.8 1.1-.9zm-1 1.5 1 .8-1 .8-1-.8zm0 2.2 1 .8-.9.8-1.1-.8zm-.3 1.9-.9.8-1-.9.9-.7zm-1 1.5 1 .7-.9.8-1-.8zm-.3 1.8-1.1.8-1-.8 1.1-.8zm-1.1 1.6 1 .8-.9.8-1-.8zm.1 2.2 1 .8-1.2.9-1-.8zm-.1 2.4 1 .8-1 .8-1-.8zm.1 2.2 1 .8-1 .7-1-.7zm0 2.3 1.1.8-1.2.9-1-.8zm-.1 2.4 1 .8-.9.7-1-.7zm.4-.4 1.1-.9 1.1.8-1.2.9zm2.6.2 1 .8-1.2.9-.9-.7zm.4-.4.9-.8 1 .8-1 .9zm1.3-1 1-.8 1 .7-1 .8zm2.4.3.9.7-.9.8-1-.8zm.4-.4 1.2-.9.9.8-1.1.9zm2.4.2 1 .8-1.1.9-1-.8zm.5-.3 1-.8 1 .8-1 .8zm1.4-1.1 1.1-.9 1 .8-1.1.9zm2.5.2 1.1.9-1.1.9-1.1-.9zm.3-.3.9-.8 1.2.9-.9.8zm1.4-1.1 1-.8 1.1.9-1 .8zm1.4-1.1.9-.8 1.2.9-.9.8zm.9-1.5-.9-.7.9-.8.9.6zm.4-1.8 1-.8.9.7-.9.7zm0-2.2 1-.8 1 .8-1 .8zm1.5-1.1.9-.8 1 .8-1 .7zm.9-1.5-1-.8 1-.9 1 .8zm0-2.2-1-.9 1-.8 1 .8zm.4-2 1-.8 1 .8-1 .8zm1-1.5-1.1-.8 1-.8 1 .8zm0-2.3-1-.8 1-.8 1 .8zm0-2.3-1-.8 1-.8 1 .8zm-.1-2.2-1-.7 1-.8 1.1.8zm0-2.2-1.1-.8 1-.8 1.1.8zm-.1-2.2-1.1-.8.9-.8 1.2.7zm-.1-2.2-1.1-.7.7-.6 1.1.8zm-1.6-1.1-1-.6.7-.5 1 .6zm-.4.4-.9.7-1-.6.9-.8zm-2.3-.2-.9-.7.8-.6.9.6zm-.5.3-.9.7-.9-.6.9-.7zm-2.2-.3-.9-.8.8-.6.9.6zm-.4.4-.9.7-.9-.7.9-.7zm-2.3-.4-.9-.6.9-.7.9.7zm-.4.4-.9.7-.9-.7.9-.7zm-2.3-.4-.9-.8.9-.6.9.6zm-.4.4-.9.6-1-.7 1-.7zm-2.2-.4-.9-.7.9-.6.8.6zm-.4.3-1 .6-.9-.8 1-.6zm-2.4-.5-.7-.6 1-.6.7.5zm-.4.3-1.1.7-.7-.5 1.2-.8zm-2.2-.1-.7-.5 1-.8.7.5zm.6 1.2-1.1.7-.7-.5 1.1-.7zm0 2.2-1.1.8-1.1-.9 1.2-.8zm-.1 2.2-1.1.8-1.1-.8 1.1-.8zm-.1 2.3-1 .8-1.1-.8 1.1-.8zm0 2.2-1 .8-1-.8 1-.8zm.1 2.3-1 .8-1.1-.9 1-.7zm-1 1.5 1.1.8-1 .8-1-.8zm-.4 1.9-1 .8-1-.8.9-.8zm-.9 1.5 1 .8-.9.8-1-.8zm-.4 1.9-1 .8-1-.8 1-.9zm-1 1.5 1 .8-.8.6-1.1-.8zm.2 2.1 1 .8-1.2 1-1-.8zm-.2 2.5 1 .8-1 .8-1-.8zm0 2.2 1 .8-1 .9-1-.8zm0 2.3 1 .8-1.1.9-1-.9zm0 2.3 1 .8-1 .8-1-.8zm0 2.2 1 .8-1 .9-1-.8zm1.5 1.2.9.8-.9.8-.9-.7zm.4-.4.9-.8.9.8-.9.8zm2.2.4.9.7-.9.7-.9-.6zm.4-.4 1.2-.9 1 .7-1.3.9zm1.7-1.2.9-.8.9.7-.9.8zm2.3.2 1 .8-.9.8-1-.8zm.4-.3 1-.7 1 .8-1 .8zm2.3.3 1.1.9-.9.8-1.1-.9zm.4-.3 1.1-.8 1.1.8-1.1.9zm1.6-1.2.9-.8 1.2.9-1 .8zm2.5.5.9.7-1 .8-1-.8zm.4-.4 1.2-.9 1 .8-1.1.9zm1.5-1.2.9-.8 1 .8-.9.7zm1.4-1.1 1-.8.9.8-.9.8zm1.3-1.1.9-.8 1 .8-.9.7zm1-1.3-1.2-1 1-.8 1.2.9zm.2-2.2.9-.8 1.2 1-.9.8zm.9-1.4-.9-.8 1-.7.9.6zm.6-1.8.9-.8.9.7-.9.8zm-.1-2.3 1-.8 1 .8-1 .8zm1-1.5-.9-.8.9-.9 1 .9zm.4-1.9 1-.8 1 .8-1 .9zm1-1.5-1-.8 1-.8 1 .8zm0-2.2-1-.8 1-.8 1 .8zm0-2.3-1-.8 1-.8 1 .8zm0-2.3-1-.8 1-.8 1 .8zm-.1-2.3-1.1-.8 1.1-.8 1.1.8zm0-2.2-1.1-.8 1.1-.9 1.1.8zm0-2.2-1.1-.7.6-.5 1.1.7zm-.5-1.9-1.2-.8.7-.5 1 .8zm-.5-1.9-.9-.7.5-.4h.6l.6.5zm-.4.3-.7.6-1-.6.7-.6zm-2.5 0-.7.5-.9-.5.7-.6zm-2.1-.4-.8-.5 1.5-.1.1.1zm-.4.4-.9.6-.9-.6.8-.6zm-2.2-.3-.7-.5h1.4zm-.5.3-.8.6-.9-.6.9-.6zm-2.2-.3-.7-.5h.7.7zm-.4.3-.9.6-.9-.6.9-.6zm-2.2-.3-.7-.5h1.4zm-.4.3-.9.6-.9-.6.9-.6zm-2.2-.3-.8-.6.2-.1 1.5.1zm-.5.3-.9.5-.7-.5.9-.6zm-2-.4-.7-.6.3-.2 1.2.1.2.1zm-.5.4-1 .6-.7-.6.9-.6zm-2.1-.3-.8-.6.6-.5h.6l.5.4zm-.4.3-1.1.7-.6-.4.9-.9zm-.7-1.3-.5-.3h.8zm-1.2 2.1.4.3-.4.2zm0 1.2.8-.6.7.5-1.2.8-.3-.3zm0 1.5.3-.2.6.5-1 .6zm0 1.8.9.7-1 .7zm-.1 2.2.9.8-1 .8zm-.1 2.3v-.1l1 .9-1.1.9zm-.1 1.7.1.2-.1.2zm0 .4 1.1.9-.9.7-.4-.3zm-.3 2 1.5 1.3-1 .8-.8-.6zm-.4 1.9.5.5-1 .7-.1-.1zm-54.4 8.8 2.1-2.2.5-.3 3.4 3-3.5 2.7zm6.7 5.4-3.7-1.8 3.4-2.6 6.4 5.8.3-.4-6.4-5.7 6.6-4.9-.3-.4-6.7 5-3.3-2.9c3.5-1.4 9.4-2.2 16.1-2.7l-1.1.5.3.4 2.2-1.1 2.8-.2-5.5 3.1.2.5 6.4-3.7 3.4-.2-10.3 5.4.2.5 11.3-6 1.7-.1h2.2l-15.5 7.7.2.5 16.5-8.3 2.5-.1-19.2 10.1.2.5 20.2-10.6 3.2-.1-23.5 12.1.3.5 24.5-12.6 2.4-.1-26.9 14.2.2.4 27.9-14.6h.1l2.5-.1-30.4 15.8.1.1c-4.3-1.3-8.4-2.6-11.5-3.9zm41.4 9.2 1-.6-.2-.5-1.7.9-2.6-.2 3.9-2.2v-.6l-4.8 2.7-2.4-.3 7.3-3.8-.3-.5-7.9 4.1-1.7-.2 9.7-5.3-.2-.5-10.3 5.6-2.3-.4 12.8-6.6-.3-.5-13.3 6.9-2.3-.4 15.8-8.3-.3-.4-16.4 8.5-1.6-.3 18.3-9.7-.3-.5-18.9 10.1-2-.5 21.2-11.4-.2-.5-21.7 11.8-2.2-.5 24.4-12.9-.3-.5-24.8 13.2-.8-.2-1.1-.3 27.3-14.2-.2-.4-27.8 14.6-2-.5 30.4-15.8-.2-.3 2.1-.1 1.5-.2.7-.2.1.1-.2.2.2.5.4-.3 1.1.8-.9.8-1-.9-.2.6.8.6-.9.7v.3l-.1.5 1 .8-1.2 1 .1.1.2.1.1.1 1 .8-1.4 1 .2.2-.2.2 1.2.9-1.2 1 .2.2-.2.3 1.2.9-1.2.9.2.2-.2.2 1.2.9-1.2.9.2.2-.2.3 1.2.9-1.2.9.2.2-.2.2 1.2.9-.9.7.1.6.1.3.8.6-.6.5.1.6 1-.8 1 .7-.9.7zm7.1.4h-.1l.5-.4.6.4zm.8-.7.9-.7.9.7-.9.7zm1.8.6.5-.3.4.3zm2.3-.1h-.7l-.8-.6.9-.7 1.1.9zm-.2-1.6 1.3-1 1.1.8-1.3 1.1zm3.8 1.1-2 .3-.3-.2 1.3-1.1 1.1.9zm-.6-1.3.9-.8 1.1.9-.9.7zm1.7 1 .6-.5.4.3zm1.7-.5-.6-.4.9-.8.9.8zm1.7-.7-.9-.8 1.1-.9 1 .8zm1.4-.5.1-.1zm.7-.3-.2-.1 1-.8.3.2zm1.6-.9-.4-.3 1.2-.9.5.4zm2.3-1.8-.6.6-.5-.3.9-.8.4.4zm.7-.5-.4-.3 1-.8.3.2zm1.1-1.2-.2-.2.8-.6zm1.6-2.2-.9.6-1-.8 1-.8.9.7zm.3-.7-.8-.6.9-.8.3.3zm.8-1.6-.2-.1.3-.2zm-.6-.4-1.2-.9 1-.9 1.2.9zm1.2-1.3-.9-.9.9-.7.3.3zm.6-1.9h-.1l.2-.2zm.1-.9-.7.6-.9-.6 1-.8.7.5zm.2-1.1-.3-.2.4-.3zm.2-1.2-.9.7-1-.8.9-.7 1 .7zm.1-.7-.6-.5.6-.6zm.1-3.3v1l-.8-.6.8-.6zm0-1.2-.8-.5.8-.7zm0-2.2-.8-.6.8-.7zm0-2.4-.8-.6.8-.6zm0-2.2-.8-.6.8-.7zm0-2.3-.8-.6.8-.6zm0-2.2-.9-.6.6-.5.3.2zm0-2-.3.3-1.1-.8.7-.5.7.5zm0-1.1-.3-.2.3-.3zm0-1.6-.7-.6.7-.5zm0-2c-4.2.6-8.4.9-12.6.9s-8.4-.3-12.6-.9v-3.3l.7.2.8.1h.8l.7.2h.9l.7.1.9.1h.7.9l.7.1.9.1h.7 1.1.5 1.6 1.6.5 1 .7l.9-.1.6-.1h.9.8l.8-.1.8-.1h.9l.7-.2h.9l.8-.1.7-.2zm0-3.7-.7.1-.8.1-.9.1-.7.2h-.9l-.7.1-.9.1-.7.1h-.9-.7l-.9.1h-.7-1.1l-.5.1h-1.6-1.6l-.4-.2h-1-.6l-1-.1h-.7-.9l-.7-.1-.9-.1-.7-.1h-.9l-.7-.2-.9-.1-.7-.1-.8-.1v-.4-2.9c4.2.6 8.4.9 12.6.9s8.4-.3 12.6-.9zm0-3.9c-4.2.6-8.4.9-12.6.9s-8.4-.3-12.6-.9v-1.1-2.2c4.2.6 8.4.9 12.6.9s8.4-.3 12.6-.9zm0-3.8c-4.2.6-8.4.9-12.6.9s-8.4-.3-12.6-.9v-3.3c4.2.7 8.4.9 12.6.9 4.1 0 8.4-.2 12.6-.9zm0-3.8c-4.2.6-8.4.9-12.6.9s-8.4-.3-12.6-.9v-1.7h25.1v1.7zm-12.6-45.8-2.4-1.6-.5.1 2.9 2 2.8-2-.5-.1zm0-4 2.4 1.9.5.2-2.9-2.6-3 2.6.5-.1zm-2.9 9.6 3 2.6 2.9-2.6-2.9-2.5zm5.3 0-2.4 2-2.4-2 2.4-2z" fill="#ef2d28"/><path d="m99.6 127.1h-4.3c-1.4 7.7-1.4 15.3 0 22.9h4.3c-1.4-7.6-1.4-15.2 0-22.9z" fill="#fff"/><path d="m95.2 150.3-.1-.2c-.7-3.9-1.1-7.7-1.1-11.5s.3-7.7 1.1-11.5l.1-.2h4.7l-.1.3c-.7 3.8-1 7.6-1 11.4s.3 7.6 1 11.4l.1.3zm4.1-.5c-.6-3.7-1-7.4-1-11.2 0-3.7.4-7.5 1-11.1h-3.7c-.6 3.7-1 7.4-1 11.1s.4 7.4 1 11.2z" fill="#ef2d28"/><path d="m64.6 128.7-5.2.8c-1.1 4.8-1.1 8.9 0 13.7l5.2 1.5c-1.2-4.8-1.2-11.1 0-16z" fill="#fff"/><path d="m59.2 143.4v-.1l-.9-7 .9-6.8v-.2l5.3-.8.4-.1-.1.4-.9 8 .9 7.9.1.4zm5 1-.8-7.6.8-7.8-4.6.7-.8 6.6.8 6.7z" fill="#ef2d28"/><path d="m155.8 108.9h-6.4c-.8-2-3.9-3.4-7.4-3.4-4.3 0-7.7 2-7.7 4.4v.6h-4.3l-4.2-3.4-4 2.6h-3.4l-.3.8h-10.3v-.2l-4.3-4-3.9 2.4-2.9-1.1-2.9 1.1c-.9-1.8-3.9-3.1-7.4-3.1-3.7 0-6.7 1.4-7.5 3.4h-7.3l-.6 1.3v5l.6 1.4h7.3c.8 2 3.8 3.4 7.5 3.4 3.5 0 6.4-1.3 7.4-3.2l2.9 1 2.9-1.1 4 2.5 4.3-4v-.3h10.1l.3.8h3.4l4 2.8 4.2-3.5h4.3v.5c0 2.5 3.5 4.5 7.7 4.5 3.6 0 6.7-1.5 7.4-3.4h6.4l.6-1.4v-5z" fill="#fff"/><path d="m156.5 109.2-.7-.5h-6.3c-1-2-4-3.4-7.6-3.4-4.3 0-7.9 1.9-8 4.6v.3h-3.8l-4.4-3.4-4.2 2.7h-3.2l-.5.5v.3h-9.8l-4.5-4.1-4 2.2-2.8-.9-2.9.9-7.4-3c-3.6 0-6.7 1.4-7.6 3.4h-7.1l-.6.5-.3 1.1v5l.3 1.1.6.5h7.1c.9 2 4 3.5 7.6 3.5l7.4-3.1 2.9.9 2.8-.9 4 2.3 4.5-4.2h9.8v.3l.5.5h3.2l4.2 2.7 4.4-3.5h3.8v.2c0 2.8 3.6 4.8 8 4.8 3.6 0 6.7-1.4 7.6-3.5h6.3l.7-.5.2-1.1v-5zm-22 .7 2.2-2.9 5.3-1.2 5.3 1.2 1.7 1.6h-3l-4-1.7-4.9 3.2h-2.6zm10.8 6.4.2.3-.5.5-3.1.9-3.1-.9-1.2-2 .3-.8v-2.9l-.3-.8 1.2-2 3.1-1 3.1 1 .5.4-.2.3-.2 1.1v5zm-21.2-6.4-.1-.2 1.7-.9 2 1.5-.6 1.1v2.9l.6.9-2 1.5-1.7-.9.1-.2.1-.9v-3.9zm3.8 4.9-.1-.2-.1-.3v-2.9l.1-.5.1-.1h9.2l.2.1.1.5v2.9l-.1.3-.1.2zm-2.2-7.5 3.9 2.9h-1.4l-2.5-1.9-2.1 1.2h-1.5zm-26.8 5v.8l-2.3 2.9-.9-.2.2-.3.1-.9v-3.9l-.1-.9-.2-.3.9-.2zm-3.5-2.4.2.9v3.9l-.1.7v.1h-5.2l-.2-.8v-3.9l.1-.6v-.2h5.2zm-12.4-.7-.2-.3.5-.4 3.1-1 3.1 1 .9 1h-.3l-.4.5-.2.9v3.9l.2.9.4.5h.3l-.9 1.1-3.1.9-3.1-.9-.5-.5.2-.3.2-1.1v-5zm-1.9-2.2 5.3-1.2 5.3 1.2 2 2.4h-2.7l-4.6-2.5-4 1.7h-3zm-9.7 9-.2-.8v-5l.2-.8.2-.3h10.7l.2.3.1.8v5l-.1.8-.2.3h-10.7zm20.3 2.5-5.3 1.2-5.3-1.2-1.7-1.7h3l4 1.7 4.6-2.5h2.8zm2.4-1.8.2-.7h.8l1.5.6 2.8-3.5v-.8l-2.8-3.4-1.5.6h-.8l-.2-.7 2.6-.9 4 3.8v2.3l-4 3.7zm13.4-1.5-4 3.8-3.6-2.1.9-1.3 2.7 2.4 2.9-3.5v-3.5l-2.9-3.5-2.7 2.4-.9-1.3 3.6-2 4 3.7zm-1.7-4.2v3.5l-2.3 2.9-2.3-2.9v-3.5l2.3-2.9zm2.2 3.8v-4.1h9.7v.1 3.9.1zm10.3-.1v-3.9l.1-.6v-.2h5.2l.1.9v3.9l-.1.7v.1h-5.2zm7.4 3.5-3.6-2.2h1.5l2.1 1.2 2.5-1.9h1.4zm21.5.3-5.3 1.2-5.3-1.2-2.2-3v-.2h2.6l4.9 3.2 4-1.7h3zm9-3.3-.2.8-.2.3h-.1-9.9-.1l-.3-1.1v-5l.2-.8.1-.3h.1 9.9.1l.3 1.1v5z" fill="#ef2d28"/></svg>