<svg enable-background="new 0 0 1451.1 848.6" viewBox="0 0 1451.1 848.6" xmlns="http://www.w3.org/2000/svg" xmlns:xlink="http://www.w3.org/1999/xlink"><clipPath id="a"><path d="m0 0h1451.1v848.6h-1451.1z"/></clipPath><clipPath id="b"><path d="m0 0h1451.1v848.6h-1451.1z"/></clipPath><path clip-path="url(#a)" d="m0 0h1451.1v848.6h-1451.1z" fill="#0b0045"/><g clip-path="url(#a)"><path clip-path="url(#b)" d="m1221.5 286.5v102.9c0 84.3-34.1 161.9-132.2 213.2-98.3-51.3-131.3-128.8-131.3-213.2v-102.9z" fill="#fff"/><g clip-path="url(#b)"><path d="m1089.3 602.6c-87.2-44.3-133.2-114.1-133.2-213.2v-102.9h265.3v102.9c.1 99.1-44.9 168.9-132.1 213.2zm131.4-316.1h-262.7v102.9c0 99.1 44.2 168.8 131.4 213.2 87.2-44.3 131.3-114.1 131.3-213.2z" fill="#070606"/></g><path clip-path="url(#b)" d="m1211.3 297.4v95.6c0 80.7-30.2 150.5-122 198.6-91.9-48.1-123.1-117.9-123.1-198.6v-95.6z" fill="#f1c00f"/><g clip-path="url(#b)"><path d="m1089.3 591.7c-81.8-44.3-124-106.8-124-198.6v-95.6h246l1 95.6c0 91.8-42.3 154.3-123 198.6zm122-294.3h-245.1v95.6c0 91.8 41.3 154.3 123.1 198.6 80.7-44.3 122-106.8 122-198.6z" fill="#070606"/></g><path clip-path="url(#b)" d="m1032.2 341.7c-1.8 0-3.6-3.7-7.1-3.7 0-7.4-4.7-11-7.5-11-3.6-3.8-3.6-3.8-5.4-7.3 0 0-1.8-3.8-4.7-3.8-4.7 0-5.4-3.6-7.4-3.6-1.8-3.5-1.8-3.5-2.7 0 0 3.6-3.5 7.4-.9 7.4-2.7 0-3.8 3.6-2.7 7.3-1.1 0-2 3.5 0 3.5h3.5c-2.9 0-3.5 3.8.9 7.4-.9 3.7-.9 3.7.9 3.7-1.8 0-4.7 3.6-7.3 3.6-4.7 0-5.6 0-5.6 3.8 0 0-1.8 3.6-2.7 3.6 2.7 3.8 3.6 0 5.6 0 .9-3.6 2.7-3.6 4.7-3.6.7 3.6 3.5 7.4 5.4 7.4-2.7 0-5.4 3.6-5.4 7.1 0 0-2 3.8-4.7 3.8-2 0-4.7 3.6-5.6 7.4 2.7 7.1 6.5 7.1 10.3 11.1 7.2 3.5 10.9 3.5 14.7 7.2 2.5 3.8 3.6 0 8.1 7.3 3.8 3.6 8.4 14.7 13.8 18.3 3.6 0 10.2 0 11.8-7 4.8-3.9 5.8-62.5-10-69.9z" fill="#f68b27"/><g clip-path="url(#b)"><path d="m1034 418.7c-1.8 0-3.6 0-3.6 0-4.7-3.5-6.5-7-9.1-11-2-3.7-3.8-7.3-4.7-7.3-2.8-3.6-3.6-3.6-5.6-3.6l-2.5-3.8c-3.8-3.6-7.5-3.6-14.7-7.2-3.8-4-7.6-4-11.1-11.1 1.7-3.8 4.5-7.4 6.4-7.4 2.7 0 3.5-3.8 4.7-3.8 0-3.6.7-7.1 3.5-7.1-1.8 0-3.5 3.6-3.5 7.1 0 0-2 3.8-4.7 3.8-2 0-4.7 3.6-5.6 7.4 2.7 7.1 6.5 7.1 10.3 11.1 7.2 3.5 10.9 3.5 14.7 7.2l2.5 3.8c2 0 2.8 0 5.6 3.6 2 0 2.7 3.6 4.7 7.3 2.7 4 4.5 7.4 9.1 11 4.6 0 10.2 0 11.8-7 2.9-4 4.7-33.1-.7-51.7-2.8-10.9-5.5-14.7-9.3-18.3-1.8 0-5.4-3.7-7.1-3.7 0-7.4-3.7-11-7.5-11-3.6-3.8-4.5-3.8-5.4-7.3 0 0-1.8-3.8-4.7-3.8-3.5 0-5.4 0-7.4-3.6-1.8-3.5-2.7 0-2.7 0s0 0 0 3.6c-.9 0-1.8 0-1.8 0h.9c.9-3.6.9-3.6.9-3.6l.9-3.5c4.5 3.5 6.5 7.2 9.2 7.2 2.9 0 4.7 3.8 4.7 3.8 1.7 3.6 1.7 3.6 5.4 7.3 2.9 0 7.5 3.5 7.5 11 1.8 0 5.4 3.7 7.1 3.7 4.7 3.6 7.4 7.4 10.1 18.3 4.7 18.5 4 47.7 0 51.7-1.6 3.4-4.3 6.9-8.3 6.9zm-36.6-62.2c-.9 0-2.9-3.8-2.9-3.8-2.6-3.6-4.5-3.6-5.3 0-2 0-2.9 3.8-3.5 3.8h-1.2c1.8-3.8 2.7-3.8 3.6-3.8 2-3.6 3.8-3.6 5.8-3.6.6 3.6 3.5 7.4 3.5 7.4zm-13.8-3.8c.9 0 2.7-3.6 2.7-3.6 0-3.8.9-3.8 5.6-3.8h3.7c1.8 0 1.8 0 2.7-3.6h-.9l.9-3.7c-1.8 0-3.8-3.6-2.7-7.4h1.8c-.9 0-1.8 0-3.5 0h-2c0-3.5.9-3.5 2-3.5 0-3.8 0-3.8 0-7.3 0 3.6 0 3.6.7 7.3-1.8 0-1.8 0-1.8 3.5h4.7c-1.8 0-1.8 0-1.8 3.8 0 0 .9 3.6 2.7 3.6 0 3.7-.9 3.7-.9 3.7s.9 0 1.8 0c-1.8 3.6-1.8 3.6-3.6 3.6-1.1 0-2.9 0-2.9 0-4.6 0-6.4 0-6.4 3.8-.1 0-1.9 3.6-2.8 3.6z" fill="#070606"/></g><path clip-path="url(#b)" d="m1038.7 315.9c-2.7 3.8-8.3 7.3-8.3 14.7 0 11.1 2.8 25.9-5.4 29.5-7.5 3.6-11.2 18.5-2.8 21.9 10 7.5 10 14.9 11.8 22.1 2 7.7 4.7 11.1 11.1 7.7 5.6 0 8.3 0 8.3-4 0-7.3 0-7.3 4.7-10.9 4.5 0 5.5-3.8 8.2-7.4 1.8-3.5 3.5-3.5 1.8-7.5-1.8-3.4-1.8-7.1 0-10.9 0-3.6-1.8-3.6-3.6-7.4 0 0-.9-3.6-.9-7.1 0 0 0-7.4-2.6-7.4-2.9 0-2.9-3.8-2.9-3.8 0-3.6-1.1-3.6-2.9-7.3-2.7-3.6-4.5-7.4-4.5-7.4 0-3.7-6.6-11-12-14.8z" fill="#f7756b"/><g clip-path="url(#b)"><path d="m1040.7 411.7c-3.8 0-5.6 0-7.4-7.7v-3.6c-1.1-7.3-2.8-11-11.1-18.5-2.9-3.4-4.7-3.4-4.7-10.9 0-3.6 1.8-7.4 7.5-10.9 7.1-3.6 5.4-14.7 5.4-29.5 0-7.3 3.6-10.9 7.5-14.7h.7c6.4 0 12.8 11.1 12.8 14.7 0 0 .9 3.8 3.6 7.4 1.8 3.7 3.8 3.7 2.9 7.3 0 0 0 3.8 3.5 3.8 2 3.6 2.9 7.4 2.9 7.4-.9 3.6-.9 7.1-.9 7.1 2.7 3.8 4.5 3.8 4.5 7.4-1.8 3.8 0 7.6 0 10.9 1.7 4 0 4-1.8 7.5-2.7 3.6-3.8 7.4-8.2 7.4-3.8 3.6-4.7 3.6-4.7 10.9l-1.8 4c-.9 0-3.5 0-6.4 0-1.6 0-2.7 0-4.3 0zm-2-95.8h-.7c-4 3.8-7.5 7.3-7.5 14.7 1.8 14.7 1.8 25.9-5.4 29.5-4.7 3.6-7.5 7.4-7.5 10.9 0 3.8 1.1 7.6 5.5 10.9 7.4 7.5 9.2 11.1 10.2 18.5l.7 3.6c2 7.7 6.7 11.1 11.1 7.7h6.4l.9-4c0-7.3.9-7.3 5.6-10.9 4.5 0 5.5-3.8 8.2-7.4 1.8-3.5 3.5-3.5 1.8-7.5-1.8-3.4-1.8-7.1 0-10.9 0-3.6-1.8-3.6-1.8-3.6-2.7-3.8-2.7-7.4-2.7-10.9 0 0 0-3.8-2.6-7.4-2.9 0-2.9-3.8-2.9-3.8 0-3.6-1.1-3.6-2.9-7.3-2.7-3.6-4.5-7.4-4.5-7.4.1-3.6-6.5-10.9-11.9-14.7z" fill="#070606"/></g><path clip-path="url(#b)" d="m1040.7 411.7c10 0 8.1-14.9 7.3-22.3-1.1-7.5-5.8-18.5-1.8-25.8 3.6-7.1-5.6-18.3-2.9-25.6 2.9-7.4 1.8-7.4 1.8-7.4 0-3.5-2.9-3.5-2.9 0 0 0-.7 0-1.6 3.8-2.7 3.6-2 10.9 0 10.9.9 3.8 2.7 14.7-1.1 22.1-3.6 7.4-2.7 11.1-.9 14.5 3 7.5 8.4 29.8 2.1 29.8z" fill="#e485c0"/><g clip-path="url(#b)"><path d="m1039.6 411.7h1.1c6.3 0 0-22.3-2-29.8-1.8-3.4-3.6-7.1.9-14.5 3.7-7.4 1.9-14.7 1.1-18.3-2.7-7.4-2.7-11.1-1.1-14.7 1.9-3.8 2.7-3.8 2.7-3.8 0-3.5 0-3.5 0-3.5 1.8 0 2.9 0 2.9 3.5 0 0 1.1 0-1.8 7.4-1.1 3.7 0 7.3.7 7.3 2.9 3.8 3.9 14.7 2.2 18.3-2.9 7.4 0 14.9.7 22.3l1.1 3.5c1.8 3.6 2.7 22.3-7.3 22.3zm3.8-84.7s-1.1 0-1.1 3.5c0 0 0 0-1.6 3.8-2 3.6-2 7.3 0 10.9 1.6 7.4 2.7 14.7-1.1 22.1-3.6 7.4-2.7 11.1-.9 14.5 2.8 7.5 8.2 25.8 3.5 29.8 8.4 0 6.5-18.6 5.8-22.3-1.1 0-1.1-3.5-1.1-3.5-1.8-7.3-3.6-14.9-.7-22.3 1.8-3.6 0-14.5-2.2-18.3-1.8 0-1.8-3.6-1.8-7.3 4-7.4 2.9-7.4 2.9-7.4.1-3.5-1-3.5-1.7-3.5zm-48.9 54.9h-.7c1.7 0 2.7 0 3.5-3.4h.9 4.5c2-3.8 2.9-3.8 4.7-3.8 1.8-7.4 2.9-7.4 6.4-7.4-3.5 0-4.6 0-5.4 3.6-2.1 3.8-3.8 7.6-4.6 7.6h-4.7c-1.8 0-1.8 0-1.8 0-.7 3.4-1.7 3.4-2.8 3.4zm4.7-25.4c.9-3.8 2.9-7.4 3.5-7.4 2 0 4.7 0 5.8-3.8-1 3.8-3.8 3.8-5.8 3.8-.6 0-2.6 3.6-3.5 7.4zm5.6-11.2h-2c-.7 0-2.7 0-2.7 0l-.9-3.6h3.5c2 3.6 3.6 3.6 4.7 0 .1 3.6-1 3.6-2.6 3.6zm12.7 0c1.1-3.6 1.8-7.3 7.5-7.3-5.6 0-6.4 3.7-7.5 7.3zm-2.7-3.6s0 0-.9-3.7c0-3.6 0-3.6 0-7.4 0 0 0 0-1.7 0-1.8 0-1.8-3.5-1.8-3.5s0-3.8-1.8-3.8v-3.6c-1 0-1 0-3.8 0h3.8s0 0 0 3.6c1.8 0 1.8 3.8 1.8 3.8s0 0 1.8 3.5h2.7c-.9 3.8-.9 3.8 0 7.4-.1 0 .8 3.7-.1 3.7z" fill="#070606"/></g><path clip-path="url(#b)" d="m1111.4 444.6c1.8 3.7 0 7.4 2.7 7.4 2.8 0 0 3.7 3.5 3.7 3.8 3.6 0 10.8 4.7 10.8 2.9 0-.9 3.8 2.9 7.3 5.4 3.8 0 7.6 3.6 11.1 2.7 3.6-1.8 3.6 1.8 7.3 4.7 3.8-.9 7.4 1.8 7.4 4.6 3.6-.9 7.5 4.6 10.9 2.9 0-3.5 3.8 0 7.6 3.6 3.6 0 7.4 1.8 10.9 1.8 3.7-1.8 14.5-10 14.5-2.8 3.8-13.8 7.8-16.5 3.8-3.8 4-16.5 10.9-22.9 4-7.5 6.9-19.5 0-24.8-4-2.9 4-13.8 0-17.6-3.8-6.3 0-10-10.8-8.2-14.5 2-3.6-1.8-7.4 2-10.9 2.7-3.8-2.7-7.6.9-7.6 3.6-3.4-.9-7.3 1.8-10.9 3.6 0-1.1-3.6 2.9-7.4 3.6-3.7-1.1-3.7 1.8-7.3 3.5-3.5-1.1-7.3 2.7-11.1 4.5-3.5.9-7.3 4.5-7.3 2.9 0 0-7.2 2.9-10.8 4.5 0 1.7-3.7 4.5-3.7 3.8 0 1.1-3.6 3.8-7.4 8 3.7 33.6 7.3 44.8 0z" fill="#419726"/><g clip-path="url(#b)"><path d="m1098.5 554.7c-4.5 0-6.5-3.3-9.2-3.3-5.6 6.9-19.5 3.3-24.8-4-2 4-9.3 0-14.7-3.8 5.4 3.8 12.7 7.8 14.7 3.8 5.3 4 19.2 10.9 24.8 4 4.6 6.9 18.3 0 22.9-4 4.7 4 13.7 0 16.5-3.8 4.7 0 6.5-3.6 8.3-3.6 1.8-3.6 2.9-7.2 1.8-10.9-1.8-3.6-1.8-3.6 0-7.4 0 0 0 0-1.8-3.6-1.8 0 0-3.8 0-3.8 0-3.8 0-3.8 0-3.8-3.5 0-3.5-3.4-2.8-3.4 0-3.9 0-3.9-1.8-7.5-1.8 0-.9 0-.9-3.6.9 0 .9-3.8-.9-3.8s-1.8-3.7-1.8-3.7 1.8-3.6-1.1-3.6c-1.7 0-.7-3.5-.7-7.3 0 0 .7 0-1.8-3.8-2 0-2-3.5-2-3.5s0-3.8-1.8-3.8-1.8 0-1.8-3.6 0-3.6-2-3.6c-1.7-3.6-1.7-3.6-1.7-3.6-.9-3.7-.9-3.7-.9-3.7-2.7 0-2.7-3.6-2.7-3.6s0-3.7-.9-3.7c-5.6 3.7-12.9 3.7-19.4 3.7-10.2 0-22.1 0-25.6-3.7-1.8 0-1.8 3.7-1.8 3.7l-.9 3.6c-2 0-2 0-2 3.7 0 0-.7 0-3.5 3.6 0 0-1.1 0-1.1 3.6s0 3.6-1.8 3.6c-2.7 0-2.7 3.8-2.7 3.8s0 3.5-1.8 3.5c-2.7 3.8-1.9 3.8-1.9 3.8 1.1 3.8 1.1 7.3-.7 7.3-1.1 0-1.1 3.6-1.1 3.6l-.7 3.7c-2.2 0-2.2 3.8-2.2 3.8 1 3.6 2.2 3.6-.7 3.6-1.1 3.6-1.1 3.6-1.1 7.5 0 0 0 3.4-.7 3.4-1.9 0-.9 0-.9 3.8 0 0 1.6 3.8 0 3.8-2 3.6-2 3.6-2 3.6.9 3.8 2 3.8 0 7.4-.7 3.7 0 7.3 2 10.9 1.6 0 2.7 3.6 6.3 3.6-4.7 0-5.4-3.6-5.4-3.6-2.8-3.6-3.5-7.2-2.8-10.9.9-3.6 0-3.6 0-7.4 0 0 0 0 2-3.6v-3.8c0-3.8-1.1-3.8.9-3.8.7 0 .7-3.4.7-3.4 0-3.9 0-3.9 1.1-7.5 1.8 0 1.8 0 1.8-3.6 0 0-1.8-3.8 1.1-3.8l.7-3.7s0-3.6 1.1-3.6c1.8 0 .7-3.5.7-7.3 0 0-.7 0 1.9-3.8 1.8 0 1.8-3.5 1.8-3.5s0-3.8 2.7-3.8c1.8 0 1.8 0 1.8-3.6s0-3.6 1.1-7.2h2.9c.7-3.7.7-3.7.7-3.7 2 0 2-3.6 2-3.6s.9-3.7 2.7-3.7c3.5 0 15.5 3.7 25.6 3.7 6.5 0 13.8 0 19.4-3.7.9 0 .9 3.7.9 3.7s0 3.6 1.8 3.6c0 0 1.8 0 1.8 3.7h2.8c.9 3.6.9 3.6.9 7.2 0 0 0 3.6 2.7 3.6 1.8 0 1.8 3.8 1.8 3.8s0 3.5 1 3.5c3.6 3.8 2.5 3.8 2.5 3.8-.7 3.8-.7 7.3 1.1 7.3s1.8 3.6.9 3.6c0 0 0 3.7.9 3.7 2.9 0 1.8 3.8 1.8 3.8-.9 3.6-.9 3.6 0 3.6 2.8 3.6 1.8 3.6 1.8 7.5 0 0 0 3.4 2.8 3.4v3.8s-1.8 3.8 0 3.8c1.8 3.6 1.8 3.6 1.8 3.6 0 3.8-1.8 3.8 0 7.4 1.1 3.7 0 7.3-1.8 10.9-1.8 0-3.5 3.6-6.4 3.6-4.6 3.8-15.6 7.8-18.3 3.8-3.9 3.9-8.4 7.3-13.9 7.3z" fill="#070606"/></g><path clip-path="url(#b)" d="m1069.9 459.3s0 3.6-1.7 7.2c-1.8 0 1.7 3.8-1.8 7.3-2.7 3.8 0 3.8-2.7 11.1-2.6 0 0 3.6-2 7.3-3.5 3.8 0 3.8-3.5 7.4-2.9 3.6.9 7.5-1.8 10.9-3.8 0 .7 3.8-3.8 7.6-2.7 3.6 1.8 7.4-.9 10.9-3.5 3.7-.9 3.7-2.8 7.3 3.7-3.6 3.7-7.3 6.4-7.3 2.9-3.6-.9-7.4 0-7.4 1.8 0 0-7.4 2.9-11.1 2.9 0 0-7.3 2.9-10.9 1.6 0 .7-3.6 2.6-7.4 2.7-3.7 0-3.7 2.7-7.3 1.8-3.5 0-7.3 1.8-11.1 1.7-3.5 1.7-7.3 1.7-7.3s0-10.9 0-7.2z" fill="#f1c00f"/><g clip-path="url(#b)"><path d="m1048.8 536.4h-.7c1.8 0 1.8-3.6 1.8-3.6s0 0 1.7-3.7l.9-3.6c-.9-3.8-.9-3.8 0-7.4 2.7 0 2.7-3.8 2.7-3.8 0-3.8 0-3.8 0-3.8 2.9-3.4 2.9-3.4 2.9-7.3v-3.6c1.7 0 1.7-3.6 1.7-3.6s0-3.8 1.8-3.8c.9-3.7.9-3.7.9-3.7 0-3.6 0-3.6 1.1-7.2l.9-3.8s0-3.8 1.8-3.8c1.8-3.5 1.8-3.5 1.8-3.5-1.8-3.8-1.8-3.8 0-3.8 1.7-3.6 1.7-7.2 1.7-7.2v-3.6 10.8s0 0 0 3.8v3.5c-1.7 0-1.7 3.8-1.7 3.8 0 3.8 0 3.8-1.8 7.3v3.6s0 3.7-2.7 3.7c-1.1 0-1.1 3.8-1.1 7.4 0 0-.9 0-1.6 0-1.2 3.6-1.2 3.6-1.2 7.5 0 3.4 0 3.4-1.7 3.4-1.1 3.8-1.1 3.8-1.1 7.6-.7 0-.7 3.6-.7 3.6h-1.1c1.1 3.8 1.8 3.8 0 7.4-1.8 0-2.7 3.7-2.7 3.7s-1.7 3.7-3.6 3.7zm21.1-77.1s0 3.6-1.7 7.2c-1.8 0 0 0 0 3.8 0 0 0 0-1.8 3.5-1.8 0-1.8 3.8-1.8 3.8 1.8 0 1.8 3.8-.9 7.3-1.1 0-1.1 0-1.1 3.6 0 0 0 0-.9 3.7-1.8 0-1.8 3.8-1.8 3.8s0 3.6-1.7 3.6v3.6c0 3.9 0 3.9-1.8 7.3 0 0-1.1 0-1.1 3.8 0 0 0 3.8-2.7 3.8-.9 3.6 0 3.6 0 7.4l-.9 3.6c-1.7 3.7-1.7 3.7-1.7 3.7v3.6c.9-3.6 1.7-3.6 1.7-3.6s.9-3.7 3.6-3.7c1.1-3.6 0-3.6 0-7.4l1.1-3.6c0-3.8.7-3.8 1.8-7.6 0 0 .9 0 .9-3.4.9-3.9.9-3.9 2-7.5h.7c.9-3.6.9-7.4 2-7.4l.9-3.7s0-3.6 1.8-3.6c1.8-3.5 1.8-3.5 1.8-7.3v-3.8c1.7-3.5 1.7-3.5 1.7-3.5 0-3.8 0-3.8 0-3.8v-7.2z" fill="#070606"/></g><path clip-path="url(#b)" d="m1077.3 466.4c-1.8 0 1.7 3.8-.9 3.8-1.8 7.3 1.8 7.3-.9 14.7-2.9 3.6.9 3.6-.9 7.3-4.7 3.8.9 3.8-2 7.4-2.8 3.6 2 3.6-.9 10.9-3.5 0 .9 3.8-1.8 7.6-1.7 3.6 0 3.6 0 7.4-1.7 3.6 0 7.3-1.7 10.9-3.6 3.6 0 3.6-1.8 7.2 3.5 0 3.5-7.2 3.5-7.2 1.8 0 0-7.3 1.8-7.3 2.9-3.6-1.8-7.4.9-10.9 2.9-3.8 0-7.6 2.9-7.6.9-3.4-.9-7.3 0-10.9 1.8 0-.9-3.6 0-7.4 3.5-3.7 0-3.7 1.8-7.3 3.7-3.5 0-7.3 1.7-11.1 0-.1 2-7.5-1.7-7.5z" fill="#f1c00f"/><g clip-path="url(#b)"><path d="m1066.3 543.6c1.8 0 0 0 0-3.6 0 0 0-3.6 1.8-3.6 1.7-3.6 1.7-3.6 0-7.3 0 0 0-3.6 1.7-3.6v-3.8-3.6c0-3.8 0-3.8 0-7.6h1.8c.9-3.4.9-7.3.9-7.3-.9 0-.9-3.6 0-3.6 2 0 .9-3.6.9-3.6s-.9-3.8 1.1-3.8c.9-3.7.9-3.7.9-3.7s-2-3.6 0-7.2c.9 0 0-3.8 0-3.8s0-3.8.9-7.3c0 0 .9 0 .9-3.8 0 0-.9 0 0-3.6 1.7 3.6 1.7 3.6 1.7 3.6 2 3.8 0 7.3 0 7.3-.9 3.8-.9 3.8-.9 3.8s.9 3.8-.8 7.3v3.6s0 0-1.8 3.7v3.8c.9 3.6.9 3.6 0 3.6v3.6 7.3h-.9c0 3.8 0 7.6-2 7.6-.9 0-.9 3.6 0 3.6 0 3.8 0 3.8-.9 7.4-1.8 0-1.8 3.7-1.8 3.7v3.6 3.6c.1.1.1 3.7-3.5 3.7zm11-77.2c0 3.8.8 3.8-.9 3.8-.9 3.5-.9 3.5-.9 7.3.9 0 .9 3.8 0 7.3 0 0-.9 0 0 3.6 0 0 0 0-.9 3.7-2 0-1.1 3.8-1.1 3.8 1.1 0 1.1 3.6-.9 3.6-.9 0 0 3.6 0 3.6s.9 3.9-.9 7.3c-1.8 0-1.8 0-1.8 0 0 3.8 1.8 3.8 0 7.6v3.6 3.8c-1.7 0-1.7 3.6 0 3.6 0 3.7 0 3.7-1.7 7.3-1.8 0-1.8 3.6-1.8 3.6 1.8 0 1.8 3.6 0 3.6 1.8 0 3.5-3.6 3.5-3.6 0-3.6 0-3.6 0-3.6v-3.6s0-3.7 1.8-3.7c.9-3.6.9-3.6 0-7.4 0 0-1.8-3.6.9-3.6 2-3.8 2-3.8 2-7.6h.9c0-3.4 0-3.4 0-7.3v-3.6c.9 0 0 0 0-3.6v-3.8c1.8-3.7 1.8-3.7 1.8-3.7v-3.6c1.7-3.5 1.7-7.3 1.7-7.3s-1.7 0-.9-3.8c0 0 2.9-3.5.9-7.3 0 0 0 0-1.7 0z" fill="#070606"/></g><path clip-path="url(#b)" d="m1089.3 466.4c-1.8 3.8 1.7 7.3 0 11.1-.9 3.8 1.7 7.3 0 10.9-1.8 3.7 2.6 7.5 0 11.1-1.8 7.5 1.7 10.9 0 14.7-1.8 3.8 2.6 7.4 0 14.7-1.8 3.7 3.5 3.7 0 10.9-1.8 0 0 7.4 2.6 0 2-7.2-2-7.2.9-10.9 1.1-3.6-.9-10.9 0-14.7 0-3.8-2.9-7.1 0-14.7 0 0-3.5-7.4-1.8-11.1 1.8 0-1-7.2.9-10.9 2 0-.9-7.3-.9-7.3 1.9 0 .1-7.3-1.7-3.8z" fill="#f1c00f"/><g clip-path="url(#b)"><path d="m1090 543.6h-.7c-.9 0-.9-3.6 0-3.6 1.7-3.6.7-7.2.7-7.2-1.6 0-2.5-3.7-.7-3.7.7-3.6.7-7.4.7-7.4-1.6-3.6-2.5-3.6-.7-7.4 0-3.8 0-3.8-.9-7.1 0 0-.9-3.9.9-7.5v-3.7c-.9-3.8-.9-3.8 0-7.5v-3.6c0-3.5-.9-7.3 0-7.3v-3.8c-.9-3.5-1.8-3.5 0-7.3h.7c2 0 2 3.8 2 3.8s0 0 0 3.5c.9 0 .9 3.8.9 3.8-.9 3.8-.9 3.8-.9 7.3 0 3.6.9 3.6 0 3.6-2 3.7-.9 3.7 0 7.5.9 3.6.9 3.6.9 3.6-.9 3.6-.9 7.5 0 10.9v3.8c-.9 3.8 0 3.8 0 7.4v7.4c-.9 3.7-.9 3.7 0 3.7 0 0 0 3.6-.9 7.2 0 3.6-.9 3.6-2 3.6zm0-77.2h-.7c-.9 3.8-.9 3.8 0 7.3v3.8 7.3 3.6c-.9 3.7 0 3.7 0 7.5 0 0 1.7 3.6 0 3.6-1.8 3.6-.9 7.5 0 7.5 0 3.4.7 3.4 0 7.1-.9 3.8 0 3.8 0 7.4 0 0 1.7 3.8 0 7.4-1.8 0-.9 3.7 0 3.7 0 0 1.7 3.6 0 7.2v3.6h.7s1 0 2-3.6c.9-3.6.9-7.2 0-7.2 0 0-.9 0 0-3.7.9-3.6.9-7.4.9-7.4-.9-3.6-.9-3.6 0-7.4 0 0 0-3.8-.9-3.8 0-3.4-.9-7.3 0-10.9.9 0 .9 0 0-3.6-.9-3.8-2-3.8-.9-7.5 0 0 .9 0 .9-3.6 0-3.5-.9-3.5 0-7.3.9 0 .9-3.8 0-3.8 0-3.5-.9-3.5-.9-3.5v-3.8h-1.1z" fill="#070606"/></g><path clip-path="url(#b)" d="m1109.4 448.3c0-29.6-3.6-40.6-20-40.6-17.6 0-21.2 11-21.2 40.6z" fill="#e60018"/><g clip-path="url(#b)"><path d="m1089.3 551.3c.7-4 0-7.8 0-7.8-.9 0-1.8-3.6 0-3.6.7-3.6 0-7.2 0-7.2-.9 0-1.8-3.7 0-3.7.7-3.6.7-7.4.7-7.4-1.6-3.6-2.5-3.6-.7-7.4 0-3.8 0-3.8-.9-7.1 0 0-.9-3.9.9-7.5v-3.6c-.9-3.8-.9-3.8 0-7.5v-3.6c0-3.5-.9-7.3 0-7.3v-3.8c-.9-3.5-1.8-3.5 0-7.3v-7.2c-.9-3.6-.9-7.3 0-7.3-.9 0 0 3.7 0 3.7.7 3.6.7 10.8.7 10.8-1.6 3.8-1.6 3.8-.7 7.3v3.8 7.3 3.6c-.9 3.7 0 3.7 0 7.5 0 0 1.7 3.6 0 3.6-1.8 3.6-.9 7.5 0 7.5 0 3.4.7 3.4 0 7.1-.9 3.8 0 3.8 0 7.4 0 0 1.7 3.8 0 7.4-1.8 0-.9 3.7 0 3.7 0 0 1.7 3.6 0 7.2-.9 0-.9 3.6 0 3.6 0 .1.7 3.9 0 7.8zm23-3.9-1.8-3.8c-2 0-1.1 0-1.1-3.6 1.1 0 1.1-3.6-.9-3.6-.9-3.6 0-3.6 0-7.3v-3.6c-.9 0-.9-3.8-.9-3.8s.9-3.6-.9-3.6c-.9-3.8-.9-3.8 0-7.6 0 0 .9 0-.9 0-1.8-3.4-1.8-7.3-1-7.3 0 0 1-3.6-.8-3.6v-3.6s.8-3.8-1.1-3.8c-.7-3.7 0-3.7 0-3.7 0-3.6 1.1-3.6-.7-3.6-2-3.5-1-7.3-1-7.3 1-3.8 1-3.8 0-7.3-1.8 0-1.8 0-.9-3.8h-.9c-.8-7.2-.8-7.2 0-7.2 0-3.6.9-3.6-.8-3.6v-3.7-3.6h-19.6v3.6s.9 3.7 0 3.7c-1.7 0-1.7 0-.9 3.6 0 0 .9 0-.8 7.2 0 3.8.8 3.8-.9 3.8-.9 3.5-.9 3.5-.9 7.3.9 0 .9 3.8 0 7.3 0 0-.9 0 0 3.6 0 0 0 0-.9 3.7-2 0-1.1 3.8-1.1 3.8 1.1 0 1.1 3.6-.9 3.6-.9 0 0 3.6 0 3.6s.9 3.9-.9 7.3c-1.8 0-1.8 0-1.8 0 0 3.8 1.8 3.8 0 7.6v3.6 3.8c-1.7 0-1.7 3.6 0 3.6 0 3.7 0 3.7-1.7 7.3-1.8 0-1.8 3.6-1.8 3.6 1.8 3.6 1.8 3.6 0 3.6l-1.8 3.8s0-3.8 1.8-3.8 0 0 0-3.6c0 0 0-3.6 1.8-3.6 1.7-3.6 1.7-3.6 0-7.3 0 0 0-3.6 1.7-3.6v-3.8-3.6c0-3.8 0-3.8 0-7.6h1.8c.9-3.4.9-7.3.9-7.3-.9 0-.9-3.6 0-3.6 2 0 .9-3.6.9-3.6s-.9-3.8 1.1-3.8c.9-3.7.9-3.7.9-3.7s-2-3.6 0-7.2c.9 0 0-3.8 0-3.8s0-3.8.9-7.3c0 0 .9 0 .9-3.8 0 0-.9 0 0-3.6 1.7-3.6.8-3.6 0-3.6 0-3.6 0-3.6 1.7-3.6v-3.7-3.6h-6.4v3.6s0 0-2.8 3.7v3.6s0 3.6-1.7 7.2c-1.8 0 0 0 0 3.8 0 0 0 0-1.8 3.5-1.8 0-1.8 3.8-1.8 3.8 1.8 0 1.8 3.8-.9 7.3-1.1 0-1.1 0-1.1 3.6 0 0 0 0-.9 3.7-1.8 0-1.8 3.8-1.8 3.8s0 3.6-1.7 3.6v3.6c0 3.9 0 3.9-1.8 7.3 0 0-1.1 0-1.1 3.8 0 0 0 3.8-2.7 3.8-.9 3.6 0 3.6 0 7.4l-.9 3.6c-1.7 3.7-1.7 3.7-1.7 3.7s0 3.6-1.1 3.6c-1.8 3.6-1.8 3.6-1.8 7.2 0-3.6 0-3.6 1.1-7.2 1.8 0 1.8-3.6 1.8-3.6s0 0 1.7-3.7l.9-3.6c-.9-3.8-.9-3.8 0-7.4 2.7 0 2.7-3.8 2.7-3.8 0-3.8 0-3.8 0-3.8 2.9-3.4 2.9-3.4 2.9-7.3v-3.6c1.7 0 1.7-3.6 1.7-3.6s0-3.8 1.8-3.8c.9-3.7.9-3.7.9-3.7 0-3.6 0-3.6 1.1-7.2l.9-3.8s0-3.8 1.8-3.8c1.8-3.5 1.8-3.5 1.8-3.5-1.8-3.8-1.8-3.8 0-3.8 1.7-3.6 1.7-7.2 1.7-7.2 0-3.6 0-3.6 0-3.6 2.8-3.7 2.8-3.7 2.8-3.7-.9-3.6-.9-3.6-.9-3.6h-3.5c-1.8-33.1 4.5-40.6 21.2-40.6 15.4 0 20 7.4 20 40.6h-3.6s0 0-1 3.6c0 0 0 0 2 3.7 1.8 0 1.8 0 1.8 3.6v7.2c2 0 .9 0 .9 3.8 0 0-.9 0 1.1 3.5 1.8 0 1.8 3.8 1.8 3.8s0 3.8 1.8 3.8v7.2s0 0 1.8 3.7l1 3.8s0 3.6.7 3.6c2 0 2 3.6 2 3.6 0 3.9 0 3.9.9 7.3 1.8 0 1.8 0 1.8 3.8 0 0-.9 3.8.9 3.8 2 3.6 2 3.6 2 7.4 0 0-1 3.6 0 3.6 1.8 3.7 1.8 3.7 1.8 3.7l.7 3.6c2.9 3.6 2.9 3.6 2 7.2.9-3.6 0-3.6-2-7.2-1.7 0-1.7-3.6-1.7-3.6s1 0-.8-3.7c-1 0-1-3.6 0-3.6 0-3.8 0-3.8-2-7.4-1.8 0-1.8-3.8-1.8-3.8 0-3.8 0-3.8-.9-3.8-.9-3.4-.9-3.4-.9-7.3 0 0 0-3.6-2-3.6-.7 0-.7-3.6-.7-3.6s0-3.8-2-3.8c-.9-3.7-.9-3.7-.9-3.7 0-3.6 0-3.6-.9-3.6-1.8-3.5-1.8-7.3-1.8-7.3.9 0 .9-3.8-.9-3.8-2-3.5-2-3.5-2-3.5.9-3.8.9-3.8.9-3.8-.9-3.6-.9-7.2-.9-7.2 0-3.6 0-3.6-2.7-3.6-1.8-3.7-1-3.7-1-3.7 0-3.6 0-3.6 0-3.6h-6.3v3.6 3.7c1.7 0 1.7 0 .8 3.6 0 0-.8 0 .9 3.6.9 3.6 0 3.6 0 3.6 0 3.8-.9 3.8.9 3.8 1 3.5 1 7.3 1 7.3s-1 3.8.7 3.8c1.1 3.5 1.1 7.2 1.1 7.2s-1.8 0 0 3.7c.8 0 0 3.8 0 3.8s0 3.6.8 3.6v3.6s-.8 3.9 1 7.3h1.8c-1.8 3.8-1.8 3.8 0 7.6.9 0 .9 3.6 0 3.6 0 0 0 3.8.9 3.8v3.6 7.3c2 0 2 3.6 2 3.6-1.1 3.6-1.1 3.6 0 3.6 1.8 0 2.7 3.8 2.7 3.8zm-23-139.7c-16.7 0-21.2 7.4-21.2 40.6h3.5c.9 0 .9-3.7.9-3.7h2c-2 0-2 3.7-2 3.7h6.4s0 0 0-3.7l.9 3.7c-.9 0-.9 0-.9 0h19.5v-3.7 3.7h6.3l-.8-3.7c.8 0 .8 3.7.8 3.7h4.6c.1-33.1-4.5-40.6-20-40.6z" fill="#070606"/></g><path clip-path="url(#b)" d="m1068.2 448.3c0-29.6 3.5-40.6 21.2-40.6-8.3 0-12.9 4-13.8 7.4-.9 3.5-.9 3.5-.9 3.5 3.6-3.5 2.7 0 .9 4 0 0-2.9 7.3 0 3.4.9 0 3.5 0 0 3.9-.9 3.6-2.9 11-.9 7.2 1.8 0 1.8 3.8.9 3.8-.9 3.6-.9 3.6-.9 3.6 1.8 0 1.8 0 .9 3.7h-7.4z" fill="#070606"/><g clip-path="url(#b)"><path d="m1075.5 448.3h-7.3c-1.8-33.1 4.5-40.6 21.2-40.6-8.3 0-12.9 4-13.8 7.4v3.5h.9c-.9 0-.9 0-.9 0s-.9 0 0-3.5c0-3.5 5.5-7.4 12.9-7.4-15.8 0-20.2 7.4-20.2 40.6h7.2v-3.7c.9 0 0 3.7 0 3.7zm-.9-11.1c-2 0 0-3.6.9-7.2.9 0 1.8-3.9 1.8-3.9v3.9c-1.8 3.6-3.8 7.2-3.8 7.2h2z" fill="#070606"/></g><path clip-path="url(#b)" d="m1106.7 444.6c0-21.9-2.7-29.4-9.1-32.9-3.6 0-3.6 0-1.8 0 1.8 3.5 1.8 7 0 3.5-1.8 0-1.8-3.5-2.9 0 0 0 1.1 7.5 3.8 10.9 0 0 .9 3.9-2 0-1.8-3.4-1.8 0-.8 3.9 3.6 3.6 3.6 14.6 3.6 18.3z" fill="#070606"/><g clip-path="url(#b)"><path d="m1096.7 448.3c0-3.7 0-14.7-2.7-18.3-1.1-3.9-1.1-3.9-1.1-3.9s1.1 0 1.8 0h2l-2-3.4c-1.8-4-1.8-7.5-1.8-7.5h1.1s0 3.5 1.8 7.5l.9 3.4h.9c-1.8 3.9-1.8 0-3.6 0h-1.1s1.1 0 1.1 3.9c3.6 3.6 3.6 14.6 3.6 18.3l9.1-3.7c0-21.9-3.8-29.4-9.1-32.9-1.8 0-1.8 0-1.8 0-1.8 0 0 0 0 0 .9 3.5 1.8 3.5 1.8 7-.9-3.5-1.8-3.5-1.8-3.5.9 0 .9 0 0-3.5-1.8 0-1.8 0-1.8 0h3.6c6.4 3.5 10 11 10 32.9z" fill="#070606"/></g><path clip-path="url(#b)" d="m1089.3 451.9h18.3c5.5-3.6 6.5-7.4 3.7-7.4-2-3.6-3.7 0-7.4 0-2.8 0-11.1 0-14.7 0s-13.8 0-15.8 0c-3.6 0-7.2-3.6-7.2 0-2.7 0-2.7 3.7 3.5 7.4z" fill="#e60018"/><g clip-path="url(#b)"><path d="m1089.3 451.9c-7.5 0-13.8 0-19.5 0-3.5-3.6-5.3-3.6-6.2-7.4h.9c1.8-3.6 5.3 0 9 0h15.8 14.7c3.6 0 6.5-3.6 7.4 0h1.8c-.9 3.7-2.7 3.7-5.5 7.4-4.8 0-11.9 0-18.4 0zm-21.1-7.3c-1.8 0-1.8 0-1.8 0-1.8 0-2.7 0-2.7 0 .9 3.7 2.7 3.7 6.2 7.4 9.2 3.7 28.6 3.7 37.7 0 2.8-3.6 4.7-3.6 4.7-7.4 0 0 0 0-.9 0-2-3.6-3.7 0-7.4 0-2.8 0-11.1 0-14.7 0s-13.8 0-15.8 0c-3.6 0-3.6 0-5.3 0z" fill="#070606"/></g><path clip-path="url(#b)" clip-rule="evenodd" d="m1152.8 411.7s4.5 7 7.1 11c2.8 7.3 5.4 10.9 8.3 7.3 1.8-3.9 0-7.3-1.8-7.3-2-4-12-11-12-11z" fill="#a63609" fill-rule="evenodd"/><g clip-path="url(#b)"><path d="m1165.3 430s-3.5 0-5.4-7.3l-7.1-11h1.6s10.1 7 12 11c1.8 0 2.9 3.4 2.9 3.4v3.9c-2 0-2.9 0-4 0zm-10.9-18.3h-1.6l7.1 11c2.8 3.4 4.5 7.3 4.5 7.3h.9 2c.9 0 2 0 2-3.9 0 0-2-3.4-4-3.4-.9-4-10.9-11-10.9-11z" fill="#070606"/></g><path clip-path="url(#b)" clip-rule="evenodd" d="m1151.7 411.7s1.8 11 2.6 14.3c.9 7.6 3.8 7.6 5.6 7.6 2.8 0 2.8-3.6 1.8-7.6-1.8-3.4-8.3-14.3-8.3-14.3z" fill="#a63609" fill-rule="evenodd"/><g clip-path="url(#b)"><path d="m1159.1 433.6c-1.8 0-3.8 0-4.7-7.6l-2.6-14.3h1.8s6.4 11 8.3 14.3c.9 3.9.9 7.6 0 7.6 0 0-.9 0-1.8 0zm-5.6-21.9h-.7l1.6 14.3c.9 7.6 2.9 7.6 4.7 7.6h.9 1.8c.9 0 .9-3.6 0-7.6-1.8-3.3-8.3-14.3-8.3-14.3z" fill="#070606"/></g><path clip-path="url(#b)" clip-rule="evenodd" d="m1149 411.7v14.3c0 7.6 2.8 11.1 4.5 11.1 3.7 0 3.7-3.6 3.7-7.2-1.1-3.9-4.5-18.3-4.5-18.3h-3.7z" fill="#a63609" fill-rule="evenodd"/><g clip-path="url(#b)"><path d="m1153.5 437.2c-2.9 0-4.5-3.6-4.5-11.1v-14.3h3.8s3.4 14.3 4.5 18.3c0 0 0 3.6-2 7.2h-1.8zm-.7-25.5h-3.8l.9 14.3c0 7.6.7 11.1 3.6 11.1s1.8 0 1.8-3.6c2 0 2-3.6.9-3.6 0-3.8-3.4-18.2-3.4-18.2z" fill="#070606"/></g><path clip-path="url(#b)" clip-rule="evenodd" d="m1149 411.7h10.1s.9-7.7 0-11.3h-10.1z" fill="#a63609" fill-rule="evenodd"/><g clip-path="url(#b)"><path d="m1149 411.7v-11.3h10.1c.9 3.6 0 11.3 0 11.3s-.9 0-10.1 0zm0-11.3.9 11.3h8.3c.9-4 1.8-7.7 1.8-7.7-.9-3.6-6.5-3.6-11-3.6z" fill="#070606"/></g><path clip-path="url(#b)" clip-rule="evenodd" d="m1149 407.7c9.2 0 10.1-3.7 10.1-3.7s3.6-7.2 1.8-7.2c-1.8-3.8-11.9-3.8-11.9-3.8z" fill="#a63609" fill-rule="evenodd"/><g clip-path="url(#b)"><path d="m1149 407.7v-14.7c.9 0 10.1 0 11.9 3.8 1.8 0-.9 7.2-.9 7.2s-1.8 3.7-11 3.7zm0-10.9.9 10.9c8.3 0 9.2-3.7 9.2-3.7.9-3.6 2.7-7.2 2.7-7.2-1.8 0-9 0-12.8 0z" fill="#070606"/></g><path clip-path="url(#b)" clip-rule="evenodd" d="m1149 400.4c8.3 0 11.9-3.6 11.9-3.6s2.6-3.8 1.8-7.4c-1.8 0-13.7 0-13.7 0z" fill="#a63609" fill-rule="evenodd"/><g clip-path="url(#b)"><path d="m1149 400.4v-11h13.7c1.7 3.6-1.8 7.4-1.8 7.4s-3.6 3.6-11.9 3.6zm0-11 .9 11c6.3 0 11-3.6 11-3.6s2.6-3.8 1.8-7.4c-1.8 0-9.2 0-13.7 0z" fill="#070606"/></g><path clip-path="url(#b)" clip-rule="evenodd" d="m1154.4 345.3s7.4-10.9 20.3-14.7c11.8-10.9 21.1-14.7 22.9-14.7 0 3.8-11.1 11.1-21.2 14.7-8.3 11.1-18.3 18.5-18.3 18.5z" fill="#a63609" fill-rule="evenodd"/><g clip-path="url(#b)"><path d="m1158.2 349.1-3.8-3.8s7.4-10.9 20.3-14.7l3.5-3.5c9.2-7.3 15.6-11.1 18.5-11.1-2.9 0-9.3 3.8-18.5 11.1l-3.5 3.5c-12.9 7.4-20.3 14.7-20.3 14.7l3.8 3.8c.9-3.8 11.1-7.4 18.3-18.5 11.9-7.3 17.4-10.9 19.3-10.9-2 0-8.4 3.6-19.3 10.9-7.2 11.1-18.3 18.5-18.3 18.5z" fill="#070606"/></g><path clip-path="url(#b)" clip-rule="evenodd" d="m1155.3 352.7s7.4-7.4 21.2-11c11.9-7.3 31.2-7.3 31.2-7.3-1.8 7.3-17.4 7.3-29.5 10.9-9 3.8-19.2 11.1-19.2 11.1z" fill="#a63609" fill-rule="evenodd"/><g clip-path="url(#b)"><path d="m1159.1 356.5-3.8-3.8c0-3.6 7.4-7.4 21.2-11 9.3-7.3 20.2-7.3 23-7.3h9.3c-1.1 3.6-3.8 7.3-8.5 7.3-5.6 0-14.5 0-22.1 3.6-8.9 3.8-19.1 11.2-19.1 11.2zm40.4-22.1c-2.7 0-13.7 0-23 7.3-13.8 3.6-21.2 11-21.2 11l3.8 3.8s10.9-7.4 19.2-11.1c7.5-3.6 16.5-3.6 22.1-3.6 4.7-3.7 6.4-3.7 7.4-7.3-.1-.1-2.8-.1-8.3-.1z" fill="#070606"/></g><path clip-path="url(#b)" clip-rule="evenodd" d="m1155.3 363.6s6.5-3.6 21.2-7.1c13.8-7.4 33 0 33 0-1.8 0-17.4 0-28.4 3.6-11.1 0-22.1 7.4-22.1 7.4z" fill="#a63609" fill-rule="evenodd"/><g clip-path="url(#b)"><path d="m1159.1 367.4-3.8-3.8s6.5-3.6 21.2-7.1c5.3-3.8 11.9-3.8 17.4-3.8 7.4 0 15.7 3.8 15.7 3.8-.7 0-4.5 0-10.1 0s-12.1 0-17.6 3.6c-11.9-.1-22.8 7.3-22.8 7.3zm34.8-14.7c-5.5 0-12 3.8-17.4 3.8-14.7 3.6-21.2 7.1-21.2 7.1l3.8 3.8c.9-3.8 10.9-7.4 22.1-10.9h18.3 10.1c-.1 0-6.6-3.8-15.7-3.8z" fill="#070606"/></g><path clip-path="url(#b)" clip-rule="evenodd" d="m1156.2 374.8s6.5-7.4 22.1-7.4c15.6-3.8 27.6 7.4 27.6 7.4-.9 3.8-15.6-7.4-27.6-7.4-10 3.6-19.2 11.1-19.2 11.1z" fill="#a63609" fill-rule="evenodd"/><g clip-path="url(#b)"><path d="m1159.1 378.6-3.8-3.8c.9-3.8 8.2-7.4 23-7.4 15.6-3.8 27.6 3.6 27.6 7.4-.9 0-2.9 0-6.4 0-5.6-3.8-13.7-7.4-21.2-7.4-10 3.6-18.3 11.1-18.3 11.1h-.9zm22.7-11.2c-.7 0-3.6 0-3.6 0-14.7 0-22.1 7.4-22.1 7.4h2.9s10.2-3.8 19.2-7.4c7.5 0 15.6 3.6 21.2 3.6 3.5 3.8 5.6 3.8 6.4 3.8.1 0-10-7.4-24-7.4z" fill="#070606"/></g><path clip-path="url(#b)" clip-rule="evenodd" d="m1149 393.1c13.7 0 13.7-3.6 13.7-3.6s1.7-3.5.8-7.5h-14.5z" fill="#a63609" fill-rule="evenodd"/><g clip-path="url(#b)"><path d="m1149 393.1v-11.1h8.3 6.2c1.8 4-.8 7.5-.8 7.5s0 3.6-13.7 3.6zm8.3-11.2c-3.7 0-8.3 0-8.3 0l.9 11.1c11.9 0 12.8-3.6 12.8-3.6s1.7-7.5.8-7.5c0 0-1.7 0-6.2 0z" fill="#070606"/></g><path clip-path="url(#b)" clip-rule="evenodd" d="m1149 389.4c13.7 0 14.5-3.5 14.5-3.5s2.9-7.3.9-7.3c-.9 0-15.5 0-15.5 0v10.8z" fill="#a63609" fill-rule="evenodd"/><g clip-path="url(#b)"><path d="m1149 389.4v-10.9c.9-3.8 14.5 0 15.5 0 2 0 0 7.3-.9 7.3-.1.1-.9 3.6-14.6 3.6zm0-10.8.9 10.9c11.9 0 13.6-3.5 13.6-3.5.9-4 1.8-7.3 1.8-7.3-1.8-.1-11.8-.1-16.3-.1z" fill="#070606"/></g><path clip-path="url(#b)" clip-rule="evenodd" d="m1149 378.6h15.5s3.8-7.6 2-7.6c-2-3.6-17.4-3.6-17.4-3.6v11.2z" fill="#a63609" fill-rule="evenodd"/><g clip-path="url(#b)"><path d="m1149 378.6v-11.1c2.8 0 15.5 0 17.4 3.6 1.8 0-1.1 7.6-1.1 7.6s-2.6-.1-16.3-.1zm0-11.2.9 11.1h14.5c.9-3.8 2.9-7.6 2.9-7.6-2.9-3.5-13.8-3.5-18.3-3.5z" fill="#070606"/></g><path clip-path="url(#b)" clip-rule="evenodd" d="m1149 374.8c13.7-3.8 17.4-3.8 17.4-3.8s1.8-7.4 0-7.4c-2-3.6-17.4-3.6-17.4-3.6z" fill="#a63609" fill-rule="evenodd"/><g clip-path="url(#b)"><path d="m1149 374.8v-14.8c2.8 0 15.5 0 17.4 3.6 1.8 0 0 7.4 0 7.4s-3.7 3.8-17.4 3.8zm0-14.8.9 10.9h16.5c-1.1 0 .9-7.4.9-7.4-2.9.1-13.8-3.5-18.3-3.5z" fill="#070606"/></g><path clip-path="url(#b)" clip-rule="evenodd" d="m1152.8 341.7s10.7-11.1 10.7-18.5c0-3.6-4.4-11-6.2-14.5 2.7 0 9.1 10.9 9.1 14.5 0 7.3-10.2 18.5-10.2 18.5z" fill="#a63609" fill-rule="evenodd"/><g clip-path="url(#b)"><path d="m1156.2 345.3-3.4-3.6s10.7-11.1 10.7-18.5c0-3.6-2.6-7.3-4.4-11-.9 0-.9-3.5-.9-3.5 1.8 0 8.2 10.9 8.2 14.5 0 7.4-10.2 18.5-10.2 22.1zm1.1-36.6 1.8 3.5c1.8 3.6 4.4 7.4 4.4 11 0 7.3-10 18.5-10.7 18.5h3.4c1.1 0 9.1-11.1 9.1-18.5 0-3.5-5.3-14.5-8-14.5z" fill="#070606"/></g><path clip-path="url(#b)" clip-rule="evenodd" d="m1152.8 341.7s-2.2-11.1-2.2-18.5c0-7.3 6.6-14.5 8.4-18.5.9 3.9-5.6 11.1-5.6 18.5 0 7.3 2.7 18.5 2.7 18.5z" fill="#a63609" fill-rule="evenodd"/><g clip-path="url(#b)"><path d="m1156.2 345.3-3.4-3.6s-2.2-11.1-2.2-18.5c0-7.3 2.9-11 8.4-18.5 0 0 0 3.9-.9 3.9-2 7.2-4.7 10.9-4.7 14.5 0 7.3 2.7 18.5 2.7 18.5v3.7zm2.9-40.5c-5.6 7.5-7.3 11.1-7.3 18.5 0 7.3 1.1 18.5 1.1 18.5h2.5s-1.8-11.1-1.8-18.5c0-3.6 2.7-11 4.7-14.5.8-.1.8-4 .8-4z" fill="#070606"/></g><path clip-path="url(#b)" clip-rule="evenodd" d="m1149 367.4c13.7 0 17.4-3.8 17.4-3.8s0-7.1-2-7.1c-.9 0-15.5 0-15.5 0v10.9z" fill="#a63609" fill-rule="evenodd"/><g clip-path="url(#b)"><path d="m1149 367.4v-10.9h15.5c2 0 2 7.1 2 7.1s-3.8 3.8-17.5 3.8zm0-10.9.9 10.9c11.9-3.8 15.4-3.8 16.5-3.8-1.1 0-1.1-7.1-1.1-7.1-1.8 0-11.8 0-16.3 0z" fill="#070606"/></g><path clip-path="url(#b)" clip-rule="evenodd" d="m1149 360c13.7-3.6 15.5-3.6 15.5-3.6s0-7.4-.9-11.1h-14.6z" fill="#a63609" fill-rule="evenodd"/><g clip-path="url(#b)"><path d="m1149 360v-14.7h13.7c1.7 3.8 1.7 11.1 1.7 11.1s-1.7 3.6-15.4 3.6zm0-14.7.9 11.1h14.5s0-7.4-.9-11.1c0 0-10 0-14.5 0z" fill="#070606"/></g><path clip-path="url(#b)" clip-rule="evenodd" d="m1187.4 444.6c-5.6-7.4-6.3-25.9-6.3-29.4 0-7.4 2.7-47.8 2.7-66.1 0-18.5-9.2-25.8-20.4-25.8-8.2 0-14.5 3.8-14.5 18.5h4.5c0-11.1 4.7-14.7 10-14.7 8.3 0 14.7 7.4 16.8 22.1.9 18.3-2 58.6-2 69.6.1 11.2 3.6 22.2 9.2 25.8z" fill="#a63609" fill-rule="evenodd"/><g clip-path="url(#b)"><path d="m1186.5 444.6c-5.4-7.4-8.3-18.5-8.3-25.9-1.8-7 0-14.7 0-25.6 0-14.5 0-33 0-44 0-14.7-6.4-22.1-14.7-22.1-4.4 0-9.1 3.5-9.1 14.7h-5.4c0-14.7 6.3-22 14.5-22 4.7 0 9.4 3.6 13 7.3 5.3 3.5 8.2 14.7 8.2 22.1 0 10.9-1.8 29.5-1.8 40.4-1.1 11-1.1 22.3-1.1 25.7 0 3.5 1.1 22 5.6 29.4zm-23-117.6c9.4 0 14.7 7.4 17.6 22.1 0 10.9-.9 29.5-2.9 44v25.6c0 7.3 2.9 14.9 6.5 22.3-2.9-11-3.6-25.8-3.6-25.8 0-3.5 0-14.7.7-25.7 0-10.9 1.1-29.4 2-40.4 0-7.4-2.7-18.5-7.4-22.1-4.7-3.8-8.3-3.8-13-3.8-8.2 0-13.6 7.3-13.6 18.5l3.6-3.7c.1-7.4 4.8-11 10.1-11z" fill="#f1c00f"/></g><path clip-path="url(#b)" clip-rule="evenodd" d="m1147 411.7s-4.6 7-7.1 11c-2.9 7.3-6.4 10.9-9.3 7.3-1.8-3.9 0-7.3 1.8-7.3 1.8-4 12.8-11 12.8-11z" fill="#a63609" fill-rule="evenodd"/><g clip-path="url(#b)"><path d="m1132.4 430h-1.8s0 0 0-3.9c0 0 0-3.4 1.8-3.4 1.8-4 12.8-11 12.8-11h1.8l-7.1 11c-2.9 7.3-4.7 7.3-7.5 7.3zm12.8-18.3s-11 7-12.8 11c-.9 0-1.8 3.4-1.8 3.4v3.9c2.9 0 6.4 0 9.3-7.3l7.1-11z" fill="#070606"/></g><path clip-path="url(#b)" clip-rule="evenodd" d="m1149 338c10.1 0 14.5 7.3 14.5 7.3l-2.6 3.8c-1.8 3.6-11.9 3.6-11 0z" fill="#a63609" fill-rule="evenodd"/><g clip-path="url(#b)"><path d="m1149.9 352.7h-.9v-14.7c9.2 0 13.7 7.3 13.7 7.3l-1.8 3.8c-1.8 3.6-10.2 3.6-10.2 3.6zm-.9-14.7.9 11.1h11l2.6-3.8c-1.7 0-5.3-7.3-14.5-7.3z" fill="#070606"/></g><path clip-path="url(#b)" clip-rule="evenodd" d="m1148.1 411.7s-1.7 11-2.9 14.3c-1.7 7.6-2.8 7.6-6.4 7.6-1.8 0-1.8-3.6-1.8-7.6 1.8-3.4 8.2-14.3 8.2-14.3z" fill="#a63609" fill-rule="evenodd"/><g clip-path="url(#b)"><path d="m1140.6 433.6h-1.8-1.8s0-3.6 0-7.6c1.8-3.4 8.2-14.3 8.2-14.3h2.9l-2.9 14.3c-1.7 7.6-2.8 7.6-4.6 7.6zm4.6-21.9s-6.4 11-8.2 14.3v7.6h1.8 1.8c1.8 0 2.9 0 4.6-7.6l2.9-14.3z" fill="#070606"/></g><path clip-path="url(#b)" clip-rule="evenodd" d="m1149 411.7v14.3c0 7.6-.9 11.1-3.8 11.1-2.8 0-2.8-3.6-2.8-7.2 0-3.9 4.6-18.3 4.6-18.3h2z" fill="#a63609" fill-rule="evenodd"/><g clip-path="url(#b)"><path d="m1145.2 437.2h-1.7c-1.1-3.6-1.1-7.2-1.1-7.2 0-3.9 4.6-18.3 4.6-18.3h2l.9 14.3c0 7.6-1.8 11.2-4.7 11.2zm1.8-25.5s-3.5 14.3-4.6 18.3l1.1 3.6c.9 3.6 1.7 3.6 1.7 3.6 2.9 0 3.8-3.6 3.8-11.1v-14.3h-2z" fill="#070606"/></g><path clip-path="url(#b)" clip-rule="evenodd" d="m1149 411.7c-6.6 0-7.3 0-7.3 0s-1.8-7.7-1.1-11.3h8.4z" fill="#a63609" fill-rule="evenodd"/><g clip-path="url(#b)"><path d="m1149.9 411.7h-.9c-6.6 0-8.4 0-8.4 0s-1.8-7.7 0-11.3h8.4zm-.9-11.3c-2 0-8.4 0-8.4 3.6-.7 0 0 3.7 1.1 7.7h7.3z" fill="#070606"/></g><path clip-path="url(#b)" clip-rule="evenodd" d="m1149 407.7c-7.3 0-8.4-3.7-8.4-3.7s-3.6-7.2-1.8-7.2c1.8-3.8 10.2-3.8 10.2-3.8z" fill="#a63609" fill-rule="evenodd"/><g clip-path="url(#b)"><path d="m1149.9 407.7h-.9c-7.3 0-9.1-3.7-9.1-3.7s-2.9-7.2-1.1-7.2c1.8-3.8 10.2-3.8 10.2-3.8zm-.9-14.6c-2 3.8-9.1 3.8-9.1 3.8-2.9 0 0 3.6.7 7.2 0 0 1.1 3.7 8.4 3.7z" fill="#070606"/></g><path clip-path="url(#b)" clip-rule="evenodd" d="m1149 400.4c-6.6 0-10.2-3.6-10.2-3.6s-3.6-3.8-1.8-7.4h12z" fill="#a63609" fill-rule="evenodd"/><g clip-path="url(#b)"><path d="m1149.9 400.4h-.9c-6.6 0-10.2-3.6-10.2-3.6s-3.6-3.8-1.8-7.4h11.1zm-11.1-3.6s3.6 3.6 10.2 3.6v-11c-2.6 0-10.2 0-12 0 0 3.7 0 7.4 1.8 7.4z" fill="#070606"/></g><path clip-path="url(#b)" clip-rule="evenodd" d="m1145.2 345.3s-8.2-10.9-20-14.7c-11.1-10.9-20.4-14.7-22.3-14.7 0 3.8 11.2 11.1 19.4 14.7 8.3 11.1 19.4 18.5 19.4 18.5z" fill="#a63609" fill-rule="evenodd"/><g clip-path="url(#b)"><path d="m1141.7 349.1s-11.1-7.4-19.4-18.5c-13.8-7.3-19.4-10.9-19.4-14.7h1.1c-1.1 3.8.8 3.8 18.3 14.7 8.3 7.4 18.3 14.7 19.4 18.5l3.5-3.8s-8.2-10.9-20-14.7l-4.7-3.5c-6.4-7.3-12.9-7.3-15.7-11.1 3.7 3.8 9.3 3.8 15.7 11.1l4.7 3.5c11.8 3.8 20 14.7 20 14.7z" fill="#070606"/></g><path clip-path="url(#b)" clip-rule="evenodd" d="m1143.5 352.7s-6.5-7.4-19.4-11c-13.7-7.3-31.2-7.3-31.2-7.3 1.1 7.3 16.5 7.3 26.7 10.9 11 3.8 21 11.1 21 11.1z" fill="#a63609" fill-rule="evenodd"/><g clip-path="url(#b)"><path d="m1140.6 356.5s-10-7.4-21-11.1c-5.5-3.6-13.8-3.6-20.2-3.6-3.6 0-6.5-3.7-6.5-3.7 0-3.6 6.5-3.6 6.5-3.6 4.7 0 14.7 0 24.8 7.3 12.9 3.6 19.4 7.4 20.3 11zm-40.4-22.1c-5.5 0-7.3 0-7.3 0 1.1 3.6 3.8 3.6 6.5 7.3 6.5 0 14.7 0 20.2 3.6 10.1 3.8 20.3 11.1 21 11.1l2.9-3.8s-6.5-7.4-19.4-11c-10-7.2-20.1-7.2-23.9-7.2z" fill="#070606"/></g><path clip-path="url(#b)" clip-rule="evenodd" d="m1143.5 363.6s-6.5-3.6-19.4-7.1c-14.7-7.4-32.2 0-32.2 0 .9 0 16.5 0 26.7 3.6 11 0 21.9 7.4 21.9 7.4z" fill="#a63609" fill-rule="evenodd"/><g clip-path="url(#b)"><path d="m1140.6 367.4s-11.9-7.4-21.9-7.4c-5.6-3.6-12.9-3.6-18.5-3.6-4.5 0-7.3 0-8.3 0 0 0 6.5-3.8 15.7-3.8 3.7 0 10 0 16.5 3.8 12.9 3.6 19.4 7.1 19.4 7.1zm-33-14.7c-9.1 0-15.7 3.8-15.7 3.8h8.3 18.5c10 3.6 21.2 7.1 21.9 10.9l2.9-3.8s-6.5-3.6-19.4-7.1c-6.5 0-12.7-3.8-16.5-3.8z" fill="#070606"/></g><path clip-path="url(#b)" clip-rule="evenodd" d="m1143.5 374.8s-6.5-7.4-23-7.4c-13.8-3.8-26.5 7.4-26.5 7.4 1.8 3.8 15.4-7.4 25.6-7.4 11 3.6 21 11.1 21 11.1z" fill="#a63609" fill-rule="evenodd"/><g clip-path="url(#b)"><path d="m1140.6 378.6c-.7 0-10-7.6-21-11.1-5.5 0-12.9 3.6-18.4 7.4-2.7 0-5.4 0-5.4 0h-1c2 0 3.8 0 6.4-3.8 5.6 0 12.9-3.6 18.4-3.6 11 3.6 19.2 7.4 21 7.4l2.9-3.8s-6.5-3.6-23-3.6c-11.1-3.8-20.3 0-23.8 3.6 3.5-3.6 12.7-7.4 23.8-3.6 16.5 0 23 3.6 23 3.6z" fill="#070606"/></g><path clip-path="url(#b)" clip-rule="evenodd" d="m1149 393.1c-12 0-12-3.6-12-3.6s-3.5-3.5-1.8-7.5h13.8z" fill="#a63609" fill-rule="evenodd"/><g clip-path="url(#b)"><path d="m1149.9 393.1h-.9c-12 0-12-3.6-12-3.6s-3.5-3.5-1.8-7.5h7.2 6.6zm-7.5-11.2c-5.4 0-5.4 0-7.2 0l1.8 7.5s0 3.6 12 3.6v-11.1s-2.6 0-6.6 0z" fill="#070606"/></g><path clip-path="url(#b)" clip-rule="evenodd" d="m1149 389.4c-12 0-13.8-3.5-13.8-3.5l-1.8-7.3h15.5v10.8z" fill="#a63609" fill-rule="evenodd"/><g clip-path="url(#b)"><path d="m1149.9 389.4h-.9c-12 0-13.8-3.5-13.8-3.5l-1.8-7.3c1.8 0 15.5-3.8 15.5-3.8zm-.9-10.8c-2.6 0-13.8 0-15.5 0 0 0 .7 3.4 1.8 7.3 0 0 1.8 3.5 13.8 3.5v-10.8z" fill="#070606"/></g><path clip-path="url(#b)" clip-rule="evenodd" d="m1149 378.6c-12 0-15.5 0-15.5 0s-2.9-7.6-1.1-7.6c1.1-3.6 16.6-3.6 16.6-3.6z" fill="#a63609" fill-rule="evenodd"/><g clip-path="url(#b)"><path d="m1149.9 378.6h-.9c-12 0-15.5 0-15.5 0s-2.9-7.6-1.1-7.6c1.1-3.6 15.7-3.6 15.7-3.6zm-16.4 0h15.5v-11.1c-3.8 0-15.5 0-16.6 3.6-1-.1 1.1 3.7 1.1 7.5z" fill="#070606"/></g><path clip-path="url(#b)" clip-rule="evenodd" d="m1149 374.8c-12-3.8-16.6-3.8-16.6-3.8s-1.8-7.4 0-7.4c1.1-3.6 16.6-3.6 16.6-3.6z" fill="#a63609" fill-rule="evenodd"/><g clip-path="url(#b)"><path d="m1149.9 374.8h-.9c-12 0-16.6-3.8-16.6-3.8s-1.8-7.4 0-7.4c1.1-3.6 15.7-3.6 15.7-3.6zm-17.5-3.8h16.6v-11c-3.8 0-15.5 3.6-15.5 3.6-2.1 0-1.1 7.4-1.1 7.4z" fill="#070606"/></g><path clip-path="url(#b)" clip-rule="evenodd" d="m1147 341.7s-11.8-11.1-11.8-18.5c0-3.6 5.4-11 7.2-14.5-2.5 0-10 10.9-10 14.5 0 7.3 11.1 18.5 11.1 18.5z" fill="#a63609" fill-rule="evenodd"/><g clip-path="url(#b)"><path d="m1143.5 345.3c-1.1-3.6-11.1-14.7-11.1-22.1 0-3.6 6.4-14.5 10-14.5l-1.8 3.5c-1.8 3.6-5.4 7.4-5.4 11 0 7.3 11.8 18.5 11.8 18.5zm-1.1-36.6c-2.5 0-10 10.9-10 14.5 0 7.3 10 18.5 10 18.5h4.6s-11.8-11.1-11.8-18.5c0-3.6 3.6-7.3 5.4-11 0 .1 1.1-3.5 1.8-3.5z" fill="#070606"/></g><path clip-path="url(#b)" clip-rule="evenodd" d="m1147 341.7s1.1-11.1 1.1-18.5c0-7.3-5.7-14.5-7.5-18.5-.7 3.9 4.6 11.1 4.6 18.5 0 7.3-1.7 18.5-1.7 18.5z" fill="#a63609" fill-rule="evenodd"/><g clip-path="url(#b)"><path d="m1142.4 345.3 1.1-3.6s1.7-11.1 1.7-18.5c0-3.6-2.8-7.3-3.5-14.5l-1.8-3.9c5.3 7.5 8.2 11.1 8.2 18.5 0 7.3-1.1 18.5-1.1 18.5zm-2.5-40.5c.7 0 .7 3.9.7 3.9 2.9 3.5 4.6 10.9 4.6 14.5 0 7.3-1.7 18.5-1.7 18.5h3.5s1.1-11.1 1.1-18.5c0-7.3-2.9-10.9-8.2-18.4z" fill="#070606"/></g><path clip-path="url(#b)" clip-rule="evenodd" d="m1149 367.4c-12 0-16.6-3.8-16.6-3.8l1.1-7.1h15.5z" fill="#a63609" fill-rule="evenodd"/><g clip-path="url(#b)"><path d="m1149.9 367.4h-.9c-12 0-16.6-3.8-16.6-3.8l1.1-7.1h15.5zm-17.5-3.8s4.6 0 16.6 3.8v-10.9c-2.6 0-13.8 0-15.5 0z" fill="#070606"/></g><path clip-path="url(#b)" clip-rule="evenodd" d="m1149 360c-12-3.6-15.5-3.6-15.5-3.6s0-7.4 1.8-11.1h13.8v14.7z" fill="#a63609" fill-rule="evenodd"/><g clip-path="url(#b)"><path d="m1149.9 360h-.9c-12 0-15.5-3.6-15.5-3.6s0-7.4 1.8-11.1h13.8zm-15.7-3.5h14.8v-11.1c-2.6 0-12 0-13.8 0-1 3.7-1 11.1-1 11.1z" fill="#070606"/></g><path clip-path="url(#b)" clip-rule="evenodd" d="m1113.2 444.6c4.5-7.4 5.6-25.9 5.6-29.4 0-7.4-2.8-47.8-2.8-66.1-.9-18.5 9.3-25.8 19.3-25.8 8.3 0 13.8 3.8 13.8 18.5h-3.8c0-11.1-3.5-14.7-10-14.7-8.3 0-14.7 7.4-15.6 22.1 0 18.3 1.8 58.6 1.8 69.6-1 11.2-3.9 22.2-8.3 25.8z" fill="#a63609" fill-rule="evenodd"/><g clip-path="url(#b)"><path d="m1114.1 444.6h-1.8c4.7-7.4 5.4-25.9 5.4-29.4s0-14.7-.7-25.7c-1-10.9-2-29.4-2-40.4 0-7.4 2.7-18.5 7.3-22.1 2.9-3.8 8.3-7.3 12.9-7.3 9.2 0 14.7 7.3 14.7 22h-4.7c0-11.1-3.5-14.7-10-14.7-9.3 0-14.7 7.4-14.7 22.1-.9 10.9 0 29.5 0 44 .9 11 1.8 18.6.9 25.6 0 7.4-2.7 18.5-7.3 25.9zm21.1-121.3c-4.7 0-9.3 0-12 3.8-4.5 3.5-7.3 14.7-7.3 22.1 0 10.9 1 29.5 1.7 40.4 1.1 11 2 22.3 2 25.7 0 0-2 14.8-4.6 25.8 3.7-7.3 5.5-14.9 5.5-22.3 0-7 0-14.7-.9-25.6 0-14.5 0-33 0-44 0-14.7 5.6-22.1 15.6-22.1 6.5 0 11.2 3.5 11.2 14.7l2.6-3.7c0-7.5-5.5-14.8-13.8-14.8z" fill="#f1c00f"/></g><path clip-path="url(#b)" clip-rule="evenodd" d="m1149 338c-8.4 0-13.8 7.3-13.8 7.3l3.6 3.8c1.8 3.6 10.2 3.6 10.2 0z" fill="#a63609" fill-rule="evenodd"/><g clip-path="url(#b)"><path d="m1149 352.7s-8.4 0-10.2-3.6l-3.6-3.8c1.8 0 6.5-7.3 13.8-7.3v11.1zm0-14.7c-6.6 0-12 7.3-13.8 7.3l3.6 3.8h10.2z" fill="#070606"/></g><path clip-path="url(#b)" clip-rule="evenodd" d="m0 0h725.5v367.4h-725.5z" fill="#0b0045" fill-rule="evenodd"/><path clip-path="url(#b)" d="m0 0v40.5l644.7 326.9h80.8v-44.1l-643.7-323.3zm725.5 0v40.5l-643.7 326.9h-81.8v-44.1l644.7-323.3z" fill="#fff"/><path clip-path="url(#b)" d="m302.1 367.4h122.4v-367.4h-122.4zm-302.1-125h725.5v-121.3h-725.5z" fill="#fff"/><g fill="#bc0000"><path clip-path="url(#b)" d="m0 220.5h725.5v-73.5h-725.5zm327.1 146.9h72.5v-367.4h-72.5z"/><path clip-path="url(#b)" d="m0 367.4 242.5-125h53.3l-241.7 125zm0-367.4 242.5 121.1h-54.2l-188.3-91.5zm430.7 121.1 241.7-121.1h53.2l-241.6 121.1zm294.8 246.3-241.5-125h54.1l187.4 92z"/></g></g></svg>