<svg enable-background="new 0 0 612 792" viewBox="0 0 612 792" xmlns="http://www.w3.org/2000/svg"><path d="m149.4 287.6h300v200.3h-300z" fill="#fff"/><path d="m149.4 287.6h300v200.3h-300z"/><g fill="#fff"><path d="m209.5 487.9 100-66.8h139.9v-13.3h-143.9l-120 80.1z"/><path d="m209.5 487.9 100-66.8h139.9v-13.3h-143.9l-120 80.1z"/><path d="m449.4 367.7h-143.9l-120-80.1h24l100 66.7h139.9z"/><path d="m449.4 367.7h-143.9l-120-80.1h24l100 66.7h139.9z"/></g><path d="m449.4 354.3v-66.7h-239.9l100 66.7z" fill="#ee3224"/><path d="m449.4 487.9v-66.8h-139.9l-100 66.8z" fill="#004b8d"/><path d="m149.4 463.8 114-76.1-114-76v16l89.9 60-89.9 60.1z" fill="#fdbb30"/><path d="m185.5 487.9 120-80.1h143.9v-40.1h-143.9l-120-80.1h-36.1v24.1l114 76-114 76.1v24.1z" fill="#00703c"/><path d="m149.4 287.6h300v200.3h-300z" fill="none" stroke="#231f20" stroke-miterlimit="2" stroke-width=".25"/></svg>