<svg enable-background="new 0 0 14.8950005 14.8950005" viewBox="0 0 14.8950005 14.8950005" xmlns="http://www.w3.org/2000/svg"><path d="m14.3652344 13.3036623-5.8566895-5.8562617 5.8557129-5.8561401c.2929688-.2929688.2929688-.7675781 0-1.0605469s-.7675781-.2929688-1.0605469 0l-5.8557739 5.8562011-5.8566284-5.8562014c-.2929688-.2929688-.7675781-.2929688-1.0605469 0s-.2929688.7675782 0 1.0605469l5.8566895 5.8562622-5.8566895 5.8571162c-.2929688.2929688-.2929688.7675781 0 1.0605469.1464844.1464844.3383789.2197266.5302734.2197266s.3837891-.0732422.5302734-.2197266l5.8567506-5.8571775 5.8566284 5.8562012c.1464844.1464844.3378906.2197266.5302734.2197266s.3837891-.0732422.5302734-.2197266c.2929688-.2929688.2929688-.7675781.0000001-1.0605469z" fill="#5a5a71"/></svg>