<svg enable-background="new 0 0 15.7790003 15.7799997" viewBox="0 0 15.7790003 15.7799997" xmlns="http://www.w3.org/2000/svg"><path d="m15.4267578 14.7196674-3.2418823-3.2418823c1.0552368-1.2180176 1.6989136-2.8017578 1.6989136-4.5359492 0-3.827637-3.1142578-6.9418945-6.9418945-6.9418945s-6.9418946 3.1142575-6.9418946 6.9418945 3.1142578 6.9418941 6.9418945 6.9418941c1.7341919 0 3.3179321-.6436768 4.5359497-1.6989136l3.2418823 3.2418823c.0976562.0976562.2255859.1464844.3535156.1464844s.2558594-.0488281.3535156-.1464844c.1953126-.1953125.1953126-.5117188.0000001-.7070313zm-14.4267578-7.7778315c0-3.2763674 2.6655273-5.9418945 5.9418945-5.9418945 3.2768555 0 5.9418945 2.6655273 5.9418945 5.9418945 0 3.276855-2.6650391 5.9418941-5.9418945 5.9418941-3.2763672-.0000001-5.9418945-2.6650391-5.9418945-5.9418941z" fill="#5a5a71"/></svg>